<svg width="118" height="118" viewBox="0 0 118 118" fill="none" xmlns="http://www.w3.org/2000/svg">
<rect x="1" y="2" width="115" height="114" rx="57" fill="white"/>
<rect x="1" y="2" width="115" height="114" rx="57" fill="#FAFBFC" fill-opacity="0.85"/>
<circle cx="59" cy="59" r="57.25" stroke="#2F5BE9" stroke-width="2.5" stroke-linecap="round"/>
<circle cx="59" cy="59" r="49" fill="#2F5BE9"/>
<path d="M39.6429 65.2856V68.4285H46.8494L36.5 78.7779L38.722 80.9999L49.0714 70.6505V77.8571H52.2143V65.2856H39.6429Z" fill="white"/>
<path d="M71.0713 66.8572H74.2141V74.7143H71.0713V66.8572Z" fill="white"/>
<path d="M64.7859 59H67.9287V74.7143H64.7859V59Z" fill="white"/>
<path d="M58.5 62.1428H61.6429V74.7143H58.5V62.1428Z" fill="white"/>
<path d="M77.3571 37H39.6429C38.8096 37.0008 38.0107 37.3322 37.4214 37.9214C36.8322 38.5107 36.5008 39.3096 36.5 40.1429V59H39.6429V54.2857H77.3587L77.3603 77.8571H58.5V81H77.3571C78.1903 80.9988 78.989 80.6672 79.5781 80.0781C80.1672 79.489 80.4988 78.6903 80.5 77.8571V40.1429C80.4992 39.3096 80.1678 38.5107 79.5786 37.9214C78.9893 37.3322 78.1904 37.0008 77.3571 37ZM52.2143 51.1429H39.6429V40.1429H52.2143V51.1429ZM55.3571 51.1429V40.1429H77.3571V51.1429H55.3571Z" fill="white"/>
</svg>
