<svg width="48" height="48" viewBox="0 0 48 48" fill="none" xmlns="http://www.w3.org/2000/svg">
<path d="M24 8.53125C13.5108 8.53125 5.71875 31.1425 5.71875 38.0625C5.71875 45.8491 12.1568 48 15.5625 48H32.4375C35.8433 48 42.2813 45.8491 42.2813 38.0625C42.2813 31.1425 34.4892 8.53125 24 8.53125Z" fill="url(#paint0_linear)"/>
<path d="M24 25.4062C24.7746 25.4062 25.4062 26.0366 25.4062 26.8125C25.4062 27.5898 26.0352 28.2188 26.8125 28.2188C27.5898 28.2188 28.2188 27.5898 28.2188 26.8125C28.2188 24.9816 27.0396 23.4352 25.4062 22.8528V21.1875C25.4062 20.4102 24.7773 19.7812 24 19.7812C23.2227 19.7812 22.5938 20.4102 22.5938 21.1875V22.8528C20.9604 23.4352 19.7812 24.9816 19.7812 26.8125C19.7812 29.1388 21.6737 31.0312 24 31.0312C24.7746 31.0312 25.4062 31.6616 25.4062 32.4375C25.4062 33.2134 24.7746 33.8438 24 33.8438C23.2254 33.8438 22.5938 33.2134 22.5938 32.4375C22.5938 31.6602 21.9648 31.0312 21.1875 31.0312C20.4102 31.0312 19.7812 31.6602 19.7812 32.4375C19.7812 34.2684 20.9604 35.8148 22.5938 36.3972V38.0625C22.5938 38.8398 23.2227 39.4688 24 39.4688C24.7773 39.4688 25.4062 38.8398 25.4062 38.0625V36.3972C27.0396 35.8148 28.2188 34.2684 28.2188 32.4375C28.2188 30.1112 26.3263 28.2188 24 28.2188C23.2254 28.2188 22.5938 27.5884 22.5938 26.8125C22.5938 26.0366 23.2254 25.4062 24 25.4062ZM32.4375 0H15.5625C14.7852 0 14.1562 0.628969 14.1562 1.40625C14.1562 6.83353 18.5727 11.3438 24 11.3438C29.4273 11.3438 33.8438 6.83353 33.8438 1.40625C33.8438 0.628969 33.2148 0 32.4375 0Z" fill="white"/>
<path d="M24 25.4062C24.7746 25.4062 25.4062 26.0366 25.4062 26.8125C25.4062 27.5898 26.0352 28.2188 26.8125 28.2188C27.5898 28.2188 28.2188 27.5898 28.2188 26.8125C28.2188 24.9816 27.0396 23.4352 25.4062 22.8528V21.1875C25.4062 20.4102 24.7773 19.7812 24 19.7812C23.2227 19.7812 22.5938 20.4102 22.5938 21.1875V22.8528C20.9604 23.4352 19.7812 24.9816 19.7812 26.8125C19.7812 29.1388 21.6737 31.0312 24 31.0312C24.7746 31.0312 25.4062 31.6616 25.4062 32.4375C25.4062 33.2134 24.7746 33.8438 24 33.8438C23.2254 33.8438 22.5938 33.2134 22.5938 32.4375C22.5938 31.6602 21.9648 31.0312 21.1875 31.0312C20.4102 31.0312 19.7812 31.6602 19.7812 32.4375C19.7812 34.2684 20.9604 35.8148 22.5938 36.3972V38.0625C22.5938 38.8398 23.2227 39.4688 24 39.4688C24.7773 39.4688 25.4062 38.8398 25.4062 38.0625V36.3972C27.0396 35.8148 28.2188 34.2684 28.2188 32.4375C28.2188 30.1112 26.3263 28.2188 24 28.2188C23.2254 28.2188 22.5938 27.5884 22.5938 26.8125C22.5938 26.0366 23.2254 25.4062 24 25.4062ZM32.4375 0H15.5625C14.7852 0 14.1562 0.628969 14.1562 1.40625C14.1562 6.83353 18.5727 11.3438 24 11.3438C29.4273 11.3438 33.8438 6.83353 33.8438 1.40625C33.8438 0.628969 33.2148 0 32.4375 0Z" fill="url(#paint1_linear)"/>
<defs>
<linearGradient id="paint0_linear" x1="24" y1="48" x2="10.7181" y2="15.899" gradientUnits="userSpaceOnUse">
<stop stop-color="#B88A35"/>
<stop offset="1" stop-color="#E6CB71"/>
</linearGradient>
<linearGradient id="paint1_linear" x1="5.34725" y1="19.9342" x2="35.3797" y2="34.9148" gradientUnits="userSpaceOnUse">
<stop stop-color="#FDE9B0"/>
<stop offset="1" stop-color="#FFF6DE"/>
</linearGradient>
</defs>
</svg>
