<svg width="48" height="48" viewBox="0 0 48 48" fill="none" xmlns="http://www.w3.org/2000/svg">
<path d="M24 48C37.2548 48 48 37.2548 48 24C48 10.7452 37.2548 0 24 0C10.7452 0 0 10.7452 0 24C0 37.2548 10.7452 48 24 48Z" fill="url(#paint0_linear)"/>
<path d="M26.8125 25.4062H21.1875V29.625C21.1875 30.1204 21.0861 30.5892 20.9285 31.0312H26.8125C28.3643 31.0312 29.625 29.7692 29.625 28.2188C29.625 26.6683 28.3643 25.4062 26.8125 25.4062ZM26.8125 16.9688H20.9458C21.1024 17.4082 21.1875 17.882 21.1875 18.375V22.5938H26.8125C28.3643 22.5938 29.625 21.3317 29.625 19.7812C29.625 18.2308 28.3643 16.9688 26.8125 16.9688ZM24 5.71875C13.92 5.71875 5.71875 13.92 5.71875 24C5.71875 34.08 13.92 42.2812 24 42.2812C34.08 42.2812 42.2813 34.08 42.2813 24C42.2813 13.92 34.08 5.71875 24 5.71875ZM32.4375 28.2188C32.4375 30.8325 30.6374 33.0152 28.2188 33.644V35.25C28.2188 36.0273 27.5898 36.6562 26.8125 36.6562C26.0352 36.6562 25.4063 36.0273 25.4063 35.25V33.8438H22.5938V35.25C22.5938 36.0273 21.9648 36.6562 21.1875 36.6562C20.4102 36.6562 19.7813 36.0273 19.7813 35.25V33.8438H16.9688C16.1915 33.8438 15.5625 33.2148 15.5625 32.4375C15.5625 31.6602 16.1915 31.0312 16.9688 31.0312C17.7433 31.0312 18.375 30.4009 18.375 29.625V18.375C18.375 17.5991 17.7433 16.9688 16.9688 16.9688C16.1915 16.9688 15.5625 16.3398 15.5625 15.5625C15.5625 14.7852 16.1915 14.1562 16.9688 14.1562H19.7813V12.75C19.7813 11.9727 20.4102 11.3438 21.1875 11.3438C21.9648 11.3438 22.5938 11.9727 22.5938 12.75V14.1562H25.4063V12.75C25.4063 11.9727 26.0352 11.3438 26.8125 11.3438C27.5898 11.3438 28.2188 11.9727 28.2188 12.75V14.356C30.6374 14.9848 32.4375 17.1675 32.4375 19.7812C32.4375 21.4694 31.6747 22.9683 30.4934 24C31.6747 25.0317 32.4375 26.5306 32.4375 28.2188Z" fill="white"/>
<path d="M26.8125 25.4062H21.1875V29.625C21.1875 30.1204 21.0861 30.5892 20.9285 31.0312H26.8125C28.3643 31.0312 29.625 29.7692 29.625 28.2188C29.625 26.6683 28.3643 25.4062 26.8125 25.4062ZM26.8125 16.9688H20.9458C21.1024 17.4082 21.1875 17.882 21.1875 18.375V22.5938H26.8125C28.3643 22.5938 29.625 21.3317 29.625 19.7812C29.625 18.2308 28.3643 16.9688 26.8125 16.9688ZM24 5.71875C13.92 5.71875 5.71875 13.92 5.71875 24C5.71875 34.08 13.92 42.2812 24 42.2812C34.08 42.2812 42.2813 34.08 42.2813 24C42.2813 13.92 34.08 5.71875 24 5.71875ZM32.4375 28.2188C32.4375 30.8325 30.6374 33.0152 28.2188 33.644V35.25C28.2188 36.0273 27.5898 36.6562 26.8125 36.6562C26.0352 36.6562 25.4063 36.0273 25.4063 35.25V33.8438H22.5938V35.25C22.5938 36.0273 21.9648 36.6562 21.1875 36.6562C20.4102 36.6562 19.7813 36.0273 19.7813 35.25V33.8438H16.9688C16.1915 33.8438 15.5625 33.2148 15.5625 32.4375C15.5625 31.6602 16.1915 31.0312 16.9688 31.0312C17.7433 31.0312 18.375 30.4009 18.375 29.625V18.375C18.375 17.5991 17.7433 16.9688 16.9688 16.9688C16.1915 16.9688 15.5625 16.3398 15.5625 15.5625C15.5625 14.7852 16.1915 14.1562 16.9688 14.1562H19.7813V12.75C19.7813 11.9727 20.4102 11.3438 21.1875 11.3438C21.9648 11.3438 22.5938 11.9727 22.5938 12.75V14.1562H25.4063V12.75C25.4063 11.9727 26.0352 11.3438 26.8125 11.3438C27.5898 11.3438 28.2188 11.9727 28.2188 12.75V14.356C30.6374 14.9848 32.4375 17.1675 32.4375 19.7812C32.4375 21.4694 31.6747 22.9683 30.4934 24C31.6747 25.0317 32.4375 26.5306 32.4375 28.2188Z" fill="url(#paint1_linear)"/>
<defs>
<linearGradient id="paint0_linear" x1="24" y1="48" x2="8.71972" y2="8.13371" gradientUnits="userSpaceOnUse">
<stop stop-color="#B88A35"/>
<stop offset="1" stop-color="#E6CB71"/>
</linearGradient>
<linearGradient id="paint1_linear" x1="-10.6408" y1="24.1852" x2="24.1851" y2="59.0111" gradientUnits="userSpaceOnUse">
<stop stop-color="#FFF3D1"/>
<stop offset="1" stop-color="#FFFEFB"/>
</linearGradient>
</defs>
</svg>
