<svg width="56" height="56" viewBox="0 0 56 56" fill="none" xmlns="http://www.w3.org/2000/svg">
<path d="M12.6 56C5.54531 56 0 50.4547 0 43.4V12.6C0 5.54528 5.5453 0 12.6 0H43.4C50.4547 0 56 5.54528 56 12.6V43.4C56 50.4547 50.4547 56 43.4 56H12.6Z" fill="url(#paint0_linear)"/>
<path d="M42.7001 49.7001H12.6001C8.71233 49.7001 5.6001 46.5879 5.6001 42.7001V12.6001C5.6001 8.65517 8.65512 5.6001 12.6001 5.6001H42.7001C46.5879 5.6001 49.7001 8.71233 49.7001 12.6001V42.7001C49.7001 46.5879 46.5879 49.7001 42.7001 49.7001Z" fill="url(#paint1_linear)"/>
<path d="M40.0566 26.0839C38.9819 22.3915 37.77 20.4837 37.7504 20.4495C37.6813 20.3652 35.9687 18.3157 31.8411 16.7998L31.2956 18.2848C33.2593 19.006 34.6524 19.8858 35.4186 20.4543C33.1312 19.7712 30.4101 19.3529 28 19.3529C25.5899 19.3529 22.8688 19.7712 20.5814 20.4543C21.3475 19.8859 22.7406 19.006 24.7043 18.2848L24.1589 16.7998C20.0313 18.3157 18.3187 20.3652 18.2496 20.4495C18.2301 20.4837 17.0181 22.3915 15.9434 26.0839C14.9077 29.6422 14.5143 34.6619 14.5 34.8632C14.5923 35.0075 16.7148 38.6314 22.4994 38.6314L23.9657 36.5082C22.323 36.0721 20.7566 35.3687 19.3228 34.4142L20.1994 33.0973C22.5126 34.637 25.21 35.4509 28 35.4509C30.79 35.4509 33.4874 34.637 35.8006 33.0973L36.6772 34.4142C35.2434 35.3687 33.677 36.0721 32.0343 36.5082L33.5006 38.6314C39.2852 38.6314 41.4077 35.0075 41.5 34.8632C41.4857 34.6619 41.0923 29.6422 40.0566 26.0839ZM24.3424 30.2226H22.7604V27.5859H24.3424V30.2226ZM33.2396 30.2226H31.6576V27.5859H33.2396V30.2226Z" fill="#5C6BC0"/>
<defs>
<linearGradient id="paint0_linear" x1="38.6721" y1="53.6672" x2="18.5339" y2="5.23315" gradientUnits="userSpaceOnUse">
<stop stop-color="#EEF2F5"/>
<stop offset="0.50556" stop-color="#FAFBFC"/>
<stop offset="1" stop-color="white"/>
</linearGradient>
<linearGradient id="paint1_linear" x1="22.8267" y1="3.80813" x2="32.084" y2="49.5671" gradientUnits="userSpaceOnUse">
<stop stop-color="#EEF2F5"/>
<stop offset="0.3995" stop-color="#F7F9FA"/>
<stop offset="1" stop-color="white"/>
</linearGradient>
</defs>
</svg>
