<svg width="17" height="18" viewBox="0 0 17 18" fill="none" xmlns="http://www.w3.org/2000/svg">
<path d="M8.49986 0.5C3.80558 0.5 0 4.30564 0 8.99992C0 13.694 3.80553 17.5 8.49975 17.5C13.194 17.5 16.9999 13.694 16.9999 8.99992C16.9999 4.30564 13.194 0.5 8.49986 0.5ZM11.7063 12.2396C11.3669 12.5787 10.8171 12.5787 10.478 12.2396L8.54389 10.3054L6.5217 12.3276C6.1825 12.6667 5.63267 12.6667 5.29363 12.3276C4.95426 11.9881 4.95426 11.4385 5.29363 11.0991L7.31565 9.07709L5.43298 7.19453C5.09389 6.85505 5.09389 6.30539 5.43298 5.96613C5.77218 5.62692 6.32212 5.62692 6.66138 5.96613L8.54394 7.84869L10.3386 6.0539C10.6778 5.71481 11.2279 5.7147 11.5669 6.0539C11.9062 6.39339 11.9062 6.94339 11.5669 7.28231L9.77235 9.07698L11.7064 11.0111C12.0455 11.3501 12.0456 11.9003 11.7063 12.2396Z" fill="#F48989"/>
</svg>
