<svg width="17" height="17" viewBox="0 0 17 17" fill="none" xmlns="http://www.w3.org/2000/svg">
<path d="M8.5 0C3.80558 0 0 3.80558 0 8.5C0 13.1944 3.80558 17 8.5 17C13.1944 17 17 13.1944 17 8.5C16.9945 3.80785 13.1922 0.00546462 8.5 0Z" fill="#95D8BB"/>
<path d="M13.4063 5.8084L8.55776 12.3881C8.44213 12.5415 8.2697 12.6421 8.07922 12.6671C7.88875 12.6921 7.6962 12.6396 7.54484 12.5213L4.08251 9.75311C3.77698 9.50861 3.72751 9.06272 3.97201 8.7572C4.21651 8.45167 4.6624 8.40219 4.96793 8.6467L7.85509 10.9566L12.2659 4.97045C12.4105 4.75341 12.6627 4.63341 12.9224 4.6581C13.182 4.68279 13.4071 4.84817 13.5082 5.08858C13.6094 5.32899 13.5702 5.60553 13.4063 5.8084Z" fill="#2F5BE9"/>
</svg>
