<svg width="13" height="13" viewBox="0 0 13 13" fill="none" xmlns="http://www.w3.org/2000/svg">
<path fill-rule="evenodd" clip-rule="evenodd" d="M12.1931 2.15769C12.5415 1.81018 12.5415 1.24527 12.1931 0.897769C11.8456 0.549376 11.2816 0.549376 10.9332 0.897769L6.54577 5.2852L2.15744 0.897769C1.80994 0.549376 1.24503 0.549376 0.897525 0.897769C0.549132 1.24527 0.549132 1.81018 0.897525 2.15769L5.28496 6.54601L0.897525 10.9334C0.549132 11.2818 0.549132 11.8459 0.897525 12.1934C1.24503 12.5418 1.80994 12.5418 2.15744 12.1934L6.54577 7.80593L10.9332 12.1934C11.2816 12.5418 11.8456 12.5418 12.1931 12.1934C12.5415 11.8459 12.5415 11.2818 12.1931 10.9334L7.80568 6.54601L12.1931 2.15769Z" fill="#2E3140"/>
</svg>
