<svg width="56" height="56" viewBox="0 0 56 56" fill="none" xmlns="http://www.w3.org/2000/svg">
<path d="M12.6 56C5.54529 56 0 50.4547 0 43.4V12.6C0 5.54529 5.54529 0 12.6 0H43.4C50.4547 0 56 5.54529 56 12.6V43.4C56 50.4547 50.4547 56 43.4 56H12.6Z" fill="url(#paint0_linear)"/>
<path d="M43.926 51.3332H12.0742C7.96011 51.3332 4.66675 48.0398 4.66675 43.9258V12.0739C4.66675 7.8994 7.89957 4.6665 12.0742 4.6665H43.926C48.0401 4.6665 51.3334 7.95987 51.3334 12.0739V43.9258C51.3334 48.0398 48.0401 51.3332 43.926 51.3332Z" fill="url(#paint1_linear)"/>
<path d="M33.4366 29.059L34.0666 24.6616H29.6566V21.5205C29.6566 20.6391 30.0414 19.6359 30.9166 19.6359H34.0666V15.8667H30.2866C27.5328 15.8667 25.2466 18.1186 25.2466 20.8923V24.6616H21.4666V29.059H25.2466V40.3667H29.6566V29.059H33.4366Z" fill="#2554A2"/>
<defs>
<linearGradient id="paint0_linear" x1="38.6721" y1="53.6672" x2="18.5339" y2="5.23315" gradientUnits="userSpaceOnUse">
<stop stop-color="#E6F2FB"/>
<stop offset="0.50556" stop-color="#FAFBFC"/>
<stop offset="1" stop-color="white"/>
</linearGradient>
<linearGradient id="paint1_linear" x1="22.896" y1="2.77025" x2="32.6921" y2="51.1924" gradientUnits="userSpaceOnUse">
<stop stop-color="#EEF2F5"/>
<stop offset="0.3995" stop-color="white"/>
<stop offset="1" stop-color="white"/>
</linearGradient>
</defs>
</svg>
