<svg width="1540" height="720" viewBox="0 0 1540 720" fill="none" xmlns="http://www.w3.org/2000/svg">
<rect width="1540" height="720" fill="#2F5BE9"/>
<g opacity="0.25">
<path fill-rule="evenodd" clip-rule="evenodd" d="M207.994 334.998C207.994 336.102 207.1 336.996 205.996 336.996C204.894 336.996 204 336.102 204 334.998C204 333.894 204.894 333 205.996 333C207.1 333 207.994 333.894 207.994 334.998Z" fill="white"/>
<path fill-rule="evenodd" clip-rule="evenodd" d="M222.296 334.998C222.296 336.102 221.402 336.996 220.299 336.996C219.196 336.996 218.302 336.102 218.302 334.998C218.302 333.894 219.196 333 220.299 333C221.402 333 222.296 333.894 222.296 334.998Z" fill="white"/>
<path fill-rule="evenodd" clip-rule="evenodd" d="M235.406 334.998C235.406 336.102 234.512 336.996 233.409 336.996C232.306 336.996 231.412 336.102 231.412 334.998C231.412 333.894 232.306 333 233.409 333C234.512 333 235.406 333.894 235.406 334.998Z" fill="white"/>
<path fill-rule="evenodd" clip-rule="evenodd" d="M249.708 334.998C249.708 336.102 248.814 336.996 247.71 336.996C246.607 336.996 245.714 336.102 245.714 334.998C245.714 333.894 246.607 333 247.71 333C248.814 333 249.708 333.894 249.708 334.998Z" fill="white"/>
<path fill-rule="evenodd" clip-rule="evenodd" d="M262.819 334.998C262.819 336.102 261.925 336.996 260.821 336.996C259.718 336.996 258.824 336.102 258.824 334.998C258.824 333.894 259.718 333 260.821 333C261.925 333 262.819 333.894 262.819 334.998Z" fill="white"/>
<path fill-rule="evenodd" clip-rule="evenodd" d="M207.994 348.149C207.994 349.253 207.1 350.148 205.996 350.148C204.894 350.148 204 349.253 204 348.149C204 347.046 204.894 346.151 205.996 346.151C207.1 346.151 207.994 347.046 207.994 348.149Z" fill="white"/>
<path fill-rule="evenodd" clip-rule="evenodd" d="M222.296 348.149C222.296 349.253 221.402 350.148 220.299 350.148C219.196 350.148 218.302 349.253 218.302 348.149C218.302 347.046 219.196 346.151 220.299 346.151C221.402 346.151 222.296 347.046 222.296 348.149Z" fill="white"/>
<path fill-rule="evenodd" clip-rule="evenodd" d="M235.406 348.149C235.406 349.253 234.512 350.148 233.409 350.148C232.306 350.148 231.412 349.253 231.412 348.149C231.412 347.046 232.306 346.151 233.409 346.151C234.512 346.151 235.406 347.046 235.406 348.149Z" fill="white"/>
<path fill-rule="evenodd" clip-rule="evenodd" d="M249.708 348.149C249.708 349.253 248.814 350.148 247.71 350.148C246.607 350.148 245.714 349.253 245.714 348.149C245.714 347.046 246.607 346.151 247.71 346.151C248.814 346.151 249.708 347.046 249.708 348.149Z" fill="white"/>
<path fill-rule="evenodd" clip-rule="evenodd" d="M262.819 348.149C262.819 349.253 261.925 350.148 260.821 350.148C259.718 350.148 258.824 349.253 258.824 348.149C258.824 347.046 259.718 346.151 260.821 346.151C261.925 346.151 262.819 347.046 262.819 348.149Z" fill="white"/>
<path fill-rule="evenodd" clip-rule="evenodd" d="M207.994 362.496C207.994 363.599 207.1 364.494 205.996 364.494C204.894 364.494 204 363.599 204 362.496C204 361.393 204.894 360.498 205.996 360.498C207.1 360.498 207.994 361.393 207.994 362.496Z" fill="white"/>
<path fill-rule="evenodd" clip-rule="evenodd" d="M222.296 362.496C222.296 363.599 221.402 364.494 220.299 364.494C219.196 364.494 218.302 363.599 218.302 362.496C218.302 361.393 219.196 360.498 220.299 360.498C221.402 360.498 222.296 361.393 222.296 362.496Z" fill="white"/>
<path fill-rule="evenodd" clip-rule="evenodd" d="M235.406 362.496C235.406 363.599 234.512 364.494 233.409 364.494C232.306 364.494 231.412 363.599 231.412 362.496C231.412 361.393 232.306 360.498 233.409 360.498C234.512 360.498 235.406 361.393 235.406 362.496Z" fill="white"/>
<path fill-rule="evenodd" clip-rule="evenodd" d="M249.708 362.496C249.708 363.599 248.814 364.494 247.71 364.494C246.607 364.494 245.714 363.599 245.714 362.496C245.714 361.393 246.607 360.498 247.71 360.498C248.814 360.498 249.708 361.393 249.708 362.496Z" fill="white"/>
<path fill-rule="evenodd" clip-rule="evenodd" d="M262.819 362.496C262.819 363.599 261.925 364.494 260.821 364.494C259.718 364.494 258.824 363.599 258.824 362.496C258.824 361.393 259.718 360.498 260.821 360.498C261.925 360.498 262.819 361.393 262.819 362.496Z" fill="white"/>
<path fill-rule="evenodd" clip-rule="evenodd" d="M207.994 375.647C207.994 376.751 207.1 377.646 205.996 377.646C204.894 377.646 204 376.751 204 375.647C204 374.544 204.894 373.649 205.996 373.649C207.1 373.649 207.994 374.544 207.994 375.647Z" fill="white"/>
<path fill-rule="evenodd" clip-rule="evenodd" d="M222.296 375.647C222.296 376.751 221.402 377.646 220.299 377.646C219.196 377.646 218.302 376.751 218.302 375.647C218.302 374.544 219.196 373.649 220.299 373.649C221.402 373.649 222.296 374.544 222.296 375.647Z" fill="white"/>
<path fill-rule="evenodd" clip-rule="evenodd" d="M235.406 375.647C235.406 376.751 234.512 377.646 233.409 377.646C232.306 377.646 231.412 376.751 231.412 375.647C231.412 374.544 232.306 373.649 233.409 373.649C234.512 373.649 235.406 374.544 235.406 375.647Z" fill="white"/>
<path fill-rule="evenodd" clip-rule="evenodd" d="M249.708 375.647C249.708 376.751 248.814 377.646 247.71 377.646C246.607 377.646 245.714 376.751 245.714 375.647C245.714 374.544 246.607 373.649 247.71 373.649C248.814 373.649 249.708 374.544 249.708 375.647Z" fill="white"/>
<path fill-rule="evenodd" clip-rule="evenodd" d="M262.819 375.647C262.819 376.751 261.925 377.646 260.821 377.646C259.718 377.646 258.824 376.751 258.824 375.647C258.824 374.544 259.718 373.649 260.821 373.649C261.925 373.649 262.819 374.544 262.819 375.647Z" fill="white"/>
<path fill-rule="evenodd" clip-rule="evenodd" d="M207.994 389.994C207.994 391.097 207.1 391.992 205.996 391.992C204.894 391.992 204 391.097 204 389.994C204 388.891 204.894 387.996 205.996 387.996C207.1 387.996 207.994 388.891 207.994 389.994Z" fill="white"/>
<path fill-rule="evenodd" clip-rule="evenodd" d="M222.296 389.994C222.296 391.097 221.402 391.992 220.299 391.992C219.196 391.992 218.302 391.097 218.302 389.994C218.302 388.891 219.196 387.996 220.299 387.996C221.402 387.996 222.296 388.891 222.296 389.994Z" fill="white"/>
<path fill-rule="evenodd" clip-rule="evenodd" d="M235.406 389.994C235.406 391.097 234.512 391.992 233.409 391.992C232.306 391.992 231.412 391.097 231.412 389.994C231.412 388.891 232.306 387.996 233.409 387.996C234.512 387.996 235.406 388.891 235.406 389.994Z" fill="white"/>
<path fill-rule="evenodd" clip-rule="evenodd" d="M249.708 389.994C249.708 391.097 248.814 391.992 247.71 391.992C246.607 391.992 245.714 391.097 245.714 389.994C245.714 388.891 246.607 387.996 247.71 387.996C248.814 387.996 249.708 388.891 249.708 389.994Z" fill="white"/>
<path fill-rule="evenodd" clip-rule="evenodd" d="M262.819 389.994C262.819 391.097 261.925 391.992 260.821 391.992C259.718 391.992 258.824 391.097 258.824 389.994C258.824 388.891 259.718 387.996 260.821 387.996C261.925 387.996 262.819 388.891 262.819 389.994Z" fill="white"/>
<path fill-rule="evenodd" clip-rule="evenodd" d="M207.994 403.145C207.994 404.249 207.1 405.143 205.996 405.143C204.894 405.143 204 404.249 204 403.145C204 402.041 204.894 401.147 205.996 401.147C207.1 401.147 207.994 402.041 207.994 403.145Z" fill="white"/>
<path fill-rule="evenodd" clip-rule="evenodd" d="M222.296 403.145C222.296 404.249 221.402 405.143 220.299 405.143C219.196 405.143 218.302 404.249 218.302 403.145C218.302 402.041 219.196 401.147 220.299 401.147C221.402 401.147 222.296 402.041 222.296 403.145Z" fill="white"/>
<path fill-rule="evenodd" clip-rule="evenodd" d="M235.406 403.145C235.406 404.249 234.512 405.143 233.409 405.143C232.306 405.143 231.412 404.249 231.412 403.145C231.412 402.041 232.306 401.147 233.409 401.147C234.512 401.147 235.406 402.041 235.406 403.145Z" fill="white"/>
<path fill-rule="evenodd" clip-rule="evenodd" d="M249.708 403.145C249.708 404.249 248.814 405.143 247.71 405.143C246.607 405.143 245.714 404.249 245.714 403.145C245.714 402.041 246.607 401.147 247.71 401.147C248.814 401.147 249.708 402.041 249.708 403.145Z" fill="white"/>
<path fill-rule="evenodd" clip-rule="evenodd" d="M262.819 403.145C262.819 404.249 261.925 405.143 260.821 405.143C259.718 405.143 258.824 404.249 258.824 403.145C258.824 402.041 259.718 401.147 260.821 401.147C261.925 401.147 262.819 402.041 262.819 403.145Z" fill="white"/>
<path fill-rule="evenodd" clip-rule="evenodd" d="M277.121 334.998C277.121 336.102 276.227 336.996 275.123 336.996C274.02 336.996 273.126 336.102 273.126 334.998C273.126 333.894 274.02 333 275.123 333C276.227 333 277.121 333.894 277.121 334.998Z" fill="white"/>
<path fill-rule="evenodd" clip-rule="evenodd" d="M277.121 348.149C277.121 349.253 276.227 350.148 275.123 350.148C274.02 350.148 273.126 349.253 273.126 348.149C273.126 347.046 274.02 346.151 275.123 346.151C276.227 346.151 277.121 347.046 277.121 348.149Z" fill="white"/>
<path fill-rule="evenodd" clip-rule="evenodd" d="M277.121 362.496C277.121 363.599 276.227 364.494 275.123 364.494C274.02 364.494 273.126 363.599 273.126 362.496C273.126 361.393 274.02 360.498 275.123 360.498C276.227 360.498 277.121 361.393 277.121 362.496Z" fill="white"/>
<path fill-rule="evenodd" clip-rule="evenodd" d="M277.121 375.647C277.121 376.751 276.227 377.646 275.123 377.646C274.02 377.646 273.126 376.751 273.126 375.647C273.126 374.544 274.02 373.649 275.123 373.649C276.227 373.649 277.121 374.544 277.121 375.647Z" fill="white"/>
<path fill-rule="evenodd" clip-rule="evenodd" d="M277.121 389.994C277.121 391.097 276.227 391.992 275.123 391.992C274.02 391.992 273.126 391.097 273.126 389.994C273.126 388.891 274.02 387.996 275.123 387.996C276.227 387.996 277.121 388.891 277.121 389.994Z" fill="white"/>
<path fill-rule="evenodd" clip-rule="evenodd" d="M277.121 403.145C277.121 404.249 276.227 405.143 275.123 405.143C274.02 405.143 273.126 404.249 273.126 403.145C273.126 402.041 274.02 401.147 275.123 401.147C276.227 401.147 277.121 402.041 277.121 403.145Z" fill="white"/>
<path fill-rule="evenodd" clip-rule="evenodd" d="M207.994 414.921C207.994 416.025 207.1 416.919 205.996 416.919C204.894 416.919 204 416.025 204 414.921C204 413.817 204.894 412.923 205.996 412.923C207.1 412.923 207.994 413.817 207.994 414.921Z" fill="white"/>
<path fill-rule="evenodd" clip-rule="evenodd" d="M222.296 414.921C222.296 416.025 221.402 416.919 220.299 416.919C219.196 416.919 218.302 416.025 218.302 414.921C218.302 413.817 219.196 412.923 220.299 412.923C221.402 412.923 222.296 413.817 222.296 414.921Z" fill="white"/>
<path fill-rule="evenodd" clip-rule="evenodd" d="M235.406 414.921C235.406 416.025 234.512 416.919 233.409 416.919C232.306 416.919 231.412 416.025 231.412 414.921C231.412 413.817 232.306 412.923 233.409 412.923C234.512 412.923 235.406 413.817 235.406 414.921Z" fill="white"/>
<path fill-rule="evenodd" clip-rule="evenodd" d="M249.708 414.921C249.708 416.025 248.814 416.919 247.71 416.919C246.607 416.919 245.714 416.025 245.714 414.921C245.714 413.817 246.607 412.923 247.71 412.923C248.814 412.923 249.708 413.817 249.708 414.921Z" fill="white"/>
<path fill-rule="evenodd" clip-rule="evenodd" d="M262.819 414.921C262.819 416.025 261.925 416.919 260.821 416.919C259.718 416.919 258.824 416.025 258.824 414.921C258.824 413.817 259.718 412.923 260.821 412.923C261.925 412.923 262.819 413.817 262.819 414.921Z" fill="white"/>
<path fill-rule="evenodd" clip-rule="evenodd" d="M207.994 428.252C207.994 429.356 207.1 430.251 205.996 430.251C204.894 430.251 204 429.356 204 428.252C204 427.149 204.894 426.254 205.996 426.254C207.1 426.254 207.994 427.149 207.994 428.252Z" fill="white"/>
<path fill-rule="evenodd" clip-rule="evenodd" d="M222.296 428.252C222.296 429.356 221.402 430.251 220.299 430.251C219.196 430.251 218.302 429.356 218.302 428.252C218.302 427.149 219.196 426.254 220.299 426.254C221.402 426.254 222.296 427.149 222.296 428.252Z" fill="white"/>
<path fill-rule="evenodd" clip-rule="evenodd" d="M235.406 428.252C235.406 429.356 234.512 430.251 233.409 430.251C232.306 430.251 231.412 429.356 231.412 428.252C231.412 427.149 232.306 426.254 233.409 426.254C234.512 426.254 235.406 427.149 235.406 428.252Z" fill="white"/>
<path fill-rule="evenodd" clip-rule="evenodd" d="M249.708 428.252C249.708 429.356 248.814 430.251 247.71 430.251C246.607 430.251 245.714 429.356 245.714 428.252C245.714 427.149 246.607 426.254 247.71 426.254C248.814 426.254 249.708 427.149 249.708 428.252Z" fill="white"/>
<path fill-rule="evenodd" clip-rule="evenodd" d="M262.819 428.252C262.819 429.356 261.925 430.251 260.821 430.251C259.718 430.251 258.824 429.356 258.824 428.252C258.824 427.149 259.718 426.254 260.821 426.254C261.925 426.254 262.819 427.149 262.819 428.252Z" fill="white"/>
<path fill-rule="evenodd" clip-rule="evenodd" d="M207.994 442.796C207.994 443.899 207.1 444.794 205.996 444.794C204.894 444.794 204 443.899 204 442.796C204 441.692 204.894 440.797 205.996 440.797C207.1 440.797 207.994 441.692 207.994 442.796Z" fill="white"/>
<path fill-rule="evenodd" clip-rule="evenodd" d="M222.296 442.796C222.296 443.899 221.402 444.794 220.299 444.794C219.196 444.794 218.302 443.899 218.302 442.796C218.302 441.692 219.196 440.797 220.299 440.797C221.402 440.797 222.296 441.692 222.296 442.796Z" fill="white"/>
<path fill-rule="evenodd" clip-rule="evenodd" d="M235.406 442.796C235.406 443.899 234.512 444.794 233.409 444.794C232.306 444.794 231.412 443.899 231.412 442.796C231.412 441.692 232.306 440.797 233.409 440.797C234.512 440.797 235.406 441.692 235.406 442.796Z" fill="white"/>
<path fill-rule="evenodd" clip-rule="evenodd" d="M249.708 442.796C249.708 443.899 248.814 444.794 247.71 444.794C246.607 444.794 245.714 443.899 245.714 442.796C245.714 441.692 246.607 440.797 247.71 440.797C248.814 440.797 249.708 441.692 249.708 442.796Z" fill="white"/>
<path fill-rule="evenodd" clip-rule="evenodd" d="M262.819 442.796C262.819 443.899 261.925 444.794 260.821 444.794C259.718 444.794 258.824 443.899 258.824 442.796C258.824 441.692 259.718 440.797 260.821 440.797C261.925 440.797 262.819 441.692 262.819 442.796Z" fill="white"/>
<path fill-rule="evenodd" clip-rule="evenodd" d="M207.994 456.127C207.994 457.23 207.1 458.125 205.996 458.125C204.894 458.125 204 457.23 204 456.127C204 455.024 204.894 454.129 205.996 454.129C207.1 454.129 207.994 455.024 207.994 456.127Z" fill="white"/>
<path fill-rule="evenodd" clip-rule="evenodd" d="M222.296 456.127C222.296 457.23 221.402 458.125 220.299 458.125C219.196 458.125 218.302 457.23 218.302 456.127C218.302 455.024 219.196 454.129 220.299 454.129C221.402 454.129 222.296 455.024 222.296 456.127Z" fill="white"/>
<path fill-rule="evenodd" clip-rule="evenodd" d="M235.406 456.127C235.406 457.23 234.512 458.125 233.409 458.125C232.306 458.125 231.412 457.23 231.412 456.127C231.412 455.024 232.306 454.129 233.409 454.129C234.512 454.129 235.406 455.024 235.406 456.127Z" fill="white"/>
<path fill-rule="evenodd" clip-rule="evenodd" d="M249.708 456.127C249.708 457.23 248.814 458.125 247.71 458.125C246.607 458.125 245.714 457.23 245.714 456.127C245.714 455.024 246.607 454.129 247.71 454.129C248.814 454.129 249.708 455.024 249.708 456.127Z" fill="white"/>
<path fill-rule="evenodd" clip-rule="evenodd" d="M262.819 456.127C262.819 457.23 261.925 458.125 260.821 458.125C259.718 458.125 258.824 457.23 258.824 456.127C258.824 455.024 259.718 454.129 260.821 454.129C261.925 454.129 262.819 455.024 262.819 456.127Z" fill="white"/>
<path fill-rule="evenodd" clip-rule="evenodd" d="M207.994 470.67C207.994 471.774 207.1 472.669 205.996 472.669C204.894 472.669 204 471.774 204 470.67C204 469.567 204.894 468.672 205.996 468.672C207.1 468.672 207.994 469.567 207.994 470.67Z" fill="white"/>
<path fill-rule="evenodd" clip-rule="evenodd" d="M222.296 470.67C222.296 471.774 221.402 472.669 220.299 472.669C219.196 472.669 218.302 471.774 218.302 470.67C218.302 469.567 219.196 468.672 220.299 468.672C221.402 468.672 222.296 469.567 222.296 470.67Z" fill="white"/>
<path fill-rule="evenodd" clip-rule="evenodd" d="M235.406 470.67C235.406 471.774 234.512 472.669 233.409 472.669C232.306 472.669 231.412 471.774 231.412 470.67C231.412 469.567 232.306 468.672 233.409 468.672C234.512 468.672 235.406 469.567 235.406 470.67Z" fill="white"/>
<path fill-rule="evenodd" clip-rule="evenodd" d="M249.708 470.67C249.708 471.774 248.814 472.669 247.71 472.669C246.607 472.669 245.714 471.774 245.714 470.67C245.714 469.567 246.607 468.672 247.71 468.672C248.814 468.672 249.708 469.567 249.708 470.67Z" fill="white"/>
<path fill-rule="evenodd" clip-rule="evenodd" d="M262.819 470.67C262.819 471.774 261.925 472.669 260.821 472.669C259.718 472.669 258.824 471.774 258.824 470.67C258.824 469.567 259.718 468.672 260.821 468.672C261.925 468.672 262.819 469.567 262.819 470.67Z" fill="white"/>
<path fill-rule="evenodd" clip-rule="evenodd" d="M207.994 484.002C207.994 485.106 207.1 486 205.996 486C204.894 486 204 485.106 204 484.002C204 482.898 204.894 482.004 205.996 482.004C207.1 482.004 207.994 482.898 207.994 484.002Z" fill="white"/>
<path fill-rule="evenodd" clip-rule="evenodd" d="M222.296 484.002C222.296 485.106 221.402 486 220.299 486C219.196 486 218.302 485.106 218.302 484.002C218.302 482.898 219.196 482.004 220.299 482.004C221.402 482.004 222.296 482.898 222.296 484.002Z" fill="white"/>
<path fill-rule="evenodd" clip-rule="evenodd" d="M235.406 484.002C235.406 485.106 234.512 486 233.409 486C232.306 486 231.412 485.106 231.412 484.002C231.412 482.898 232.306 482.004 233.409 482.004C234.512 482.004 235.406 482.898 235.406 484.002Z" fill="white"/>
<path fill-rule="evenodd" clip-rule="evenodd" d="M249.708 484.002C249.708 485.106 248.814 486 247.71 486C246.607 486 245.714 485.106 245.714 484.002C245.714 482.898 246.607 482.004 247.71 482.004C248.814 482.004 249.708 482.898 249.708 484.002Z" fill="white"/>
<path fill-rule="evenodd" clip-rule="evenodd" d="M262.819 484.002C262.819 485.106 261.925 486 260.821 486C259.718 486 258.824 485.106 258.824 484.002C258.824 482.898 259.718 482.004 260.821 482.004C261.925 482.004 262.819 482.898 262.819 484.002Z" fill="white"/>
<path fill-rule="evenodd" clip-rule="evenodd" d="M277.121 414.921C277.121 416.025 276.227 416.919 275.123 416.919C274.02 416.919 273.126 416.025 273.126 414.921C273.126 413.817 274.02 412.923 275.123 412.923C276.227 412.923 277.121 413.817 277.121 414.921Z" fill="white"/>
<path fill-rule="evenodd" clip-rule="evenodd" d="M277.121 428.252C277.121 429.356 276.227 430.251 275.123 430.251C274.02 430.251 273.126 429.356 273.126 428.252C273.126 427.149 274.02 426.254 275.123 426.254C276.227 426.254 277.121 427.149 277.121 428.252Z" fill="white"/>
<path fill-rule="evenodd" clip-rule="evenodd" d="M277.121 442.796C277.121 443.899 276.227 444.794 275.123 444.794C274.02 444.794 273.126 443.899 273.126 442.796C273.126 441.692 274.02 440.797 275.123 440.797C276.227 440.797 277.121 441.692 277.121 442.796Z" fill="white"/>
<path fill-rule="evenodd" clip-rule="evenodd" d="M277.121 456.127C277.121 457.23 276.227 458.125 275.123 458.125C274.02 458.125 273.126 457.23 273.126 456.127C273.126 455.024 274.02 454.129 275.123 454.129C276.227 454.129 277.121 455.024 277.121 456.127Z" fill="white"/>
<path fill-rule="evenodd" clip-rule="evenodd" d="M277.121 470.67C277.121 471.774 276.227 472.669 275.123 472.669C274.02 472.669 273.126 471.774 273.126 470.67C273.126 469.567 274.02 468.672 275.123 468.672C276.227 468.672 277.121 469.567 277.121 470.67Z" fill="white"/>
<path fill-rule="evenodd" clip-rule="evenodd" d="M277.121 484.002C277.121 485.106 276.227 486 275.123 486C274.02 486 273.126 485.106 273.126 484.002C273.126 482.898 274.02 482.004 275.123 482.004C276.227 482.004 277.121 482.898 277.121 484.002Z" fill="white"/>
<path fill-rule="evenodd" clip-rule="evenodd" d="M291.874 334.998C291.874 336.102 290.98 336.996 289.876 336.996C288.773 336.996 287.879 336.102 287.879 334.998C287.879 333.894 288.773 333 289.876 333C290.98 333 291.874 333.894 291.874 334.998Z" fill="white"/>
<path fill-rule="evenodd" clip-rule="evenodd" d="M306.176 334.998C306.176 336.102 305.282 336.996 304.178 336.996C303.075 336.996 302.181 336.102 302.181 334.998C302.181 333.894 303.075 333 304.178 333C305.282 333 306.176 333.894 306.176 334.998Z" fill="white"/>
<path fill-rule="evenodd" clip-rule="evenodd" d="M319.286 334.998C319.286 336.102 318.392 336.996 317.289 336.996C316.185 336.996 315.292 336.102 315.292 334.998C315.292 333.894 316.185 333 317.289 333C318.392 333 319.286 333.894 319.286 334.998Z" fill="white"/>
<path fill-rule="evenodd" clip-rule="evenodd" d="M333.588 334.998C333.588 336.102 332.694 336.996 331.59 336.996C330.487 336.996 329.594 336.102 329.594 334.998C329.594 333.894 330.487 333 331.59 333C332.694 333 333.588 333.894 333.588 334.998Z" fill="white"/>
<path fill-rule="evenodd" clip-rule="evenodd" d="M346.698 334.998C346.698 336.102 345.805 336.996 344.701 336.996C343.598 336.996 342.704 336.102 342.704 334.998C342.704 333.894 343.598 333 344.701 333C345.805 333 346.698 333.894 346.698 334.998Z" fill="white"/>
<path fill-rule="evenodd" clip-rule="evenodd" d="M291.874 348.33C291.874 349.433 290.98 350.328 289.876 350.328C288.773 350.328 287.879 349.433 287.879 348.33C287.879 347.226 288.773 346.332 289.876 346.332C290.98 346.332 291.874 347.226 291.874 348.33Z" fill="white"/>
<path fill-rule="evenodd" clip-rule="evenodd" d="M306.176 348.33C306.176 349.433 305.282 350.328 304.178 350.328C303.075 350.328 302.181 349.433 302.181 348.33C302.181 347.226 303.075 346.332 304.178 346.332C305.282 346.332 306.176 347.226 306.176 348.33Z" fill="white"/>
<path fill-rule="evenodd" clip-rule="evenodd" d="M319.286 348.33C319.286 349.433 318.392 350.328 317.289 350.328C316.185 350.328 315.292 349.433 315.292 348.33C315.292 347.226 316.185 346.332 317.289 346.332C318.392 346.332 319.286 347.226 319.286 348.33Z" fill="white"/>
<path fill-rule="evenodd" clip-rule="evenodd" d="M333.588 348.33C333.588 349.433 332.694 350.328 331.59 350.328C330.487 350.328 329.594 349.433 329.594 348.33C329.594 347.226 330.487 346.332 331.59 346.332C332.694 346.332 333.588 347.226 333.588 348.33Z" fill="white"/>
<path fill-rule="evenodd" clip-rule="evenodd" d="M346.698 348.33C346.698 349.433 345.805 350.328 344.701 350.328C343.598 350.328 342.704 349.433 342.704 348.33C342.704 347.226 343.598 346.332 344.701 346.332C345.805 346.332 346.698 347.226 346.698 348.33Z" fill="white"/>
<path fill-rule="evenodd" clip-rule="evenodd" d="M291.874 362.873C291.874 363.976 290.98 364.871 289.876 364.871C288.773 364.871 287.879 363.976 287.879 362.873C287.879 361.769 288.773 360.875 289.876 360.875C290.98 360.875 291.874 361.769 291.874 362.873Z" fill="white"/>
<path fill-rule="evenodd" clip-rule="evenodd" d="M306.176 362.873C306.176 363.976 305.282 364.871 304.178 364.871C303.075 364.871 302.181 363.976 302.181 362.873C302.181 361.769 303.075 360.875 304.178 360.875C305.282 360.875 306.176 361.769 306.176 362.873Z" fill="white"/>
<path fill-rule="evenodd" clip-rule="evenodd" d="M319.286 362.873C319.286 363.976 318.392 364.871 317.289 364.871C316.185 364.871 315.292 363.976 315.292 362.873C315.292 361.769 316.185 360.875 317.289 360.875C318.392 360.875 319.286 361.769 319.286 362.873Z" fill="white"/>
<path fill-rule="evenodd" clip-rule="evenodd" d="M333.588 362.873C333.588 363.976 332.694 364.871 331.59 364.871C330.487 364.871 329.594 363.976 329.594 362.873C329.594 361.769 330.487 360.875 331.59 360.875C332.694 360.875 333.588 361.769 333.588 362.873Z" fill="white"/>
<path fill-rule="evenodd" clip-rule="evenodd" d="M346.698 362.873C346.698 363.976 345.805 364.871 344.701 364.871C343.598 364.871 342.704 363.976 342.704 362.873C342.704 361.769 343.598 360.875 344.701 360.875C345.805 360.875 346.698 361.769 346.698 362.873Z" fill="white"/>
<path fill-rule="evenodd" clip-rule="evenodd" d="M291.874 376.204C291.874 377.307 290.98 378.202 289.876 378.202C288.773 378.202 287.879 377.307 287.879 376.204C287.879 375.101 288.773 374.206 289.876 374.206C290.98 374.206 291.874 375.101 291.874 376.204Z" fill="white"/>
<path fill-rule="evenodd" clip-rule="evenodd" d="M306.176 376.204C306.176 377.307 305.282 378.202 304.178 378.202C303.075 378.202 302.181 377.307 302.181 376.204C302.181 375.101 303.075 374.206 304.178 374.206C305.282 374.206 306.176 375.101 306.176 376.204Z" fill="white"/>
<path fill-rule="evenodd" clip-rule="evenodd" d="M319.286 376.204C319.286 377.307 318.392 378.202 317.289 378.202C316.185 378.202 315.292 377.307 315.292 376.204C315.292 375.101 316.185 374.206 317.289 374.206C318.392 374.206 319.286 375.101 319.286 376.204Z" fill="white"/>
<path fill-rule="evenodd" clip-rule="evenodd" d="M333.588 376.204C333.588 377.307 332.694 378.202 331.59 378.202C330.487 378.202 329.594 377.307 329.594 376.204C329.594 375.101 330.487 374.206 331.59 374.206C332.694 374.206 333.588 375.101 333.588 376.204Z" fill="white"/>
<path fill-rule="evenodd" clip-rule="evenodd" d="M346.698 376.204C346.698 377.307 345.805 378.202 344.701 378.202C343.598 378.202 342.704 377.307 342.704 376.204C342.704 375.101 343.598 374.206 344.701 374.206C345.805 374.206 346.698 375.101 346.698 376.204Z" fill="white"/>
<path fill-rule="evenodd" clip-rule="evenodd" d="M291.874 390.748C291.874 391.851 290.98 392.746 289.876 392.746C288.773 392.746 287.879 391.851 287.879 390.748C287.879 389.644 288.773 388.75 289.876 388.75C290.98 388.75 291.874 389.644 291.874 390.748Z" fill="white"/>
<path fill-rule="evenodd" clip-rule="evenodd" d="M306.176 390.748C306.176 391.851 305.282 392.746 304.178 392.746C303.075 392.746 302.181 391.851 302.181 390.748C302.181 389.644 303.075 388.75 304.178 388.75C305.282 388.75 306.176 389.644 306.176 390.748Z" fill="white"/>
<path fill-rule="evenodd" clip-rule="evenodd" d="M319.286 390.748C319.286 391.851 318.392 392.746 317.289 392.746C316.185 392.746 315.292 391.851 315.292 390.748C315.292 389.644 316.185 388.75 317.289 388.75C318.392 388.75 319.286 389.644 319.286 390.748Z" fill="white"/>
<path fill-rule="evenodd" clip-rule="evenodd" d="M333.588 390.748C333.588 391.851 332.694 392.746 331.59 392.746C330.487 392.746 329.594 391.851 329.594 390.748C329.594 389.644 330.487 388.75 331.59 388.75C332.694 388.75 333.588 389.644 333.588 390.748Z" fill="white"/>
<path fill-rule="evenodd" clip-rule="evenodd" d="M346.698 390.748C346.698 391.851 345.805 392.746 344.701 392.746C343.598 392.746 342.704 391.851 342.704 390.748C342.704 389.644 343.598 388.75 344.701 388.75C345.805 388.75 346.698 389.644 346.698 390.748Z" fill="white"/>
<path fill-rule="evenodd" clip-rule="evenodd" d="M291.874 404.079C291.874 405.183 290.98 406.077 289.876 406.077C288.773 406.077 287.879 405.183 287.879 404.079C287.879 402.975 288.773 402.081 289.876 402.081C290.98 402.081 291.874 402.975 291.874 404.079Z" fill="white"/>
<path fill-rule="evenodd" clip-rule="evenodd" d="M306.176 404.079C306.176 405.183 305.282 406.077 304.178 406.077C303.075 406.077 302.181 405.183 302.181 404.079C302.181 402.975 303.075 402.081 304.178 402.081C305.282 402.081 306.176 402.975 306.176 404.079Z" fill="white"/>
<path fill-rule="evenodd" clip-rule="evenodd" d="M319.286 404.079C319.286 405.183 318.392 406.077 317.289 406.077C316.185 406.077 315.292 405.183 315.292 404.079C315.292 402.975 316.185 402.081 317.289 402.081C318.392 402.081 319.286 402.975 319.286 404.079Z" fill="white"/>
<path fill-rule="evenodd" clip-rule="evenodd" d="M333.588 404.079C333.588 405.183 332.694 406.077 331.59 406.077C330.487 406.077 329.594 405.183 329.594 404.079C329.594 402.975 330.487 402.081 331.59 402.081C332.694 402.081 333.588 402.975 333.588 404.079Z" fill="white"/>
<path fill-rule="evenodd" clip-rule="evenodd" d="M346.698 404.079C346.698 405.183 345.805 406.077 344.701 406.077C343.598 406.077 342.704 405.183 342.704 404.079C342.704 402.975 343.598 402.081 344.701 402.081C345.805 402.081 346.698 402.975 346.698 404.079Z" fill="white"/>
<path fill-rule="evenodd" clip-rule="evenodd" d="M361 334.998C361 336.102 360.107 336.996 359.003 336.996C357.9 336.996 357.006 336.102 357.006 334.998C357.006 333.894 357.9 333 359.003 333C360.107 333 361 333.894 361 334.998Z" fill="white"/>
<path fill-rule="evenodd" clip-rule="evenodd" d="M361 348.33C361 349.433 360.107 350.328 359.003 350.328C357.9 350.328 357.006 349.433 357.006 348.33C357.006 347.226 357.9 346.332 359.003 346.332C360.107 346.332 361 347.226 361 348.33Z" fill="white"/>
<path fill-rule="evenodd" clip-rule="evenodd" d="M361 362.873C361 363.976 360.107 364.871 359.003 364.871C357.9 364.871 357.006 363.976 357.006 362.873C357.006 361.769 357.9 360.875 359.003 360.875C360.107 360.875 361 361.769 361 362.873Z" fill="white"/>
<path fill-rule="evenodd" clip-rule="evenodd" d="M361 376.204C361 377.307 360.107 378.202 359.003 378.202C357.9 378.202 357.006 377.307 357.006 376.204C357.006 375.101 357.9 374.206 359.003 374.206C360.107 374.206 361 375.101 361 376.204Z" fill="white"/>
<path fill-rule="evenodd" clip-rule="evenodd" d="M361 390.748C361 391.851 360.107 392.746 359.003 392.746C357.9 392.746 357.006 391.851 357.006 390.748C357.006 389.644 357.9 388.75 359.003 388.75C360.107 388.75 361 389.644 361 390.748Z" fill="white"/>
<path fill-rule="evenodd" clip-rule="evenodd" d="M361 404.079C361 405.183 360.107 406.077 359.003 406.077C357.9 406.077 357.006 405.183 357.006 404.079C357.006 402.975 357.9 402.081 359.003 402.081C360.107 402.081 361 402.975 361 404.079Z" fill="white"/>
<path fill-rule="evenodd" clip-rule="evenodd" d="M291.874 414.921C291.874 416.025 290.98 416.919 289.876 416.919C288.773 416.919 287.879 416.025 287.879 414.921C287.879 413.817 288.773 412.923 289.876 412.923C290.98 412.923 291.874 413.817 291.874 414.921Z" fill="white"/>
<path fill-rule="evenodd" clip-rule="evenodd" d="M306.176 414.921C306.176 416.025 305.282 416.919 304.178 416.919C303.075 416.919 302.181 416.025 302.181 414.921C302.181 413.817 303.075 412.923 304.178 412.923C305.282 412.923 306.176 413.817 306.176 414.921Z" fill="white"/>
<path fill-rule="evenodd" clip-rule="evenodd" d="M319.286 414.921C319.286 416.025 318.392 416.919 317.289 416.919C316.185 416.919 315.292 416.025 315.292 414.921C315.292 413.817 316.185 412.923 317.289 412.923C318.392 412.923 319.286 413.817 319.286 414.921Z" fill="white"/>
<path fill-rule="evenodd" clip-rule="evenodd" d="M333.588 414.921C333.588 416.025 332.694 416.919 331.59 416.919C330.487 416.919 329.594 416.025 329.594 414.921C329.594 413.817 330.487 412.923 331.59 412.923C332.694 412.923 333.588 413.817 333.588 414.921Z" fill="white"/>
<path fill-rule="evenodd" clip-rule="evenodd" d="M346.698 414.921C346.698 416.025 345.805 416.919 344.701 416.919C343.598 416.919 342.704 416.025 342.704 414.921C342.704 413.817 343.598 412.923 344.701 412.923C345.805 412.923 346.698 413.817 346.698 414.921Z" fill="white"/>
<path fill-rule="evenodd" clip-rule="evenodd" d="M291.874 428.252C291.874 429.356 290.98 430.251 289.876 430.251C288.773 430.251 287.879 429.356 287.879 428.252C287.879 427.149 288.773 426.254 289.876 426.254C290.98 426.254 291.874 427.149 291.874 428.252Z" fill="white"/>
<path fill-rule="evenodd" clip-rule="evenodd" d="M306.176 428.252C306.176 429.356 305.282 430.251 304.178 430.251C303.075 430.251 302.181 429.356 302.181 428.252C302.181 427.149 303.075 426.254 304.178 426.254C305.282 426.254 306.176 427.149 306.176 428.252Z" fill="white"/>
<path fill-rule="evenodd" clip-rule="evenodd" d="M319.286 428.252C319.286 429.356 318.392 430.251 317.289 430.251C316.185 430.251 315.292 429.356 315.292 428.252C315.292 427.149 316.185 426.254 317.289 426.254C318.392 426.254 319.286 427.149 319.286 428.252Z" fill="white"/>
<path fill-rule="evenodd" clip-rule="evenodd" d="M333.588 428.252C333.588 429.356 332.694 430.251 331.59 430.251C330.487 430.251 329.594 429.356 329.594 428.252C329.594 427.149 330.487 426.254 331.59 426.254C332.694 426.254 333.588 427.149 333.588 428.252Z" fill="white"/>
<path fill-rule="evenodd" clip-rule="evenodd" d="M346.698 428.252C346.698 429.356 345.805 430.251 344.701 430.251C343.598 430.251 342.704 429.356 342.704 428.252C342.704 427.149 343.598 426.254 344.701 426.254C345.805 426.254 346.698 427.149 346.698 428.252Z" fill="white"/>
<path fill-rule="evenodd" clip-rule="evenodd" d="M291.874 442.796C291.874 443.899 290.98 444.794 289.876 444.794C288.773 444.794 287.879 443.899 287.879 442.796C287.879 441.692 288.773 440.797 289.876 440.797C290.98 440.797 291.874 441.692 291.874 442.796Z" fill="white"/>
<path fill-rule="evenodd" clip-rule="evenodd" d="M306.176 442.796C306.176 443.899 305.282 444.794 304.178 444.794C303.075 444.794 302.181 443.899 302.181 442.796C302.181 441.692 303.075 440.797 304.178 440.797C305.282 440.797 306.176 441.692 306.176 442.796Z" fill="white"/>
<path fill-rule="evenodd" clip-rule="evenodd" d="M319.286 442.796C319.286 443.899 318.392 444.794 317.289 444.794C316.185 444.794 315.292 443.899 315.292 442.796C315.292 441.692 316.185 440.797 317.289 440.797C318.392 440.797 319.286 441.692 319.286 442.796Z" fill="white"/>
<path fill-rule="evenodd" clip-rule="evenodd" d="M333.588 442.796C333.588 443.899 332.694 444.794 331.59 444.794C330.487 444.794 329.594 443.899 329.594 442.796C329.594 441.692 330.487 440.797 331.59 440.797C332.694 440.797 333.588 441.692 333.588 442.796Z" fill="white"/>
<path fill-rule="evenodd" clip-rule="evenodd" d="M346.698 442.796C346.698 443.899 345.805 444.794 344.701 444.794C343.598 444.794 342.704 443.899 342.704 442.796C342.704 441.692 343.598 440.797 344.701 440.797C345.805 440.797 346.698 441.692 346.698 442.796Z" fill="white"/>
<path fill-rule="evenodd" clip-rule="evenodd" d="M291.874 456.127C291.874 457.23 290.98 458.125 289.876 458.125C288.773 458.125 287.879 457.23 287.879 456.127C287.879 455.024 288.773 454.129 289.876 454.129C290.98 454.129 291.874 455.024 291.874 456.127Z" fill="white"/>
<path fill-rule="evenodd" clip-rule="evenodd" d="M306.176 456.127C306.176 457.23 305.282 458.125 304.178 458.125C303.075 458.125 302.181 457.23 302.181 456.127C302.181 455.024 303.075 454.129 304.178 454.129C305.282 454.129 306.176 455.024 306.176 456.127Z" fill="white"/>
<path fill-rule="evenodd" clip-rule="evenodd" d="M319.286 456.127C319.286 457.23 318.392 458.125 317.289 458.125C316.185 458.125 315.292 457.23 315.292 456.127C315.292 455.024 316.185 454.129 317.289 454.129C318.392 454.129 319.286 455.024 319.286 456.127Z" fill="white"/>
<path fill-rule="evenodd" clip-rule="evenodd" d="M333.588 456.127C333.588 457.23 332.694 458.125 331.59 458.125C330.487 458.125 329.594 457.23 329.594 456.127C329.594 455.024 330.487 454.129 331.59 454.129C332.694 454.129 333.588 455.024 333.588 456.127Z" fill="white"/>
<path fill-rule="evenodd" clip-rule="evenodd" d="M346.698 456.127C346.698 457.23 345.805 458.125 344.701 458.125C343.598 458.125 342.704 457.23 342.704 456.127C342.704 455.024 343.598 454.129 344.701 454.129C345.805 454.129 346.698 455.024 346.698 456.127Z" fill="white"/>
<path fill-rule="evenodd" clip-rule="evenodd" d="M291.874 470.67C291.874 471.774 290.98 472.669 289.876 472.669C288.773 472.669 287.879 471.774 287.879 470.67C287.879 469.567 288.773 468.672 289.876 468.672C290.98 468.672 291.874 469.567 291.874 470.67Z" fill="white"/>
<path fill-rule="evenodd" clip-rule="evenodd" d="M306.176 470.67C306.176 471.774 305.282 472.669 304.178 472.669C303.075 472.669 302.181 471.774 302.181 470.67C302.181 469.567 303.075 468.672 304.178 468.672C305.282 468.672 306.176 469.567 306.176 470.67Z" fill="white"/>
<path fill-rule="evenodd" clip-rule="evenodd" d="M319.286 470.67C319.286 471.774 318.392 472.669 317.289 472.669C316.185 472.669 315.292 471.774 315.292 470.67C315.292 469.567 316.185 468.672 317.289 468.672C318.392 468.672 319.286 469.567 319.286 470.67Z" fill="white"/>
<path fill-rule="evenodd" clip-rule="evenodd" d="M333.588 470.67C333.588 471.774 332.694 472.669 331.59 472.669C330.487 472.669 329.594 471.774 329.594 470.67C329.594 469.567 330.487 468.672 331.59 468.672C332.694 468.672 333.588 469.567 333.588 470.67Z" fill="white"/>
<path fill-rule="evenodd" clip-rule="evenodd" d="M346.698 470.67C346.698 471.774 345.805 472.669 344.701 472.669C343.598 472.669 342.704 471.774 342.704 470.67C342.704 469.567 343.598 468.672 344.701 468.672C345.805 468.672 346.698 469.567 346.698 470.67Z" fill="white"/>
<path fill-rule="evenodd" clip-rule="evenodd" d="M291.874 484.002C291.874 485.106 290.98 486 289.876 486C288.773 486 287.879 485.106 287.879 484.002C287.879 482.898 288.773 482.004 289.876 482.004C290.98 482.004 291.874 482.898 291.874 484.002Z" fill="white"/>
<path fill-rule="evenodd" clip-rule="evenodd" d="M306.176 484.002C306.176 485.106 305.282 486 304.178 486C303.075 486 302.181 485.106 302.181 484.002C302.181 482.898 303.075 482.004 304.178 482.004C305.282 482.004 306.176 482.898 306.176 484.002Z" fill="white"/>
<path fill-rule="evenodd" clip-rule="evenodd" d="M319.286 484.002C319.286 485.106 318.392 486 317.289 486C316.185 486 315.292 485.106 315.292 484.002C315.292 482.898 316.185 482.004 317.289 482.004C318.392 482.004 319.286 482.898 319.286 484.002Z" fill="white"/>
<path fill-rule="evenodd" clip-rule="evenodd" d="M333.588 484.002C333.588 485.106 332.694 486 331.59 486C330.487 486 329.594 485.106 329.594 484.002C329.594 482.898 330.487 482.004 331.59 482.004C332.694 482.004 333.588 482.898 333.588 484.002Z" fill="white"/>
<path fill-rule="evenodd" clip-rule="evenodd" d="M346.698 484.002C346.698 485.106 345.805 486 344.701 486C343.598 486 342.704 485.106 342.704 484.002C342.704 482.898 343.598 482.004 344.701 482.004C345.805 482.004 346.698 482.898 346.698 484.002Z" fill="white"/>
<path fill-rule="evenodd" clip-rule="evenodd" d="M361 414.921C361 416.025 360.107 416.919 359.003 416.919C357.9 416.919 357.006 416.025 357.006 414.921C357.006 413.817 357.9 412.923 359.003 412.923C360.107 412.923 361 413.817 361 414.921Z" fill="white"/>
<path fill-rule="evenodd" clip-rule="evenodd" d="M361 428.252C361 429.356 360.107 430.251 359.003 430.251C357.9 430.251 357.006 429.356 357.006 428.252C357.006 427.149 357.9 426.254 359.003 426.254C360.107 426.254 361 427.149 361 428.252Z" fill="white"/>
<path fill-rule="evenodd" clip-rule="evenodd" d="M361 442.796C361 443.899 360.107 444.794 359.003 444.794C357.9 444.794 357.006 443.899 357.006 442.796C357.006 441.692 357.9 440.797 359.003 440.797C360.107 440.797 361 441.692 361 442.796Z" fill="white"/>
<path fill-rule="evenodd" clip-rule="evenodd" d="M361 456.127C361 457.23 360.107 458.125 359.003 458.125C357.9 458.125 357.006 457.23 357.006 456.127C357.006 455.024 357.9 454.129 359.003 454.129C360.107 454.129 361 455.024 361 456.127Z" fill="white"/>
<path fill-rule="evenodd" clip-rule="evenodd" d="M361 470.67C361 471.774 360.107 472.669 359.003 472.669C357.9 472.669 357.006 471.774 357.006 470.67C357.006 469.567 357.9 468.672 359.003 468.672C360.107 468.672 361 469.567 361 470.67Z" fill="white"/>
<path fill-rule="evenodd" clip-rule="evenodd" d="M361 484.002C361 485.106 360.107 486 359.003 486C357.9 486 357.006 485.106 357.006 484.002C357.006 482.898 357.9 482.004 359.003 482.004C360.107 482.004 361 482.898 361 484.002Z" fill="white"/>
</g>
<path opacity="0.0382022" d="M1076.54 557.816C1079.51 554.715 1133.42 475.578 1256.6 477.855C1379.78 480.133 1424.46 380 1424.46 380" stroke="white" stroke-width="6" stroke-linecap="round"/>
<path opacity="0.100656" d="M115.535 101.635C115.535 101.635 195.816 79.4438 213.922 131.471C232.027 183.499 279.555 155.659 308.059 162.928C336.562 170.198 340.309 202.795 343.16 220.393" stroke="white" stroke-width="5" stroke-linecap="round"/>
<circle opacity="0.0407599" cx="1184.04" cy="136.5" r="29.5" stroke="white" stroke-width="5"/>
<g opacity="0.15">
<rect opacity="0.2" x="507.5" y="62.5" width="525" height="526" rx="262.5" stroke="#EFF4FB" stroke-width="5"/>
<rect opacity="0.4" x="557.5" y="112.5" width="425" height="426" rx="212.5" stroke="#EFF4FB" stroke-width="5"/>
<rect opacity="0.6" x="607.5" y="162.5" width="325" height="326" rx="162.5" stroke="#EFF4FB" stroke-width="5"/>
</g>
</svg>
