<svg width="56" height="56" viewBox="0 0 56 56" fill="none" xmlns="http://www.w3.org/2000/svg">
<path d="M12.6 56C5.54529 56 0 50.4547 0 43.4V12.6C0 5.54529 5.54529 0 12.6 0H43.4C50.4547 0 56 5.54529 56 12.6V43.4C56 50.4547 50.4547 56 43.4 56H12.6Z" fill="url(#paint0_linear)"/>
<path d="M43.926 51.3332H12.0742C7.96011 51.3332 4.66675 48.0398 4.66675 43.9258V12.0739C4.66675 7.8994 7.89957 4.6665 12.0742 4.6665H43.926C48.0401 4.6665 51.3334 7.95987 51.3334 12.0739V43.9258C51.3334 48.0398 48.0401 51.3332 43.926 51.3332Z" fill="url(#paint1_linear)"/>
<path d="M24.9938 31.3087L24.5809 37.116C25.1716 37.116 25.4274 36.8623 25.7342 36.5575L28.5038 33.9108L34.2424 38.1134C35.2949 38.6999 36.0364 38.3911 36.3204 37.1451L40.0872 19.4943L40.0883 19.4933C40.4221 17.9375 39.5256 17.3291 38.5002 17.7108L16.3587 26.1878C14.8476 26.7743 14.8705 27.6167 16.1018 27.9984L21.7625 29.7591L34.9112 21.5317C35.53 21.1219 36.0926 21.3487 35.6298 21.7584L24.9938 31.3087Z" fill="#2CA3DB"/>
<defs>
<linearGradient id="paint0_linear" x1="38.6721" y1="53.6672" x2="18.5339" y2="5.23315" gradientUnits="userSpaceOnUse">
<stop stop-color="#E6F2FB"/>
<stop offset="0.50556" stop-color="#FAFBFC"/>
<stop offset="1" stop-color="white"/>
</linearGradient>
<linearGradient id="paint1_linear" x1="22.896" y1="2.77025" x2="32.6921" y2="51.1924" gradientUnits="userSpaceOnUse">
<stop stop-color="#EEF2F5"/>
<stop offset="0.3995" stop-color="white"/>
<stop offset="1" stop-color="white"/>
</linearGradient>
</defs>
</svg>
