<svg width="56" height="56" viewBox="0 0 56 56" fill="none" xmlns="http://www.w3.org/2000/svg">
<path d="M12.6 56C5.54529 56 0 50.4547 0 43.4V12.6C0 5.54529 5.54529 0 12.6 0H43.4C50.4547 0 56 5.54529 56 12.6V43.4C56 50.4547 50.4547 56 43.4 56H12.6Z" fill="url(#paint0_linear)"/>
<path d="M43.9258 51.3332H12.0739C7.95987 51.3332 4.6665 48.0398 4.6665 43.9258V12.0739C4.6665 7.8994 7.89932 4.6665 12.0739 4.6665H43.9258C48.0398 4.6665 51.3332 7.95987 51.3332 12.0739V43.9258C51.3332 48.0398 48.0398 51.3332 43.9258 51.3332Z" fill="url(#paint1_linear)"/>
<path d="M24.6601 15.3068L24.9474 16.4705C23.8151 16.7503 22.7314 17.199 21.7327 17.8015L21.1181 16.7723C22.2174 16.1066 23.4118 15.6124 24.6601 15.3068ZM30.806 15.3068L30.5187 16.4705C31.651 16.7503 32.7348 17.199 33.7335 17.8015L34.3554 16.7723C33.2532 16.1072 32.0564 15.613 30.806 15.3068ZM16.7723 21.1145C16.1072 22.2154 15.6131 23.4109 15.3068 24.6602L16.4705 24.9475C16.7503 23.8152 17.199 22.7314 17.8015 21.7327L16.7723 21.1145ZM16.1323 27.7331C16.1322 27.1512 16.176 26.5701 16.2632 25.9948L15.0777 25.813C14.8849 27.0846 14.8849 28.378 15.0777 29.6496L16.2632 29.4714C16.1761 28.8961 16.1323 28.315 16.1323 27.7331ZM34.3481 38.6902L33.7335 37.6647C32.7364 38.2677 31.6537 38.7165 30.5224 38.9957L30.8097 40.1594C32.0565 39.8509 33.2494 39.3555 34.3481 38.6902ZM39.3339 27.7331C39.3338 28.315 39.2901 28.8961 39.203 29.4714L40.3885 29.6496C40.5813 28.378 40.5813 27.0846 40.3885 25.813L39.203 25.9948C39.2902 26.5701 39.334 27.1512 39.3339 27.7331ZM40.1594 30.8024L38.9957 30.5151C38.7165 31.6488 38.2678 32.7338 37.6647 33.7335L38.6939 34.3518C39.3596 33.2498 39.8538 32.053 40.1594 30.8024ZM29.4714 39.203C28.3191 39.3776 27.1471 39.3776 25.9948 39.203L25.8166 40.3885C27.087 40.5813 28.3792 40.5813 29.6496 40.3885L29.4714 39.203ZM37.0719 34.6136C36.3807 35.5509 35.5519 36.3785 34.6136 37.0683L35.3263 38.0356C36.3599 37.2748 37.2742 36.3641 38.0393 35.3336L37.0719 34.6136ZM34.6136 18.3943C35.552 19.0854 36.3808 19.9142 37.0719 20.8526L38.0393 20.1326C37.2769 19.1012 36.365 18.1892 35.3336 17.4269L34.6136 18.3943ZM18.3943 20.8526C19.0854 19.9142 19.9142 19.0854 20.8526 18.3943L20.1326 17.4269C19.1011 18.1892 18.1892 19.1012 17.4269 20.1326L18.3943 20.8526ZM38.6939 21.1145L37.6647 21.7327C38.2677 22.7298 38.7165 23.8125 38.9957 24.9438L40.1594 24.6565C39.8531 23.4084 39.3589 22.2141 38.6939 21.1145ZM25.9948 16.2632C27.1471 16.0886 28.3191 16.0886 29.4714 16.2632L29.6496 15.0777C28.3792 14.8849 27.087 14.8849 25.8166 15.0777L25.9948 16.2632ZM19.0088 38.3557L16.5323 38.9303L17.1105 36.4537L15.9432 36.181L15.365 38.6575C15.3288 38.8111 15.3232 38.9702 15.3486 39.1259C15.374 39.2816 15.4298 39.4308 15.5129 39.5649C15.596 39.6989 15.7047 39.8153 15.8328 39.9074C15.961 39.9994 16.106 40.0653 16.2596 40.1012C16.4392 40.1413 16.6254 40.1413 16.8051 40.1012L19.2816 39.5303L19.0088 38.3557ZM16.1905 35.1118L17.3615 35.3809L17.7615 33.6644C17.1773 32.6845 16.7422 31.6231 16.4705 30.5151L15.3068 30.8024C15.5685 31.863 15.9645 32.8859 16.485 33.8463L16.1905 35.1118ZM21.7909 37.7083L20.0744 38.1084L20.3471 39.2794L21.609 38.9848C22.5687 39.5069 23.5918 39.903 24.6529 40.1631L24.9402 38.9993C23.8356 38.7241 22.778 38.2866 21.8018 37.7011L21.7909 37.7083ZM27.7331 17.3324C21.9872 17.336 17.336 21.9945 17.336 27.7367C17.3392 29.6926 17.8924 31.6081 18.9325 33.2644L17.9324 37.5338L22.1982 36.5337C27.0603 39.5921 33.4826 38.1338 36.541 33.2753C39.5994 28.4168 38.1447 21.9945 33.2862 18.9325C31.6229 17.8865 29.6979 17.3318 27.7331 17.3324Z" fill="#3A76F0"/>
<defs>
<linearGradient id="paint0_linear" x1="38.6721" y1="53.6672" x2="18.5339" y2="5.23315" gradientUnits="userSpaceOnUse">
<stop stop-color="#E6F2FB"/>
<stop offset="0.50556" stop-color="#FAFBFC"/>
<stop offset="1" stop-color="white"/>
</linearGradient>
<linearGradient id="paint1_linear" x1="22.8957" y1="2.77025" x2="32.6918" y2="51.1924" gradientUnits="userSpaceOnUse">
<stop stop-color="#EEF2F5"/>
<stop offset="0.3995" stop-color="white"/>
<stop offset="1" stop-color="white"/>
</linearGradient>
</defs>
</svg>
