<svg width="56" height="56" viewBox="0 0 56 56" fill="none" xmlns="http://www.w3.org/2000/svg">
<g clip-path="url(#clip0)">
<path d="M13.0338 56C5.97913 56 0.433838 50.4547 0.433838 43.4V12.6C0.433838 5.54529 5.97913 0 13.0338 0H43.8338C50.8886 0 56.4338 5.54529 56.4338 12.6V43.4C56.4338 50.4547 50.8886 56 43.8338 56H13.0338Z" fill="url(#paint0_linear)"/>
<path d="M44.3598 51.3332H12.508C8.39395 51.3332 5.10059 48.0398 5.10059 43.9258V12.0739C5.10059 7.8994 8.3334 4.6665 12.508 4.6665H44.3598C48.4739 4.6665 51.7673 7.95987 51.7673 12.0739V43.9258C51.7673 48.0398 48.4739 51.3332 44.3598 51.3332Z" fill="url(#paint1_linear)"/>
<path d="M43.3087 33.0927C43.1878 33.0743 43.0669 33.0192 42.9661 32.9642L41.9167 32.413C40.6166 31.73 39.8223 30.5068 39.8223 29.1877C39.8223 27.8648 40.6211 26.6387 41.9272 25.957L42.9863 25.4042C43.5707 25.0922 44.2962 25.2757 44.6388 25.8079C44.7396 25.973 44.8 26.1565 44.8 26.3583V32.0284C44.8 32.7073 44.0947 33.2578 43.3087 33.0927Z" fill="url(#paint2_linear)"/>
<path d="M43.3087 30.4692C43.1878 30.4508 43.0669 30.3957 42.9661 30.3407L41.9167 29.7895C40.6166 29.1065 39.8223 27.8833 39.8223 26.5642C39.8223 25.2413 40.6211 24.0151 41.9272 23.3335L42.9863 22.7807C43.5707 22.4687 44.2962 22.6522 44.6388 23.1844C44.7396 23.3495 44.8 23.533 44.8 23.7348V29.4048C44.8 30.0838 44.0947 30.6343 43.3087 30.4692Z" fill="url(#paint3_linear)"/>
<path d="M14.9333 19.1306C14.9333 16.8124 16.8436 14.9331 19.2 14.9331H36.9776C39.334 14.9331 41.2442 16.8124 41.2442 19.1306V36.62C41.2442 38.9382 39.334 40.8175 36.9776 40.8175H19.2C16.8436 40.8175 14.9333 38.9382 14.9333 36.62V19.1306Z" fill="url(#paint4_linear)"/>
<mask id="mask0" mask-type="alpha" maskUnits="userSpaceOnUse" x="14" y="14" width="31" height="27">
<path d="M43.3087 34.1359C43.1878 34.1139 43.0669 34.0478 42.9661 33.9818L41.9167 33.3203C40.6166 32.5007 39.8223 31.0329 39.8223 29.45C39.8223 27.8625 40.6211 26.3911 41.9272 25.573L42.9863 24.9097C43.5707 24.5354 44.2962 24.7556 44.6388 25.3942C44.7396 25.5924 44.8 25.8125 44.8 26.0548V32.8587C44.8 33.6735 44.0947 34.3341 43.3087 34.1359Z" fill="url(#paint5_linear)"/>
<path d="M43.3087 30.9875C43.1878 30.9654 43.0669 30.8994 42.9661 30.8333L41.9167 30.1718C40.6166 29.3523 39.8223 27.8845 39.8223 26.3015C39.8223 24.7141 40.6211 23.2427 41.9272 22.4246L42.9863 21.7613C43.5707 21.387 44.2962 21.6072 44.6388 22.2457C44.7396 22.4439 44.8 22.6641 44.8 22.9063V29.7103C44.8 30.525 44.0947 31.1856 43.3087 30.9875Z" fill="url(#paint6_linear)"/>
<path d="M36.9776 14.9331H19.2C16.8436 14.9331 14.9333 16.8124 14.9333 19.1306V36.62C14.9333 38.9382 16.8436 40.8175 19.2 40.8175H36.9776C39.334 40.8175 41.2442 38.9382 41.2442 36.62V19.1306C41.2442 16.8124 39.334 14.9331 36.9776 14.9331Z" fill="url(#paint7_linear)"/>
</mask>
<g mask="url(#mask0)">
<g filter="url(#filter0_f)">
<path d="M8.10753 39.2786C8.10753 44.3014 11.4027 48.3731 15.4675 48.3731C19.5322 48.3731 22.8274 44.3014 22.8274 39.2786C22.8274 34.2558 19.5322 30.1841 15.4675 30.1841C11.4027 30.1841 8.10753 34.2558 8.10753 39.2786Z" fill="#01C2FF"/>
</g>
<g filter="url(#filter1_f)">
<path d="M28.0891 50.5412C34.9619 50.5412 40.5334 47.5971 40.5334 43.9652C40.5334 40.3334 34.9619 37.3892 28.0891 37.3892C21.2163 37.3892 15.6448 40.3334 15.6448 43.9652C15.6448 47.5971 21.2163 50.5412 28.0891 50.5412Z" fill="#1B52DC"/>
</g>
<g filter="url(#filter2_f)">
<path d="M32.8538 27.875C32.8538 32.8205 35.6873 36.8296 39.1826 36.8296C42.678 36.8296 45.5115 32.8205 45.5115 27.875C45.5115 22.9295 42.678 18.9204 39.1826 18.9204C35.6873 18.9204 32.8538 22.9295 32.8538 27.875Z" fill="#398FFF"/>
</g>
<g style="mix-blend-mode:soft-light">
<path d="M43.3094 33.0927C43.1885 33.0743 43.0676 33.0192 42.9669 32.9642L41.9174 32.413C40.6173 31.73 39.823 30.5068 39.823 29.1877C39.823 27.8648 40.6219 26.6387 41.9279 25.957L42.987 25.4042C43.5714 25.0922 44.2969 25.2757 44.6395 25.8079C44.7403 25.973 44.8007 26.1565 44.8007 26.3583V32.0284C44.8007 32.7073 44.0954 33.2578 43.3094 33.0927Z" fill="white" fill-opacity="0.04"/>
</g>
<g style="mix-blend-mode:soft-light">
<path d="M43.3094 30.4692C43.1885 30.4508 43.0676 30.3957 42.9669 30.3407L41.9174 29.7895C40.6173 29.1065 39.823 27.8833 39.823 26.5642C39.823 25.2413 40.6219 24.0151 41.9279 23.3335L42.987 22.7807C43.5714 22.4687 44.2969 22.6522 44.6395 23.1844C44.7403 23.3495 44.8007 23.533 44.8007 23.7348V29.4048C44.8007 30.0838 44.0954 30.6343 43.3094 30.4692Z" fill="white" fill-opacity="0.04"/>
</g>
<g style="mix-blend-mode:soft-light">
<path d="M14.9341 19.1306C14.9341 16.8124 16.8443 14.9331 19.2007 14.9331H36.9783C39.3347 14.9331 41.245 16.8124 41.245 19.1306V36.62C41.245 38.9382 39.3347 40.8175 36.9783 40.8175H19.2007C16.8443 40.8175 14.9341 38.9382 14.9341 36.62V19.1306Z" fill="white" fill-opacity="0.04"/>
</g>
<g filter="url(#filter3_dd)">
<path d="M28.8638 19.271H29.2767C29.9103 19.2958 30.5441 19.4113 31.1318 19.6497C31.5297 19.8109 31.9224 20.0153 32.2161 20.3317C32.387 20.5153 32.5209 20.7323 32.6078 20.9662C32.7069 21.2377 32.744 21.5294 32.7298 21.8168C32.7146 22.0857 32.655 22.3546 32.5375 22.5988C32.4452 22.7787 32.3535 22.9603 32.2333 23.1244C32.0827 23.3329 31.8898 23.5162 31.6579 23.6347C31.3803 23.7754 31.0534 23.8307 30.7467 23.7634C30.3472 23.6824 30.0046 23.3827 29.8686 23.0058C29.8441 22.8901 29.8605 22.7648 29.9114 22.6579C29.9425 22.589 30.0245 22.5695 30.0936 22.5608C30.2441 22.5436 30.387 22.605 30.5349 22.6185C30.6349 22.6314 30.7165 22.5537 30.7633 22.4753C30.8156 22.3967 30.8259 22.3007 30.8263 22.2091C30.8266 22.0539 30.8291 21.8969 30.7962 21.7443C30.7698 21.6149 30.7002 21.4994 30.6278 21.3903C30.5151 21.2248 30.3446 21.11 30.1704 21.0149C29.8929 20.8554 29.5708 20.7913 29.2535 20.7695C28.982 20.7481 28.7072 20.7615 28.4404 20.8166C27.9438 20.9241 27.4988 21.2066 27.1549 21.5704C26.8673 21.8676 26.6301 22.2256 26.5348 22.6291C26.4428 23.0178 26.4834 23.438 26.6592 23.7987C26.8087 24.1069 27.0429 24.3691 27.3144 24.5794C27.7117 24.9034 28.1432 25.1852 28.5917 25.4354C28.8614 25.5893 29.1471 25.7123 29.4278 25.8447C29.71 25.9791 29.9889 26.1203 30.2645 26.2672C30.4351 26.3605 30.609 26.4483 30.7767 26.5463C31.0217 26.6907 31.2542 26.8558 31.4701 27.0397C31.6318 27.1739 31.7748 27.3278 31.9312 27.4675C32.1404 27.6636 32.3319 27.8775 32.5089 28.1021C32.6208 28.2456 32.7305 28.3915 32.8254 28.5469C33.0707 28.9446 33.2365 29.3903 33.3068 29.8507C33.332 30.0052 33.3418 30.1615 33.351 30.3175V30.5693C33.3374 30.9163 33.3064 31.2639 33.2325 31.604C33.121 32.1355 32.9198 32.6502 32.6277 33.1112C32.3749 33.5119 32.0559 33.8705 31.695 34.1801C31.3484 34.4723 30.9715 34.7293 30.577 34.9549C30.0778 35.238 29.5443 35.4647 28.9887 35.616C28.5377 35.7417 28.0721 35.803 27.6071 35.8527C27.5495 35.9417 27.4963 36.0335 27.4423 36.1247C27.3123 36.3516 27.2065 36.597 27.0252 36.7911C26.8396 36.9983 26.581 37.1568 26.2963 37.1776C26.0619 37.197 25.826 37.1133 25.6458 36.9674C25.4169 36.7777 25.2837 36.4907 25.2532 36.2007C25.2379 36.1125 25.2973 36.0144 25.3899 35.9997C25.6606 35.9471 25.9275 35.8682 26.1748 35.7468C26.2092 35.729 26.2462 35.715 26.2761 35.6901C26.2913 35.6477 26.2394 35.6269 26.2068 35.6179C25.983 35.5621 25.7564 35.5158 25.5351 35.4503C25.2396 35.3661 24.9493 35.2645 24.6652 35.1484C24.4494 35.0594 24.2339 34.9666 24.0361 34.8429C23.7127 34.6066 23.4037 34.3427 23.1669 34.0197C22.9343 33.7009 22.8579 33.3031 22.8267 32.9198V32.6819C22.8366 32.5903 22.8497 32.4986 22.8725 32.4091C22.966 32.0165 23.2051 31.6668 23.5144 31.406C23.9331 31.0511 24.4924 30.851 25.0466 30.8889C25.4956 30.9173 25.9255 31.0951 26.2843 31.358C26.6541 31.6279 26.9562 31.9805 27.1928 32.3675C27.4525 32.7936 27.6408 33.262 27.7422 33.7488C27.7525 33.7948 27.7569 33.8425 27.7745 33.8869C27.9869 33.8414 28.1917 33.7678 28.394 33.6909C28.8302 33.5176 29.244 33.2865 29.6099 32.9949C29.905 32.7592 30.1708 32.4851 30.3792 32.1715C30.5951 31.8468 30.7516 31.4805 30.8117 31.0958C30.8296 30.9696 30.8545 30.8427 30.8448 30.7148C30.8326 30.5653 30.802 30.4174 30.7545 30.2748C30.6191 29.8689 30.359 29.5153 30.0582 29.2121C29.6742 28.8176 29.2336 28.4777 28.7584 28.1958C28.0389 27.7875 27.3176 27.3822 26.5928 26.9829C25.8847 26.6023 25.2339 26.1125 24.6994 25.516C24.3875 25.1774 24.1422 24.7758 24.0077 24.3373C23.8504 23.8321 23.8555 23.2919 23.9393 22.7743C24.0478 22.1193 24.3483 21.4959 24.7998 21.0025C25.092 20.6791 25.4401 20.4081 25.8124 20.1795C26.2256 19.9272 26.6661 19.7162 27.1294 19.5696C27.6892 19.3887 28.2757 19.2945 28.8638 19.271ZM24.2201 32.5207C24.1542 32.6346 24.1399 32.7696 24.1446 32.8985C24.1551 33.0933 24.2591 33.2746 24.4037 33.4044C24.6006 33.5834 24.8492 33.6934 25.0979 33.7836C25.2289 33.8285 25.3575 33.8806 25.4913 33.9167C25.7135 33.9791 25.9419 34.0157 26.169 34.0555C26.2447 34.0678 26.3197 34.0864 26.397 34.0857C26.2559 33.5957 26.0042 33.1362 25.6651 32.7515C25.5556 32.6254 25.4341 32.5083 25.2933 32.4162C25.1356 32.3116 24.9527 32.2357 24.761 32.2266C24.5437 32.2178 24.3324 32.3401 24.2201 32.5207Z" fill="white"/>
</g>
</g>
</g>
<defs>
<filter id="filter0_f" x="-191.893" y="-169.816" width="414.72" height="418.189" filterUnits="userSpaceOnUse" color-interpolation-filters="sRGB">
<feFlood flood-opacity="0" result="BackgroundImageFix"/>
<feBlend mode="normal" in="SourceGraphic" in2="BackgroundImageFix" result="shape"/>
<feGaussianBlur stdDeviation="100" result="effect1_foregroundBlur"/>
</filter>
<filter id="filter1_f" x="-134.355" y="-112.611" width="324.889" height="313.152" filterUnits="userSpaceOnUse" color-interpolation-filters="sRGB">
<feFlood flood-opacity="0" result="BackgroundImageFix"/>
<feBlend mode="normal" in="SourceGraphic" in2="BackgroundImageFix" result="shape"/>
<feGaussianBlur stdDeviation="75" result="effect1_foregroundBlur"/>
</filter>
<filter id="filter2_f" x="-67.1462" y="-81.0796" width="212.658" height="217.909" filterUnits="userSpaceOnUse" color-interpolation-filters="sRGB">
<feFlood flood-opacity="0" result="BackgroundImageFix"/>
<feBlend mode="normal" in="SourceGraphic" in2="BackgroundImageFix" result="shape"/>
<feGaussianBlur stdDeviation="50" result="effect1_foregroundBlur"/>
</filter>
<filter id="filter3_dd" x="2.82666" y="9.271" width="50.5244" height="57.9093" filterUnits="userSpaceOnUse" color-interpolation-filters="sRGB">
<feFlood flood-opacity="0" result="BackgroundImageFix"/>
<feColorMatrix in="SourceAlpha" type="matrix" values="0 0 0 0 0 0 0 0 0 0 0 0 0 0 0 0 0 0 127 0"/>
<feOffset dy="10"/>
<feGaussianBlur stdDeviation="10"/>
<feColorMatrix type="matrix" values="0 0 0 0 0.0745098 0 0 0 0 0.427451 0 0 0 0 0.980392 0 0 0 0.1 0"/>
<feBlend mode="normal" in2="BackgroundImageFix" result="effect1_dropShadow"/>
<feColorMatrix in="SourceAlpha" type="matrix" values="0 0 0 0 0 0 0 0 0 0 0 0 0 0 0 0 0 0 127 0"/>
<feOffset dy="10"/>
<feGaussianBlur stdDeviation="10"/>
<feColorMatrix type="matrix" values="0 0 0 0 0.0705882 0 0 0 0 0.443137 0 0 0 0 0.984314 0 0 0 0.1 0"/>
<feBlend mode="normal" in2="effect1_dropShadow" result="effect2_dropShadow"/>
<feBlend mode="normal" in="SourceGraphic" in2="effect2_dropShadow" result="shape"/>
</filter>
<linearGradient id="paint0_linear" x1="39.1059" y1="53.6672" x2="18.9677" y2="5.23315" gradientUnits="userSpaceOnUse">
<stop stop-color="#E6F2FB"/>
<stop offset="0.50556" stop-color="#FAFBFC"/>
<stop offset="1" stop-color="white"/>
</linearGradient>
<linearGradient id="paint1_linear" x1="23.3298" y1="2.77025" x2="33.1259" y2="51.1924" gradientUnits="userSpaceOnUse">
<stop stop-color="#EEF2F5"/>
<stop offset="0.3995" stop-color="white"/>
<stop offset="1" stop-color="white"/>
</linearGradient>
<linearGradient id="paint2_linear" x1="19.058" y1="18.501" x2="50.9513" y2="43.6423" gradientUnits="userSpaceOnUse">
<stop stop-color="#00C2FF"/>
<stop offset="0.798649" stop-color="#005CDB"/>
</linearGradient>
<linearGradient id="paint3_linear" x1="19.058" y1="18.5009" x2="50.9513" y2="43.6422" gradientUnits="userSpaceOnUse">
<stop stop-color="#00C2FF"/>
<stop offset="0.798649" stop-color="#005CDB"/>
</linearGradient>
<linearGradient id="paint4_linear" x1="19.0578" y1="18.501" x2="50.9511" y2="43.6422" gradientUnits="userSpaceOnUse">
<stop stop-color="#00C2FF"/>
<stop offset="0.798649" stop-color="#005CDB"/>
</linearGradient>
<linearGradient id="paint5_linear" x1="39.8223" y1="31.727" x2="45.3202" y2="31.0995" gradientUnits="userSpaceOnUse">
<stop offset="0.535436" stop-color="#1583E7"/>
<stop offset="0.890745" stop-color="#037AE3"/>
<stop offset="1" stop-color="#0385E7"/>
</linearGradient>
<linearGradient id="paint6_linear" x1="39.8223" y1="31.7266" x2="45.3202" y2="31.0991" gradientUnits="userSpaceOnUse">
<stop offset="0.535436" stop-color="#1583E7"/>
<stop offset="0.890745" stop-color="#037AE3"/>
<stop offset="1" stop-color="#0385E7"/>
</linearGradient>
<linearGradient id="paint7_linear" x1="18.5667" y1="18.501" x2="34.1347" y2="51.441" gradientUnits="userSpaceOnUse">
<stop stop-color="#00C2FF"/>
<stop offset="0.798649" stop-color="#005CDB"/>
</linearGradient>
<clipPath id="clip0">
<rect width="56" height="56" fill="white"/>
</clipPath>
</defs>
</svg>
