<svg width="56" height="56" viewBox="0 0 56 56" fill="none" xmlns="http://www.w3.org/2000/svg">
<path d="M12.6 56C5.54529 56 0 50.4547 0 43.4V12.6C0 5.54529 5.54529 0 12.6 0H43.4C50.4547 0 56 5.54529 56 12.6V43.4C56 50.4547 50.4547 56 43.4 56H12.6Z" fill="url(#paint0_linear)"/>
<path d="M43.9258 51.3332H12.0739C7.95987 51.3332 4.6665 48.0398 4.6665 43.9258V12.0739C4.6665 7.8994 7.89932 4.6665 12.0739 4.6665H43.9258C48.0398 4.6665 51.3332 7.95987 51.3332 12.0739V43.9258C51.3332 48.0398 48.0398 51.3332 43.9258 51.3332Z" fill="url(#paint1_linear)"/>
<path d="M42.8 25.8265C42.8 19.3053 36.3404 14.0001 28.3999 14.0001C20.4604 14.0001 14 19.3053 14 25.8265C14 31.6726 19.1229 36.5686 26.0429 37.4945C26.512 37.5967 27.1502 37.8074 27.3117 38.213C27.4569 38.5815 27.4066 39.1587 27.358 39.5308C27.358 39.5308 27.1891 40.5592 27.1527 40.7782C27.09 41.1467 26.8634 42.2192 28.3999 41.5638C29.9369 40.9084 36.6929 36.622 39.714 33.1027C41.801 30.7867 42.8 28.4364 42.8 25.8265Z" fill="#2CCF54"/>
<path d="M25.4727 22.6661H24.464C24.3093 22.6661 24.1836 22.793 24.1836 22.949V29.2918C24.1836 29.448 24.3093 29.5747 24.464 29.5747H25.4727C25.6274 29.5747 25.7529 29.448 25.7529 29.2918V22.949C25.7529 22.793 25.6274 22.6661 25.4727 22.6661Z" fill="#FBFCFE"/>
<path d="M32.4268 22.6661H31.4167C31.2618 22.6661 31.1362 22.793 31.1362 22.949V26.7173L28.2609 22.7919C28.2077 22.7113 28.1214 22.6714 28.0274 22.6661H27.0176C26.8627 22.6661 26.7368 22.793 26.7368 22.949V29.2918C26.7368 29.448 26.8627 29.5747 27.0176 29.5747H28.0274C28.1825 29.5747 28.3081 29.448 28.3081 29.2918V25.5246L31.187 29.455C31.2387 29.529 31.3265 29.5747 31.4167 29.5747H32.4268C32.5819 29.5747 32.7072 29.448 32.7072 29.2918V22.949C32.7072 22.793 32.5819 22.6661 32.4268 22.6661Z" fill="#FBFCFE"/>
<path d="M23.0391 27.9864H20.2946V22.9493C20.2946 22.7928 20.169 22.6658 20.0144 22.6658H19.0041C18.8492 22.6658 18.7236 22.7928 18.7236 22.9493V29.2909C18.7236 29.4449 18.8487 29.5747 19.0038 29.5747H23.0391C23.194 29.5747 23.319 29.4475 23.319 29.2909V28.2699C23.319 28.1133 23.194 27.9864 23.0391 27.9864Z" fill="#FBFCFE"/>
<path d="M38.0044 24.2541C38.1593 24.2541 38.2844 24.1274 38.2844 23.9706V22.9496C38.2844 22.793 38.1593 22.6658 38.0044 22.6658H33.9694C33.8145 22.6658 33.689 22.7954 33.689 22.9493V29.2912C33.689 29.4447 33.8141 29.5747 33.9689 29.5747H38.0044C38.1593 29.5747 38.2844 29.4475 38.2844 29.2912V28.2699C38.2844 28.1136 38.1593 27.9864 38.0044 27.9864H35.2602V26.9143H38.0044C38.1593 26.9143 38.2844 26.7873 38.2844 26.6308V25.6097C38.2844 25.4532 38.1593 25.3259 38.0044 25.3259H35.2602V24.2541H38.0044Z" fill="#FBFCFE"/>
<defs>
<linearGradient id="paint0_linear" x1="38.6721" y1="53.6672" x2="18.5339" y2="5.23315" gradientUnits="userSpaceOnUse">
<stop stop-color="#E6F2FB"/>
<stop offset="0.50556" stop-color="#FAFBFC"/>
<stop offset="1" stop-color="white"/>
</linearGradient>
<linearGradient id="paint1_linear" x1="22.8957" y1="2.77025" x2="32.6918" y2="51.1924" gradientUnits="userSpaceOnUse">
<stop stop-color="#EEF2F5"/>
<stop offset="0.3995" stop-color="white"/>
<stop offset="1" stop-color="white"/>
</linearGradient>
</defs>
</svg>
