<svg width="56" height="56" viewBox="0 0 56 56" fill="none" xmlns="http://www.w3.org/2000/svg">
<path d="M12.6 56C5.54529 56 0 50.4547 0 43.4V12.6C0 5.54529 5.54529 0 12.6 0H43.4C50.4547 0 56 5.54529 56 12.6V43.4C56 50.4547 50.4547 56 43.4 56H12.6Z" fill="url(#paint0_linear)"/>
<path d="M43.926 51.3332H12.0742C7.96011 51.3332 4.66675 48.0398 4.66675 43.9258V12.0739C4.66675 7.8994 7.89957 4.6665 12.0742 4.6665H43.926C48.0401 4.6665 51.3334 7.95987 51.3334 12.0739V43.9258C51.3334 48.0398 48.0401 51.3332 43.926 51.3332Z" fill="url(#paint1_linear)"/>
<path fill-rule="evenodd" clip-rule="evenodd" d="M19.605 14C17.2645 14 15.3672 15.8974 15.3672 18.2378V35.8955C15.3672 38.236 17.2645 40.1333 19.605 40.1333H23.4346L22.6238 42.4012C22.378 43.088 22.8865 43.7949 23.6041 43.6649C25.8022 43.2668 28.3957 42.0768 30.1 40.7474C30.3571 40.5472 30.605 40.3425 30.8445 40.1333H37.2627C39.6034 40.1333 41.5005 38.236 41.5005 35.8955V18.2378C41.5005 15.8974 39.6034 14 37.2627 14H19.605Z" fill="url(#paint2_linear)"/>
<path fill-rule="evenodd" clip-rule="evenodd" d="M19.605 14C17.2645 14 15.3672 15.8974 15.3672 18.2378V35.8955C15.3672 38.236 17.2645 40.1333 19.605 40.1333H23.4346L22.6238 42.4012C22.378 43.088 22.8865 43.7949 23.6041 43.6649C25.8022 43.2668 28.3957 42.0768 30.1 40.7474C30.3571 40.5472 30.605 40.3425 30.8445 40.1333H37.2627C39.6034 40.1333 41.5005 38.236 41.5005 35.8955V18.2378C41.5005 15.8974 39.6034 14 37.2627 14H19.605Z" fill="url(#paint3_linear)"/>
<path fill-rule="evenodd" clip-rule="evenodd" d="M19.605 14C17.2645 14 15.3672 15.8974 15.3672 18.2378V35.8955C15.3672 38.236 17.2645 40.1333 19.605 40.1333H23.4346L22.6238 42.4012C22.378 43.088 22.8865 43.7949 23.6041 43.6649C25.8022 43.2668 28.3957 42.0768 30.1 40.7474C30.3571 40.5472 30.605 40.3425 30.8445 40.1333H37.2627C39.6034 40.1333 41.5005 38.236 41.5005 35.8955V18.2378C41.5005 15.8974 39.6034 14 37.2627 14H19.605Z" fill="url(#paint4_linear)" fill-opacity="0.5"/>
<mask id="mask0" mask-type="alpha" maskUnits="userSpaceOnUse" x="15" y="14" width="27" height="30">
<path fill-rule="evenodd" clip-rule="evenodd" d="M19.605 14C17.2645 14 15.3672 15.8974 15.3672 18.2378V35.8955C15.3672 38.236 17.2645 40.1333 19.605 40.1333H23.4346L22.6238 42.4012C22.378 43.088 22.8865 43.7949 23.6041 43.6649C25.8022 43.2668 28.3957 42.0768 30.1 40.7474C30.3571 40.5472 30.605 40.3425 30.8445 40.1333H37.2627C39.6034 40.1333 41.5005 38.236 41.5005 35.8955V18.2378C41.5005 15.8974 39.6034 14 37.2627 14H19.605Z" fill="url(#paint5_linear)"/>
<path fill-rule="evenodd" clip-rule="evenodd" d="M19.605 14C17.2645 14 15.3672 15.8974 15.3672 18.2378V35.8955C15.3672 38.236 17.2645 40.1333 19.605 40.1333H23.4346L22.6238 42.4012C22.378 43.088 22.8865 43.7949 23.6041 43.6649C25.8022 43.2668 28.3957 42.0768 30.1 40.7474C30.3571 40.5472 30.605 40.3425 30.8445 40.1333H37.2627C39.6034 40.1333 41.5005 38.236 41.5005 35.8955V18.2378C41.5005 15.8974 39.6034 14 37.2627 14H19.605Z" fill="url(#paint6_linear)"/>
<path fill-rule="evenodd" clip-rule="evenodd" d="M19.605 14C17.2645 14 15.3672 15.8974 15.3672 18.2378V35.8955C15.3672 38.236 17.2645 40.1333 19.605 40.1333H23.4346L22.6238 42.4012C22.378 43.088 22.8865 43.7949 23.6041 43.6649C25.8022 43.2668 28.3957 42.0768 30.1 40.7474C30.3571 40.5472 30.605 40.3425 30.8445 40.1333H37.2627C39.6034 40.1333 41.5005 38.236 41.5005 35.8955V18.2378C41.5005 15.8974 39.6034 14 37.2627 14H19.605Z" fill="url(#paint7_linear)" fill-opacity="0.35"/>
</mask>
<g mask="url(#mask0)">
<g style="mix-blend-mode:soft-light">
<path d="M15.3672 18.2378C15.3672 15.8974 17.2645 14 19.605 14H37.2627C39.6034 14 41.5005 15.8974 41.5005 18.2378V35.8955C41.5005 38.236 39.6034 40.1333 37.2627 40.1333H19.605C17.2645 40.1333 15.3672 38.236 15.3672 35.8955V18.2378Z" fill="white" fill-opacity="0.05"/>
</g>
<g filter="url(#filter0_f)">
<path d="M27.1978 43.0995C30.611 43.0995 33.3779 41.7713 33.3779 40.133C33.3779 38.4946 30.611 37.1665 27.1978 37.1665C23.7845 37.1665 21.0176 38.4946 21.0176 40.133C21.0176 41.7713 23.7845 43.0995 27.1978 43.0995Z" fill="#E97618"/>
</g>
<g filter="url(#filter1_dd)">
<path d="M29.2036 18.3794H29.6132C30.2425 18.4044 30.8726 18.5211 31.456 18.7618C31.8515 18.9245 32.2414 19.1309 32.5331 19.4503C32.7026 19.6356 32.8361 19.8547 32.9223 20.0909C33.0205 20.365 33.0572 20.6595 33.0431 20.9496C33.0282 21.2211 32.9689 21.4927 32.8524 21.7392C32.7605 21.9208 32.6694 22.1042 32.5501 22.2699C32.4003 22.4804 32.2089 22.6654 31.9786 22.7851C31.7032 22.9272 31.3783 22.983 31.0739 22.915C30.6769 22.8332 30.3365 22.5306 30.2016 22.1501C30.1769 22.0333 30.1931 21.9068 30.244 21.7989C30.275 21.7293 30.3563 21.7096 30.4248 21.7009C30.5745 21.6835 30.7165 21.7455 30.8634 21.7591C30.9623 21.7721 31.0435 21.6937 31.0901 21.6146C31.1424 21.5352 31.1523 21.4383 31.153 21.3457C31.153 21.1891 31.1558 21.0306 31.1226 20.8765C31.0965 20.7458 31.0273 20.6293 30.9552 20.5191C30.8436 20.352 30.6741 20.2361 30.5011 20.1401C30.2256 19.979 29.9056 19.9143 29.5906 19.8923C29.3208 19.8707 29.0482 19.8843 28.7826 19.9399C28.2896 20.0484 27.8475 20.3336 27.5063 20.7009C27.2203 21.0009 26.9851 21.3624 26.8904 21.7698C26.7986 22.1622 26.8389 22.5864 27.014 22.9506C27.1623 23.2618 27.3947 23.5265 27.6645 23.7388C28.0594 24.066 28.4874 24.3505 28.9331 24.6031C29.2007 24.7585 29.4847 24.8826 29.7637 25.0163C30.0441 25.152 30.3209 25.2946 30.595 25.4429C30.7638 25.5371 30.9369 25.6257 31.1035 25.7247C31.3465 25.8705 31.5775 26.0372 31.7922 26.2228C31.9525 26.3583 32.0945 26.5136 32.2499 26.6548C32.4582 26.8527 32.6482 27.0687 32.8241 27.2954C32.935 27.4403 33.0438 27.5877 33.1384 27.7445C33.3821 28.1461 33.5467 28.596 33.6166 29.0609C33.6413 29.2168 33.6512 29.3746 33.6604 29.5321V29.7864C33.6469 30.1367 33.6159 30.4876 33.5424 30.831C33.4322 31.3677 33.2323 31.8872 32.9421 32.3527C32.6906 32.7572 32.3742 33.1193 32.0154 33.4319C31.6714 33.7269 31.2971 33.9864 30.9051 34.2141C30.4092 34.5 29.8795 34.7288 29.3272 34.8815C28.8794 35.0085 28.4167 35.0704 27.9555 35.1205C27.8983 35.2104 27.8453 35.3031 27.7917 35.3952C27.6624 35.6243 27.5572 35.8721 27.3771 36.068C27.1927 36.2772 26.9363 36.4372 26.6531 36.4582C26.4207 36.4778 26.1862 36.3933 26.0068 36.246C25.7801 36.0544 25.6473 35.7647 25.6169 35.4719C25.6021 35.3829 25.6607 35.2838 25.7533 35.269C26.0217 35.2159 26.2872 35.1362 26.5323 35.0136C26.5669 34.9957 26.6037 34.9815 26.6333 34.9564C26.6482 34.9136 26.5966 34.8926 26.5641 34.8835C26.3423 34.8271 26.117 34.7804 25.8974 34.7143C25.6035 34.6292 25.3154 34.5267 25.0328 34.4094C24.8188 34.3196 24.6048 34.2259 24.4085 34.1011C24.0871 33.8625 23.7798 33.5961 23.5446 33.2699C23.3137 32.9481 23.2381 32.5465 23.207 32.1594V31.9193C23.2169 31.8268 23.2296 31.7342 23.2522 31.6438C23.3455 31.2474 23.5828 30.8944 23.89 30.6311C24.306 30.2727 24.8612 30.0707 25.4121 30.109C25.8578 30.1377 26.2851 30.3172 26.6411 30.5827C27.0084 30.8552 27.3086 31.2111 27.5438 31.6019C27.8016 32.032 27.9887 32.505 28.0897 32.9964C28.0996 33.0429 28.1039 33.091 28.1215 33.1358C28.3327 33.0899 28.5361 33.0156 28.7367 32.9379C29.1704 32.763 29.5807 32.5297 29.9445 32.2353C30.2376 31.9973 30.5018 31.7205 30.7087 31.404C30.9227 31.0761 31.0788 30.7063 31.1382 30.3179C31.1558 30.1905 31.1805 30.0624 31.1713 29.9333C31.1586 29.7823 31.1283 29.633 31.0816 29.489C30.9467 29.0792 30.6882 28.7223 30.3895 28.4161C30.0081 28.0178 29.5709 27.6747 29.099 27.39C28.3843 26.9778 27.6674 26.5686 26.9476 26.1654C26.2441 25.7812 25.5979 25.2866 25.0674 24.6844C24.7574 24.3426 24.5137 23.9372 24.3802 23.4945C24.2241 22.9844 24.2291 22.439 24.3124 21.9164C24.4198 21.255 24.7185 20.6257 25.167 20.1275C25.4573 19.801 25.8027 19.5274 26.1728 19.2966C26.5832 19.0419 27.0204 18.8289 27.4809 18.6808C28.0368 18.4982 28.6195 18.4031 29.2036 18.3794ZM24.5914 31.7566C24.5257 31.8715 24.5116 32.0079 24.5158 32.138C24.5264 32.3346 24.6295 32.5177 24.7736 32.6488C24.9693 32.8294 25.2158 32.9405 25.463 33.0316C25.5929 33.0769 25.7208 33.1295 25.8536 33.1659C26.0746 33.2289 26.3014 33.2659 26.5267 33.306C26.6022 33.3185 26.6764 33.3373 26.7534 33.3366C26.6128 32.8419 26.3628 32.378 26.0266 31.9895C25.9178 31.8622 25.7971 31.744 25.6572 31.651C25.5004 31.5454 25.3189 31.4688 25.1282 31.4596C24.9128 31.4507 24.7023 31.5742 24.5914 31.7566Z" fill="white"/>
</g>
</g>
<defs>
<filter id="filter0_f" x="-52.9824" y="-36.8335" width="160.36" height="153.933" filterUnits="userSpaceOnUse" color-interpolation-filters="sRGB">
<feFlood flood-opacity="0" result="BackgroundImageFix"/>
<feBlend mode="normal" in="SourceGraphic" in2="BackgroundImageFix" result="shape"/>
<feGaussianBlur stdDeviation="37" result="effect1_foregroundBlur"/>
</filter>
<filter id="filter1_dd" x="3.20703" y="8.37939" width="50.4533" height="58.0816" filterUnits="userSpaceOnUse" color-interpolation-filters="sRGB">
<feFlood flood-opacity="0" result="BackgroundImageFix"/>
<feColorMatrix in="SourceAlpha" type="matrix" values="0 0 0 0 0 0 0 0 0 0 0 0 0 0 0 0 0 0 127 0"/>
<feOffset dy="10"/>
<feGaussianBlur stdDeviation="10"/>
<feColorMatrix type="matrix" values="0 0 0 0 0.886275 0 0 0 0 0.482353 0 0 0 0 0.133333 0 0 0 0.1 0"/>
<feBlend mode="normal" in2="BackgroundImageFix" result="effect1_dropShadow"/>
<feColorMatrix in="SourceAlpha" type="matrix" values="0 0 0 0 0 0 0 0 0 0 0 0 0 0 0 0 0 0 127 0"/>
<feOffset dy="10"/>
<feGaussianBlur stdDeviation="10"/>
<feColorMatrix type="matrix" values="0 0 0 0 0.886275 0 0 0 0 0.482353 0 0 0 0 0.133333 0 0 0 0.1 0"/>
<feBlend mode="normal" in2="effect1_dropShadow" result="effect2_dropShadow"/>
<feBlend mode="normal" in="SourceGraphic" in2="effect2_dropShadow" result="shape"/>
</filter>
<linearGradient id="paint0_linear" x1="38.6721" y1="53.6672" x2="18.5339" y2="5.23315" gradientUnits="userSpaceOnUse">
<stop stop-color="#E6F2FB"/>
<stop offset="0.50556" stop-color="#FAFBFC"/>
<stop offset="1" stop-color="white"/>
</linearGradient>
<linearGradient id="paint1_linear" x1="22.896" y1="2.77025" x2="32.6921" y2="51.1924" gradientUnits="userSpaceOnUse">
<stop stop-color="#EEF2F5"/>
<stop offset="0.3995" stop-color="white"/>
<stop offset="1" stop-color="white"/>
</linearGradient>
<linearGradient id="paint2_linear" x1="15.3672" y1="14" x2="44.9565" y2="39.9802" gradientUnits="userSpaceOnUse">
<stop stop-color="#00B1FF"/>
<stop offset="1" stop-color="#006BFF"/>
</linearGradient>
<linearGradient id="paint3_linear" x1="15.3672" y1="14" x2="27.077" y2="46.1032" gradientUnits="userSpaceOnUse">
<stop stop-color="#FCBF22"/>
<stop offset="1" stop-color="#DD7021"/>
</linearGradient>
<linearGradient id="paint4_linear" x1="28.4854" y1="14" x2="28.4854" y2="43.9334" gradientUnits="userSpaceOnUse">
<stop stop-color="#FD9D04"/>
<stop offset="1" stop-color="#FA7302"/>
</linearGradient>
<linearGradient id="paint5_linear" x1="15.3672" y1="14" x2="44.9565" y2="39.9802" gradientUnits="userSpaceOnUse">
<stop stop-color="#00B1FF"/>
<stop offset="1" stop-color="#006BFF"/>
</linearGradient>
<linearGradient id="paint6_linear" x1="15.3672" y1="14" x2="27.077" y2="46.1032" gradientUnits="userSpaceOnUse">
<stop stop-color="#FCBF22"/>
<stop offset="1" stop-color="#DD7021"/>
</linearGradient>
<linearGradient id="paint7_linear" x1="28.4854" y1="14" x2="28.4854" y2="43.9334" gradientUnits="userSpaceOnUse">
<stop stop-color="#FD9D04"/>
<stop offset="1" stop-color="#FA7302"/>
</linearGradient>
</defs>
</svg>
