<svg width="56" height="56" viewBox="0 0 56 56" fill="none" xmlns="http://www.w3.org/2000/svg">
<path d="M12.6 56C5.54529 56 0 50.4547 0 43.4V12.6C0 5.54529 5.54529 0 12.6 0H43.4C50.4547 0 56 5.54529 56 12.6V43.4C56 50.4547 50.4547 56 43.4 56H12.6Z" fill="url(#paint0_linear)"/>
<path d="M43.9258 51.3332H12.0739C7.95987 51.3332 4.6665 48.0398 4.6665 43.9258V12.0739C4.6665 7.8994 7.89932 4.6665 12.0739 4.6665H43.9258C48.0398 4.6665 51.3332 7.95987 51.3332 12.0739V43.9258C51.3332 48.0398 48.0398 51.3332 43.9258 51.3332Z" fill="url(#paint1_linear)"/>
<path d="M14 42L15.9535 34.8372C14.6925 32.6975 14 30.1754 14 27.6744C14 19.9729 20.6159 14 28.3256 14C36.0353 14 42 19.9729 42 27.6744C42 35.3756 36.0353 42 28.3256 42C25.9231 42 23.2435 41.2128 21.1628 40.0465L14 42ZM21.1628 38.093H22.4651C24.2796 39.1993 26.1882 40.0465 28.3256 40.0465C34.7275 40.0465 40.0465 34.0693 40.0465 27.6744C40.0465 21.2793 34.7275 15.9535 28.3256 15.9535C21.9237 15.9535 15.9535 21.2793 15.9535 27.6744C15.9535 29.9025 16.7076 32.9716 17.907 34.8372L17.2558 38.7442L21.1628 38.093Z" fill="#00D729"/>
<path d="M24.4192 21.1624H23.1169C22.8193 21.1466 22.6904 20.9721 22.4657 21.1624C22.0067 21.5514 21.3886 22.1362 21.1634 23.1159C20.8275 24.5763 21.7728 26.5371 23.1169 28.3252C24.461 30.1134 26.5021 33.6149 30.9308 34.8369C32.3582 35.2306 33.9717 34.075 34.8378 33.5345C35.5242 33.1063 35.9697 33.6604 36.1401 32.8834V31.581C36.1885 31.3619 36.3487 30.3726 36.1401 30.2787L32.8843 29.6276C32.6767 29.5341 31.7216 29.4508 31.582 29.6276L30.9308 31.581C30.836 31.7011 31.0776 31.6314 30.9308 31.581C30.0713 31.286 27.3019 30.6444 25.7215 27.6741C25.6527 27.5453 25.6239 26.4814 25.7215 26.3717L26.3727 25.7206C26.4954 25.5822 26.4465 24.5863 26.3727 24.4182L24.4192 21.1624C24.6052 21.172 24.3458 20.9948 24.4192 21.1624Z" fill="#00D729"/>
<defs>
<linearGradient id="paint0_linear" x1="38.6721" y1="53.6672" x2="18.5339" y2="5.23315" gradientUnits="userSpaceOnUse">
<stop stop-color="#E6F2FB"/>
<stop offset="0.50556" stop-color="#FAFBFC"/>
<stop offset="1" stop-color="white"/>
</linearGradient>
<linearGradient id="paint1_linear" x1="22.8957" y1="2.77025" x2="32.6918" y2="51.1924" gradientUnits="userSpaceOnUse">
<stop stop-color="#EEF2F5"/>
<stop offset="0.3995" stop-color="white"/>
<stop offset="1" stop-color="white"/>
</linearGradient>
</defs>
</svg>
