<svg width="56" height="56" viewBox="0 0 56 56" fill="none" xmlns="http://www.w3.org/2000/svg">
<path d="M12.6 56C5.54529 56 0 50.4547 0 43.4V12.6C0 5.54529 5.54529 0 12.6 0H43.4C50.4547 0 56 5.54529 56 12.6V43.4C56 50.4547 50.4547 56 43.4 56H12.6Z" fill="url(#paint0_linear)"/>
<path d="M43.9258 51.3332H12.0739C7.95987 51.3332 4.6665 48.0398 4.6665 43.9258V12.0739C4.6665 7.8994 7.89932 4.6665 12.0739 4.6665H43.9258C48.0398 4.6665 51.3332 7.95987 51.3332 12.0739V43.9258C51.3332 48.0398 48.0398 51.3332 43.9258 51.3332Z" fill="url(#paint1_linear)"/>
<path d="M35.6965 26.7932C35.7231 23.7882 33.064 21.0334 29.769 20.6525C29.7034 20.645 29.6321 20.6336 29.5565 20.6216C29.3934 20.5956 29.2247 20.5688 29.0544 20.5688C28.3791 20.5688 28.1986 21.0254 28.1511 21.2977C28.1049 21.5625 28.1489 21.7849 28.2819 21.9589C28.5055 22.2516 28.899 22.3035 29.2151 22.3452C29.3077 22.3575 29.3951 22.3689 29.4683 22.3847C32.4288 23.0214 33.4256 24.0225 33.9128 26.8476C33.9247 26.9167 33.9301 27.0017 33.9358 27.092C33.957 27.4297 34.0013 28.1323 34.7861 28.1323H34.7862C34.8515 28.1323 34.9218 28.1269 34.9949 28.1161C35.7257 28.0092 35.7028 27.367 35.6918 27.0584C35.6887 26.9715 35.6857 26.8893 35.6934 26.8346C35.6954 26.8208 35.6965 26.807 35.6965 26.7932Z" fill="#644382"/>
<path d="M29.1669 19.3697C29.2512 19.3755 29.3309 19.3811 29.3974 19.3909C34.0697 20.0834 36.2184 22.2167 36.8139 26.7546C36.824 26.8318 36.8256 26.9259 36.8272 27.0255C36.8332 27.38 36.8454 28.1176 37.6673 28.1329L37.6928 28.1331C37.9506 28.1331 38.1556 28.0582 38.3023 27.9103C38.5581 27.6524 38.5403 27.2693 38.5259 26.9613C38.5224 26.8858 38.519 26.8147 38.5199 26.7524C38.5793 22.1112 34.4106 17.9027 29.599 17.7462C29.579 17.7456 29.56 17.7466 29.5407 17.7492C29.5313 17.7505 29.5138 17.7522 29.4838 17.7522C29.4358 17.7522 29.3767 17.7482 29.3142 17.7441C29.2385 17.7391 29.1527 17.7334 29.0657 17.7334C28.2994 17.7334 28.1538 18.2583 28.1351 18.5711C28.0922 19.2942 28.818 19.3451 29.1669 19.3697Z" fill="#644382"/>
<path d="M36.2825 32.8038C36.1844 32.7293 36.0829 32.6522 35.9879 32.5762C35.4841 32.1731 34.9481 31.8017 34.4297 31.4424C34.3221 31.3679 34.2145 31.2933 34.1073 31.2186C33.4433 30.755 32.8463 30.5297 32.2822 30.5297C31.5226 30.5297 30.8602 30.9469 30.3136 31.7696C30.0714 32.1343 29.7775 32.3117 29.4154 32.3117C29.2013 32.3117 28.958 32.2509 28.6924 32.1311C26.549 31.165 25.0185 29.6837 24.1432 27.7285C23.7202 26.7834 23.8573 26.1657 24.6019 25.663C25.0247 25.3777 25.8118 24.8467 25.756 23.8298C25.6929 22.675 23.1294 19.2003 22.0493 18.8056C21.592 18.6385 21.1116 18.6369 20.6187 18.8017C19.3771 19.2166 18.486 19.9453 18.0417 20.9087C17.6124 21.8397 17.6318 22.9328 18.0978 24.0698C19.4451 27.3574 21.3393 30.2238 23.728 32.5891C26.0661 34.9046 28.9398 36.8012 32.2693 38.2262C32.5694 38.3546 32.8842 38.4246 33.1141 38.4757C33.1924 38.4932 33.26 38.5081 33.3093 38.5215C33.3364 38.5289 33.3643 38.5328 33.3923 38.5331L33.4187 38.5332C33.4187 38.5332 33.4187 38.5332 33.4188 38.5332C34.9848 38.5332 36.865 37.1109 37.4425 35.4893C37.9485 34.0695 37.0247 33.3677 36.2825 32.8038Z" fill="#644382"/>
<path d="M30.2861 23.4074C29.9874 23.4147 29.3656 23.4297 29.1475 24.045C29.0454 24.3325 29.0576 24.5822 29.1839 24.787C29.3691 25.0875 29.7239 25.1796 30.0467 25.2302C31.2171 25.4127 31.8183 26.0416 31.9385 27.2092C31.9944 27.7537 32.3717 28.1339 32.8562 28.1339H32.8562C32.892 28.1339 32.9286 28.1318 32.9651 28.1275C33.5477 28.0602 33.8302 27.6442 33.8047 26.8913C33.814 26.1055 33.3908 25.2135 32.671 24.5029C31.9487 23.7902 31.0781 23.3888 30.2861 23.4074Z" fill="#644382"/>
<defs>
<linearGradient id="paint0_linear" x1="38.6721" y1="53.6672" x2="18.5339" y2="5.23315" gradientUnits="userSpaceOnUse">
<stop stop-color="#E6F2FB"/>
<stop offset="0.50556" stop-color="#FAFBFC"/>
<stop offset="1" stop-color="white"/>
</linearGradient>
<linearGradient id="paint1_linear" x1="22.8957" y1="2.77025" x2="32.6918" y2="51.1924" gradientUnits="userSpaceOnUse">
<stop stop-color="#EEF2F5"/>
<stop offset="0.3995" stop-color="white"/>
<stop offset="1" stop-color="white"/>
</linearGradient>
</defs>
</svg>
