<svg width="114" height="114" viewBox="0 0 114 114" fill="none" xmlns="http://www.w3.org/2000/svg">
<circle cx="57" cy="57" r="56" stroke="#C0C6D3" stroke-width="2" stroke-linecap="round" stroke-dasharray="0 11"/>
<circle cx="57" cy="57" r="49" fill="#545F75"/>
<path fill-rule="evenodd" clip-rule="evenodd" d="M73.3007 61.6375C74.8502 59.2066 75.6712 56.3828 75.6667 53.5C75.6667 45.1233 68.8767 38.3333 60.5 38.3333C57.5052 38.3333 54.7133 39.2013 52.3625 40.6982C50.798 40.7859 49.2495 41.0593 47.7495 41.5125C49.3842 39.7697 51.3594 38.3811 53.5526 37.4329C55.7459 36.4847 58.1105 35.997 60.5 36C70.1647 36 78 43.8353 78 53.5C78 58.526 75.8813 63.0585 72.4875 66.2505C72.932 64.777 73.2108 63.2323 73.3007 61.6375Z" fill="white"/>
<path fill-rule="evenodd" clip-rule="evenodd" d="M75.5885 62.3702C74.7437 63.8039 73.6996 65.1104 72.4875 66.2505C72.932 64.777 73.2108 63.2323 73.3007 61.6375C74.8502 59.2066 75.6712 56.3828 75.6667 53.5C75.6667 45.1234 68.8767 38.3334 60.5 38.3334C57.5052 38.3334 54.7133 39.2014 52.3625 40.6982C50.798 40.7859 49.2495 41.0593 47.7495 41.5125C48.8897 40.3004 50.1961 39.2563 51.6298 38.4115C54.3173 36.8279 57.3807 35.9951 60.5 36C70.1647 36 78 43.8353 78 53.5C78.0055 56.6194 77.1726 59.6829 75.5885 62.3702Z" fill="white"/>
<path fill-rule="evenodd" clip-rule="evenodd" d="M53.5 75.6665C61.8767 75.6665 68.6666 68.8765 68.6666 60.4999C68.6666 52.1232 61.8767 45.3332 53.5 45.3332C45.1233 45.3332 38.3333 52.1232 38.3333 60.4999C38.3333 68.8765 45.1233 75.6665 53.5 75.6665ZM53.5 77.9999C63.1647 77.9999 71 70.1645 71 60.4999C71 50.8352 63.1647 42.9999 53.5 42.9999C43.8353 42.9999 36 50.8352 36 60.4999C36 70.1645 43.8353 77.9999 53.5 77.9999Z" fill="white"/>
<path fill-rule="evenodd" clip-rule="evenodd" d="M52.3332 54.6668C51.7143 54.6668 51.1208 54.9127 50.6833 55.3502C50.2457 55.7878 49.9998 56.3813 49.9998 57.0002C49.9998 57.619 50.2457 58.2125 50.6833 58.6501C51.1208 59.0877 51.7143 59.3335 52.3332 59.3335H54.6665C55.9042 59.3335 57.0912 59.8252 57.9663 60.7003C58.8415 61.5755 59.3332 62.7625 59.3332 64.0002C59.3332 65.2378 58.8415 66.4248 57.9663 67.3C57.0912 68.1752 55.9042 68.6668 54.6665 68.6668H52.3332C51.368 68.6668 50.4265 68.3676 49.6384 67.8104C48.8503 67.2531 48.2543 66.4653 47.9325 65.5553C47.8764 65.4098 47.85 65.2544 47.855 65.0985C47.8599 64.9426 47.8961 64.7893 47.9614 64.6476C48.0266 64.5059 48.1196 64.3787 48.2349 64.2736C48.3502 64.1685 48.4853 64.0876 48.6324 64.0356C48.7795 63.9836 48.9355 63.9617 49.0912 63.9711C49.2469 63.9804 49.3992 64.021 49.539 64.0902C49.6787 64.1594 49.8032 64.256 49.905 64.3742C50.0068 64.4924 50.0839 64.6298 50.1317 64.7783C50.2928 65.2333 50.591 65.6272 50.9853 65.9057C51.3796 66.1842 51.8505 66.3337 52.3332 66.3335H54.6665C55.2853 66.3335 55.8788 66.0877 56.3164 65.6501C56.754 65.2125 56.9998 64.619 56.9998 64.0002C56.9998 63.3813 56.754 62.7878 56.3164 62.3502C55.8788 61.9127 55.2853 61.6668 54.6665 61.6668H52.3332C51.0955 61.6668 49.9085 61.1752 49.0333 60.3C48.1582 59.4248 47.6665 58.2378 47.6665 57.0002C47.6665 55.7625 48.1582 54.5755 49.0333 53.7003C49.9085 52.8252 51.0955 52.3335 52.3332 52.3335H54.6665C55.6317 52.3335 56.5732 52.6327 57.3613 53.19C58.1494 53.7472 58.7453 54.535 59.0672 55.445C59.1233 55.5905 59.1496 55.7459 59.1447 55.9018C59.1397 56.0577 59.1035 56.211 59.0383 56.3527C58.973 56.4944 58.88 56.6216 58.7648 56.7267C58.6495 56.8318 58.5143 56.9128 58.3673 56.9647C58.2202 57.0167 58.0642 57.0386 57.9085 57.0293C57.7527 57.0199 57.6005 56.9794 57.4607 56.9101C57.3209 56.8409 57.1965 56.7443 57.0946 56.6261C56.9928 56.5079 56.9158 56.3705 56.868 56.222C56.7069 55.767 56.4086 55.3731 56.0144 55.0946C55.6201 54.8161 55.1492 54.6666 54.6665 54.6668H52.3332Z" fill="white"/>
<path fill-rule="evenodd" clip-rule="evenodd" d="M52.3335 69.8332V51.1665H54.6668V69.8332H52.3335Z" fill="white"/>
</svg>
