<svg width="48" height="48" viewBox="0 0 48 48" fill="none" xmlns="http://www.w3.org/2000/svg">
<g clip-path="url(#clip0)">
<path d="M26.8125 0C19.8335 0 14.1563 5.77097 14.1563 12.75C14.1563 19.729 19.8335 25.4062 26.8125 25.4062C33.7915 25.4062 39.4688 19.729 39.4688 12.75C39.4688 5.77097 33.7915 0 26.8125 0ZM1.40625 31.0312C0.629625 31.0312 0 31.6607 0 32.4375V46.5938C0 47.3704 0.629625 48 1.40625 48H7.03125C7.80788 48 8.4375 47.3704 8.4375 46.5938V45.0224L9.84375 42.227V33.6069L8.4375 31.0312H1.40625Z" fill="url(#paint0_linear)"/>
<path d="M26.8125 16.9687C26.0379 16.9687 25.4063 16.3384 25.4063 15.5625C25.4063 14.7852 24.7773 14.1562 24 14.1562C23.2227 14.1562 22.5938 14.7852 22.5938 15.5625C22.5938 17.3934 23.7729 18.9397 25.4063 19.5222V21.1875C25.4063 21.9648 26.0352 22.5937 26.8125 22.5937C27.5898 22.5937 28.2188 21.9648 28.2188 21.1875V19.5222C29.8521 18.9397 31.0313 17.3934 31.0313 15.5625C31.0313 13.2362 29.1388 11.3437 26.8125 11.3437C26.0379 11.3437 25.4063 10.7134 25.4063 9.9375C25.4063 9.16162 26.0379 8.53125 26.8125 8.53125C27.5871 8.53125 28.2188 9.16162 28.2188 9.9375C28.2188 10.7148 28.8477 11.3437 29.625 11.3437C30.4023 11.3437 31.0313 10.7148 31.0313 9.9375C31.0313 8.10656 29.8521 6.56025 28.2188 5.97778V4.3125C28.2188 3.53522 27.5898 2.90625 26.8125 2.90625C26.0352 2.90625 25.4063 3.53522 25.4063 4.3125V5.97778C23.7729 6.56025 22.5938 8.10656 22.5938 9.9375C22.5938 12.2638 24.4862 14.1562 26.8125 14.1562C27.5871 14.1562 28.2188 14.7866 28.2188 15.5625C28.2188 16.3384 27.5871 16.9687 26.8125 16.9687ZM47.588 31.4433L47.5818 31.4371C46.0408 29.8972 43.5657 29.8468 41.9607 31.3195L33.3878 39.0994C33.0338 39.4253 32.5456 39.5356 32.1133 39.4303L19.512 36.4489C18.7567 36.2704 18.2898 35.5136 18.4683 34.757C18.6441 34.0016 19.3966 33.5333 20.1602 33.7132L28.9118 35.7838C31.0644 36.2932 33.2302 34.9885 33.7843 32.8472C33.7905 32.8232 33.7965 32.7993 33.8025 32.7753C33.9893 32.0227 33.5306 31.2606 32.778 31.0738L21.528 28.2613C21.3028 28.2037 21.0721 28.2037 20.8468 28.2613L8.4375 31.0312V45.0224L32.2617 47.989C32.7248 48.0416 33.1376 47.8806 33.4318 47.5881L47.5881 33.4318C48.1374 32.8824 48.1374 31.9926 47.588 31.4433Z" fill="white"/>
<path d="M26.8125 16.9687C26.0379 16.9687 25.4063 16.3384 25.4063 15.5625C25.4063 14.7852 24.7773 14.1562 24 14.1562C23.2227 14.1562 22.5938 14.7852 22.5938 15.5625C22.5938 17.3934 23.7729 18.9397 25.4063 19.5222V21.1875C25.4063 21.9648 26.0352 22.5937 26.8125 22.5937C27.5898 22.5937 28.2188 21.9648 28.2188 21.1875V19.5222C29.8521 18.9397 31.0313 17.3934 31.0313 15.5625C31.0313 13.2362 29.1388 11.3437 26.8125 11.3437C26.0379 11.3437 25.4063 10.7134 25.4063 9.9375C25.4063 9.16162 26.0379 8.53125 26.8125 8.53125C27.5871 8.53125 28.2188 9.16162 28.2188 9.9375C28.2188 10.7148 28.8477 11.3437 29.625 11.3437C30.4023 11.3437 31.0313 10.7148 31.0313 9.9375C31.0313 8.10656 29.8521 6.56025 28.2188 5.97778V4.3125C28.2188 3.53522 27.5898 2.90625 26.8125 2.90625C26.0352 2.90625 25.4063 3.53522 25.4063 4.3125V5.97778C23.7729 6.56025 22.5938 8.10656 22.5938 9.9375C22.5938 12.2638 24.4862 14.1562 26.8125 14.1562C27.5871 14.1562 28.2188 14.7866 28.2188 15.5625C28.2188 16.3384 27.5871 16.9687 26.8125 16.9687ZM47.588 31.4433L47.5818 31.4371C46.0408 29.8972 43.5657 29.8468 41.9607 31.3195L33.3878 39.0994C33.0338 39.4253 32.5456 39.5356 32.1133 39.4303L19.512 36.4489C18.7567 36.2704 18.2898 35.5136 18.4683 34.757C18.6441 34.0016 19.3966 33.5333 20.1602 33.7132L28.9118 35.7838C31.0644 36.2932 33.2302 34.9885 33.7843 32.8472C33.7905 32.8232 33.7965 32.7993 33.8025 32.7753C33.9893 32.0227 33.5306 31.2606 32.778 31.0738L21.528 28.2613C21.3028 28.2037 21.0721 28.2037 20.8468 28.2613L8.4375 31.0312V45.0224L32.2617 47.989C32.7248 48.0416 33.1376 47.8806 33.4318 47.5881L47.5881 33.4318C48.1374 32.8824 48.1374 31.9926 47.588 31.4433Z" fill="url(#paint1_linear)"/>
</g>
<defs>
<linearGradient id="paint0_linear" x1="19.7344" y1="48" x2="2.22556" y2="10.4385" gradientUnits="userSpaceOnUse">
<stop stop-color="#B88A35"/>
<stop offset="1" stop-color="#E6CB71"/>
</linearGradient>
<linearGradient id="paint1_linear" x1="-3.95591e-07" y1="-3" x2="37.1779" y2="63.7538" gradientUnits="userSpaceOnUse">
<stop stop-color="#FFF8E7"/>
<stop offset="0.59463" stop-color="#FAE8B2"/>
</linearGradient>
<clipPath id="clip0">
<rect width="48" height="48" fill="white"/>
</clipPath>
</defs>
</svg>
