<svg width="50" height="62" viewBox="0 0 50 62" fill="none" xmlns="http://www.w3.org/2000/svg">
<g opacity="0.5">
<path d="M0.212444 19.0766C0.244377 15.2107 3.21299 10.9987 6.84302 9.66877L26.661 2.40802C30.291 1.07807 33.2079 3.13384 33.1759 6.9997L33.0675 20.1296L0.103987 32.2065L0.212444 19.0766Z" fill="url(#paint0_linear)"/>
<path d="M0.212444 19.0766C0.244377 15.2107 3.21299 10.9987 6.84302 9.66877L26.661 2.40802C30.291 1.07807 33.2079 3.13384 33.1759 6.9997L33.0675 20.1296L0.103987 32.2065L0.212444 19.0766Z" fill="#2241A5"/>
</g>
<rect y="12" width="50" height="50" rx="7" fill="url(#paint1_linear)"/>
<mask id="mask0" mask-type="alpha" maskUnits="userSpaceOnUse" x="0" y="12" width="50" height="50">
<rect y="12" width="50" height="50" rx="7" fill="url(#paint2_linear)" fill-opacity="0.8"/>
<rect y="12" width="50" height="50" rx="7" fill="url(#paint3_linear)"/>
</mask>
<g mask="url(#mask0)">
<g opacity="0.75" filter="url(#filter0_f)">
<ellipse cx="16.7966" cy="19.8511" rx="23.6328" ry="11.2906" fill="#1C5AF6"/>
</g>
<g filter="url(#filter1_b)">
<rect y="12" width="50" height="50" rx="7" fill="white" fill-opacity="0.07" style="mix-blend-mode:soft-light"/>
</g>
</g>
<path d="M26.4727 20.6641H27.2573C28.4613 20.7116 29.6659 20.9333 30.7827 21.3906C31.5389 21.6998 32.2851 22.092 32.8432 22.6988C33.1681 23.051 33.4224 23.4673 33.5876 23.9161C33.7759 24.4368 33.8465 24.9964 33.8195 25.5477C33.7905 26.0636 33.6773 26.5794 33.4541 27.0478C33.2786 27.393 33.1043 27.7414 32.8759 28.0562C32.5897 28.4561 32.2232 28.8077 31.7824 29.0351C31.2549 29.3051 30.6338 29.4111 30.0508 29.282C29.2916 29.1266 28.6405 28.5517 28.3822 27.8286C28.3357 27.6066 28.3668 27.3664 28.4635 27.1613C28.5227 27.029 28.6784 26.9917 28.8097 26.9751C29.0957 26.942 29.3673 27.0599 29.6484 27.0856C29.8384 27.1103 29.9935 26.9614 30.0824 26.8111C30.1819 26.6602 30.2013 26.4761 30.2022 26.3003C30.2027 26.0026 30.2076 25.7015 30.1449 25.4086C30.0949 25.1604 29.9624 24.9389 29.8249 24.7296C29.6108 24.4121 29.2868 24.192 28.9557 24.0095C28.4284 23.7035 27.8162 23.5805 27.2132 23.5387C26.6973 23.4976 26.1751 23.5234 25.6681 23.6291C24.7243 23.8353 23.8786 24.3772 23.2251 25.075C22.6786 25.6451 22.2278 26.332 22.0468 27.106C21.8719 27.8517 21.9492 28.6577 22.2832 29.3496C22.5673 29.9409 23.0124 30.4439 23.5284 30.8473C24.2832 31.469 25.1032 32.0095 25.9557 32.4894C26.4681 32.7847 27.0111 33.0206 27.5446 33.2745C28.0808 33.5324 28.6108 33.8033 29.1346 34.0851C29.4586 34.2641 29.7892 34.4324 30.1078 34.6206C30.5735 34.8976 31.0154 35.2143 31.4257 35.567C31.733 35.8244 32.0046 36.1196 32.3019 36.3877C32.6995 36.7638 33.0632 37.1742 33.3997 37.6049C33.6124 37.8803 33.8208 38.1603 34.0011 38.4582C34.4673 39.2213 34.7824 40.0761 34.9159 40.9595C34.9638 41.2558 34.9824 41.5556 35 41.8549V42.338C34.9741 43.0036 34.9151 43.6704 34.7749 44.3228C34.563 45.3425 34.1805 46.3297 33.6254 47.2141C33.1451 47.9828 32.5389 48.6707 31.853 49.2647C31.1943 49.8251 30.4781 50.3182 29.7284 50.7509C28.7797 51.2941 27.7659 51.7289 26.71 52.0191C25.853 52.2604 24.9681 52.3779 24.0846 52.4732C23.9751 52.6439 23.8741 52.82 23.7713 52.995C23.5243 53.4303 23.3232 53.9011 22.9786 54.2734C22.6259 54.6709 22.1346 54.975 21.5935 55.0147C21.1481 55.052 20.6997 54.8915 20.3573 54.6116C19.9224 54.2476 19.6692 53.6971 19.6114 53.1407C19.5822 52.9716 19.6951 52.7835 19.8711 52.7553C20.3854 52.6544 20.8927 52.503 21.3627 52.27C21.4281 52.2359 21.4984 52.2091 21.5551 52.1613C21.5841 52.08 21.4854 52.04 21.4235 52.0228C20.9981 51.9157 20.5676 51.8269 20.147 51.7013C19.5854 51.5397 19.0338 51.3448 18.4938 51.1221C18.0838 50.9514 17.6743 50.7734 17.2984 50.5361C16.6838 50.0828 16.0965 49.5766 15.6465 48.9568C15.2046 48.3454 15.0595 47.5823 15 46.8469V46.3906C15.0189 46.2148 15.0438 46.039 15.087 45.8672C15.2649 45.1141 15.7192 44.4434 16.307 43.9431C17.1027 43.2621 18.1654 42.8783 19.2186 42.951C20.0719 43.0055 20.8889 43.3467 21.5708 43.851C22.2735 44.3687 22.8476 45.0451 23.2973 45.7875C23.7908 46.6048 24.1486 47.5034 24.3413 48.4372C24.3608 48.5255 24.3692 48.617 24.4027 48.7021C24.8062 48.6149 25.1954 48.4737 25.58 48.3261C26.4089 47.9938 27.1951 47.5504 27.8905 46.9911C28.4513 46.5388 28.9565 46.013 29.3524 45.4115C29.7627 44.7885 30.0603 44.0858 30.1743 43.348C30.2084 43.1059 30.2557 42.8625 30.2373 42.6171C30.2141 42.3302 30.1559 42.0465 30.0657 41.773C29.8084 40.9944 29.3141 40.3161 28.7424 39.7345C28.0127 38.9776 27.1754 38.3256 26.2724 37.7848C24.9051 37.0016 23.5343 36.224 22.157 35.458C20.8114 34.7279 19.5746 33.7882 18.5589 32.644C17.9662 31.9945 17.5 31.2242 17.2443 30.383C16.9454 29.4138 16.9551 28.3775 17.1143 27.3846C17.3205 26.128 17.8916 24.9322 18.7497 23.9856C19.3049 23.3653 19.9665 22.8454 20.6741 22.4068C21.4592 21.9229 22.2962 21.5181 23.1768 21.2368C24.2405 20.8898 25.3551 20.7092 26.4727 20.6641ZM17.6481 46.0814C17.5227 46.2999 17.4957 46.5589 17.5046 46.8061C17.5246 47.1797 17.7222 47.5276 17.997 47.7767C18.3711 48.12 18.8435 48.3309 19.3162 48.504C19.5651 48.5902 19.8095 48.6901 20.0638 48.7593C20.4859 48.879 20.92 48.9493 21.3516 49.0256C21.4954 49.0492 21.6381 49.0849 21.7849 49.0835C21.5168 48.1436 21.0384 47.2621 20.3941 46.524C20.1859 46.2822 19.9551 46.0575 19.6876 45.8809C19.3878 45.6802 19.0403 45.5347 18.6759 45.5172C18.263 45.5003 17.8614 45.7349 17.6481 46.0814Z" fill="white"/>
<defs>
<filter id="filter0_f" x="-80.8362" y="-65.4395" width="195.266" height="170.581" filterUnits="userSpaceOnUse" color-interpolation-filters="sRGB">
<feFlood flood-opacity="0" result="BackgroundImageFix"/>
<feBlend mode="normal" in="SourceGraphic" in2="BackgroundImageFix" result="shape"/>
<feGaussianBlur stdDeviation="37" result="effect1_foregroundBlur"/>
</filter>
<filter id="filter1_b" x="-30" y="-18" width="110" height="110" filterUnits="userSpaceOnUse" color-interpolation-filters="sRGB">
<feFlood flood-opacity="0" result="BackgroundImageFix"/>
<feGaussianBlur in="BackgroundImage" stdDeviation="15"/>
<feComposite in2="SourceAlpha" operator="in" result="effect1_backgroundBlur"/>
<feBlend mode="normal" in="SourceGraphic" in2="effect1_backgroundBlur" result="shape"/>
</filter>
<linearGradient id="paint0_linear" x1="1.66464" y1="9.04368" x2="30.6309" y2="26.3562" gradientUnits="userSpaceOnUse">
<stop offset="0.146779" stop-color="#545BE9"/>
<stop offset="0.832983" stop-color="#B782F8"/>
</linearGradient>
<linearGradient id="paint1_linear" x1="2.65552e-06" y1="11.6538" x2="42.907" y2="32.9193" gradientUnits="userSpaceOnUse">
<stop offset="0.18" stop-color="#4C72EB"/>
<stop offset="1" stop-color="#173597"/>
</linearGradient>
<linearGradient id="paint2_linear" x1="47.2656" y1="12.8333" x2="25.9713" y2="68.9909" gradientUnits="userSpaceOnUse">
<stop stop-color="#55C0F7"/>
<stop offset="1" stop-color="#A8E8FA"/>
</linearGradient>
<linearGradient id="paint3_linear" x1="1.5625" y1="12.7143" x2="22.4133" y2="71.3572" gradientUnits="userSpaceOnUse">
<stop stop-color="#1B5CF6"/>
<stop offset="0.503297" stop-color="#429EFF"/>
<stop offset="0.890632" stop-color="#D33BA7"/>
</linearGradient>
</defs>
</svg>
