<svg width="56" height="56" viewBox="0 0 56 56" fill="none" xmlns="http://www.w3.org/2000/svg">
<path d="M12.6 56C5.54529 56 0 50.4547 0 43.4V12.6C0 5.54529 5.54529 0 12.6 0H43.4C50.4547 0 56 5.54529 56 12.6V43.4C56 50.4547 50.4547 56 43.4 56H12.6Z" fill="url(#paint0_linear)"/>
<path d="M43.926 51.3332H12.0742C7.96011 51.3332 4.66675 48.0398 4.66675 43.9258V12.0739C4.66675 7.8994 7.89957 4.6665 12.0742 4.6665H43.926C48.0401 4.6665 51.3334 7.95987 51.3334 12.0739V43.9258C51.3334 48.0398 48.0401 51.3332 43.926 51.3332Z" fill="url(#paint1_linear)"/>
<path d="M15.1854 18.881L15.1854 18.881C14.7967 19.8776 14.6222 21.0453 14.5492 22.4842C14.4932 23.5892 14.4977 24.8256 14.5029 26.2442C14.5045 26.678 14.5061 27.1288 14.5061 27.5981C14.5061 27.9791 14.5048 28.3561 14.5035 28.7283C14.4989 30.0737 14.4945 31.3556 14.5527 32.5354C14.6272 34.0445 14.8029 35.3299 15.1855 36.3141M15.1854 18.881L14.7195 36.4953M15.1854 18.881C15.6611 17.6611 16.3197 16.7963 17.1104 16.1742C17.9044 15.5494 18.8556 15.1508 19.941 14.9004C21.7825 14.4757 23.927 14.4907 26.2361 14.5068C26.683 14.5099 27.136 14.5131 27.5942 14.5131M15.1854 18.881L27.5942 14.5131M15.1855 36.3141L14.7195 36.4953M15.1855 36.3141L14.7195 36.4953M15.1855 36.3141C16.121 38.72 17.8014 39.8009 19.9531 40.2961C21.7984 40.7208 23.9435 40.7056 26.24 40.6894C26.687 40.6863 27.1398 40.6831 27.5973 40.6831C28.0768 40.6831 28.5536 40.6873 29.026 40.6915C31.225 40.7109 33.3277 40.7295 35.1607 40.3174C37.3358 39.8283 39.0618 38.7455 40.0104 36.3145C40.4004 35.3061 40.5747 34.1425 40.6474 32.71C40.7031 31.6125 40.6986 30.3847 40.6933 28.9693C40.6916 28.5308 40.6899 28.0743 40.6899 27.5981C40.6899 27.0802 40.6926 26.5829 40.6952 26.1046C40.7059 24.1047 40.7149 22.4375 40.519 20.9867C40.2801 19.218 39.7419 17.8329 38.5538 16.6464L38.5537 16.6463C37.3508 15.4443 35.9329 14.9061 34.1491 14.6713C32.7153 14.4826 31.0877 14.4935 29.1725 14.5062C28.6689 14.5096 28.1454 14.5131 27.6003 14.5131C27.5983 14.5131 27.5962 14.5131 27.5942 14.5131M14.7195 36.4953C13.9831 34.601 13.9929 31.784 14.0036 28.7185C14.0048 28.3483 14.0061 27.9744 14.0061 27.5981C14.0061 27.1348 14.0045 26.6879 14.0029 26.2562C13.9909 22.9802 13.9821 20.5902 14.7195 18.6993C16.5767 13.9368 21.1959 13.9702 26.2565 14.0067C26.6995 14.0099 27.1459 14.0131 27.5942 14.0131V14.5131M28.5385 15.9468C28.0095 15.9518 27.4575 15.957 26.8822 15.9597V15.9577L26.3817 15.9582C24.1267 15.9604 22.3354 15.9719 20.9391 16.1662C19.5369 16.3613 18.4473 16.7505 17.66 17.5761C16.8788 18.3952 16.4676 19.5688 16.2401 21.1622C16.0123 22.7584 15.9593 24.8561 15.9593 27.592C15.9593 30.2899 15.9779 32.3737 16.1812 33.9632C16.3844 35.5519 16.7816 36.741 17.6154 37.5743C18.4492 38.4075 19.6388 38.8043 21.2281 39.0072C22.8183 39.2103 24.9029 39.2288 27.6019 39.2288C28.1355 39.2288 28.6671 39.2346 29.1903 39.2403C30.0999 39.2502 30.9839 39.2599 31.8088 39.2383C33.1149 39.2041 34.3403 39.0917 35.4008 38.7615C36.472 38.4279 37.3923 37.8664 38.0569 36.93C38.7167 36.0004 39.0889 34.7513 39.1642 33.1058L39.1642 33.1057C39.3682 28.6247 39.4307 25.313 39.2221 22.876C39.0146 20.4517 38.5329 18.7921 37.559 17.7071C36.5702 16.6056 35.162 16.1911 33.3625 16.0311C32.0443 15.9138 30.4405 15.9289 28.5385 15.9468ZM33.7261 20.3457C33.7261 19.7224 34.2321 19.2162 34.8569 19.2162C35.4817 19.2162 35.9877 19.7224 35.9877 20.3457C35.9877 20.969 35.4817 21.4752 34.8569 21.4752C34.2321 21.4752 33.7261 20.969 33.7261 20.3457ZM21.1199 27.5981C21.1199 24.0222 24.0209 21.1216 27.6003 21.1216C31.1796 21.1216 34.0792 24.022 34.0792 27.5981C34.0792 31.174 31.1798 34.073 27.6003 34.073C24.0208 34.073 21.1199 31.1739 21.1199 27.5981ZM27.6003 32.6264C29.2368 32.6264 30.4999 32.0036 31.3484 31.0421C32.1884 30.0901 32.5969 28.8355 32.5964 27.5979C32.5959 26.3602 32.1863 25.1058 31.3461 24.154C30.4976 23.1927 29.2351 22.5698 27.6003 22.5698C25.9639 22.5698 24.7008 23.1926 23.8525 24.1541C23.0126 25.1061 22.6042 26.3607 22.6049 27.5983C22.6055 28.836 23.0151 30.0904 23.8552 31.0422C24.7036 32.0035 25.9659 32.6264 27.6003 32.6264Z" fill="url(#paint2_linear)" stroke="url(#paint3_linear)"/>
<defs>
<linearGradient id="paint0_linear" x1="38.6721" y1="53.6672" x2="18.5339" y2="5.23315" gradientUnits="userSpaceOnUse">
<stop stop-color="#E6F2FB"/>
<stop offset="0.50556" stop-color="#FAFBFC"/>
<stop offset="1" stop-color="white"/>
</linearGradient>
<linearGradient id="paint1_linear" x1="22.896" y1="2.77025" x2="32.6921" y2="51.1924" gradientUnits="userSpaceOnUse">
<stop stop-color="#EEF2F5"/>
<stop offset="0.3995" stop-color="white"/>
<stop offset="1" stop-color="white"/>
</linearGradient>
<linearGradient id="paint2_linear" x1="15.8263" y1="39.4279" x2="41.0289" y2="17.611" gradientUnits="userSpaceOnUse">
<stop stop-color="#FFDD55"/>
<stop offset="0.5" stop-color="#FF543E"/>
<stop offset="1" stop-color="#C837AB"/>
</linearGradient>
<linearGradient id="paint3_linear" x1="15.8263" y1="39.4279" x2="41.0289" y2="17.611" gradientUnits="userSpaceOnUse">
<stop stop-color="#FFDD55"/>
<stop offset="0.5" stop-color="#FF543E"/>
<stop offset="1" stop-color="#C837AB"/>
</linearGradient>
</defs>
</svg>
