<svg width="115" height="114" viewBox="0 0 115 114" fill="none" xmlns="http://www.w3.org/2000/svg">
<circle cx="57.5" cy="57" r="56" stroke="#C0C6D3" stroke-width="2" stroke-linecap="round" stroke-dasharray="0 11"/>
<circle cx="57.5" cy="57" r="49" fill="#545F75"/>
<path d="M54.5833 42.4167C54.5833 40.7149 53.9073 39.0828 52.7039 37.8794C51.5006 36.676 49.8685 36 48.1667 36C46.4649 36 44.8328 36.676 43.6294 37.8794C42.426 39.0828 41.75 40.7149 41.75 42.4167C41.75 44.1185 42.426 45.7506 43.6294 46.9539C44.8328 48.1573 46.4649 48.8333 48.1667 48.8333C49.8685 48.8333 51.5006 48.1573 52.7039 46.9539C53.9073 45.7506 54.5833 44.1185 54.5833 42.4167ZM44.0833 42.4167C44.0833 41.8804 44.189 41.3495 44.3942 40.854C44.5994 40.3586 44.9001 39.9085 45.2793 39.5293C45.6585 39.1501 46.1086 38.8494 46.604 38.6442C47.0995 38.439 47.6304 38.3333 48.1667 38.3333C48.7029 38.3333 49.2339 38.439 49.7293 38.6442C50.2247 38.8494 50.6748 39.1501 51.054 39.5293C51.4332 39.9085 51.734 40.3586 51.9392 40.854C52.1444 41.3495 52.25 41.8804 52.25 42.4167C52.25 43.4996 51.8198 44.5382 51.054 45.304C50.2882 46.0698 49.2496 46.5 48.1667 46.5C47.0837 46.5 46.0451 46.0698 45.2793 45.304C44.5135 44.5382 44.0833 43.4996 44.0833 42.4167Z" fill="white"/>
<path d="M40 51.1665H49.7603C49.3777 51.8898 49.093 52.6738 48.925 53.4998H40C39.6906 53.4998 39.3938 53.6228 39.175 53.8415C38.9562 54.0603 38.8333 54.3571 38.8333 54.6665V55.8332C38.8333 58.7732 41.3977 61.9325 46.0573 62.6698C45.306 63.1832 44.6807 63.8668 44.235 64.6625C39.3117 63.3302 36.5 59.5362 36.5 55.8332V54.6665C36.5 53.7382 36.8687 52.848 37.5251 52.1916C38.1815 51.5353 39.0717 51.1665 40 51.1665Z" fill="white"/>
<path d="M52.5508 51.1666C53.7268 49.7433 55.5071 48.8333 57.4998 48.8333C58.8972 48.8308 60.257 49.2856 61.3717 50.1282C62.4864 50.9708 63.2949 52.1549 63.6738 53.4999C64.0115 54.7004 63.9925 55.9733 63.619 57.1631C63.2456 58.353 62.5339 59.4084 61.5707 60.2006C60.6075 60.9928 59.4346 61.4875 58.1951 61.6243C56.9555 61.7612 55.7029 61.5343 54.5901 60.9713C53.7334 60.5352 52.9855 59.9122 52.4019 59.1483C51.8182 58.3844 51.4137 57.4991 51.2181 56.5579C51.0226 55.6166 51.041 54.6435 51.2721 53.7103C51.5032 52.7772 51.941 51.9078 52.5531 51.1666H52.5508ZM53.8108 53.4999C53.581 53.9847 53.4489 54.51 53.4221 55.0457C53.3953 55.5815 53.4743 56.1174 53.6545 56.6227C53.8348 57.1279 54.1128 57.5928 54.4727 57.9906C54.8327 58.3884 55.2674 58.7114 55.7521 58.9413C56.2369 59.1711 56.7622 59.3032 57.298 59.33C57.8338 59.3568 58.3696 59.2778 58.8749 59.0975C59.3801 58.9173 59.845 58.6392 60.2428 58.2793C60.6406 57.9194 60.9637 57.4847 61.1935 56.9999C61.6576 56.0206 61.7137 54.897 61.3494 53.8764C60.9851 52.8557 60.2303 52.0216 59.251 51.5574C58.2717 51.0933 57.1481 51.0372 56.1274 51.4015C55.1068 51.7658 54.2726 52.5206 53.8085 53.4999H53.8108Z" fill="white"/>
<path d="M70.7652 64.6625C70.3207 63.8664 69.6968 63.1849 68.9429 62.6722C73.6002 61.9325 76.1669 58.7708 76.1669 55.8332V54.6665C76.1669 54.3571 76.0439 54.0603 75.8251 53.8415C75.6064 53.6228 75.3096 53.4998 75.0002 53.4998H66.0752C65.9103 52.6863 65.6298 51.9005 65.2422 51.1665H75.0002C75.9284 51.1665 76.8187 51.5353 77.4751 52.1916C78.1314 52.848 78.5002 53.7382 78.5002 54.6665V55.8332C78.5002 59.5362 75.6862 63.3278 70.7652 64.6625Z" fill="white"/>
<path d="M67.9698 64.8632C67.3538 64.3266 66.5488 63.9999 65.6668 63.9999H49.3335C48.8735 63.9987 48.4179 64.0883 47.9927 64.2638C47.5675 64.4393 47.1811 64.697 46.8559 65.0223C46.5306 65.3475 46.2729 65.7338 46.0974 66.159C45.922 66.5842 45.8323 67.0399 45.8335 67.4999V68.6666C45.8335 73.2656 50.1735 77.9999 57.5002 77.9999C64.8268 77.9999 69.1668 73.2656 69.1668 68.6666V67.4999C69.1668 66.4499 68.7048 65.5072 67.9698 64.8632ZM48.1668 67.4999C48.1668 67.1905 48.2898 66.8937 48.5085 66.6749C48.7273 66.4561 49.0241 66.3332 49.3335 66.3332H65.6668C65.9763 66.3332 66.273 66.4561 66.4918 66.6749C66.7106 66.8937 66.8335 67.1905 66.8335 67.4999V68.6666C66.8335 72.0219 63.4922 75.6666 57.5002 75.6666C51.5082 75.6666 48.1668 72.0219 48.1668 68.6666V67.4999Z" fill="white"/>
<path d="M66.8332 36C68.535 36 70.1671 36.676 71.3704 37.8794C72.5738 39.0828 73.2498 40.7149 73.2498 42.4167C73.2498 44.1185 72.5738 45.7506 71.3704 46.9539C70.1671 48.1573 68.535 48.8333 66.8332 48.8333C65.1314 48.8333 63.4993 48.1573 62.2959 46.9539C61.0925 45.7506 60.4165 44.1185 60.4165 42.4167C60.4165 40.7149 61.0925 39.0828 62.2959 37.8794C63.4993 36.676 65.1314 36 66.8332 36ZM66.8332 38.3333C65.7502 38.3333 64.7116 38.7635 63.9458 39.5293C63.18 40.2951 62.7498 41.3337 62.7498 42.4167C62.7498 43.4996 63.18 44.5382 63.9458 45.304C64.7116 46.0698 65.7502 46.5 66.8332 46.5C67.9161 46.5 68.9547 46.0698 69.7205 45.304C70.4863 44.5382 70.9165 43.4996 70.9165 42.4167C70.9165 41.3337 70.4863 40.2951 69.7205 39.5293C68.9547 38.7635 67.9161 38.3333 66.8332 38.3333Z" fill="white"/>
</svg>
