<svg width="48" height="48" viewBox="0 0 48 48" fill="none" xmlns="http://www.w3.org/2000/svg">
<path d="M46.5938 0H26.9063C26.129 0 25.5 0.628969 25.5 1.40625V18.4688C25.5 19.246 26.129 19.875 26.9063 19.875H32.5313V21.2812C32.5313 21.7687 32.7839 22.2206 33.1987 22.4774C33.6147 22.7362 34.135 22.7549 34.5665 22.5392L39.8949 19.875H46.5938C47.371 19.875 48 19.246 48 18.4688V1.40625C48 0.628969 47.371 0 46.5938 0ZM21.0938 0H1.40625C0.628969 0 0 0.628969 0 1.40625V18.4688C0 19.246 0.628969 19.875 1.40625 19.875H5.29266L10.621 22.5392C11.0537 22.7555 11.5739 22.7354 11.9888 22.4774C12.4036 22.2206 12.6563 21.7687 12.6563 21.2812V19.875H21.0938C21.871 19.875 22.5 19.246 22.5 18.4688V1.40625C22.5 0.628969 21.871 0 21.0938 0Z" fill="white"/>
<path d="M46.5938 0H26.9063C26.129 0 25.5 0.628969 25.5 1.40625V18.4688C25.5 19.246 26.129 19.875 26.9063 19.875H32.5313V21.2812C32.5313 21.7687 32.7839 22.2206 33.1987 22.4774C33.6147 22.7362 34.135 22.7549 34.5665 22.5392L39.8949 19.875H46.5938C47.371 19.875 48 19.246 48 18.4688V1.40625C48 0.628969 47.371 0 46.5938 0ZM21.0938 0H1.40625C0.628969 0 0 0.628969 0 1.40625V18.4688C0 19.246 0.628969 19.875 1.40625 19.875H5.29266L10.621 22.5392C11.0537 22.7555 11.5739 22.7354 11.9888 22.4774C12.4036 22.2206 12.6563 21.7687 12.6563 21.2812V19.875H21.0938C21.871 19.875 22.5 19.246 22.5 18.4688V1.40625C22.5 0.628969 21.871 0 21.0938 0Z" fill="url(#paint0_linear)"/>
<path d="M16.875 31.125C16.875 28.0227 14.3509 25.5 11.25 25.5C8.14913 25.5 5.625 28.0227 5.625 31.125C5.625 34.2273 8.14913 36.75 11.25 36.75C14.3509 36.75 16.875 34.2273 16.875 31.125ZM11.25 36.75C6.59728 36.75 2.8125 40.5348 2.8125 45.1875V46.5938C2.8125 47.371 3.44147 48 4.21875 48H18.2813C19.0585 48 19.6875 47.371 19.6875 46.5938V45.1875C19.6875 40.5348 15.9027 36.75 11.25 36.75ZM42.375 31.125C42.375 28.0227 39.8509 25.5 36.75 25.5C33.6491 25.5 31.125 28.0227 31.125 31.125C31.125 34.2273 33.6491 36.75 36.75 36.75C39.8509 36.75 42.375 34.2273 42.375 31.125ZM36.75 36.75C32.0973 36.75 28.3125 40.5348 28.3125 45.1875V46.5938C28.3125 47.371 28.9415 48 29.7188 48H43.7813C44.5585 48 45.1875 47.371 45.1875 46.5938V45.1875C45.1875 40.5348 41.4027 36.75 36.75 36.75ZM33.9375 11.3438C34.7141 11.3438 35.3438 10.7141 35.3438 9.9375C35.3438 9.16087 34.7141 8.53125 33.9375 8.53125C33.1609 8.53125 32.5313 9.16087 32.5313 9.9375C32.5313 10.7141 33.1609 11.3438 33.9375 11.3438ZM39.5625 11.3438C40.3391 11.3438 40.9688 10.7141 40.9688 9.9375C40.9688 9.16087 40.3391 8.53125 39.5625 8.53125C38.7859 8.53125 38.1563 9.16087 38.1563 9.9375C38.1563 10.7141 38.7859 11.3438 39.5625 11.3438ZM14.0625 11.3438C14.8391 11.3438 15.4688 10.7141 15.4688 9.9375C15.4688 9.16087 14.8391 8.53125 14.0625 8.53125C13.2859 8.53125 12.6563 9.16087 12.6563 9.9375C12.6563 10.7141 13.2859 11.3438 14.0625 11.3438ZM8.4375 11.3438C9.21413 11.3438 9.84375 10.7141 9.84375 9.9375C9.84375 9.16087 9.21413 8.53125 8.4375 8.53125C7.66088 8.53125 7.03125 9.16087 7.03125 9.9375C7.03125 10.7141 7.66088 11.3438 8.4375 11.3438Z" fill="url(#paint1_linear)"/>
<defs>
<linearGradient id="paint0_linear" x1="-21.4772" y1="11.4586" x2="-4.77937" y2="46.7862" gradientUnits="userSpaceOnUse">
<stop stop-color="#FDE9B0"/>
<stop offset="1" stop-color="#FFF6DE"/>
</linearGradient>
<linearGradient id="paint1_linear" x1="24" y1="48" x2="12.0953" y2="14.6535" gradientUnits="userSpaceOnUse">
<stop stop-color="#B88A35"/>
<stop offset="1" stop-color="#E6CB71"/>
</linearGradient>
</defs>
</svg>
