<svg width="1540" height="959" viewBox="0 0 1540 959" fill="none" xmlns="http://www.w3.org/2000/svg">
<rect width="1540" height="959" fill="#151C32"/>
<rect x="119" y="220" width="159" height="159" fill="#192036"/>
<g opacity="0.45">
<path fill-rule="evenodd" clip-rule="evenodd" d="M47 268.5C47 269.881 45.8809 271 44.4989 271C43.1191 271 42 269.881 42 268.5C42 267.119 43.1191 266 44.4989 266C45.8809 266 47 267.119 47 268.5Z" fill="#2F5BE9"/>
<path fill-rule="evenodd" clip-rule="evenodd" d="M61.3226 268.5C61.3226 269.881 60.2035 271 58.822 271C57.4417 271 56.3226 269.881 56.3226 268.5C56.3226 267.119 57.4417 266 58.822 266C60.2035 266 61.3226 267.119 61.3226 268.5Z" fill="#2F5BE9"/>
<path fill-rule="evenodd" clip-rule="evenodd" d="M74.4516 268.5C74.4516 269.881 73.3322 271 71.9516 271C70.5704 271 69.4516 269.881 69.4516 268.5C69.4516 267.119 70.5704 266 71.9516 266C73.3322 266 74.4516 267.119 74.4516 268.5Z" fill="#2F5BE9"/>
<path fill-rule="evenodd" clip-rule="evenodd" d="M88.7742 268.5C88.7742 269.881 87.6548 271 86.2731 271C84.8925 271 83.7742 269.881 83.7742 268.5C83.7742 267.119 84.8925 266 86.2731 266C87.6548 266 88.7742 267.119 88.7742 268.5Z" fill="#2F5BE9"/>
<path fill-rule="evenodd" clip-rule="evenodd" d="M101.903 268.5C101.903 269.881 100.785 271 99.4027 271C98.0224 271 96.9032 269.881 96.9032 268.5C96.9032 267.119 98.0224 266 99.4027 266C100.785 266 101.903 267.119 101.903 268.5Z" fill="#2F5BE9"/>
<path fill-rule="evenodd" clip-rule="evenodd" d="M47 281.664C47 283.045 45.8809 284.164 44.4989 284.164C43.1191 284.164 42 283.045 42 281.664C42 280.284 43.1191 279.164 44.4989 279.164C45.8809 279.164 47 280.284 47 281.664Z" fill="#2F5BE9"/>
<path fill-rule="evenodd" clip-rule="evenodd" d="M61.3226 281.664C61.3226 283.045 60.2035 284.164 58.822 284.164C57.4417 284.164 56.3226 283.045 56.3226 281.664C56.3226 280.284 57.4417 279.164 58.822 279.164C60.2035 279.164 61.3226 280.284 61.3226 281.664Z" fill="#2F5BE9"/>
<path fill-rule="evenodd" clip-rule="evenodd" d="M74.4516 281.664C74.4516 283.045 73.3322 284.164 71.9516 284.164C70.5704 284.164 69.4516 283.045 69.4516 281.664C69.4516 280.284 70.5704 279.164 71.9516 279.164C73.3322 279.164 74.4516 280.284 74.4516 281.664Z" fill="#2F5BE9"/>
<path fill-rule="evenodd" clip-rule="evenodd" d="M88.7742 281.664C88.7742 283.045 87.6548 284.164 86.2731 284.164C84.8925 284.164 83.7742 283.045 83.7742 281.664C83.7742 280.284 84.8925 279.164 86.2731 279.164C87.6548 279.164 88.7742 280.284 88.7742 281.664Z" fill="#2F5BE9"/>
<path fill-rule="evenodd" clip-rule="evenodd" d="M101.903 281.664C101.903 283.045 100.785 284.164 99.4027 284.164C98.0224 284.164 96.9032 283.045 96.9032 281.664C96.9032 280.284 98.0224 279.164 99.4027 279.164C100.785 279.164 101.903 280.284 101.903 281.664Z" fill="#2F5BE9"/>
<path fill-rule="evenodd" clip-rule="evenodd" d="M47 296.025C47 297.405 45.8809 298.525 44.4989 298.525C43.1191 298.525 42 297.405 42 296.025C42 294.644 43.1191 293.525 44.4989 293.525C45.8809 293.525 47 294.644 47 296.025Z" fill="#2F5BE9"/>
<path fill-rule="evenodd" clip-rule="evenodd" d="M61.3226 296.025C61.3226 297.405 60.2035 298.525 58.822 298.525C57.4417 298.525 56.3226 297.405 56.3226 296.025C56.3226 294.644 57.4417 293.525 58.822 293.525C60.2035 293.525 61.3226 294.644 61.3226 296.025Z" fill="#2F5BE9"/>
<path fill-rule="evenodd" clip-rule="evenodd" d="M74.4516 296.025C74.4516 297.405 73.3322 298.525 71.9516 298.525C70.5704 298.525 69.4516 297.405 69.4516 296.025C69.4516 294.644 70.5704 293.525 71.9516 293.525C73.3322 293.525 74.4516 294.644 74.4516 296.025Z" fill="#2F5BE9"/>
<path fill-rule="evenodd" clip-rule="evenodd" d="M88.7742 296.025C88.7742 297.405 87.6548 298.525 86.2731 298.525C84.8925 298.525 83.7742 297.405 83.7742 296.025C83.7742 294.644 84.8925 293.525 86.2731 293.525C87.6548 293.525 88.7742 294.644 88.7742 296.025Z" fill="#2F5BE9"/>
<path fill-rule="evenodd" clip-rule="evenodd" d="M101.903 296.025C101.903 297.405 100.785 298.525 99.4027 298.525C98.0224 298.525 96.9032 297.405 96.9032 296.025C96.9032 294.644 98.0224 293.525 99.4027 293.525C100.785 293.525 101.903 294.644 101.903 296.025Z" fill="#2F5BE9"/>
<path fill-rule="evenodd" clip-rule="evenodd" d="M47 309.188C47 310.569 45.8809 311.689 44.4989 311.689C43.1191 311.689 42 310.569 42 309.188C42 307.808 43.1191 306.689 44.4989 306.689C45.8809 306.689 47 307.808 47 309.188Z" fill="#2F5BE9"/>
<path fill-rule="evenodd" clip-rule="evenodd" d="M61.3226 309.188C61.3226 310.569 60.2035 311.689 58.822 311.689C57.4417 311.689 56.3226 310.569 56.3226 309.188C56.3226 307.808 57.4417 306.689 58.822 306.689C60.2035 306.689 61.3226 307.808 61.3226 309.188Z" fill="#2F5BE9"/>
<path fill-rule="evenodd" clip-rule="evenodd" d="M74.4516 309.188C74.4516 310.569 73.3322 311.689 71.9516 311.689C70.5704 311.689 69.4516 310.569 69.4516 309.188C69.4516 307.808 70.5704 306.689 71.9516 306.689C73.3322 306.689 74.4516 307.808 74.4516 309.188Z" fill="#2F5BE9"/>
<path fill-rule="evenodd" clip-rule="evenodd" d="M88.7742 309.188C88.7742 310.569 87.6548 311.689 86.2731 311.689C84.8925 311.689 83.7742 310.569 83.7742 309.188C83.7742 307.808 84.8925 306.689 86.2731 306.689C87.6548 306.689 88.7742 307.808 88.7742 309.188Z" fill="#2F5BE9"/>
<path fill-rule="evenodd" clip-rule="evenodd" d="M101.903 309.188C101.903 310.569 100.785 311.689 99.4027 311.689C98.0224 311.689 96.9032 310.569 96.9032 309.188C96.9032 307.808 98.0224 306.689 99.4027 306.689C100.785 306.689 101.903 307.808 101.903 309.188Z" fill="#2F5BE9"/>
<path fill-rule="evenodd" clip-rule="evenodd" d="M47 323.549C47 324.93 45.8809 326.049 44.4989 326.049C43.1191 326.049 42 324.93 42 323.549C42 322.168 43.1191 321.049 44.4989 321.049C45.8809 321.049 47 322.168 47 323.549Z" fill="#2F5BE9"/>
<path fill-rule="evenodd" clip-rule="evenodd" d="M61.3226 323.549C61.3226 324.93 60.2035 326.049 58.822 326.049C57.4417 326.049 56.3226 324.93 56.3226 323.549C56.3226 322.168 57.4417 321.049 58.822 321.049C60.2035 321.049 61.3226 322.168 61.3226 323.549Z" fill="#2F5BE9"/>
<path fill-rule="evenodd" clip-rule="evenodd" d="M74.4516 323.549C74.4516 324.93 73.3322 326.049 71.9516 326.049C70.5704 326.049 69.4516 324.93 69.4516 323.549C69.4516 322.168 70.5704 321.049 71.9516 321.049C73.3322 321.049 74.4516 322.168 74.4516 323.549Z" fill="#2F5BE9"/>
<path fill-rule="evenodd" clip-rule="evenodd" d="M88.7742 323.549C88.7742 324.93 87.6548 326.049 86.2731 326.049C84.8925 326.049 83.7742 324.93 83.7742 323.549C83.7742 322.168 84.8925 321.049 86.2731 321.049C87.6548 321.049 88.7742 322.168 88.7742 323.549Z" fill="#2F5BE9"/>
<path fill-rule="evenodd" clip-rule="evenodd" d="M101.903 323.549C101.903 324.93 100.785 326.049 99.4027 326.049C98.0224 326.049 96.9032 324.93 96.9032 323.549C96.9032 322.168 98.0224 321.049 99.4027 321.049C100.785 321.049 101.903 322.168 101.903 323.549Z" fill="#2F5BE9"/>
<path fill-rule="evenodd" clip-rule="evenodd" d="M47 336.713C47 338.094 45.8809 339.213 44.4989 339.213C43.1191 339.213 42 338.094 42 336.713C42 335.332 43.1191 334.213 44.4989 334.213C45.8809 334.213 47 335.332 47 336.713Z" fill="#2F5BE9"/>
<path fill-rule="evenodd" clip-rule="evenodd" d="M61.3226 336.713C61.3226 338.094 60.2035 339.213 58.822 339.213C57.4417 339.213 56.3226 338.094 56.3226 336.713C56.3226 335.332 57.4417 334.213 58.822 334.213C60.2035 334.213 61.3226 335.332 61.3226 336.713Z" fill="#2F5BE9"/>
<path fill-rule="evenodd" clip-rule="evenodd" d="M74.4516 336.713C74.4516 338.094 73.3322 339.213 71.9516 339.213C70.5704 339.213 69.4516 338.094 69.4516 336.713C69.4516 335.332 70.5704 334.213 71.9516 334.213C73.3322 334.213 74.4516 335.332 74.4516 336.713Z" fill="#2F5BE9"/>
<path fill-rule="evenodd" clip-rule="evenodd" d="M88.7742 336.713C88.7742 338.094 87.6548 339.213 86.2731 339.213C84.8925 339.213 83.7742 338.094 83.7742 336.713C83.7742 335.332 84.8925 334.213 86.2731 334.213C87.6548 334.213 88.7742 335.332 88.7742 336.713Z" fill="#2F5BE9"/>
<path fill-rule="evenodd" clip-rule="evenodd" d="M101.903 336.713C101.903 338.094 100.785 339.213 99.4027 339.213C98.0224 339.213 96.9032 338.094 96.9032 336.713C96.9032 335.332 98.0224 334.213 99.4027 334.213C100.785 334.213 101.903 335.332 101.903 336.713Z" fill="#2F5BE9"/>
<path fill-rule="evenodd" clip-rule="evenodd" d="M116.226 268.5C116.226 269.881 115.107 271 113.725 271C112.345 271 111.226 269.881 111.226 268.5C111.226 267.119 112.345 266 113.725 266C115.107 266 116.226 267.119 116.226 268.5Z" fill="#2F5BE9"/>
<path fill-rule="evenodd" clip-rule="evenodd" d="M116.226 281.664C116.226 283.045 115.107 284.164 113.725 284.164C112.345 284.164 111.226 283.045 111.226 281.664C111.226 280.284 112.345 279.164 113.725 279.164C115.107 279.164 116.226 280.284 116.226 281.664Z" fill="#2F5BE9"/>
<path fill-rule="evenodd" clip-rule="evenodd" d="M116.226 296.025C116.226 297.405 115.107 298.525 113.725 298.525C112.345 298.525 111.226 297.405 111.226 296.025C111.226 294.644 112.345 293.525 113.725 293.525C115.107 293.525 116.226 294.644 116.226 296.025Z" fill="#2F5BE9"/>
<path fill-rule="evenodd" clip-rule="evenodd" d="M116.226 309.188C116.226 310.569 115.107 311.689 113.725 311.689C112.345 311.689 111.226 310.569 111.226 309.188C111.226 307.808 112.345 306.689 113.725 306.689C115.107 306.689 116.226 307.808 116.226 309.188Z" fill="#2F5BE9"/>
<path fill-rule="evenodd" clip-rule="evenodd" d="M116.226 323.549C116.226 324.93 115.107 326.049 113.725 326.049C112.345 326.049 111.226 324.93 111.226 323.549C111.226 322.168 112.345 321.049 113.725 321.049C115.107 321.049 116.226 322.168 116.226 323.549Z" fill="#2F5BE9"/>
<path fill-rule="evenodd" clip-rule="evenodd" d="M116.226 336.713C116.226 338.094 115.107 339.213 113.725 339.213C112.345 339.213 111.226 338.094 111.226 336.713C111.226 335.332 112.345 334.213 113.725 334.213C115.107 334.213 116.226 335.332 116.226 336.713Z" fill="#2F5BE9"/>
<path fill-rule="evenodd" clip-rule="evenodd" d="M47 348.5C47 349.881 45.8809 351 44.4989 351C43.1191 351 42 349.881 42 348.5C42 347.119 43.1191 346 44.4989 346C45.8809 346 47 347.119 47 348.5Z" fill="#2F5BE9"/>
<path fill-rule="evenodd" clip-rule="evenodd" d="M61.3226 348.5C61.3226 349.881 60.2035 351 58.822 351C57.4417 351 56.3226 349.881 56.3226 348.5C56.3226 347.119 57.4417 346 58.822 346C60.2035 346 61.3226 347.119 61.3226 348.5Z" fill="#2F5BE9"/>
<path fill-rule="evenodd" clip-rule="evenodd" d="M74.4516 348.5C74.4516 349.881 73.3322 351 71.9516 351C70.5704 351 69.4516 349.881 69.4516 348.5C69.4516 347.119 70.5704 346 71.9516 346C73.3322 346 74.4516 347.119 74.4516 348.5Z" fill="#2F5BE9"/>
<path fill-rule="evenodd" clip-rule="evenodd" d="M88.7742 348.5C88.7742 349.881 87.6548 351 86.2731 351C84.8925 351 83.7742 349.881 83.7742 348.5C83.7742 347.119 84.8925 346 86.2731 346C87.6548 346 88.7742 347.119 88.7742 348.5Z" fill="#2F5BE9"/>
<path fill-rule="evenodd" clip-rule="evenodd" d="M101.903 348.5C101.903 349.881 100.785 351 99.4027 351C98.0224 351 96.9032 349.881 96.9032 348.5C96.9032 347.119 98.0224 346 99.4027 346C100.785 346 101.903 347.119 101.903 348.5Z" fill="#2F5BE9"/>
<path fill-rule="evenodd" clip-rule="evenodd" d="M47 361.664C47 363.045 45.8809 364.164 44.4989 364.164C43.1191 364.164 42 363.045 42 361.664C42 360.284 43.1191 359.164 44.4989 359.164C45.8809 359.164 47 360.284 47 361.664Z" fill="#2F5BE9"/>
<path fill-rule="evenodd" clip-rule="evenodd" d="M61.3226 361.664C61.3226 363.045 60.2035 364.164 58.822 364.164C57.4417 364.164 56.3226 363.045 56.3226 361.664C56.3226 360.284 57.4417 359.164 58.822 359.164C60.2035 359.164 61.3226 360.284 61.3226 361.664Z" fill="#2F5BE9"/>
<path fill-rule="evenodd" clip-rule="evenodd" d="M74.4516 361.664C74.4516 363.045 73.3322 364.164 71.9516 364.164C70.5704 364.164 69.4516 363.045 69.4516 361.664C69.4516 360.284 70.5704 359.164 71.9516 359.164C73.3322 359.164 74.4516 360.284 74.4516 361.664Z" fill="#2F5BE9"/>
<path fill-rule="evenodd" clip-rule="evenodd" d="M88.7742 361.664C88.7742 363.045 87.6548 364.164 86.2731 364.164C84.8925 364.164 83.7742 363.045 83.7742 361.664C83.7742 360.284 84.8925 359.164 86.2731 359.164C87.6548 359.164 88.7742 360.284 88.7742 361.664Z" fill="#2F5BE9"/>
<path fill-rule="evenodd" clip-rule="evenodd" d="M101.903 361.664C101.903 363.045 100.785 364.164 99.4027 364.164C98.0224 364.164 96.9032 363.045 96.9032 361.664C96.9032 360.284 98.0224 359.164 99.4027 359.164C100.785 359.164 101.903 360.284 101.903 361.664Z" fill="#2F5BE9"/>
<path fill-rule="evenodd" clip-rule="evenodd" d="M47 376.025C47 377.405 45.8809 378.525 44.4989 378.525C43.1191 378.525 42 377.405 42 376.025C42 374.644 43.1191 373.525 44.4989 373.525C45.8809 373.525 47 374.644 47 376.025Z" fill="#2F5BE9"/>
<path fill-rule="evenodd" clip-rule="evenodd" d="M61.3226 376.025C61.3226 377.405 60.2035 378.525 58.822 378.525C57.4417 378.525 56.3226 377.405 56.3226 376.025C56.3226 374.644 57.4417 373.525 58.822 373.525C60.2035 373.525 61.3226 374.644 61.3226 376.025Z" fill="#2F5BE9"/>
<path fill-rule="evenodd" clip-rule="evenodd" d="M74.4516 376.025C74.4516 377.405 73.3322 378.525 71.9516 378.525C70.5704 378.525 69.4516 377.405 69.4516 376.025C69.4516 374.644 70.5704 373.525 71.9516 373.525C73.3322 373.525 74.4516 374.644 74.4516 376.025Z" fill="#2F5BE9"/>
<path fill-rule="evenodd" clip-rule="evenodd" d="M88.7742 376.025C88.7742 377.405 87.6548 378.525 86.2731 378.525C84.8925 378.525 83.7742 377.405 83.7742 376.025C83.7742 374.644 84.8925 373.525 86.2731 373.525C87.6548 373.525 88.7742 374.644 88.7742 376.025Z" fill="#2F5BE9"/>
<path fill-rule="evenodd" clip-rule="evenodd" d="M101.903 376.025C101.903 377.405 100.785 378.525 99.4027 378.525C98.0224 378.525 96.9032 377.405 96.9032 376.025C96.9032 374.644 98.0224 373.525 99.4027 373.525C100.785 373.525 101.903 374.644 101.903 376.025Z" fill="#2F5BE9"/>
<path fill-rule="evenodd" clip-rule="evenodd" d="M47 389.188C47 390.569 45.8809 391.689 44.4989 391.689C43.1191 391.689 42 390.569 42 389.188C42 387.808 43.1191 386.689 44.4989 386.689C45.8809 386.689 47 387.808 47 389.188Z" fill="#2F5BE9"/>
<path fill-rule="evenodd" clip-rule="evenodd" d="M61.3226 389.188C61.3226 390.569 60.2035 391.689 58.822 391.689C57.4417 391.689 56.3226 390.569 56.3226 389.188C56.3226 387.808 57.4417 386.689 58.822 386.689C60.2035 386.689 61.3226 387.808 61.3226 389.188Z" fill="#2F5BE9"/>
<path fill-rule="evenodd" clip-rule="evenodd" d="M74.4516 389.188C74.4516 390.569 73.3322 391.689 71.9516 391.689C70.5704 391.689 69.4516 390.569 69.4516 389.188C69.4516 387.808 70.5704 386.689 71.9516 386.689C73.3322 386.689 74.4516 387.808 74.4516 389.188Z" fill="#2F5BE9"/>
<path fill-rule="evenodd" clip-rule="evenodd" d="M88.7742 389.188C88.7742 390.569 87.6548 391.689 86.2731 391.689C84.8925 391.689 83.7742 390.569 83.7742 389.188C83.7742 387.808 84.8925 386.689 86.2731 386.689C87.6548 386.689 88.7742 387.808 88.7742 389.188Z" fill="#2F5BE9"/>
<path fill-rule="evenodd" clip-rule="evenodd" d="M101.903 389.188C101.903 390.569 100.785 391.689 99.4027 391.689C98.0224 391.689 96.9032 390.569 96.9032 389.188C96.9032 387.808 98.0224 386.689 99.4027 386.689C100.785 386.689 101.903 387.808 101.903 389.188Z" fill="#2F5BE9"/>
<path fill-rule="evenodd" clip-rule="evenodd" d="M47 403.549C47 404.93 45.8809 406.049 44.4989 406.049C43.1191 406.049 42 404.93 42 403.549C42 402.168 43.1191 401.049 44.4989 401.049C45.8809 401.049 47 402.168 47 403.549Z" fill="#2F5BE9"/>
<path fill-rule="evenodd" clip-rule="evenodd" d="M61.3226 403.549C61.3226 404.93 60.2035 406.049 58.822 406.049C57.4417 406.049 56.3226 404.93 56.3226 403.549C56.3226 402.168 57.4417 401.049 58.822 401.049C60.2035 401.049 61.3226 402.168 61.3226 403.549Z" fill="#2F5BE9"/>
<path fill-rule="evenodd" clip-rule="evenodd" d="M74.4516 403.549C74.4516 404.93 73.3322 406.049 71.9516 406.049C70.5704 406.049 69.4516 404.93 69.4516 403.549C69.4516 402.168 70.5704 401.049 71.9516 401.049C73.3322 401.049 74.4516 402.168 74.4516 403.549Z" fill="#2F5BE9"/>
<path fill-rule="evenodd" clip-rule="evenodd" d="M88.7742 403.549C88.7742 404.93 87.6548 406.049 86.2731 406.049C84.8925 406.049 83.7742 404.93 83.7742 403.549C83.7742 402.168 84.8925 401.049 86.2731 401.049C87.6548 401.049 88.7742 402.168 88.7742 403.549Z" fill="#2F5BE9"/>
<path fill-rule="evenodd" clip-rule="evenodd" d="M101.903 403.549C101.903 404.93 100.785 406.049 99.4027 406.049C98.0224 406.049 96.9032 404.93 96.9032 403.549C96.9032 402.168 98.0224 401.049 99.4027 401.049C100.785 401.049 101.903 402.168 101.903 403.549Z" fill="#2F5BE9"/>
<path fill-rule="evenodd" clip-rule="evenodd" d="M47 416.713C47 418.094 45.8809 419.213 44.4989 419.213C43.1191 419.213 42 418.094 42 416.713C42 415.332 43.1191 414.213 44.4989 414.213C45.8809 414.213 47 415.332 47 416.713Z" fill="#2F5BE9"/>
<path fill-rule="evenodd" clip-rule="evenodd" d="M61.3226 416.713C61.3226 418.094 60.2035 419.213 58.822 419.213C57.4417 419.213 56.3226 418.094 56.3226 416.713C56.3226 415.332 57.4417 414.213 58.822 414.213C60.2035 414.213 61.3226 415.332 61.3226 416.713Z" fill="#2F5BE9"/>
<path fill-rule="evenodd" clip-rule="evenodd" d="M74.4516 416.713C74.4516 418.094 73.3322 419.213 71.9516 419.213C70.5704 419.213 69.4516 418.094 69.4516 416.713C69.4516 415.332 70.5704 414.213 71.9516 414.213C73.3322 414.213 74.4516 415.332 74.4516 416.713Z" fill="#2F5BE9"/>
<path fill-rule="evenodd" clip-rule="evenodd" d="M88.7742 416.713C88.7742 418.094 87.6548 419.213 86.2731 419.213C84.8925 419.213 83.7742 418.094 83.7742 416.713C83.7742 415.332 84.8925 414.213 86.2731 414.213C87.6548 414.213 88.7742 415.332 88.7742 416.713Z" fill="#2F5BE9"/>
<path fill-rule="evenodd" clip-rule="evenodd" d="M101.903 416.713C101.903 418.094 100.785 419.213 99.4027 419.213C98.0224 419.213 96.9032 418.094 96.9032 416.713C96.9032 415.332 98.0224 414.213 99.4027 414.213C100.785 414.213 101.903 415.332 101.903 416.713Z" fill="#2F5BE9"/>
<path fill-rule="evenodd" clip-rule="evenodd" d="M116.226 348.5C116.226 349.881 115.107 351 113.725 351C112.345 351 111.226 349.881 111.226 348.5C111.226 347.119 112.345 346 113.725 346C115.107 346 116.226 347.119 116.226 348.5Z" fill="#2F5BE9"/>
<path fill-rule="evenodd" clip-rule="evenodd" d="M116.226 361.664C116.226 363.045 115.107 364.164 113.725 364.164C112.345 364.164 111.226 363.045 111.226 361.664C111.226 360.284 112.345 359.164 113.725 359.164C115.107 359.164 116.226 360.284 116.226 361.664Z" fill="#2F5BE9"/>
<path fill-rule="evenodd" clip-rule="evenodd" d="M116.226 376.025C116.226 377.405 115.107 378.525 113.725 378.525C112.345 378.525 111.226 377.405 111.226 376.025C111.226 374.644 112.345 373.525 113.725 373.525C115.107 373.525 116.226 374.644 116.226 376.025Z" fill="#2F5BE9"/>
<path fill-rule="evenodd" clip-rule="evenodd" d="M116.226 389.188C116.226 390.569 115.107 391.689 113.725 391.689C112.345 391.689 111.226 390.569 111.226 389.188C111.226 387.808 112.345 386.689 113.725 386.689C115.107 386.689 116.226 387.808 116.226 389.188Z" fill="#2F5BE9"/>
<path fill-rule="evenodd" clip-rule="evenodd" d="M116.226 403.549C116.226 404.93 115.107 406.049 113.725 406.049C112.345 406.049 111.226 404.93 111.226 403.549C111.226 402.168 112.345 401.049 113.725 401.049C115.107 401.049 116.226 402.168 116.226 403.549Z" fill="#2F5BE9"/>
<path fill-rule="evenodd" clip-rule="evenodd" d="M116.226 416.713C116.226 418.094 115.107 419.213 113.725 419.213C112.345 419.213 111.226 418.094 111.226 416.713C111.226 415.332 112.345 414.213 113.725 414.213C115.107 414.213 116.226 415.332 116.226 416.713Z" fill="#2F5BE9"/>
<path fill-rule="evenodd" clip-rule="evenodd" d="M131 268.5C131 269.881 129.881 271 128.499 271C127.119 271 126 269.881 126 268.5C126 267.119 127.119 266 128.499 266C129.881 266 131 267.119 131 268.5Z" fill="#2F5BE9"/>
<path fill-rule="evenodd" clip-rule="evenodd" d="M145.323 268.5C145.323 269.881 144.203 271 142.822 271C141.442 271 140.323 269.881 140.323 268.5C140.323 267.119 141.442 266 142.822 266C144.203 266 145.323 267.119 145.323 268.5Z" fill="#2F5BE9"/>
<path fill-rule="evenodd" clip-rule="evenodd" d="M158.452 268.5C158.452 269.881 157.332 271 155.952 271C154.57 271 153.452 269.881 153.452 268.5C153.452 267.119 154.57 266 155.952 266C157.332 266 158.452 267.119 158.452 268.5Z" fill="#2F5BE9"/>
<path fill-rule="evenodd" clip-rule="evenodd" d="M172.774 268.5C172.774 269.881 171.655 271 170.273 271C168.892 271 167.774 269.881 167.774 268.5C167.774 267.119 168.892 266 170.273 266C171.655 266 172.774 267.119 172.774 268.5Z" fill="#2F5BE9"/>
<path fill-rule="evenodd" clip-rule="evenodd" d="M185.903 268.5C185.903 269.881 184.785 271 183.403 271C182.022 271 180.903 269.881 180.903 268.5C180.903 267.119 182.022 266 183.403 266C184.785 266 185.903 267.119 185.903 268.5Z" fill="#2F5BE9"/>
<path fill-rule="evenodd" clip-rule="evenodd" d="M131 281.664C131 283.045 129.881 284.164 128.499 284.164C127.119 284.164 126 283.045 126 281.664C126 280.284 127.119 279.164 128.499 279.164C129.881 279.164 131 280.284 131 281.664Z" fill="#2F5BE9"/>
<path fill-rule="evenodd" clip-rule="evenodd" d="M145.323 281.664C145.323 283.045 144.203 284.164 142.822 284.164C141.442 284.164 140.323 283.045 140.323 281.664C140.323 280.284 141.442 279.164 142.822 279.164C144.203 279.164 145.323 280.284 145.323 281.664Z" fill="#2F5BE9"/>
<path fill-rule="evenodd" clip-rule="evenodd" d="M158.452 281.664C158.452 283.045 157.332 284.164 155.952 284.164C154.57 284.164 153.452 283.045 153.452 281.664C153.452 280.284 154.57 279.164 155.952 279.164C157.332 279.164 158.452 280.284 158.452 281.664Z" fill="#2F5BE9"/>
<path fill-rule="evenodd" clip-rule="evenodd" d="M172.774 281.664C172.774 283.045 171.655 284.164 170.273 284.164C168.892 284.164 167.774 283.045 167.774 281.664C167.774 280.284 168.892 279.164 170.273 279.164C171.655 279.164 172.774 280.284 172.774 281.664Z" fill="#2F5BE9"/>
<path fill-rule="evenodd" clip-rule="evenodd" d="M185.903 281.664C185.903 283.045 184.785 284.164 183.403 284.164C182.022 284.164 180.903 283.045 180.903 281.664C180.903 280.284 182.022 279.164 183.403 279.164C184.785 279.164 185.903 280.284 185.903 281.664Z" fill="#2F5BE9"/>
<path fill-rule="evenodd" clip-rule="evenodd" d="M131 296.025C131 297.405 129.881 298.525 128.499 298.525C127.119 298.525 126 297.405 126 296.025C126 294.644 127.119 293.525 128.499 293.525C129.881 293.525 131 294.644 131 296.025Z" fill="#2F5BE9"/>
<path fill-rule="evenodd" clip-rule="evenodd" d="M145.323 296.025C145.323 297.405 144.203 298.525 142.822 298.525C141.442 298.525 140.323 297.405 140.323 296.025C140.323 294.644 141.442 293.525 142.822 293.525C144.203 293.525 145.323 294.644 145.323 296.025Z" fill="#2F5BE9"/>
<path fill-rule="evenodd" clip-rule="evenodd" d="M158.452 296.025C158.452 297.405 157.332 298.525 155.952 298.525C154.57 298.525 153.452 297.405 153.452 296.025C153.452 294.644 154.57 293.525 155.952 293.525C157.332 293.525 158.452 294.644 158.452 296.025Z" fill="#2F5BE9"/>
<path fill-rule="evenodd" clip-rule="evenodd" d="M172.774 296.025C172.774 297.405 171.655 298.525 170.273 298.525C168.892 298.525 167.774 297.405 167.774 296.025C167.774 294.644 168.892 293.525 170.273 293.525C171.655 293.525 172.774 294.644 172.774 296.025Z" fill="#2F5BE9"/>
<path fill-rule="evenodd" clip-rule="evenodd" d="M185.903 296.025C185.903 297.405 184.785 298.525 183.403 298.525C182.022 298.525 180.903 297.405 180.903 296.025C180.903 294.644 182.022 293.525 183.403 293.525C184.785 293.525 185.903 294.644 185.903 296.025Z" fill="#2F5BE9"/>
<path fill-rule="evenodd" clip-rule="evenodd" d="M131 309.188C131 310.569 129.881 311.689 128.499 311.689C127.119 311.689 126 310.569 126 309.188C126 307.808 127.119 306.689 128.499 306.689C129.881 306.689 131 307.808 131 309.188Z" fill="#2F5BE9"/>
<path fill-rule="evenodd" clip-rule="evenodd" d="M145.323 309.188C145.323 310.569 144.203 311.689 142.822 311.689C141.442 311.689 140.323 310.569 140.323 309.188C140.323 307.808 141.442 306.689 142.822 306.689C144.203 306.689 145.323 307.808 145.323 309.188Z" fill="#2F5BE9"/>
<path fill-rule="evenodd" clip-rule="evenodd" d="M158.452 309.188C158.452 310.569 157.332 311.689 155.952 311.689C154.57 311.689 153.452 310.569 153.452 309.188C153.452 307.808 154.57 306.689 155.952 306.689C157.332 306.689 158.452 307.808 158.452 309.188Z" fill="#2F5BE9"/>
<path fill-rule="evenodd" clip-rule="evenodd" d="M172.774 309.188C172.774 310.569 171.655 311.689 170.273 311.689C168.892 311.689 167.774 310.569 167.774 309.188C167.774 307.808 168.892 306.689 170.273 306.689C171.655 306.689 172.774 307.808 172.774 309.188Z" fill="#2F5BE9"/>
<path fill-rule="evenodd" clip-rule="evenodd" d="M185.903 309.188C185.903 310.569 184.785 311.689 183.403 311.689C182.022 311.689 180.903 310.569 180.903 309.188C180.903 307.808 182.022 306.689 183.403 306.689C184.785 306.689 185.903 307.808 185.903 309.188Z" fill="#2F5BE9"/>
<path fill-rule="evenodd" clip-rule="evenodd" d="M131 323.549C131 324.93 129.881 326.049 128.499 326.049C127.119 326.049 126 324.93 126 323.549C126 322.168 127.119 321.049 128.499 321.049C129.881 321.049 131 322.168 131 323.549Z" fill="#2F5BE9"/>
<path fill-rule="evenodd" clip-rule="evenodd" d="M145.323 323.549C145.323 324.93 144.203 326.049 142.822 326.049C141.442 326.049 140.323 324.93 140.323 323.549C140.323 322.168 141.442 321.049 142.822 321.049C144.203 321.049 145.323 322.168 145.323 323.549Z" fill="#2F5BE9"/>
<path fill-rule="evenodd" clip-rule="evenodd" d="M158.452 323.549C158.452 324.93 157.332 326.049 155.952 326.049C154.57 326.049 153.452 324.93 153.452 323.549C153.452 322.168 154.57 321.049 155.952 321.049C157.332 321.049 158.452 322.168 158.452 323.549Z" fill="#2F5BE9"/>
<path fill-rule="evenodd" clip-rule="evenodd" d="M172.774 323.549C172.774 324.93 171.655 326.049 170.273 326.049C168.892 326.049 167.774 324.93 167.774 323.549C167.774 322.168 168.892 321.049 170.273 321.049C171.655 321.049 172.774 322.168 172.774 323.549Z" fill="#2F5BE9"/>
<path fill-rule="evenodd" clip-rule="evenodd" d="M185.903 323.549C185.903 324.93 184.785 326.049 183.403 326.049C182.022 326.049 180.903 324.93 180.903 323.549C180.903 322.168 182.022 321.049 183.403 321.049C184.785 321.049 185.903 322.168 185.903 323.549Z" fill="#2F5BE9"/>
<path fill-rule="evenodd" clip-rule="evenodd" d="M131 336.713C131 338.094 129.881 339.213 128.499 339.213C127.119 339.213 126 338.094 126 336.713C126 335.332 127.119 334.213 128.499 334.213C129.881 334.213 131 335.332 131 336.713Z" fill="#2F5BE9"/>
<path fill-rule="evenodd" clip-rule="evenodd" d="M145.323 336.713C145.323 338.094 144.203 339.213 142.822 339.213C141.442 339.213 140.323 338.094 140.323 336.713C140.323 335.332 141.442 334.213 142.822 334.213C144.203 334.213 145.323 335.332 145.323 336.713Z" fill="#2F5BE9"/>
<path fill-rule="evenodd" clip-rule="evenodd" d="M158.452 336.713C158.452 338.094 157.332 339.213 155.952 339.213C154.57 339.213 153.452 338.094 153.452 336.713C153.452 335.332 154.57 334.213 155.952 334.213C157.332 334.213 158.452 335.332 158.452 336.713Z" fill="#2F5BE9"/>
<path fill-rule="evenodd" clip-rule="evenodd" d="M172.774 336.713C172.774 338.094 171.655 339.213 170.273 339.213C168.892 339.213 167.774 338.094 167.774 336.713C167.774 335.332 168.892 334.213 170.273 334.213C171.655 334.213 172.774 335.332 172.774 336.713Z" fill="#2F5BE9"/>
<path fill-rule="evenodd" clip-rule="evenodd" d="M185.903 336.713C185.903 338.094 184.785 339.213 183.403 339.213C182.022 339.213 180.903 338.094 180.903 336.713C180.903 335.332 182.022 334.213 183.403 334.213C184.785 334.213 185.903 335.332 185.903 336.713Z" fill="#2F5BE9"/>
<path fill-rule="evenodd" clip-rule="evenodd" d="M200.226 268.5C200.226 269.881 199.107 271 197.725 271C196.345 271 195.226 269.881 195.226 268.5C195.226 267.119 196.345 266 197.725 266C199.107 266 200.226 267.119 200.226 268.5Z" fill="#2F5BE9"/>
<path fill-rule="evenodd" clip-rule="evenodd" d="M200.226 281.664C200.226 283.045 199.107 284.164 197.725 284.164C196.345 284.164 195.226 283.045 195.226 281.664C195.226 280.284 196.345 279.164 197.725 279.164C199.107 279.164 200.226 280.284 200.226 281.664Z" fill="#2F5BE9"/>
<path fill-rule="evenodd" clip-rule="evenodd" d="M200.226 296.025C200.226 297.405 199.107 298.525 197.725 298.525C196.345 298.525 195.226 297.405 195.226 296.025C195.226 294.644 196.345 293.525 197.725 293.525C199.107 293.525 200.226 294.644 200.226 296.025Z" fill="#2F5BE9"/>
<path fill-rule="evenodd" clip-rule="evenodd" d="M200.226 309.188C200.226 310.569 199.107 311.689 197.725 311.689C196.345 311.689 195.226 310.569 195.226 309.188C195.226 307.808 196.345 306.689 197.725 306.689C199.107 306.689 200.226 307.808 200.226 309.188Z" fill="#2F5BE9"/>
<path fill-rule="evenodd" clip-rule="evenodd" d="M200.226 323.549C200.226 324.93 199.107 326.049 197.725 326.049C196.345 326.049 195.226 324.93 195.226 323.549C195.226 322.168 196.345 321.049 197.725 321.049C199.107 321.049 200.226 322.168 200.226 323.549Z" fill="#2F5BE9"/>
<path fill-rule="evenodd" clip-rule="evenodd" d="M200.226 336.713C200.226 338.094 199.107 339.213 197.725 339.213C196.345 339.213 195.226 338.094 195.226 336.713C195.226 335.332 196.345 334.213 197.725 334.213C199.107 334.213 200.226 335.332 200.226 336.713Z" fill="#2F5BE9"/>
<path fill-rule="evenodd" clip-rule="evenodd" d="M131 348.5C131 349.881 129.881 351 128.499 351C127.119 351 126 349.881 126 348.5C126 347.119 127.119 346 128.499 346C129.881 346 131 347.119 131 348.5Z" fill="#2F5BE9"/>
<path fill-rule="evenodd" clip-rule="evenodd" d="M145.323 348.5C145.323 349.881 144.203 351 142.822 351C141.442 351 140.323 349.881 140.323 348.5C140.323 347.119 141.442 346 142.822 346C144.203 346 145.323 347.119 145.323 348.5Z" fill="#2F5BE9"/>
<path fill-rule="evenodd" clip-rule="evenodd" d="M158.452 348.5C158.452 349.881 157.332 351 155.952 351C154.57 351 153.452 349.881 153.452 348.5C153.452 347.119 154.57 346 155.952 346C157.332 346 158.452 347.119 158.452 348.5Z" fill="#2F5BE9"/>
<path fill-rule="evenodd" clip-rule="evenodd" d="M172.774 348.5C172.774 349.881 171.655 351 170.273 351C168.892 351 167.774 349.881 167.774 348.5C167.774 347.119 168.892 346 170.273 346C171.655 346 172.774 347.119 172.774 348.5Z" fill="#2F5BE9"/>
<path fill-rule="evenodd" clip-rule="evenodd" d="M185.903 348.5C185.903 349.881 184.785 351 183.403 351C182.022 351 180.903 349.881 180.903 348.5C180.903 347.119 182.022 346 183.403 346C184.785 346 185.903 347.119 185.903 348.5Z" fill="#2F5BE9"/>
<path fill-rule="evenodd" clip-rule="evenodd" d="M131 361.664C131 363.045 129.881 364.164 128.499 364.164C127.119 364.164 126 363.045 126 361.664C126 360.284 127.119 359.164 128.499 359.164C129.881 359.164 131 360.284 131 361.664Z" fill="#2F5BE9"/>
<path fill-rule="evenodd" clip-rule="evenodd" d="M145.323 361.664C145.323 363.045 144.203 364.164 142.822 364.164C141.442 364.164 140.323 363.045 140.323 361.664C140.323 360.284 141.442 359.164 142.822 359.164C144.203 359.164 145.323 360.284 145.323 361.664Z" fill="#2F5BE9"/>
<path fill-rule="evenodd" clip-rule="evenodd" d="M158.452 361.664C158.452 363.045 157.332 364.164 155.952 364.164C154.57 364.164 153.452 363.045 153.452 361.664C153.452 360.284 154.57 359.164 155.952 359.164C157.332 359.164 158.452 360.284 158.452 361.664Z" fill="#2F5BE9"/>
<path fill-rule="evenodd" clip-rule="evenodd" d="M172.774 361.664C172.774 363.045 171.655 364.164 170.273 364.164C168.892 364.164 167.774 363.045 167.774 361.664C167.774 360.284 168.892 359.164 170.273 359.164C171.655 359.164 172.774 360.284 172.774 361.664Z" fill="#2F5BE9"/>
<path fill-rule="evenodd" clip-rule="evenodd" d="M185.903 361.664C185.903 363.045 184.785 364.164 183.403 364.164C182.022 364.164 180.903 363.045 180.903 361.664C180.903 360.284 182.022 359.164 183.403 359.164C184.785 359.164 185.903 360.284 185.903 361.664Z" fill="#2F5BE9"/>
<path fill-rule="evenodd" clip-rule="evenodd" d="M131 376.025C131 377.405 129.881 378.525 128.499 378.525C127.119 378.525 126 377.405 126 376.025C126 374.644 127.119 373.525 128.499 373.525C129.881 373.525 131 374.644 131 376.025Z" fill="#2F5BE9"/>
<path fill-rule="evenodd" clip-rule="evenodd" d="M145.323 376.025C145.323 377.405 144.203 378.525 142.822 378.525C141.442 378.525 140.323 377.405 140.323 376.025C140.323 374.644 141.442 373.525 142.822 373.525C144.203 373.525 145.323 374.644 145.323 376.025Z" fill="#2F5BE9"/>
<path fill-rule="evenodd" clip-rule="evenodd" d="M158.452 376.025C158.452 377.405 157.332 378.525 155.952 378.525C154.57 378.525 153.452 377.405 153.452 376.025C153.452 374.644 154.57 373.525 155.952 373.525C157.332 373.525 158.452 374.644 158.452 376.025Z" fill="#2F5BE9"/>
<path fill-rule="evenodd" clip-rule="evenodd" d="M172.774 376.025C172.774 377.405 171.655 378.525 170.273 378.525C168.892 378.525 167.774 377.405 167.774 376.025C167.774 374.644 168.892 373.525 170.273 373.525C171.655 373.525 172.774 374.644 172.774 376.025Z" fill="#2F5BE9"/>
<path fill-rule="evenodd" clip-rule="evenodd" d="M185.903 376.025C185.903 377.405 184.785 378.525 183.403 378.525C182.022 378.525 180.903 377.405 180.903 376.025C180.903 374.644 182.022 373.525 183.403 373.525C184.785 373.525 185.903 374.644 185.903 376.025Z" fill="#2F5BE9"/>
<path fill-rule="evenodd" clip-rule="evenodd" d="M131 389.188C131 390.569 129.881 391.689 128.499 391.689C127.119 391.689 126 390.569 126 389.188C126 387.808 127.119 386.689 128.499 386.689C129.881 386.689 131 387.808 131 389.188Z" fill="#2F5BE9"/>
<path fill-rule="evenodd" clip-rule="evenodd" d="M145.323 389.188C145.323 390.569 144.203 391.689 142.822 391.689C141.442 391.689 140.323 390.569 140.323 389.188C140.323 387.808 141.442 386.689 142.822 386.689C144.203 386.689 145.323 387.808 145.323 389.188Z" fill="#2F5BE9"/>
<path fill-rule="evenodd" clip-rule="evenodd" d="M158.452 389.188C158.452 390.569 157.332 391.689 155.952 391.689C154.57 391.689 153.452 390.569 153.452 389.188C153.452 387.808 154.57 386.689 155.952 386.689C157.332 386.689 158.452 387.808 158.452 389.188Z" fill="#2F5BE9"/>
<path fill-rule="evenodd" clip-rule="evenodd" d="M172.774 389.188C172.774 390.569 171.655 391.689 170.273 391.689C168.892 391.689 167.774 390.569 167.774 389.188C167.774 387.808 168.892 386.689 170.273 386.689C171.655 386.689 172.774 387.808 172.774 389.188Z" fill="#2F5BE9"/>
<path fill-rule="evenodd" clip-rule="evenodd" d="M185.903 389.188C185.903 390.569 184.785 391.689 183.403 391.689C182.022 391.689 180.903 390.569 180.903 389.188C180.903 387.808 182.022 386.689 183.403 386.689C184.785 386.689 185.903 387.808 185.903 389.188Z" fill="#2F5BE9"/>
<path fill-rule="evenodd" clip-rule="evenodd" d="M131 403.549C131 404.93 129.881 406.049 128.499 406.049C127.119 406.049 126 404.93 126 403.549C126 402.168 127.119 401.049 128.499 401.049C129.881 401.049 131 402.168 131 403.549Z" fill="#2F5BE9"/>
<path fill-rule="evenodd" clip-rule="evenodd" d="M145.323 403.549C145.323 404.93 144.203 406.049 142.822 406.049C141.442 406.049 140.323 404.93 140.323 403.549C140.323 402.168 141.442 401.049 142.822 401.049C144.203 401.049 145.323 402.168 145.323 403.549Z" fill="#2F5BE9"/>
<path fill-rule="evenodd" clip-rule="evenodd" d="M158.452 403.549C158.452 404.93 157.332 406.049 155.952 406.049C154.57 406.049 153.452 404.93 153.452 403.549C153.452 402.168 154.57 401.049 155.952 401.049C157.332 401.049 158.452 402.168 158.452 403.549Z" fill="#2F5BE9"/>
<path fill-rule="evenodd" clip-rule="evenodd" d="M172.774 403.549C172.774 404.93 171.655 406.049 170.273 406.049C168.892 406.049 167.774 404.93 167.774 403.549C167.774 402.168 168.892 401.049 170.273 401.049C171.655 401.049 172.774 402.168 172.774 403.549Z" fill="#2F5BE9"/>
<path fill-rule="evenodd" clip-rule="evenodd" d="M185.903 403.549C185.903 404.93 184.785 406.049 183.403 406.049C182.022 406.049 180.903 404.93 180.903 403.549C180.903 402.168 182.022 401.049 183.403 401.049C184.785 401.049 185.903 402.168 185.903 403.549Z" fill="#2F5BE9"/>
<path fill-rule="evenodd" clip-rule="evenodd" d="M131 416.713C131 418.094 129.881 419.213 128.499 419.213C127.119 419.213 126 418.094 126 416.713C126 415.332 127.119 414.213 128.499 414.213C129.881 414.213 131 415.332 131 416.713Z" fill="#2F5BE9"/>
<path fill-rule="evenodd" clip-rule="evenodd" d="M145.323 416.713C145.323 418.094 144.203 419.213 142.822 419.213C141.442 419.213 140.323 418.094 140.323 416.713C140.323 415.332 141.442 414.213 142.822 414.213C144.203 414.213 145.323 415.332 145.323 416.713Z" fill="#2F5BE9"/>
<path fill-rule="evenodd" clip-rule="evenodd" d="M158.452 416.713C158.452 418.094 157.332 419.213 155.952 419.213C154.57 419.213 153.452 418.094 153.452 416.713C153.452 415.332 154.57 414.213 155.952 414.213C157.332 414.213 158.452 415.332 158.452 416.713Z" fill="#2F5BE9"/>
<path fill-rule="evenodd" clip-rule="evenodd" d="M172.774 416.713C172.774 418.094 171.655 419.213 170.273 419.213C168.892 419.213 167.774 418.094 167.774 416.713C167.774 415.332 168.892 414.213 170.273 414.213C171.655 414.213 172.774 415.332 172.774 416.713Z" fill="#2F5BE9"/>
<path fill-rule="evenodd" clip-rule="evenodd" d="M185.903 416.713C185.903 418.094 184.785 419.213 183.403 419.213C182.022 419.213 180.903 418.094 180.903 416.713C180.903 415.332 182.022 414.213 183.403 414.213C184.785 414.213 185.903 415.332 185.903 416.713Z" fill="#2F5BE9"/>
<path fill-rule="evenodd" clip-rule="evenodd" d="M200.226 348.5C200.226 349.881 199.107 351 197.725 351C196.345 351 195.226 349.881 195.226 348.5C195.226 347.119 196.345 346 197.725 346C199.107 346 200.226 347.119 200.226 348.5Z" fill="#2F5BE9"/>
<path fill-rule="evenodd" clip-rule="evenodd" d="M200.226 361.664C200.226 363.045 199.107 364.164 197.725 364.164C196.345 364.164 195.226 363.045 195.226 361.664C195.226 360.284 196.345 359.164 197.725 359.164C199.107 359.164 200.226 360.284 200.226 361.664Z" fill="#2F5BE9"/>
<path fill-rule="evenodd" clip-rule="evenodd" d="M200.226 376.025C200.226 377.405 199.107 378.525 197.725 378.525C196.345 378.525 195.226 377.405 195.226 376.025C195.226 374.644 196.345 373.525 197.725 373.525C199.107 373.525 200.226 374.644 200.226 376.025Z" fill="#2F5BE9"/>
<path fill-rule="evenodd" clip-rule="evenodd" d="M200.226 389.188C200.226 390.569 199.107 391.689 197.725 391.689C196.345 391.689 195.226 390.569 195.226 389.188C195.226 387.808 196.345 386.689 197.725 386.689C199.107 386.689 200.226 387.808 200.226 389.188Z" fill="#2F5BE9"/>
<path fill-rule="evenodd" clip-rule="evenodd" d="M200.226 403.549C200.226 404.93 199.107 406.049 197.725 406.049C196.345 406.049 195.226 404.93 195.226 403.549C195.226 402.168 196.345 401.049 197.725 401.049C199.107 401.049 200.226 402.168 200.226 403.549Z" fill="#2F5BE9"/>
<path fill-rule="evenodd" clip-rule="evenodd" d="M200.226 416.713C200.226 418.094 199.107 419.213 197.725 419.213C196.345 419.213 195.226 418.094 195.226 416.713C195.226 415.332 196.345 414.213 197.725 414.213C199.107 414.213 200.226 415.332 200.226 416.713Z" fill="#2F5BE9"/>
</g>
<path fill-rule="evenodd" clip-rule="evenodd" d="M1237 745.001L1399.42 651.23L1493.19 813.647L1330.77 907.418L1237 745.001Z" fill="#192036"/>
<g opacity="0.35">
<path fill-rule="evenodd" clip-rule="evenodd" d="M1309.08 697.665C1308.39 698.861 1306.86 699.27 1305.66 698.579C1304.47 697.889 1304.06 696.361 1304.75 695.165C1305.44 693.969 1306.97 693.559 1308.16 694.249C1309.36 694.94 1309.77 696.469 1309.08 697.665Z" fill="#2F5BE9"/>
<path fill-rule="evenodd" clip-rule="evenodd" d="M1321.48 704.826C1320.79 706.022 1319.26 706.431 1318.07 705.741C1316.87 705.051 1316.46 703.522 1317.15 702.326C1317.84 701.13 1319.37 700.72 1320.57 701.411C1321.76 702.101 1322.17 703.63 1321.48 704.826Z" fill="#2F5BE9"/>
<path fill-rule="evenodd" clip-rule="evenodd" d="M1332.85 711.391C1332.16 712.586 1330.63 712.996 1329.44 712.306C1328.24 711.615 1327.83 710.086 1328.52 708.891C1329.21 707.695 1330.74 707.285 1331.94 707.975C1333.13 708.666 1333.54 710.195 1332.85 711.391Z" fill="#2F5BE9"/>
<path fill-rule="evenodd" clip-rule="evenodd" d="M1345.26 718.552C1344.57 719.748 1343.04 720.157 1341.84 719.466C1340.65 718.776 1340.24 717.248 1340.93 716.052C1341.62 714.856 1343.15 714.446 1344.34 715.136C1345.54 715.827 1345.95 717.356 1345.26 718.552Z" fill="#2F5BE9"/>
<path fill-rule="evenodd" clip-rule="evenodd" d="M1356.63 725.116C1355.94 726.312 1354.41 726.722 1353.21 726.031C1352.02 725.341 1351.61 723.812 1352.3 722.616C1352.99 721.42 1354.52 721.011 1355.71 721.701C1356.91 722.392 1357.32 723.92 1356.63 725.116Z" fill="#2F5BE9"/>
<path fill-rule="evenodd" clip-rule="evenodd" d="M1302.5 709.065C1301.81 710.261 1300.28 710.671 1299.08 709.98C1297.89 709.29 1297.48 707.761 1298.17 706.565C1298.86 705.37 1300.39 704.96 1301.58 705.649C1302.78 706.34 1303.19 707.87 1302.5 709.065Z" fill="#2F5BE9"/>
<path fill-rule="evenodd" clip-rule="evenodd" d="M1314.9 716.226C1314.21 717.422 1312.68 717.832 1311.49 717.141C1310.29 716.451 1309.88 714.922 1310.57 713.726C1311.26 712.531 1312.79 712.121 1313.99 712.811C1315.18 713.502 1315.59 715.031 1314.9 716.226Z" fill="#2F5BE9"/>
<path fill-rule="evenodd" clip-rule="evenodd" d="M1326.27 722.791C1325.58 723.987 1324.05 724.396 1322.86 723.706C1321.66 723.015 1321.25 721.487 1321.94 720.291C1322.63 719.095 1324.16 718.685 1325.36 719.376C1326.55 720.066 1326.96 721.595 1326.27 722.791Z" fill="#2F5BE9"/>
<path fill-rule="evenodd" clip-rule="evenodd" d="M1338.68 729.952C1337.99 731.148 1336.46 731.557 1335.26 730.867C1334.06 730.176 1333.66 728.648 1334.35 727.452C1335.04 726.257 1336.56 725.846 1337.76 726.537C1338.96 727.227 1339.37 728.757 1338.68 729.952Z" fill="#2F5BE9"/>
<path fill-rule="evenodd" clip-rule="evenodd" d="M1350.05 736.517C1349.36 737.712 1347.83 738.122 1346.63 737.431C1345.43 736.741 1345.03 735.212 1345.72 734.017C1346.41 732.821 1347.93 732.411 1349.13 733.101C1350.33 733.792 1350.74 735.321 1350.05 736.517Z" fill="#2F5BE9"/>
<path fill-rule="evenodd" clip-rule="evenodd" d="M1295.32 721.502C1294.63 722.697 1293.1 723.107 1291.9 722.416C1290.71 721.726 1290.3 720.197 1290.99 719.002C1291.68 717.806 1293.21 717.396 1294.4 718.086C1295.6 718.777 1296.01 720.306 1295.32 721.502Z" fill="#2F5BE9"/>
<path fill-rule="evenodd" clip-rule="evenodd" d="M1307.72 728.663C1307.03 729.858 1305.5 730.268 1304.31 729.578C1303.11 728.888 1302.7 727.358 1303.39 726.163C1304.08 724.967 1305.61 724.557 1306.81 725.248C1308 725.938 1308.41 727.467 1307.72 728.663Z" fill="#2F5BE9"/>
<path fill-rule="evenodd" clip-rule="evenodd" d="M1319.09 735.228C1318.4 736.423 1316.87 736.833 1315.68 736.143C1314.48 735.452 1314.07 733.923 1314.76 732.728C1315.45 731.532 1316.98 731.122 1318.18 731.812C1319.37 732.503 1319.78 734.032 1319.09 735.228Z" fill="#2F5BE9"/>
<path fill-rule="evenodd" clip-rule="evenodd" d="M1331.5 742.389C1330.81 743.584 1329.28 743.994 1328.08 743.303C1326.88 742.613 1326.48 741.084 1327.17 739.889C1327.86 738.693 1329.38 738.283 1330.58 738.973C1331.78 739.664 1332.19 741.193 1331.5 742.389Z" fill="#2F5BE9"/>
<path fill-rule="evenodd" clip-rule="evenodd" d="M1342.87 748.954C1342.18 750.149 1340.65 750.559 1339.45 749.868C1338.25 749.178 1337.85 747.649 1338.54 746.454C1339.23 745.258 1340.75 744.848 1341.95 745.538C1343.15 746.229 1343.56 747.758 1342.87 748.954Z" fill="#2F5BE9"/>
<path fill-rule="evenodd" clip-rule="evenodd" d="M1288.74 732.902C1288.05 734.098 1286.52 734.508 1285.32 733.817C1284.13 733.127 1283.72 731.598 1284.41 730.402C1285.1 729.206 1286.63 728.797 1287.82 729.486C1289.02 730.177 1289.43 731.706 1288.74 732.902Z" fill="#2F5BE9"/>
<path fill-rule="evenodd" clip-rule="evenodd" d="M1301.14 740.063C1300.45 741.259 1298.92 741.669 1297.72 740.978C1296.53 740.288 1296.12 738.759 1296.81 737.563C1297.5 736.368 1299.03 735.958 1300.22 736.648C1301.42 737.339 1301.83 738.868 1301.14 740.063Z" fill="#2F5BE9"/>
<path fill-rule="evenodd" clip-rule="evenodd" d="M1312.51 746.628C1311.82 747.823 1310.29 748.233 1309.09 747.543C1307.9 746.852 1307.49 745.323 1308.18 744.128C1308.87 742.932 1310.4 742.522 1311.59 743.213C1312.79 743.903 1313.2 745.432 1312.51 746.628Z" fill="#2F5BE9"/>
<path fill-rule="evenodd" clip-rule="evenodd" d="M1324.91 753.789C1324.22 754.985 1322.69 755.394 1321.5 754.704C1320.3 754.013 1319.89 752.485 1320.58 751.289C1321.27 750.094 1322.8 749.683 1324 750.373C1325.19 751.064 1325.6 752.594 1324.91 753.789Z" fill="#2F5BE9"/>
<path fill-rule="evenodd" clip-rule="evenodd" d="M1336.28 760.353C1335.59 761.549 1334.06 761.959 1332.87 761.268C1331.67 760.578 1331.26 759.049 1331.95 757.853C1332.64 756.658 1334.17 756.248 1335.37 756.938C1336.56 757.629 1336.97 759.158 1336.28 760.353Z" fill="#2F5BE9"/>
<path fill-rule="evenodd" clip-rule="evenodd" d="M1281.56 745.339C1280.87 746.534 1279.34 746.944 1278.14 746.253C1276.94 745.563 1276.54 744.034 1277.23 742.839C1277.92 741.643 1279.44 741.233 1280.64 741.923C1281.84 742.614 1282.25 744.143 1281.56 745.339Z" fill="#2F5BE9"/>
<path fill-rule="evenodd" clip-rule="evenodd" d="M1293.96 752.5C1293.27 753.695 1291.74 754.105 1290.54 753.415C1289.35 752.725 1288.94 751.195 1289.63 750C1290.32 748.804 1291.85 748.394 1293.04 749.085C1294.24 749.775 1294.65 751.304 1293.96 752.5Z" fill="#2F5BE9"/>
<path fill-rule="evenodd" clip-rule="evenodd" d="M1305.33 759.064C1304.64 760.26 1303.11 760.67 1301.91 759.98C1300.72 759.289 1300.31 757.76 1301 756.564C1301.69 755.369 1303.22 754.959 1304.41 755.649C1305.61 756.34 1306.02 757.869 1305.33 759.064Z" fill="#2F5BE9"/>
<path fill-rule="evenodd" clip-rule="evenodd" d="M1317.73 766.226C1317.04 767.421 1315.51 767.831 1314.32 767.14C1313.12 766.45 1312.71 764.921 1313.4 763.726C1314.09 762.53 1315.62 762.12 1316.82 762.81C1318.01 763.501 1318.42 765.03 1317.73 766.226Z" fill="#2F5BE9"/>
<path fill-rule="evenodd" clip-rule="evenodd" d="M1329.1 772.79C1328.41 773.986 1326.88 774.396 1325.69 773.705C1324.49 773.015 1324.08 771.486 1324.77 770.29C1325.46 769.094 1326.99 768.685 1328.19 769.375C1329.38 770.066 1329.79 771.594 1329.1 772.79Z" fill="#2F5BE9"/>
<path fill-rule="evenodd" clip-rule="evenodd" d="M1274.97 756.739C1274.28 757.935 1272.75 758.344 1271.56 757.654C1270.36 756.964 1269.95 755.435 1270.64 754.239C1271.33 753.043 1272.86 752.633 1274.06 753.323C1275.25 754.014 1275.66 755.543 1274.97 756.739Z" fill="#2F5BE9"/>
<path fill-rule="evenodd" clip-rule="evenodd" d="M1287.38 763.9C1286.69 765.096 1285.16 765.506 1283.96 764.815C1282.77 764.125 1282.36 762.596 1283.05 761.4C1283.74 760.204 1285.27 759.795 1286.46 760.485C1287.66 761.176 1288.07 762.704 1287.38 763.9Z" fill="#2F5BE9"/>
<path fill-rule="evenodd" clip-rule="evenodd" d="M1298.75 770.465C1298.06 771.661 1296.53 772.07 1295.33 771.38C1294.14 770.689 1293.73 769.161 1294.42 767.965C1295.11 766.769 1296.64 766.359 1297.83 767.05C1299.03 767.74 1299.44 769.269 1298.75 770.465Z" fill="#2F5BE9"/>
<path fill-rule="evenodd" clip-rule="evenodd" d="M1311.15 777.626C1310.46 778.822 1308.93 779.231 1307.74 778.541C1306.54 777.85 1306.13 776.322 1306.82 775.126C1307.51 773.93 1309.04 773.52 1310.24 774.21C1311.43 774.901 1311.84 776.43 1311.15 777.626Z" fill="#2F5BE9"/>
<path fill-rule="evenodd" clip-rule="evenodd" d="M1322.52 784.191C1321.83 785.386 1320.3 785.796 1319.11 785.105C1317.91 784.415 1317.5 782.886 1318.19 781.691C1318.88 780.495 1320.41 780.085 1321.61 780.775C1322.8 781.466 1323.21 782.995 1322.52 784.191Z" fill="#2F5BE9"/>
<path fill-rule="evenodd" clip-rule="evenodd" d="M1369.03 732.278C1368.34 733.473 1366.81 733.883 1365.62 733.192C1364.42 732.502 1364.01 730.973 1364.7 729.778C1365.39 728.582 1366.92 728.172 1368.12 728.862C1369.31 729.553 1369.72 731.082 1369.03 732.278Z" fill="#2F5BE9"/>
<path fill-rule="evenodd" clip-rule="evenodd" d="M1362.45 743.678C1361.76 744.874 1360.23 745.284 1359.03 744.593C1357.84 743.903 1357.43 742.374 1358.12 741.178C1358.81 739.983 1360.34 739.572 1361.53 740.263C1362.73 740.954 1363.14 742.483 1362.45 743.678Z" fill="#2F5BE9"/>
<path fill-rule="evenodd" clip-rule="evenodd" d="M1355.27 756.115C1354.58 757.31 1353.05 757.72 1351.85 757.029C1350.66 756.339 1350.25 754.81 1350.94 753.615C1351.63 752.419 1353.16 752.009 1354.35 752.699C1355.55 753.39 1355.96 754.919 1355.27 756.115Z" fill="#2F5BE9"/>
<path fill-rule="evenodd" clip-rule="evenodd" d="M1348.69 767.515C1348 768.71 1346.47 769.121 1345.27 768.43C1344.08 767.74 1343.67 766.21 1344.36 765.015C1345.05 763.819 1346.58 763.409 1347.77 764.1C1348.97 764.791 1349.38 766.319 1348.69 767.515Z" fill="#2F5BE9"/>
<path fill-rule="evenodd" clip-rule="evenodd" d="M1341.51 779.952C1340.82 781.147 1339.29 781.557 1338.09 780.866C1336.9 780.176 1336.49 778.647 1337.18 777.452C1337.87 776.256 1339.4 775.846 1340.59 776.536C1341.79 777.227 1342.2 778.756 1341.51 779.952Z" fill="#2F5BE9"/>
<path fill-rule="evenodd" clip-rule="evenodd" d="M1334.92 791.352C1334.23 792.548 1332.71 792.958 1331.51 792.267C1330.31 791.577 1329.9 790.048 1330.59 788.852C1331.29 787.656 1332.81 787.246 1334.01 787.937C1335.21 788.628 1335.62 790.156 1334.92 791.352Z" fill="#2F5BE9"/>
<path fill-rule="evenodd" clip-rule="evenodd" d="M1269.08 766.947C1268.39 768.143 1266.86 768.552 1265.66 767.861C1264.47 767.171 1264.06 765.643 1264.75 764.447C1265.44 763.251 1266.97 762.841 1268.16 763.531C1269.36 764.222 1269.77 765.751 1269.08 766.947Z" fill="#2F5BE9"/>
<path fill-rule="evenodd" clip-rule="evenodd" d="M1281.48 774.108C1280.79 775.304 1279.26 775.714 1278.07 775.023C1276.87 774.333 1276.46 772.804 1277.15 771.608C1277.84 770.412 1279.37 770.003 1280.57 770.693C1281.76 771.383 1282.17 772.912 1281.48 774.108Z" fill="#2F5BE9"/>
<path fill-rule="evenodd" clip-rule="evenodd" d="M1292.85 780.673C1292.16 781.868 1290.63 782.278 1289.44 781.588C1288.24 780.897 1287.83 779.368 1288.52 778.173C1289.21 776.977 1290.74 776.567 1291.94 777.257C1293.13 777.948 1293.54 779.477 1292.85 780.673Z" fill="#2F5BE9"/>
<path fill-rule="evenodd" clip-rule="evenodd" d="M1305.26 787.834C1304.57 789.03 1303.04 789.439 1301.84 788.748C1300.65 788.058 1300.24 786.53 1300.93 785.334C1301.62 784.138 1303.15 783.728 1304.34 784.418C1305.54 785.109 1305.95 786.638 1305.26 787.834Z" fill="#2F5BE9"/>
<path fill-rule="evenodd" clip-rule="evenodd" d="M1316.63 794.398C1315.94 795.594 1314.41 796.004 1313.21 795.313C1312.02 794.623 1311.61 793.094 1312.3 791.898C1312.99 790.702 1314.52 790.293 1315.71 790.983C1316.91 791.674 1317.32 793.202 1316.63 794.398Z" fill="#2F5BE9"/>
<path fill-rule="evenodd" clip-rule="evenodd" d="M1262.5 778.347C1261.81 779.543 1260.28 779.953 1259.08 779.262C1257.89 778.572 1257.48 777.043 1258.17 775.847C1258.86 774.652 1260.39 774.242 1261.58 774.931C1262.78 775.622 1263.19 777.152 1262.5 778.347Z" fill="#2F5BE9"/>
<path fill-rule="evenodd" clip-rule="evenodd" d="M1274.9 785.508C1274.21 786.704 1272.68 787.114 1271.49 786.423C1270.29 785.733 1269.88 784.204 1270.57 783.008C1271.26 781.813 1272.79 781.403 1273.99 782.093C1275.18 782.784 1275.59 784.313 1274.9 785.508Z" fill="#2F5BE9"/>
<path fill-rule="evenodd" clip-rule="evenodd" d="M1286.27 792.073C1285.58 793.269 1284.05 793.678 1282.86 792.988C1281.66 792.297 1281.25 790.769 1281.94 789.573C1282.63 788.377 1284.16 787.967 1285.36 788.658C1286.55 789.348 1286.96 790.877 1286.27 792.073Z" fill="#2F5BE9"/>
<path fill-rule="evenodd" clip-rule="evenodd" d="M1298.68 799.234C1297.99 800.43 1296.46 800.84 1295.26 800.149C1294.06 799.458 1293.66 797.93 1294.35 796.734C1295.04 795.539 1296.56 795.128 1297.76 795.819C1298.96 796.509 1299.37 798.039 1298.68 799.234Z" fill="#2F5BE9"/>
<path fill-rule="evenodd" clip-rule="evenodd" d="M1310.05 805.799C1309.36 806.995 1307.83 807.404 1306.63 806.713C1305.43 806.023 1305.03 804.495 1305.72 803.299C1306.41 802.103 1307.93 801.693 1309.13 802.383C1310.33 803.074 1310.74 804.603 1310.05 805.799Z" fill="#2F5BE9"/>
<path fill-rule="evenodd" clip-rule="evenodd" d="M1255.32 790.784C1254.63 791.979 1253.1 792.389 1251.9 791.698C1250.71 791.008 1250.3 789.479 1250.99 788.284C1251.68 787.088 1253.21 786.678 1254.4 787.368C1255.6 788.059 1256.01 789.588 1255.32 790.784Z" fill="#2F5BE9"/>
<path fill-rule="evenodd" clip-rule="evenodd" d="M1267.72 797.945C1267.03 799.141 1265.5 799.551 1264.31 798.86C1263.11 798.17 1262.7 796.641 1263.39 795.445C1264.08 794.25 1265.61 793.84 1266.81 794.53C1268 795.22 1268.41 796.75 1267.72 797.945Z" fill="#2F5BE9"/>
<path fill-rule="evenodd" clip-rule="evenodd" d="M1279.09 804.51C1278.4 805.705 1276.87 806.115 1275.68 805.425C1274.48 804.734 1274.07 803.205 1274.76 802.01C1275.45 800.814 1276.98 800.404 1278.18 801.094C1279.37 801.785 1279.78 803.314 1279.09 804.51Z" fill="#2F5BE9"/>
<path fill-rule="evenodd" clip-rule="evenodd" d="M1291.5 811.671C1290.81 812.866 1289.28 813.276 1288.08 812.585C1286.88 811.895 1286.48 810.366 1287.17 809.171C1287.86 807.975 1289.38 807.565 1290.58 808.255C1291.78 808.946 1292.19 810.475 1291.5 811.671Z" fill="#2F5BE9"/>
<path fill-rule="evenodd" clip-rule="evenodd" d="M1302.87 818.236C1302.18 819.431 1300.65 819.841 1299.45 819.15C1298.25 818.46 1297.85 816.931 1298.54 815.736C1299.23 814.54 1300.75 814.13 1301.95 814.82C1303.15 815.511 1303.56 817.04 1302.87 818.236Z" fill="#2F5BE9"/>
<path fill-rule="evenodd" clip-rule="evenodd" d="M1248.74 802.184C1248.05 803.38 1246.52 803.79 1245.32 803.099C1244.13 802.409 1243.72 800.88 1244.41 799.684C1245.1 798.489 1246.63 798.079 1247.82 798.768C1249.02 799.459 1249.43 800.989 1248.74 802.184Z" fill="#2F5BE9"/>
<path fill-rule="evenodd" clip-rule="evenodd" d="M1261.14 809.345C1260.45 810.541 1258.92 810.951 1257.72 810.26C1256.53 809.57 1256.12 808.041 1256.81 806.845C1257.5 805.65 1259.03 805.24 1260.22 805.93C1261.42 806.621 1261.83 808.15 1261.14 809.345Z" fill="#2F5BE9"/>
<path fill-rule="evenodd" clip-rule="evenodd" d="M1272.51 815.91C1271.82 817.105 1270.29 817.515 1269.09 816.825C1267.9 816.134 1267.49 814.605 1268.18 813.41C1268.87 812.214 1270.4 811.804 1271.59 812.495C1272.79 813.185 1273.2 814.714 1272.51 815.91Z" fill="#2F5BE9"/>
<path fill-rule="evenodd" clip-rule="evenodd" d="M1284.91 823.071C1284.22 824.267 1282.69 824.677 1281.5 823.986C1280.3 823.295 1279.89 821.767 1280.58 820.571C1281.27 819.376 1282.8 818.965 1284 819.656C1285.19 820.346 1285.6 821.876 1284.91 823.071Z" fill="#2F5BE9"/>
<path fill-rule="evenodd" clip-rule="evenodd" d="M1296.28 829.635C1295.59 830.831 1294.06 831.241 1292.87 830.55C1291.67 829.86 1291.26 828.331 1291.95 827.135C1292.64 825.94 1294.17 825.53 1295.37 826.22C1296.56 826.911 1296.97 828.44 1296.28 829.635Z" fill="#2F5BE9"/>
<path fill-rule="evenodd" clip-rule="evenodd" d="M1241.56 814.621C1240.87 815.816 1239.34 816.226 1238.14 815.535C1236.94 814.845 1236.54 813.316 1237.23 812.121C1237.92 810.925 1239.44 810.515 1240.64 811.205C1241.84 811.896 1242.25 813.425 1241.56 814.621Z" fill="#2F5BE9"/>
<path fill-rule="evenodd" clip-rule="evenodd" d="M1253.96 821.782C1253.27 822.977 1251.74 823.388 1250.54 822.697C1249.35 822.007 1248.94 820.477 1249.63 819.282C1250.32 818.086 1251.85 817.677 1253.04 818.367C1254.24 819.057 1254.65 820.586 1253.96 821.782Z" fill="#2F5BE9"/>
<path fill-rule="evenodd" clip-rule="evenodd" d="M1265.33 828.347C1264.64 829.542 1263.11 829.952 1261.91 829.262C1260.72 828.571 1260.31 827.042 1261 825.847C1261.69 824.651 1263.22 824.241 1264.41 824.931C1265.61 825.622 1266.02 827.151 1265.33 828.347Z" fill="#2F5BE9"/>
<path fill-rule="evenodd" clip-rule="evenodd" d="M1277.73 835.508C1277.04 836.703 1275.51 837.113 1274.32 836.422C1273.12 835.732 1272.71 834.203 1273.4 833.008C1274.09 831.812 1275.62 831.402 1276.82 832.092C1278.01 832.783 1278.42 834.312 1277.73 835.508Z" fill="#2F5BE9"/>
<path fill-rule="evenodd" clip-rule="evenodd" d="M1289.1 842.072C1288.41 843.268 1286.88 843.678 1285.69 842.987C1284.49 842.297 1284.08 840.768 1284.77 839.572C1285.46 838.376 1286.99 837.967 1288.19 838.657C1289.38 839.348 1289.79 840.876 1289.1 842.072Z" fill="#2F5BE9"/>
<path fill-rule="evenodd" clip-rule="evenodd" d="M1234.97 826.021C1234.28 827.217 1232.75 827.627 1231.56 826.936C1230.36 826.246 1229.95 824.717 1230.64 823.521C1231.33 822.325 1232.86 821.916 1234.06 822.605C1235.25 823.296 1235.66 824.825 1234.97 826.021Z" fill="#2F5BE9"/>
<path fill-rule="evenodd" clip-rule="evenodd" d="M1247.38 833.182C1246.69 834.378 1245.16 834.788 1243.96 834.097C1242.77 833.407 1242.36 831.878 1243.05 830.682C1243.74 829.486 1245.27 829.077 1246.46 829.767C1247.66 830.458 1248.07 831.986 1247.38 833.182Z" fill="#2F5BE9"/>
<path fill-rule="evenodd" clip-rule="evenodd" d="M1258.75 839.747C1258.06 840.943 1256.53 841.352 1255.33 840.662C1254.14 839.971 1253.73 838.443 1254.42 837.247C1255.11 836.051 1256.64 835.641 1257.83 836.332C1259.03 837.022 1259.44 838.551 1258.75 839.747Z" fill="#2F5BE9"/>
<path fill-rule="evenodd" clip-rule="evenodd" d="M1271.15 846.908C1270.46 848.104 1268.93 848.514 1267.74 847.823C1266.54 847.132 1266.13 845.604 1266.82 844.408C1267.51 843.212 1269.04 842.802 1270.24 843.493C1271.43 844.183 1271.84 845.712 1271.15 846.908Z" fill="#2F5BE9"/>
<path fill-rule="evenodd" clip-rule="evenodd" d="M1282.52 853.473C1281.83 854.668 1280.3 855.078 1279.11 854.387C1277.91 853.697 1277.5 852.168 1278.19 850.973C1278.88 849.777 1280.41 849.367 1281.61 850.057C1282.8 850.748 1283.21 852.277 1282.52 853.473Z" fill="#2F5BE9"/>
<path fill-rule="evenodd" clip-rule="evenodd" d="M1329.03 801.56C1328.34 802.756 1326.81 803.165 1325.62 802.474C1324.42 801.784 1324.01 800.256 1324.7 799.06C1325.39 797.864 1326.92 797.454 1328.12 798.144C1329.31 798.835 1329.72 800.364 1329.03 801.56Z" fill="#2F5BE9"/>
<path fill-rule="evenodd" clip-rule="evenodd" d="M1322.45 812.96C1321.76 814.156 1320.23 814.566 1319.03 813.875C1317.84 813.185 1317.43 811.656 1318.12 810.46C1318.81 809.265 1320.34 808.854 1321.53 809.545C1322.73 810.236 1323.14 811.765 1322.45 812.96Z" fill="#2F5BE9"/>
<path fill-rule="evenodd" clip-rule="evenodd" d="M1315.27 825.397C1314.58 826.592 1313.05 827.002 1311.85 826.311C1310.66 825.621 1310.25 824.092 1310.94 822.897C1311.63 821.701 1313.16 821.291 1314.35 821.981C1315.55 822.672 1315.96 824.201 1315.27 825.397Z" fill="#2F5BE9"/>
<path fill-rule="evenodd" clip-rule="evenodd" d="M1308.69 836.797C1308 837.992 1306.47 838.403 1305.27 837.712C1304.08 837.022 1303.67 835.492 1304.36 834.297C1305.05 833.101 1306.58 832.691 1307.77 833.382C1308.97 834.073 1309.38 835.601 1308.69 836.797Z" fill="#2F5BE9"/>
<path fill-rule="evenodd" clip-rule="evenodd" d="M1301.51 849.234C1300.82 850.429 1299.29 850.839 1298.09 850.148C1296.9 849.458 1296.49 847.929 1297.18 846.734C1297.87 845.538 1299.4 845.128 1300.59 845.818C1301.79 846.509 1302.2 848.038 1301.51 849.234Z" fill="#2F5BE9"/>
<path fill-rule="evenodd" clip-rule="evenodd" d="M1294.92 860.634C1294.23 861.83 1292.71 862.24 1291.51 861.549C1290.31 860.859 1289.9 859.33 1290.59 858.134C1291.29 856.938 1292.81 856.528 1294.01 857.219C1295.21 857.91 1295.62 859.438 1294.92 860.634Z" fill="#2F5BE9"/>
<path fill-rule="evenodd" clip-rule="evenodd" d="M1381.83 739.665C1381.14 740.861 1379.61 741.27 1378.41 740.579C1377.22 739.889 1376.81 738.361 1377.5 737.165C1378.19 735.969 1379.72 735.559 1380.91 736.249C1382.11 736.94 1382.52 738.469 1381.83 739.665Z" fill="#2F5BE9"/>
<path fill-rule="evenodd" clip-rule="evenodd" d="M1394.23 746.826C1393.54 748.022 1392.01 748.431 1390.81 747.741C1389.62 747.051 1389.21 745.522 1389.9 744.326C1390.59 743.13 1392.12 742.72 1393.31 743.411C1394.51 744.101 1394.92 745.63 1394.23 746.826Z" fill="#2F5BE9"/>
<path fill-rule="evenodd" clip-rule="evenodd" d="M1405.6 753.391C1404.91 754.586 1403.38 754.996 1402.19 754.306C1400.99 753.615 1400.58 752.086 1401.27 750.891C1401.96 749.695 1403.49 749.285 1404.69 749.975C1405.88 750.666 1406.29 752.195 1405.6 753.391Z" fill="#2F5BE9"/>
<path fill-rule="evenodd" clip-rule="evenodd" d="M1418 760.552C1417.31 761.748 1415.78 762.157 1414.59 761.466C1413.39 760.776 1412.98 759.248 1413.67 758.052C1414.36 756.856 1415.89 756.446 1417.09 757.136C1418.28 757.827 1418.69 759.356 1418 760.552Z" fill="#2F5BE9"/>
<path fill-rule="evenodd" clip-rule="evenodd" d="M1429.37 767.116C1428.68 768.312 1427.16 768.722 1425.96 768.031C1424.76 767.341 1424.35 765.812 1425.04 764.616C1425.73 763.42 1427.26 763.011 1428.46 763.701C1429.66 764.392 1430.06 765.92 1429.37 767.116Z" fill="#2F5BE9"/>
<path fill-rule="evenodd" clip-rule="evenodd" d="M1375.24 751.065C1374.55 752.261 1373.03 752.671 1371.83 751.98C1370.63 751.29 1370.22 749.761 1370.91 748.565C1371.6 747.37 1373.13 746.96 1374.33 747.649C1375.53 748.34 1375.93 749.87 1375.24 751.065Z" fill="#2F5BE9"/>
<path fill-rule="evenodd" clip-rule="evenodd" d="M1387.65 758.226C1386.96 759.422 1385.43 759.832 1384.23 759.141C1383.04 758.451 1382.63 756.922 1383.32 755.726C1384.01 754.531 1385.54 754.121 1386.73 754.811C1387.93 755.502 1388.34 757.031 1387.65 758.226Z" fill="#2F5BE9"/>
<path fill-rule="evenodd" clip-rule="evenodd" d="M1399.02 764.791C1398.33 765.987 1396.8 766.396 1395.6 765.706C1394.41 765.015 1394 763.487 1394.69 762.291C1395.38 761.095 1396.91 760.685 1398.1 761.376C1399.3 762.066 1399.71 763.595 1399.02 764.791Z" fill="#2F5BE9"/>
<path fill-rule="evenodd" clip-rule="evenodd" d="M1411.42 771.952C1410.73 773.148 1409.2 773.557 1408.01 772.867C1406.81 772.176 1406.4 770.648 1407.09 769.452C1407.78 768.257 1409.31 767.846 1410.51 768.537C1411.7 769.227 1412.11 770.757 1411.42 771.952Z" fill="#2F5BE9"/>
<path fill-rule="evenodd" clip-rule="evenodd" d="M1422.79 778.517C1422.1 779.712 1420.57 780.122 1419.38 779.431C1418.18 778.741 1417.77 777.212 1418.46 776.017C1419.15 774.821 1420.68 774.411 1421.88 775.101C1423.07 775.792 1423.48 777.321 1422.79 778.517Z" fill="#2F5BE9"/>
<path fill-rule="evenodd" clip-rule="evenodd" d="M1368.06 763.502C1367.37 764.697 1365.84 765.107 1364.65 764.416C1363.45 763.726 1363.04 762.197 1363.73 761.002C1364.42 759.806 1365.95 759.396 1367.15 760.086C1368.34 760.777 1368.75 762.306 1368.06 763.502Z" fill="#2F5BE9"/>
<path fill-rule="evenodd" clip-rule="evenodd" d="M1380.47 770.663C1379.78 771.858 1378.25 772.268 1377.05 771.578C1375.86 770.888 1375.45 769.358 1376.14 768.163C1376.83 766.967 1378.36 766.557 1379.55 767.248C1380.75 767.938 1381.16 769.467 1380.47 770.663Z" fill="#2F5BE9"/>
<path fill-rule="evenodd" clip-rule="evenodd" d="M1391.84 777.228C1391.15 778.423 1389.62 778.833 1388.42 778.143C1387.23 777.452 1386.82 775.923 1387.51 774.728C1388.2 773.532 1389.73 773.122 1390.92 773.812C1392.12 774.503 1392.53 776.032 1391.84 777.228Z" fill="#2F5BE9"/>
<path fill-rule="evenodd" clip-rule="evenodd" d="M1404.24 784.389C1403.55 785.584 1402.02 785.994 1400.83 785.303C1399.63 784.613 1399.22 783.084 1399.91 781.889C1400.6 780.693 1402.13 780.283 1403.33 780.973C1404.52 781.664 1404.93 783.193 1404.24 784.389Z" fill="#2F5BE9"/>
<path fill-rule="evenodd" clip-rule="evenodd" d="M1415.61 790.954C1414.92 792.149 1413.39 792.559 1412.2 791.868C1411 791.178 1410.59 789.649 1411.28 788.454C1411.97 787.258 1413.5 786.848 1414.7 787.538C1415.89 788.229 1416.3 789.758 1415.61 790.954Z" fill="#2F5BE9"/>
<path fill-rule="evenodd" clip-rule="evenodd" d="M1361.48 774.902C1360.79 776.098 1359.26 776.507 1358.07 775.817C1356.87 775.127 1356.46 773.598 1357.15 772.402C1357.84 771.206 1359.37 770.797 1360.57 771.486C1361.76 772.177 1362.17 773.706 1361.48 774.902Z" fill="#2F5BE9"/>
<path fill-rule="evenodd" clip-rule="evenodd" d="M1373.89 782.063C1373.2 783.259 1371.67 783.669 1370.47 782.978C1369.27 782.288 1368.87 780.759 1369.56 779.563C1370.25 778.368 1371.77 777.958 1372.97 778.648C1374.17 779.339 1374.58 780.868 1373.89 782.063Z" fill="#2F5BE9"/>
<path fill-rule="evenodd" clip-rule="evenodd" d="M1385.26 788.628C1384.57 789.823 1383.04 790.233 1381.84 789.543C1380.64 788.852 1380.24 787.323 1380.93 786.128C1381.62 784.932 1383.14 784.522 1384.34 785.213C1385.54 785.903 1385.95 787.432 1385.26 788.628Z" fill="#2F5BE9"/>
<path fill-rule="evenodd" clip-rule="evenodd" d="M1397.66 795.789C1396.97 796.985 1395.44 797.394 1394.24 796.704C1393.05 796.013 1392.64 794.485 1393.33 793.289C1394.02 792.094 1395.55 791.683 1396.74 792.373C1397.94 793.064 1398.35 794.594 1397.66 795.789Z" fill="#2F5BE9"/>
<path fill-rule="evenodd" clip-rule="evenodd" d="M1409.03 802.353C1408.34 803.549 1406.81 803.959 1405.61 803.268C1404.42 802.578 1404.01 801.049 1404.7 799.853C1405.39 798.658 1406.92 798.248 1408.11 798.938C1409.31 799.629 1409.72 801.158 1409.03 802.353Z" fill="#2F5BE9"/>
<path fill-rule="evenodd" clip-rule="evenodd" d="M1354.3 787.339C1353.61 788.534 1352.08 788.944 1350.89 788.253C1349.69 787.563 1349.28 786.034 1349.97 784.839C1350.66 783.643 1352.19 783.233 1353.39 783.923C1354.58 784.614 1354.99 786.143 1354.3 787.339Z" fill="#2F5BE9"/>
<path fill-rule="evenodd" clip-rule="evenodd" d="M1366.71 794.5C1366.02 795.695 1364.49 796.105 1363.29 795.415C1362.09 794.725 1361.69 793.195 1362.38 792C1363.07 790.804 1364.59 790.394 1365.79 791.085C1366.99 791.775 1367.4 793.304 1366.71 794.5Z" fill="#2F5BE9"/>
<path fill-rule="evenodd" clip-rule="evenodd" d="M1378.08 801.064C1377.39 802.26 1375.86 802.67 1374.66 801.98C1373.46 801.289 1373.06 799.76 1373.75 798.564C1374.44 797.369 1375.96 796.959 1377.16 797.649C1378.36 798.34 1378.77 799.869 1378.08 801.064Z" fill="#2F5BE9"/>
<path fill-rule="evenodd" clip-rule="evenodd" d="M1390.48 808.226C1389.79 809.421 1388.26 809.831 1387.06 809.14C1385.87 808.45 1385.46 806.921 1386.15 805.726C1386.84 804.53 1388.37 804.12 1389.56 804.81C1390.76 805.501 1391.17 807.03 1390.48 808.226Z" fill="#2F5BE9"/>
<path fill-rule="evenodd" clip-rule="evenodd" d="M1401.85 814.79C1401.16 815.986 1399.63 816.396 1398.43 815.705C1397.24 815.015 1396.83 813.486 1397.52 812.29C1398.21 811.094 1399.74 810.685 1400.93 811.375C1402.13 812.066 1402.54 813.594 1401.85 814.79Z" fill="#2F5BE9"/>
<path fill-rule="evenodd" clip-rule="evenodd" d="M1347.72 798.739C1347.03 799.935 1345.5 800.344 1344.3 799.654C1343.11 798.964 1342.7 797.435 1343.39 796.239C1344.08 795.043 1345.61 794.633 1346.8 795.323C1348 796.014 1348.41 797.543 1347.72 798.739Z" fill="#2F5BE9"/>
<path fill-rule="evenodd" clip-rule="evenodd" d="M1360.12 805.9C1359.43 807.096 1357.9 807.506 1356.71 806.815C1355.51 806.125 1355.1 804.596 1355.79 803.4C1356.48 802.204 1358.01 801.795 1359.21 802.485C1360.4 803.176 1360.81 804.704 1360.12 805.9Z" fill="#2F5BE9"/>
<path fill-rule="evenodd" clip-rule="evenodd" d="M1371.49 812.465C1370.8 813.661 1369.27 814.07 1368.08 813.38C1366.88 812.689 1366.47 811.161 1367.16 809.965C1367.85 808.769 1369.38 808.359 1370.58 809.05C1371.77 809.74 1372.18 811.269 1371.49 812.465Z" fill="#2F5BE9"/>
<path fill-rule="evenodd" clip-rule="evenodd" d="M1383.9 819.626C1383.21 820.822 1381.68 821.231 1380.48 820.541C1379.29 819.85 1378.88 818.322 1379.57 817.126C1380.26 815.93 1381.79 815.52 1382.98 816.21C1384.18 816.901 1384.59 818.43 1383.9 819.626Z" fill="#2F5BE9"/>
<path fill-rule="evenodd" clip-rule="evenodd" d="M1395.27 826.191C1394.58 827.386 1393.05 827.796 1391.85 827.105C1390.66 826.415 1390.25 824.886 1390.94 823.691C1391.63 822.495 1393.16 822.085 1394.35 822.775C1395.55 823.466 1395.96 824.995 1395.27 826.191Z" fill="#2F5BE9"/>
<path fill-rule="evenodd" clip-rule="evenodd" d="M1441.78 774.278C1441.09 775.473 1439.56 775.883 1438.36 775.192C1437.17 774.502 1436.76 772.973 1437.45 771.778C1438.14 770.582 1439.67 770.172 1440.86 770.862C1442.06 771.553 1442.47 773.082 1441.78 774.278Z" fill="#2F5BE9"/>
<path fill-rule="evenodd" clip-rule="evenodd" d="M1435.2 785.678C1434.51 786.874 1432.98 787.284 1431.78 786.593C1430.58 785.903 1430.18 784.374 1430.87 783.178C1431.56 781.983 1433.08 781.572 1434.28 782.263C1435.48 782.954 1435.89 784.483 1435.2 785.678Z" fill="#2F5BE9"/>
<path fill-rule="evenodd" clip-rule="evenodd" d="M1428.02 798.115C1427.33 799.31 1425.8 799.72 1424.6 799.029C1423.4 798.339 1423 796.81 1423.69 795.615C1424.38 794.419 1425.9 794.009 1427.1 794.699C1428.3 795.39 1428.71 796.919 1428.02 798.115Z" fill="#2F5BE9"/>
<path fill-rule="evenodd" clip-rule="evenodd" d="M1421.43 809.515C1420.74 810.71 1419.21 811.121 1418.02 810.43C1416.82 809.74 1416.41 808.21 1417.1 807.015C1417.79 805.819 1419.32 805.409 1420.52 806.1C1421.71 806.791 1422.12 808.319 1421.43 809.515Z" fill="#2F5BE9"/>
<path fill-rule="evenodd" clip-rule="evenodd" d="M1414.25 821.952C1413.56 823.147 1412.03 823.557 1410.84 822.866C1409.64 822.176 1409.23 820.647 1409.92 819.452C1410.61 818.256 1412.14 817.846 1413.34 818.536C1414.53 819.227 1414.94 820.756 1414.25 821.952Z" fill="#2F5BE9"/>
<path fill-rule="evenodd" clip-rule="evenodd" d="M1407.67 833.352C1406.98 834.548 1405.45 834.958 1404.26 834.267C1403.06 833.577 1402.65 832.048 1403.34 830.852C1404.03 829.656 1405.56 829.246 1406.76 829.937C1407.95 830.628 1408.36 832.156 1407.67 833.352Z" fill="#2F5BE9"/>
<path fill-rule="evenodd" clip-rule="evenodd" d="M1341.83 808.947C1341.14 810.143 1339.61 810.552 1338.41 809.861C1337.22 809.171 1336.81 807.643 1337.5 806.447C1338.19 805.251 1339.72 804.841 1340.91 805.531C1342.11 806.222 1342.52 807.751 1341.83 808.947Z" fill="#2F5BE9"/>
<path fill-rule="evenodd" clip-rule="evenodd" d="M1354.23 816.108C1353.54 817.304 1352.01 817.714 1350.81 817.023C1349.62 816.333 1349.21 814.804 1349.9 813.608C1350.59 812.412 1352.12 812.003 1353.31 812.693C1354.51 813.383 1354.92 814.912 1354.23 816.108Z" fill="#2F5BE9"/>
<path fill-rule="evenodd" clip-rule="evenodd" d="M1365.6 822.673C1364.91 823.868 1363.38 824.278 1362.19 823.588C1360.99 822.897 1360.58 821.368 1361.27 820.173C1361.96 818.977 1363.49 818.567 1364.69 819.257C1365.88 819.948 1366.29 821.477 1365.6 822.673Z" fill="#2F5BE9"/>
<path fill-rule="evenodd" clip-rule="evenodd" d="M1378 829.834C1377.31 831.03 1375.78 831.439 1374.59 830.748C1373.39 830.058 1372.98 828.53 1373.67 827.334C1374.36 826.138 1375.89 825.728 1377.09 826.418C1378.28 827.109 1378.69 828.638 1378 829.834Z" fill="#2F5BE9"/>
<path fill-rule="evenodd" clip-rule="evenodd" d="M1389.37 836.398C1388.68 837.594 1387.16 838.004 1385.96 837.313C1384.76 836.623 1384.35 835.094 1385.04 833.898C1385.73 832.702 1387.26 832.293 1388.46 832.983C1389.66 833.674 1390.06 835.202 1389.37 836.398Z" fill="#2F5BE9"/>
<path fill-rule="evenodd" clip-rule="evenodd" d="M1335.24 820.347C1334.55 821.543 1333.03 821.953 1331.83 821.262C1330.63 820.572 1330.22 819.043 1330.91 817.847C1331.6 816.652 1333.13 816.242 1334.33 816.931C1335.53 817.622 1335.93 819.152 1335.24 820.347Z" fill="#2F5BE9"/>
<path fill-rule="evenodd" clip-rule="evenodd" d="M1347.65 827.508C1346.96 828.704 1345.43 829.114 1344.23 828.423C1343.04 827.733 1342.63 826.204 1343.32 825.008C1344.01 823.813 1345.54 823.403 1346.73 824.093C1347.93 824.784 1348.34 826.313 1347.65 827.508Z" fill="#2F5BE9"/>
<path fill-rule="evenodd" clip-rule="evenodd" d="M1359.02 834.073C1358.33 835.269 1356.8 835.678 1355.6 834.988C1354.41 834.297 1354 832.769 1354.69 831.573C1355.38 830.377 1356.91 829.967 1358.1 830.658C1359.3 831.348 1359.71 832.877 1359.02 834.073Z" fill="#2F5BE9"/>
<path fill-rule="evenodd" clip-rule="evenodd" d="M1371.42 841.234C1370.73 842.43 1369.2 842.84 1368.01 842.149C1366.81 841.458 1366.4 839.93 1367.09 838.734C1367.78 837.539 1369.31 837.128 1370.51 837.819C1371.7 838.509 1372.11 840.039 1371.42 841.234Z" fill="#2F5BE9"/>
<path fill-rule="evenodd" clip-rule="evenodd" d="M1382.79 847.799C1382.1 848.995 1380.57 849.404 1379.38 848.713C1378.18 848.023 1377.77 846.495 1378.46 845.299C1379.15 844.103 1380.68 843.693 1381.88 844.383C1383.07 845.074 1383.48 846.603 1382.79 847.799Z" fill="#2F5BE9"/>
<path fill-rule="evenodd" clip-rule="evenodd" d="M1328.06 832.784C1327.37 833.979 1325.84 834.389 1324.65 833.698C1323.45 833.008 1323.04 831.479 1323.73 830.284C1324.42 829.088 1325.95 828.678 1327.15 829.368C1328.34 830.059 1328.75 831.588 1328.06 832.784Z" fill="#2F5BE9"/>
<path fill-rule="evenodd" clip-rule="evenodd" d="M1340.47 839.945C1339.78 841.141 1338.25 841.551 1337.05 840.86C1335.86 840.17 1335.45 838.641 1336.14 837.445C1336.83 836.25 1338.36 835.84 1339.55 836.53C1340.75 837.22 1341.16 838.75 1340.47 839.945Z" fill="#2F5BE9"/>
<path fill-rule="evenodd" clip-rule="evenodd" d="M1351.84 846.51C1351.15 847.705 1349.62 848.115 1348.42 847.425C1347.23 846.734 1346.82 845.205 1347.51 844.01C1348.2 842.814 1349.73 842.404 1350.92 843.094C1352.12 843.785 1352.53 845.314 1351.84 846.51Z" fill="#2F5BE9"/>
<path fill-rule="evenodd" clip-rule="evenodd" d="M1364.24 853.671C1363.55 854.866 1362.02 855.276 1360.83 854.585C1359.63 853.895 1359.22 852.366 1359.91 851.171C1360.6 849.975 1362.13 849.565 1363.33 850.255C1364.52 850.946 1364.93 852.475 1364.24 853.671Z" fill="#2F5BE9"/>
<path fill-rule="evenodd" clip-rule="evenodd" d="M1375.61 860.236C1374.92 861.431 1373.39 861.841 1372.2 861.15C1371 860.46 1370.59 858.931 1371.28 857.736C1371.97 856.54 1373.5 856.13 1374.7 856.82C1375.89 857.511 1376.3 859.04 1375.61 860.236Z" fill="#2F5BE9"/>
<path fill-rule="evenodd" clip-rule="evenodd" d="M1321.48 844.184C1320.79 845.38 1319.26 845.79 1318.07 845.099C1316.87 844.409 1316.46 842.88 1317.15 841.684C1317.84 840.489 1319.37 840.079 1320.57 840.768C1321.76 841.459 1322.17 842.989 1321.48 844.184Z" fill="#2F5BE9"/>
<path fill-rule="evenodd" clip-rule="evenodd" d="M1333.89 851.345C1333.2 852.541 1331.67 852.951 1330.47 852.26C1329.27 851.57 1328.87 850.041 1329.56 848.845C1330.25 847.65 1331.77 847.24 1332.97 847.93C1334.17 848.621 1334.58 850.15 1333.89 851.345Z" fill="#2F5BE9"/>
<path fill-rule="evenodd" clip-rule="evenodd" d="M1345.26 857.91C1344.57 859.105 1343.04 859.515 1341.84 858.825C1340.64 858.134 1340.24 856.605 1340.93 855.41C1341.62 854.214 1343.14 853.804 1344.34 854.495C1345.54 855.185 1345.95 856.714 1345.26 857.91Z" fill="#2F5BE9"/>
<path fill-rule="evenodd" clip-rule="evenodd" d="M1357.66 865.071C1356.97 866.267 1355.44 866.677 1354.24 865.986C1353.05 865.295 1352.64 863.767 1353.33 862.571C1354.02 861.376 1355.55 860.965 1356.74 861.656C1357.94 862.346 1358.35 863.876 1357.66 865.071Z" fill="#2F5BE9"/>
<path fill-rule="evenodd" clip-rule="evenodd" d="M1369.03 871.635C1368.34 872.831 1366.81 873.241 1365.61 872.55C1364.42 871.86 1364.01 870.331 1364.7 869.135C1365.39 867.94 1366.92 867.53 1368.11 868.22C1369.31 868.911 1369.72 870.44 1369.03 871.635Z" fill="#2F5BE9"/>
<path fill-rule="evenodd" clip-rule="evenodd" d="M1314.3 856.621C1313.61 857.816 1312.08 858.226 1310.89 857.535C1309.69 856.845 1309.28 855.316 1309.97 854.121C1310.66 852.925 1312.19 852.515 1313.39 853.205C1314.58 853.896 1314.99 855.425 1314.3 856.621Z" fill="#2F5BE9"/>
<path fill-rule="evenodd" clip-rule="evenodd" d="M1326.71 863.782C1326.02 864.977 1324.49 865.388 1323.29 864.697C1322.09 864.007 1321.69 862.477 1322.38 861.282C1323.07 860.086 1324.59 859.677 1325.79 860.367C1326.99 861.057 1327.4 862.586 1326.71 863.782Z" fill="#2F5BE9"/>
<path fill-rule="evenodd" clip-rule="evenodd" d="M1338.08 870.347C1337.39 871.542 1335.86 871.952 1334.66 871.262C1333.46 870.571 1333.06 869.042 1333.75 867.847C1334.44 866.651 1335.96 866.241 1337.16 866.931C1338.36 867.622 1338.77 869.151 1338.08 870.347Z" fill="#2F5BE9"/>
<path fill-rule="evenodd" clip-rule="evenodd" d="M1350.48 877.508C1349.79 878.703 1348.26 879.113 1347.06 878.422C1345.87 877.732 1345.46 876.203 1346.15 875.008C1346.84 873.812 1348.37 873.402 1349.56 874.092C1350.76 874.783 1351.17 876.312 1350.48 877.508Z" fill="#2F5BE9"/>
<path fill-rule="evenodd" clip-rule="evenodd" d="M1361.85 884.072C1361.16 885.268 1359.63 885.678 1358.43 884.987C1357.24 884.297 1356.83 882.768 1357.52 881.572C1358.21 880.376 1359.74 879.967 1360.93 880.657C1362.13 881.348 1362.54 882.876 1361.85 884.072Z" fill="#2F5BE9"/>
<path fill-rule="evenodd" clip-rule="evenodd" d="M1307.72 868.021C1307.03 869.217 1305.5 869.627 1304.3 868.936C1303.11 868.246 1302.7 866.717 1303.39 865.521C1304.08 864.325 1305.61 863.916 1306.8 864.605C1308 865.296 1308.41 866.825 1307.72 868.021Z" fill="#2F5BE9"/>
<path fill-rule="evenodd" clip-rule="evenodd" d="M1320.12 875.182C1319.43 876.378 1317.9 876.788 1316.71 876.097C1315.51 875.407 1315.1 873.878 1315.79 872.682C1316.48 871.486 1318.01 871.077 1319.21 871.767C1320.4 872.458 1320.81 873.986 1320.12 875.182Z" fill="#2F5BE9"/>
<path fill-rule="evenodd" clip-rule="evenodd" d="M1331.49 881.747C1330.8 882.943 1329.27 883.352 1328.08 882.662C1326.88 881.971 1326.47 880.443 1327.16 879.247C1327.85 878.051 1329.38 877.641 1330.58 878.332C1331.77 879.022 1332.18 880.551 1331.49 881.747Z" fill="#2F5BE9"/>
<path fill-rule="evenodd" clip-rule="evenodd" d="M1343.9 888.908C1343.21 890.104 1341.68 890.514 1340.48 889.823C1339.29 889.132 1338.88 887.604 1339.57 886.408C1340.26 885.212 1341.79 884.802 1342.98 885.493C1344.18 886.183 1344.59 887.712 1343.9 888.908Z" fill="#2F5BE9"/>
<path fill-rule="evenodd" clip-rule="evenodd" d="M1355.27 895.473C1354.58 896.668 1353.05 897.078 1351.85 896.387C1350.66 895.697 1350.25 894.168 1350.94 892.973C1351.63 891.777 1353.16 891.367 1354.35 892.057C1355.55 892.748 1355.96 894.277 1355.27 895.473Z" fill="#2F5BE9"/>
<path fill-rule="evenodd" clip-rule="evenodd" d="M1401.78 843.56C1401.09 844.755 1399.56 845.165 1398.36 844.474C1397.17 843.784 1396.76 842.255 1397.45 841.06C1398.14 839.864 1399.67 839.454 1400.86 840.144C1402.06 840.835 1402.47 842.364 1401.78 843.56Z" fill="#2F5BE9"/>
<path fill-rule="evenodd" clip-rule="evenodd" d="M1395.2 854.96C1394.51 856.156 1392.98 856.566 1391.78 855.875C1390.58 855.185 1390.18 853.656 1390.87 852.46C1391.56 851.265 1393.08 850.854 1394.28 851.545C1395.48 852.236 1395.89 853.765 1395.2 854.96Z" fill="#2F5BE9"/>
<path fill-rule="evenodd" clip-rule="evenodd" d="M1388.02 867.397C1387.33 868.592 1385.8 869.002 1384.6 868.311C1383.4 867.621 1383 866.092 1383.69 864.897C1384.38 863.701 1385.9 863.291 1387.1 863.981C1388.3 864.672 1388.71 866.201 1388.02 867.397Z" fill="#2F5BE9"/>
<path fill-rule="evenodd" clip-rule="evenodd" d="M1381.43 878.797C1380.74 879.992 1379.21 880.403 1378.02 879.712C1376.82 879.022 1376.41 877.492 1377.1 876.297C1377.79 875.101 1379.32 874.691 1380.52 875.382C1381.71 876.073 1382.12 877.601 1381.43 878.797Z" fill="#2F5BE9"/>
<path fill-rule="evenodd" clip-rule="evenodd" d="M1374.25 891.234C1373.56 892.429 1372.03 892.839 1370.84 892.148C1369.64 891.458 1369.23 889.929 1369.92 888.734C1370.61 887.538 1372.14 887.128 1373.34 887.818C1374.53 888.509 1374.94 890.038 1374.25 891.234Z" fill="#2F5BE9"/>
<path fill-rule="evenodd" clip-rule="evenodd" d="M1367.67 902.634C1366.98 903.83 1365.45 904.24 1364.26 903.549C1363.06 902.859 1362.65 901.33 1363.34 900.134C1364.03 898.938 1365.56 898.528 1366.76 899.219C1367.95 899.91 1368.36 901.438 1367.67 902.634Z" fill="#2F5BE9"/>
</g>
</svg>
