<svg width="48" height="48" viewBox="0 0 48 48" fill="none" xmlns="http://www.w3.org/2000/svg">
<path d="M46.5938 22.5938H45.1393C44.4406 12.0788 35.9688 3.64641 25.4063 2.95388V1.40625C25.4063 0.629625 24.7766 0 24 0C23.2234 0 22.5938 0.629625 22.5938 1.40625V2.95388C12.0312 3.64641 3.55941 12.0788 2.86069 22.5938H1.40625C0.629625 22.5938 0 23.2234 0 24C0 24.7766 0.629625 25.4062 1.40625 25.4062H2.86369C3.12375 29.056 4.38628 32.6457 6.4711 35.7365C6.08353 36.3742 5.86013 37.1221 5.86013 37.9212C5.86013 40.2474 7.75266 42.14 10.0789 42.14C10.8761 42.14 11.6224 41.9176 12.259 41.5317C15.3172 43.5925 18.8545 44.8036 22.5938 45.0467V46.5938C22.5938 47.3704 23.2235 48 24.0001 48C24.7767 48 25.4064 47.3704 25.4064 46.5938V45.0461C35.9688 44.3536 44.4406 35.9212 45.1393 25.4062H46.5938C47.3704 25.4062 48 24.7766 48 24C48 23.2234 47.3704 22.5938 46.5938 22.5938Z" fill="url(#paint0_linear)"/>
<path d="M28.9718 28.972C30.0738 27.87 31.6387 27.5074 33.0462 27.8821C33.3921 27.0832 33.6235 26.2536 33.7434 25.4064H25.4062V33.7418C26.258 33.6188 27.0897 33.3851 27.8793 33.0457C27.5037 31.6389 27.867 30.0767 28.9718 28.972ZM30.9605 30.9607C30.4108 31.5104 30.4108 32.3998 30.9605 32.9494C31.5089 33.4977 32.4009 33.4979 32.9493 32.9494C33.4989 32.3998 33.4989 31.5104 32.9493 30.9607C32.4009 30.4125 31.5089 30.4124 30.9605 30.9607ZM35.3919 29.5091C36.5685 31.1571 36.4181 33.4583 34.938 34.9383C33.462 36.4144 31.1553 36.565 29.5086 35.3914C28.2191 36.0163 26.8313 36.4171 25.4062 36.5764V42.2284C34.4171 41.5467 41.6325 34.3704 42.3211 25.4064H36.5772C36.4191 26.8321 36.0201 28.2155 35.3919 29.5091ZM33.7378 22.5939C33.5181 21.038 32.9439 19.4705 32.0248 17.9641L27.3949 22.5939H33.7378ZM25.4062 5.77197V20.6052L35.9155 10.0957C33.0393 7.65241 29.3994 6.07404 25.4062 5.77197ZM36.579 22.5939H42.3211C42.0136 18.5909 40.4042 14.9448 37.9149 12.0738L34.0635 15.9253C35.4864 18.0517 36.3304 20.2882 36.579 22.5939ZM10.0788 36.515C9.30337 36.515 8.67253 37.1459 8.67253 37.9213C8.67253 38.6967 9.30337 39.3275 10.0788 39.3275C10.8542 39.3275 11.485 38.6967 11.485 37.9213C11.485 37.1459 10.8542 36.515 10.0788 36.515ZM5.67871 22.5939H11.4236C11.583 21.1689 11.9837 19.7813 12.6085 18.492C11.4313 16.8438 11.5815 14.5423 13.0618 13.0621C14.5381 11.5858 16.8447 11.4355 18.4912 12.609C19.7807 11.984 21.1685 11.5833 22.5937 11.4239V5.77197C13.5827 6.45363 6.36731 13.6299 5.67871 22.5939ZM17.0393 17.0396C17.589 16.4899 17.589 15.6005 17.0393 15.0509C16.4909 14.5025 15.599 14.5025 15.0505 15.0509C14.5009 15.6005 14.5009 16.4899 15.0505 17.0396C15.599 17.5879 16.4909 17.5879 17.0393 17.0396ZM19.0281 19.0283C17.9266 20.1298 16.3627 20.4926 14.9553 20.1187C14.6154 20.9089 14.3813 21.7414 14.2582 22.5939H22.5937V14.2585C21.7418 14.3815 20.9101 14.6152 20.1205 14.9546C20.4961 16.3614 20.1328 17.9237 19.0281 19.0283ZM11.4222 25.4064H5.68527C5.93287 28.3661 6.95165 31.3429 8.64149 33.955C9.09028 33.7919 9.57431 33.7026 10.0788 33.7026C12.405 33.7026 14.2975 35.5952 14.2975 37.9214C14.2975 38.4384 14.2036 38.9338 14.0326 39.3919C16.4449 40.9629 19.3223 41.9985 22.5937 42.2306V36.5779C16.7362 35.9273 12.0727 31.2638 11.4222 25.4064ZM22.5937 33.743V25.4064H14.257C14.8755 29.711 18.289 33.1246 22.5937 33.743Z" fill="white"/>
<path d="M28.9718 28.972C30.0738 27.87 31.6387 27.5074 33.0462 27.8821C33.3921 27.0832 33.6235 26.2536 33.7434 25.4064H25.4062V33.7418C26.258 33.6188 27.0897 33.3851 27.8793 33.0457C27.5037 31.6389 27.867 30.0767 28.9718 28.972ZM30.9605 30.9607C30.4108 31.5104 30.4108 32.3998 30.9605 32.9494C31.5089 33.4977 32.4009 33.4979 32.9493 32.9494C33.4989 32.3998 33.4989 31.5104 32.9493 30.9607C32.4009 30.4125 31.5089 30.4124 30.9605 30.9607ZM35.3919 29.5091C36.5685 31.1571 36.4181 33.4583 34.938 34.9383C33.462 36.4144 31.1553 36.565 29.5086 35.3914C28.2191 36.0163 26.8313 36.4171 25.4062 36.5764V42.2284C34.4171 41.5467 41.6325 34.3704 42.3211 25.4064H36.5772C36.4191 26.8321 36.0201 28.2155 35.3919 29.5091ZM33.7378 22.5939C33.5181 21.038 32.9439 19.4705 32.0248 17.9641L27.3949 22.5939H33.7378ZM25.4062 5.77197V20.6052L35.9155 10.0957C33.0393 7.65241 29.3994 6.07404 25.4062 5.77197ZM36.579 22.5939H42.3211C42.0136 18.5909 40.4042 14.9448 37.9149 12.0738L34.0635 15.9253C35.4864 18.0517 36.3304 20.2882 36.579 22.5939ZM10.0788 36.515C9.30337 36.515 8.67253 37.1459 8.67253 37.9213C8.67253 38.6967 9.30337 39.3275 10.0788 39.3275C10.8542 39.3275 11.485 38.6967 11.485 37.9213C11.485 37.1459 10.8542 36.515 10.0788 36.515ZM5.67871 22.5939H11.4236C11.583 21.1689 11.9837 19.7813 12.6085 18.492C11.4313 16.8438 11.5815 14.5423 13.0618 13.0621C14.5381 11.5858 16.8447 11.4355 18.4912 12.609C19.7807 11.984 21.1685 11.5833 22.5937 11.4239V5.77197C13.5827 6.45363 6.36731 13.6299 5.67871 22.5939ZM17.0393 17.0396C17.589 16.4899 17.589 15.6005 17.0393 15.0509C16.4909 14.5025 15.599 14.5025 15.0505 15.0509C14.5009 15.6005 14.5009 16.4899 15.0505 17.0396C15.599 17.5879 16.4909 17.5879 17.0393 17.0396ZM19.0281 19.0283C17.9266 20.1298 16.3627 20.4926 14.9553 20.1187C14.6154 20.9089 14.3813 21.7414 14.2582 22.5939H22.5937V14.2585C21.7418 14.3815 20.9101 14.6152 20.1205 14.9546C20.4961 16.3614 20.1328 17.9237 19.0281 19.0283ZM11.4222 25.4064H5.68527C5.93287 28.3661 6.95165 31.3429 8.64149 33.955C9.09028 33.7919 9.57431 33.7026 10.0788 33.7026C12.405 33.7026 14.2975 35.5952 14.2975 37.9214C14.2975 38.4384 14.2036 38.9338 14.0326 39.3919C16.4449 40.9629 19.3223 41.9985 22.5937 42.2306V36.5779C16.7362 35.9273 12.0727 31.2638 11.4222 25.4064ZM22.5937 33.743V25.4064H14.257C14.8755 29.711 18.289 33.1246 22.5937 33.743Z" fill="url(#paint1_linear)"/>
<defs>
<linearGradient id="paint0_linear" x1="24" y1="48" x2="8.71972" y2="8.13371" gradientUnits="userSpaceOnUse">
<stop stop-color="#B88A35"/>
<stop offset="1" stop-color="#E6CB71"/>
</linearGradient>
<linearGradient id="paint1_linear" x1="-10.7166" y1="24.1859" x2="24.01" y2="59.0875" gradientUnits="userSpaceOnUse">
<stop stop-color="#FFF3D1"/>
<stop offset="1" stop-color="#FFFEFB"/>
</linearGradient>
</defs>
</svg>
