<svg width="56" height="56" viewBox="0 0 56 56" fill="none" xmlns="http://www.w3.org/2000/svg">
<path d="M12.6 56C5.54529 56 0 50.4547 0 43.4V12.6C0 5.54529 5.54529 0 12.6 0H43.4C50.4547 0 56 5.54529 56 12.6V43.4C56 50.4547 50.4547 56 43.4 56H12.6Z" fill="url(#paint0_linear)"/>
<path d="M43.9258 51.3332H12.0739C7.95987 51.3332 4.6665 48.0398 4.6665 43.9258V12.0739C4.6665 7.8994 7.89932 4.6665 12.0739 4.6665H43.9258C48.0398 4.6665 51.3332 7.95987 51.3332 12.0739V43.9258C51.3332 48.0398 48.0398 51.3332 43.9258 51.3332Z" fill="url(#paint1_linear)"/>
<path d="M37.403 22.4085C36.1226 22.4085 34.9413 21.9843 33.9927 21.2688C32.9047 20.4485 32.123 19.2453 31.8469 17.8584C31.7786 17.5158 31.7418 17.1622 31.7383 16.7998H28.0808V26.7937L28.0764 32.2679C28.0764 33.7314 27.1234 34.9723 25.8023 35.4087C25.4189 35.5353 25.0048 35.5954 24.5736 35.5717C24.0233 35.5415 23.5076 35.3754 23.0593 35.1072C22.1054 34.5367 21.4587 33.5018 21.4411 32.3178C21.4135 30.4674 22.9095 28.9588 24.7586 28.9588C25.1236 28.9588 25.4741 29.0183 25.8023 29.1266V26.395V25.413C25.4561 25.3618 25.1038 25.335 24.7476 25.335C22.7237 25.335 20.8307 26.1763 19.4777 27.692C18.455 28.8374 17.8415 30.2987 17.7469 31.831C17.6229 33.844 18.3594 35.7575 19.7879 37.1693C19.9978 37.3766 20.2182 37.5689 20.4487 37.7464C21.6734 38.6889 23.1706 39.1998 24.7476 39.1998C25.1038 39.1998 25.4561 39.1735 25.8023 39.1222C27.2754 38.904 28.6347 38.2297 29.7073 37.1693C31.0253 35.8666 31.7536 34.1371 31.7615 32.2963L31.7426 24.1217C32.3714 24.6068 33.0589 25.0082 33.7968 25.3197C34.9444 25.8039 36.1612 26.0493 37.4135 26.0488V23.393V22.4076C37.4144 22.4085 37.4039 22.4085 37.403 22.4085Z" fill="#DD1C5D"/>
<defs>
<linearGradient id="paint0_linear" x1="38.6721" y1="53.6672" x2="18.5339" y2="5.23315" gradientUnits="userSpaceOnUse">
<stop stop-color="#E6F2FB"/>
<stop offset="0.50556" stop-color="#FAFBFC"/>
<stop offset="1" stop-color="white"/>
</linearGradient>
<linearGradient id="paint1_linear" x1="22.8957" y1="2.77025" x2="32.6918" y2="51.1924" gradientUnits="userSpaceOnUse">
<stop stop-color="#EEF2F5"/>
<stop offset="0.3995" stop-color="white"/>
<stop offset="1" stop-color="white"/>
</linearGradient>
</defs>
</svg>
