<svg width="56" height="56" viewBox="0 0 56 56" fill="none" xmlns="http://www.w3.org/2000/svg">
<path d="M12.6 56C5.54529 56 0 50.4547 0 43.4V12.6C0 5.54529 5.54529 0 12.6 0H43.4C50.4547 0 56 5.54529 56 12.6V43.4C56 50.4547 50.4547 56 43.4 56H12.6Z" fill="url(#paint0_linear)"/>
<path d="M43.926 51.3332H12.0742C7.96011 51.3332 4.66675 48.0398 4.66675 43.9258V12.0739C4.66675 7.8994 7.89957 4.6665 12.0742 4.6665H43.926C48.0401 4.6665 51.3334 7.95987 51.3334 12.0739V43.9258C51.3334 48.0398 48.0401 51.3332 43.926 51.3332Z" fill="url(#paint1_linear)"/>
<g clip-path="url(#clip0)">
<path d="M37.68 24.8615C36.8714 24.8615 36.16 25.2018 35.6362 25.7319C33.7109 24.3794 31.1146 23.509 28.2378 23.4162L29.7322 16.5831L34.4906 17.6668C34.4906 18.8487 35.44 19.814 36.6048 19.814C37.792 19.814 38.7466 18.8231 38.7466 17.6402C38.7466 16.4572 37.7984 15.4663 36.6058 15.4663C35.7749 15.4663 35.0581 15.9751 34.7008 16.6706L29.4453 15.4887C29.1808 15.4172 28.9216 15.6092 28.8512 15.878L27.2106 23.4108C24.3562 23.5314 21.7877 24.4007 19.856 25.7543C19.3322 25.2018 18.593 24.8615 17.7845 24.8615C14.785 24.8615 13.8026 28.9458 16.5493 30.342C16.4522 30.774 16.4085 31.2348 16.4085 31.6946C16.4085 36.2823 21.5018 39.9996 27.7557 39.9996C34.0362 39.9996 39.1296 36.2823 39.1296 31.6946C39.1296 31.2348 39.0816 30.7527 38.9632 30.3196C41.6544 28.918 40.6634 24.8636 37.68 24.8615ZM20.9077 30.6322C20.9077 29.4279 21.857 28.4583 23.0496 28.4583C24.2144 28.4583 25.1648 29.4215 25.1648 30.6322C25.1648 31.8151 24.2154 32.7794 23.0496 32.7794C21.8624 32.7847 20.9077 31.8151 20.9077 30.6322ZM32.4693 35.75C30.5056 37.7426 24.9642 37.7426 22.9994 35.75C22.7829 35.558 22.7829 35.2188 22.9994 35.0002C23.1882 34.8082 23.5232 34.8082 23.712 35.0002C25.2117 36.5607 30.1866 36.5874 31.7514 35.0002C31.9402 34.8082 32.2752 34.8082 32.464 35.0002C32.6848 35.2199 32.6848 35.5591 32.4693 35.75ZM32.4256 32.7836C31.2608 32.7836 30.3114 31.8204 30.3114 30.6386C30.3114 29.4343 31.2608 28.4647 32.4256 28.4647C33.6128 28.4647 34.5674 29.4279 34.5674 30.6386C34.5621 31.8151 33.6128 32.7836 32.4256 32.7836Z" fill="#FF5722"/>
</g>
<defs>
<linearGradient id="paint0_linear" x1="38.6721" y1="53.6672" x2="18.5339" y2="5.23315" gradientUnits="userSpaceOnUse">
<stop stop-color="#E6F2FB"/>
<stop offset="0.50556" stop-color="#FAFBFC"/>
<stop offset="1" stop-color="white"/>
</linearGradient>
<linearGradient id="paint1_linear" x1="22.896" y1="2.77025" x2="32.6921" y2="51.1924" gradientUnits="userSpaceOnUse">
<stop stop-color="#EEF2F5"/>
<stop offset="0.3995" stop-color="white"/>
<stop offset="1" stop-color="white"/>
</linearGradient>
<clipPath id="clip0">
<rect width="25.6" height="25.6" fill="white" transform="translate(14.9333 14.9331)"/>
</clipPath>
</defs>
</svg>
