<svg width="97" height="97" viewBox="0 0 97 97" fill="none" xmlns="http://www.w3.org/2000/svg">
<rect width="144" height="27" transform="translate(19.6343 -23.9153) rotate(45)" fill="#FF9E00"/>
<path fill-rule="evenodd" clip-rule="evenodd" d="M42.7701 15.3952C42.7428 15.4256 42.7113 15.453 42.6757 15.475L39.472 17.4575C39.311 17.5569 39.1085 17.5387 38.9811 17.4126L35.2977 13.7685C35.2972 13.768 35.2967 13.7676 35.2963 13.7671L31.6325 10.1033C31.5051 9.97589 31.4858 9.77293 31.5865 9.61067L33.5785 6.3975C33.6012 6.36066 33.6296 6.32824 33.6611 6.30022C33.5038 5.98512 33.5664 5.57887 33.843 5.30229C34.1845 4.96078 34.7235 4.94471 35.0449 5.26614C35.3663 5.58757 35.3503 6.12654 35.0088 6.46806C34.8168 6.66004 34.5621 6.74879 34.3185 6.73269L34.2653 8.31482C34.2523 8.71428 34.4013 9.10153 34.6756 9.37582C34.9999 9.70014 35.473 9.84564 35.9418 9.76633L38.9653 9.25559C38.9719 9.0379 39.0608 8.81822 39.2315 8.64746C39.5727 8.30627 40.1118 8.29026 40.4331 8.61162C40.7546 8.93305 40.7385 9.47203 40.3973 9.81323C40.2316 9.97892 40.0196 10.0672 39.8084 10.0784C39.8081 10.0793 39.8081 10.08 39.8079 10.0811L39.2832 13.1002C39.2017 13.5711 39.3466 14.0469 39.6719 14.3721C39.9487 14.6489 40.324 14.7943 40.7276 14.7822L42.3127 14.7357C42.2941 14.489 42.3826 14.2303 42.5768 14.0361C42.9183 13.6946 43.4573 13.6785 43.7787 13.9999C44.1001 14.3213 44.084 14.8603 43.7425 15.2018C43.4738 15.4704 43.0818 15.5365 42.7701 15.3952ZM38.2462 18.564C38.4091 18.4012 38.4169 18.1448 38.2636 17.9915L31.0842 10.8121C30.9309 10.6587 30.6745 10.6666 30.5117 10.8294L29.8049 11.5362C29.642 11.6991 29.6345 11.9551 29.7878 12.1084L36.9672 19.2879C37.1206 19.4412 37.3766 19.4336 37.5394 19.2708L38.2462 18.564Z" fill="white"/>
<path d="M44.0006 26.0937C43.6014 25.6944 43.3162 25.2744 43.145 24.8336C42.9791 24.3877 42.935 23.9495 43.0128 23.5191C43.0958 23.0835 43.3187 22.6791 43.6817 22.3057L44.7318 23.3558C44.4881 23.6202 44.3636 23.9262 44.3584 24.2736C44.3636 24.621 44.5192 24.9477 44.8251 25.2536C45.0896 25.5181 45.3618 25.6659 45.6418 25.697C45.927 25.7229 46.1759 25.6296 46.3885 25.417C46.6115 25.194 46.7152 24.9503 46.6997 24.6858C46.6893 24.4266 46.6089 24.144 46.4585 23.838C46.3082 23.5321 46.1474 23.2054 45.9763 22.858C45.7015 22.2927 45.5666 21.7846 45.5718 21.3334C45.5822 20.8875 45.7766 20.4752 46.1552 20.0967C46.4715 19.77 46.8215 19.5704 47.2052 19.4978C47.5993 19.4252 47.996 19.4641 48.3953 19.6145C48.7998 19.7597 49.1809 20.0111 49.5387 20.3689C49.9017 20.7319 50.1558 21.1156 50.301 21.5201C50.4513 21.9298 50.4876 22.329 50.4098 22.718C50.3372 23.112 50.1454 23.475 49.8343 23.8069L48.7687 22.7413C48.9553 22.5442 49.0487 22.3005 49.0487 22.0101C49.059 21.7198 48.9372 21.4475 48.6831 21.1934C48.4705 20.9705 48.232 20.8408 47.9675 20.8045C47.7134 20.7682 47.4801 20.8564 47.2675 21.069C47.086 21.2505 46.9978 21.4527 47.003 21.6757C47.0134 21.8935 47.0808 22.1372 47.2052 22.4068C47.3297 22.6765 47.4775 22.9798 47.6486 23.3169C47.8249 23.6799 47.9623 24.0351 48.0608 24.3825C48.1594 24.7299 48.1723 25.0747 48.0997 25.417C48.0323 25.754 47.8379 26.0833 47.5164 26.4048C47.2312 26.69 46.8941 26.8819 46.5052 26.9804C46.1163 27.0789 45.7041 27.0608 45.2685 26.9259C44.8381 26.7859 44.4155 26.5085 44.0006 26.0937ZM48.8828 30.9759C48.4836 30.5766 48.2009 30.1384 48.035 29.6614C47.8743 29.1791 47.8587 28.6813 47.9883 28.168C48.1232 27.6598 48.4369 27.1594 48.9295 26.6668L52.2897 23.3066L53.2853 24.3022L49.9173 27.6702C49.4921 28.0954 49.2769 28.5128 49.2717 28.9224C49.2717 29.3373 49.4532 29.7262 49.8162 30.0892C50.174 30.447 50.5603 30.6259 50.9752 30.6259C51.39 30.6259 51.81 30.4133 52.2352 29.9881L55.6032 26.6201L56.5988 27.6157L53.2386 30.9759C52.746 31.4685 52.2404 31.777 51.7219 31.9015C51.2033 32.0259 50.6977 32.0026 50.2051 31.8315C49.7229 31.6604 49.2821 31.3752 48.8828 30.9759ZM54.4572 36.5502C53.9438 36.0369 53.6119 35.4716 53.4616 34.8546C53.3112 34.2375 53.3371 33.6153 53.5393 32.9878C53.7468 32.3552 54.1279 31.7615 54.6827 31.2066C55.2428 30.6466 55.8443 30.2629 56.4873 30.0554C57.1406 29.848 57.7888 29.8273 58.4318 29.9932C59.0852 30.1592 59.6919 30.5221 60.2519 31.0822C60.8897 31.72 61.2657 32.4019 61.3797 33.1278C61.4938 33.8538 61.3434 34.5486 60.9286 35.2124L59.8163 34.1001C59.9875 33.763 60.0341 33.4156 59.9563 33.0578C59.8837 32.6948 59.6763 32.3422 59.3341 32C58.7896 31.4555 58.1959 31.2092 57.5529 31.2611C56.9151 31.3077 56.2954 31.6318 55.6939 32.2333C55.0924 32.8348 54.7709 33.4467 54.7294 34.069C54.6983 34.6912 54.9342 35.2539 55.4372 35.7568C55.9298 36.2495 56.4328 36.488 56.9462 36.4724C57.4699 36.4569 57.9755 36.2572 58.4629 35.8735L57.0862 34.4968L57.8329 33.7501L60.213 36.1302L57.2184 39.1248L56.3006 38.207L56.9384 37.4136C56.5028 37.4966 56.0828 37.4758 55.6783 37.3514C55.2739 37.2269 54.8668 36.9599 54.4572 36.5502ZM60.4731 42.5662C59.9597 42.0528 59.6279 41.4876 59.4775 40.8705C59.3271 40.2534 59.353 39.6312 59.5553 39.0037C59.7627 38.3711 60.1438 37.7774 60.6987 37.2225C61.2587 36.6625 61.8602 36.2788 62.5032 36.0714C63.1566 35.864 63.8048 35.8432 64.4477 36.0092C65.1011 36.1751 65.7078 36.5381 66.2678 37.0981C66.9057 37.7359 67.2816 38.4178 67.3957 39.1438C67.5098 39.8697 67.3594 40.5646 66.9445 41.2283L65.8323 40.116C66.0034 39.779 66.0501 39.4315 65.9723 39.0738C65.8997 38.7108 65.6923 38.3582 65.35 38.0159C64.8055 37.4714 64.2118 37.2251 63.5688 37.277C62.931 37.3237 62.3113 37.6478 61.7098 38.2493C61.1083 38.8508 60.7868 39.4627 60.7453 40.0849C60.7142 40.7072 60.9502 41.2698 61.4532 41.7728C61.9458 42.2654 62.4488 42.5039 62.9621 42.4884C63.4858 42.4728 63.9914 42.2732 64.4789 41.8895L63.1021 40.5127L63.8488 39.766L66.229 42.1461L63.2344 45.1407L62.3165 44.2229L62.9543 43.4295C62.5188 43.5125 62.0987 43.4918 61.6943 43.3673C61.2898 43.2429 60.8828 42.9758 60.4731 42.5662ZM64.2023 46.1086L69.647 40.6639L73.2016 44.2185L72.4004 45.0197L69.8414 42.4607L68.348 43.9541L70.6737 46.2797L69.8959 47.0576L67.5702 44.7319L65.999 46.3031L68.558 48.8621L67.7569 49.6632L64.2023 46.1086ZM70.4647 52.5577C70.0654 52.1584 69.7802 51.7384 69.6091 51.2976C69.4431 50.8517 69.399 50.4135 69.4768 49.9831C69.5598 49.5475 69.7828 49.1431 70.1457 48.7697L71.1958 49.8198C70.9521 50.0842 70.8276 50.3902 70.8224 50.7376C70.8276 51.085 70.9832 51.4117 71.2891 51.7177C71.5536 51.9821 71.8258 52.1299 72.1058 52.161C72.391 52.1869 72.6399 52.0936 72.8526 51.881C73.0755 51.658 73.1792 51.4143 73.1637 51.1499C73.1533 50.8906 73.0729 50.608 72.9226 50.302C72.7722 49.9961 72.6114 49.6694 72.4403 49.322C72.1655 48.7568 72.0307 48.2486 72.0358 47.7975C72.0462 47.3515 72.2407 46.9393 72.6192 46.5607C72.9355 46.234 73.2855 46.0344 73.6693 45.9618C74.0634 45.8892 74.46 45.9281 74.8593 46.0785C75.2638 46.2237 75.6449 46.4752 76.0027 46.833C76.3657 47.1959 76.6198 47.5797 76.765 47.9841C76.9154 48.3938 76.9517 48.7931 76.8739 49.182C76.8013 49.5761 76.6094 49.9391 76.2983 50.2709L75.2327 49.2053C75.4194 49.0083 75.5127 48.7645 75.5127 48.4742C75.5231 48.1838 75.4012 47.9115 75.1471 47.6575C74.9345 47.4345 74.696 47.3048 74.4315 47.2685C74.1774 47.2322 73.9441 47.3204 73.7315 47.533C73.55 47.7145 73.4618 47.9167 73.467 48.1397C73.4774 48.3575 73.5448 48.6012 73.6693 48.8708C73.7937 49.1405 73.9415 49.4438 74.1126 49.7809C74.2889 50.1439 74.4263 50.4991 74.5249 50.8465C74.6234 51.1939 74.6363 51.5388 74.5638 51.881C74.4963 52.2181 74.3019 52.5473 73.9804 52.8688C73.6952 53.154 73.3581 53.3459 72.9692 53.4444C72.5803 53.5429 72.1681 53.5248 71.7325 53.39C71.3021 53.25 70.8795 52.9725 70.4647 52.5577ZM74.5396 56.4459L79.1831 51.8024L77.5964 50.2156L78.3975 49.4145L82.5744 53.5913L81.7733 54.3925L80.1787 52.798L75.5352 57.4415L74.5396 56.4459ZM77.8672 59.7736L83.3119 54.3289L86.8666 57.8835L86.0654 58.6847L83.5064 56.1256L82.013 57.619L84.3387 59.9447L83.5609 60.7225L81.2352 58.3969L79.664 59.9681L82.223 62.5271L81.4219 63.3282L77.8672 59.7736ZM82.364 64.2704L87.8087 58.8256L89.6677 60.6846C90.3055 61.3224 90.7152 61.9602 90.8966 62.598C91.0885 63.2359 91.0781 63.8581 90.8655 64.4648C90.6633 65.0715 90.2874 65.6497 89.7377 66.1993C89.188 66.749 88.6073 67.1275 87.9954 67.335C87.3939 67.5424 86.7716 67.5527 86.1286 67.3661C85.496 67.1794 84.8608 66.7672 84.223 66.1293L82.364 64.2704ZM84.2152 64.4104L85.0319 65.2271C85.4882 65.6834 85.9212 65.9712 86.3309 66.0905C86.7457 66.2045 87.1476 66.1812 87.5365 66.0204C87.9306 65.8545 88.3247 65.5745 88.7188 65.1804C89.1077 64.7915 89.3851 64.4 89.551 64.0059C89.717 63.6118 89.7429 63.2073 89.6288 62.7925C89.5147 62.3777 89.2295 61.9421 88.7732 61.4858L87.9565 60.6691L84.2152 64.4104Z" fill="white"/>
</svg>
