<svg width="56" height="56" viewBox="0 0 56 56" fill="none" xmlns="http://www.w3.org/2000/svg">
<path d="M12.6 56C5.54529 56 0 50.4547 0 43.4V12.6C0 5.54529 5.54529 0 12.6 0H43.4C50.4547 0 56 5.54529 56 12.6V43.4C56 50.4547 50.4547 56 43.4 56H12.6Z" fill="url(#paint0_linear)"/>
<path d="M43.9258 51.3332H12.0739C7.95987 51.3332 4.6665 48.0398 4.6665 43.9258V12.0739C4.6665 7.8994 7.89932 4.6665 12.0739 4.6665H43.9258C48.0398 4.6665 51.3332 7.95987 51.3332 12.0739V43.9258C51.3332 48.0398 48.0398 51.3332 43.9258 51.3332Z" fill="url(#paint1_linear)"/>
<path d="M14.9331 35.9334C17.278 37.4175 19.6513 38.7334 22.6331 38.7334C31.0092 38.7334 38.0331 32.3929 38.0331 24.0334C38.0331 23.8247 38.0415 23.5399 38.0331 23.3334C38.3362 23.0954 40.3737 21.4969 40.8331 20.5334C40.8331 20.5334 39.5223 21.0848 38.0331 21.2334C38.03 21.2334 38.0361 21.2334 38.0331 21.2334C38.0331 21.2334 38.0281 21.2368 38.0331 21.2334C38.1705 21.1418 39.8734 19.2866 40.1331 17.7334C40.1331 17.7334 38.84 19.3318 37.3331 19.8334C37.0836 19.9163 36.9023 19.758 36.6331 19.8334C35.6618 18.7984 34.6657 17.7334 33.1331 17.7334C30.1932 17.7334 27.5331 20.4013 27.5331 23.3334C27.5331 23.7471 27.4429 23.6468 27.5331 24.0334C27.1224 24.0168 21.2893 23.5775 17.0331 18.4334C17.0331 18.4334 14.3736 21.8695 18.4331 25.4334C18.4331 25.4334 16.6976 25.3682 15.6331 24.7334C15.6331 24.7334 15.9361 29.2596 20.5331 30.3334C20.5331 30.3334 19.1763 31.2771 17.7331 31.0334C17.7331 31.0334 18.5487 34.2166 22.6331 34.5334C22.6331 34.5334 19.5181 36.6165 14.9331 35.9334Z" fill="#00ACF3"/>
<defs>
<linearGradient id="paint0_linear" x1="38.6721" y1="53.6672" x2="18.5339" y2="5.23315" gradientUnits="userSpaceOnUse">
<stop stop-color="#E6F2FB"/>
<stop offset="0.50556" stop-color="#FAFBFC"/>
<stop offset="1" stop-color="white"/>
</linearGradient>
<linearGradient id="paint1_linear" x1="22.8957" y1="2.77025" x2="32.6918" y2="51.1924" gradientUnits="userSpaceOnUse">
<stop stop-color="#EEF2F5"/>
<stop offset="0.3995" stop-color="white"/>
<stop offset="1" stop-color="white"/>
</linearGradient>
</defs>
</svg>
