<svg width="56" height="56" viewBox="0 0 56 56" fill="none" xmlns="http://www.w3.org/2000/svg">
<path d="M12.6 56C5.54529 56 0 50.4547 0 43.4V12.6C0 5.54529 5.54529 0 12.6 0H43.4C50.4547 0 56 5.54529 56 12.6V43.4C56 50.4547 50.4547 56 43.4 56H12.6Z" fill="url(#paint0_linear)"/>
<path d="M43.9258 51.3332H12.0739C7.95987 51.3332 4.6665 48.0398 4.6665 43.9258V12.0739C4.6665 7.8994 7.89932 4.6665 12.0739 4.6665H43.9258C48.0398 4.6665 51.3332 7.95987 51.3332 12.0739V43.9258C51.3332 48.0398 48.0398 51.3332 43.9258 51.3332Z" fill="url(#paint1_linear)"/>
<path d="M20.1187 25.7048L20.119 25.705C20.3173 25.8003 20.503 25.8832 20.7394 25.8832C20.9028 25.8832 20.9993 25.837 21.0513 25.782C21.0988 25.7316 21.1315 25.6499 21.1216 25.512C21.063 24.695 20.9917 23.5323 20.9917 22.6829C20.9917 21.6485 21.3806 19.9904 22.4997 18.5897C23.6229 17.1836 25.4709 16.0498 28.3695 16.0498C31.2682 16.0498 33.109 17.1836 34.225 18.59C35.3368 19.9911 35.718 21.6491 35.718 22.6829C35.718 23.5323 35.6467 24.695 35.588 25.512C35.5782 25.6499 35.6109 25.7316 35.6584 25.782C35.7104 25.837 35.8069 25.8832 35.9703 25.8832C36.2067 25.8832 36.3924 25.8003 36.5907 25.705L36.5909 25.7048L36.6147 25.6934L36.6153 25.6931L36.6221 25.6898C36.8465 25.5823 37.1036 25.459 37.4646 25.459C37.8139 25.459 38.1734 25.5981 38.4485 25.8207C38.7258 26.045 38.93 26.366 38.93 26.7275C38.93 26.9032 38.8948 27.1145 38.7622 27.3239C38.642 27.5136 38.4788 27.6421 38.3366 27.7341L37.9292 27.1043L38.3366 27.7341C38.0084 27.9463 37.5778 28.0876 37.1751 28.2196L37.1635 28.2234L37.1633 28.2235L37.1254 28.2359L37.1254 28.2359C36.7456 28.3603 36.3892 28.4812 36.1271 28.6446L35.7304 28.0081L36.1271 28.6446C35.8535 28.8151 35.718 29.0078 35.718 29.2636C35.718 29.2761 35.7199 29.2988 35.7275 29.3329C35.735 29.3665 35.7462 29.4033 35.7605 29.4435C35.7911 29.5293 35.8368 29.6318 35.8961 29.7477C36.0147 29.9793 36.1823 30.2543 36.3756 30.5396C36.7626 31.1112 37.2433 31.7107 37.6194 32.0725C37.9948 32.4336 38.5882 32.8636 39.2006 33.2033C39.5063 33.3728 39.8144 33.5185 40.1003 33.6217C40.3616 33.716 40.6027 33.7741 40.8049 33.7828L40.9397 33.7885L41.064 33.8409C41.0865 33.8503 41.1104 33.8613 41.1351 33.8737L41.1352 33.8738C41.1743 33.8934 41.2152 33.9168 41.2557 33.9441L41.2638 33.9495L41.2638 33.9495L41.2697 33.9536L41.6499 34.2167L41.5857 34.6745C41.5807 34.7105 41.574 34.7439 41.566 34.7749M20.1187 25.7048L40.8394 34.5892M20.1187 25.7048L20.095 25.6934L20.0944 25.6931L20.0876 25.6899C19.8632 25.5823 19.6061 25.459 19.2451 25.459C18.8958 25.459 18.5363 25.5981 18.2612 25.8207C17.9839 26.045 17.7797 26.366 17.7797 26.7275C17.7797 26.9032 17.8149 27.1145 17.9475 27.3239C18.0676 27.5136 18.2309 27.6421 18.3731 27.7341L18.7804 27.1043L18.3731 27.7341C18.7013 27.9463 19.1319 28.0876 19.5345 28.2196L19.5462 28.2234L19.5464 28.2235L19.5842 28.2359L19.5843 28.2359C19.9641 28.3603 20.3205 28.4812 20.5826 28.6446C20.8562 28.8151 20.9917 29.0078 20.9917 29.2636C20.9917 29.2761 20.9898 29.2988 20.9822 29.3329C20.9747 29.3665 20.9635 29.4033 20.9492 29.4435C20.9186 29.5293 20.8729 29.6318 20.8136 29.7477C20.695 29.9793 20.5274 30.2543 20.3341 30.5396C19.947 31.1112 19.4664 31.7107 19.0903 32.0725C18.7149 32.4336 18.1215 32.8636 17.509 33.2033C17.2034 33.3728 16.8953 33.5185 16.6094 33.6217C16.3481 33.716 16.107 33.7741 15.9048 33.7828L15.77 33.7885L15.6456 33.8409C15.6233 33.8503 15.5994 33.8612 15.5745 33.8737L15.5745 33.8737C15.5354 33.8934 15.4945 33.9168 15.4539 33.9441L15.4539 33.944L15.4459 33.9496L15.4399 33.9537L15.0599 34.2167L15.1239 34.6743C15.129 34.7108 15.1358 34.7442 15.1436 34.7748L15.8703 34.5892M20.1187 25.7048L16.5995 34.4138C16.5027 34.442 16.4046 34.4666 16.3064 34.486C16.306 34.4861 16.3057 34.4862 16.3053 34.4862C16.2872 34.4898 16.269 34.4932 16.2509 34.4965C16.2507 34.4965 16.2505 34.4965 16.2504 34.4966C16.2336 34.4995 16.2167 34.5024 16.1999 34.505C16.1999 34.505 16.1998 34.505 16.1998 34.505C16.1458 34.5136 16.0918 34.5204 16.0381 34.5253C16.0381 34.5253 16.0381 34.5253 16.0381 34.5253C16.0042 34.5284 15.9704 34.5306 15.9368 34.5321C15.9291 34.5353 15.9206 34.5392 15.9117 34.5437C15.8975 34.5508 15.8842 34.5585 15.8726 34.5663L15.8667 34.5704C15.8679 34.5787 15.8692 34.5849 15.8703 34.5892M41.566 34.7749L40.8394 34.5892M41.566 34.7749C41.5661 34.7748 41.5661 34.7748 41.5661 34.7747L40.8394 34.5892M41.566 34.7749C41.5467 34.8504 41.5191 34.9165 41.4865 34.9756M40.8394 34.5892C40.8369 34.5989 40.834 34.6057 40.8301 34.6129M41.4865 34.9756L40.8301 34.6129M41.4865 34.9756C41.4239 35.0889 41.3397 35.179 41.2779 35.2451L41.2705 35.253M41.4865 34.9756C41.4865 34.9756 41.4865 34.9756 41.4865 34.9756L40.8301 34.6129M40.8301 34.6129L41.2705 35.253M40.7624 34.7794L40.766 34.6937C40.7564 34.7044 40.7452 34.7166 40.7322 34.7306L40.7235 34.7432M40.7624 34.7794L40.7235 34.7432M40.7624 34.7794L41.2705 35.253M40.7624 34.7794L41.2705 35.253M40.7235 34.7432L40.7064 34.7678M40.7235 34.7432L25.0234 38.1746M40.1102 34.4138C40.111 34.4104 40.1118 34.4071 40.1127 34.4037C40.1127 34.4036 40.1127 34.4036 40.1127 34.4035C40.1188 34.38 40.1273 34.3525 40.1393 34.3226C40.1482 34.3002 40.1574 34.2809 40.1656 34.2651C40.1658 34.2648 40.1659 34.2645 40.1661 34.2642C40.1687 34.2591 40.1712 34.2545 40.1736 34.2502C40.1758 34.2461 40.1782 34.2419 40.1808 34.2375C40.1808 34.2375 40.1808 34.2375 40.1808 34.2374C40.1809 34.2373 40.181 34.2371 40.1811 34.2369C40.1837 34.2325 40.1865 34.228 40.1894 34.2234C40.1952 34.214 40.2009 34.2056 40.206 34.1984C40.2158 34.1844 40.2228 34.176 40.2234 34.1752L40.2235 34.1752C40.2235 34.1752 40.2204 34.1789 40.2121 34.1881C40.2034 34.1977 40.1911 34.2112 40.1736 34.2299L40.1732 34.2303L40.1102 34.4138ZM40.1102 34.4138C40.0591 34.3988 40.0083 34.3829 39.958 34.3661L40.1102 34.4138ZM15.8703 34.5892C15.8728 34.5989 15.8757 34.6057 15.8796 34.6129C15.889 34.6298 15.9025 34.6481 15.9437 34.6937M15.8703 34.5892L15.1436 34.7748L15.9437 34.6937M15.9437 34.6937L15.9473 34.7794L15.4392 35.253L15.4318 35.2451C15.37 35.179 15.2858 35.0889 15.2232 34.9756M15.9437 34.6937L15.2232 34.9756M15.2232 34.9756L15.8794 34.613L15.2232 34.9756C15.2232 34.9756 15.2232 34.9756 15.2232 34.9756ZM15.949 34.8184L15.4594 35.2747C15.6126 35.4392 15.8181 35.5718 16.0222 35.678C16.2381 35.7903 16.5 35.8974 16.803 35.9942C17.3735 36.1766 18.0334 36.3049 18.6542 36.3645M15.949 34.8184L20.5715 37.9138C20.352 37.9415 20.0765 37.9763 19.8044 37.9774C19.7175 37.9778 19.6456 37.9736 19.5852 37.9667L19.1737 37.9196L18.9944 37.5462C18.9663 37.4878 18.9411 37.4242 18.9183 37.3568L19.6287 37.1162M15.949 34.8184L15.9688 35.2814C16.2224 35.2706 16.4714 35.2249 16.7031 35.1634C16.8028 35.2028 16.9122 35.2418 17.0313 35.2799C17.5478 35.4449 18.1585 35.5642 18.7355 35.6189C19.0242 35.6463 19.1906 35.8267 19.2611 35.9239C19.3336 36.0239 19.375 36.1296 19.3993 36.1997C19.4461 36.3354 19.4815 36.5025 19.5095 36.6344M15.949 34.8184L19.5095 36.6344M18.6542 36.3645C18.6573 36.3689 18.6628 36.3779 18.6697 36.3925C18.6768 36.4076 18.6834 36.4244 18.6904 36.4446C18.7192 36.5279 18.7455 36.6469 18.7757 36.7898L18.7757 36.7899L18.78 36.8099L18.78 36.8101L18.7812 36.8154C18.8169 36.9839 18.8586 37.1806 18.9183 37.3568L19.6287 37.1162M18.6542 36.3645C18.654 36.3643 18.6539 36.3641 18.6537 36.3639C18.6537 36.3639 18.6535 36.3635 18.6529 36.3628L18.651 36.3607C18.6498 36.3595 18.6491 36.359 18.6491 36.359L18.6495 36.3592C18.6503 36.3598 18.6524 36.3611 18.6556 36.3626C18.6563 36.3628 18.657 36.3631 18.6577 36.3634C18.6598 36.3643 18.6618 36.3648 18.6634 36.3652C18.664 36.3654 18.6644 36.3655 18.6647 36.3655M18.6542 36.3645C18.6577 36.3649 18.6612 36.3652 18.6647 36.3655L18.6647 36.3655M19.6287 37.1162C19.5852 36.9877 19.5518 36.8341 19.5137 36.6544M19.6287 37.1162C19.644 37.1616 19.6582 37.1961 19.6704 37.2215C19.698 37.2247 19.7402 37.2277 19.8013 37.2274C20.0236 37.2265 20.246 37.1986 20.4669 37.171C20.5097 37.1656 20.5525 37.1603 20.5952 37.1551M19.5137 36.6544L20.6849 37.8997L20.5952 37.1551M19.5137 36.6544L19.5095 36.6344M19.5137 36.6544L19.5095 36.6344M20.5952 37.1551C21.0158 37.1044 21.5362 37.0417 22.0873 37.0417C23.3654 37.0417 24.2087 37.618 25.0234 38.1746M20.5952 37.1551L20.685 37.8997C21.1092 37.8486 21.5874 37.7917 22.0873 37.7917C23.1103 37.7917 23.7807 38.2339 24.6003 38.7938L24.6003 38.7939L24.6461 38.8251L24.6462 38.8252L24.6473 38.826C24.9466 39.0303 25.2675 39.2495 25.6309 39.4643C26.7649 40.1344 27.6593 40.1305 28.2349 40.1273L28.2354 40.1273C28.2731 40.1271 28.3073 40.1269 28.3401 40.1269C28.373 40.1269 28.4072 40.1271 28.4449 40.1273H28.4453C29.0223 40.1304 29.9431 40.1354 31.0788 39.4643L30.6972 38.8186L31.0788 39.4643C31.4421 39.2495 31.7631 39.0304 32.0623 38.8261L32.0635 38.8252L32.0636 38.8251L32.1094 38.7939L32.1094 38.7939C32.929 38.2339 33.5994 37.7917 34.6224 37.7917C35.1222 37.7917 35.6005 37.8486 36.0246 37.8997C36.0247 37.8997 36.0247 37.8997 36.0248 37.8997L36.0373 37.9012L36.0375 37.9013L36.0432 37.9019C36.3652 37.9407 36.6613 37.9764 36.9053 37.9774C36.9922 37.9778 37.0641 37.9736 37.1245 37.9667L37.536 37.9196L37.7153 37.5462C37.7434 37.4878 37.7686 37.4242 37.7914 37.3568L37.7914 37.3567C37.8511 37.1805 37.8928 36.9838 37.9285 36.8153L37.9297 36.8101L37.9297 36.81L37.9339 36.7899L37.934 36.7898C37.9642 36.6468 37.9905 36.5279 38.0193 36.4446M25.0234 38.1746L25.0691 38.2058L25.0234 38.1746ZM38.0193 36.4446C38.0193 36.4446 38.0193 36.4446 38.0193 36.4446L37.3104 36.1997L38.0193 36.4446ZM38.0193 36.4446C38.0263 36.4244 38.0329 36.4076 38.0399 36.3925C38.0468 36.3779 38.0524 36.369 38.0555 36.3645M38.0555 36.3645C38.6763 36.3049 39.3362 36.1766 39.9067 35.9942C40.2097 35.8974 40.4716 35.7903 40.6875 35.678C40.8919 35.5716 41.0977 35.4389 41.251 35.274M38.0555 36.3645C38.0557 36.3643 38.0558 36.3641 38.056 36.3639C38.0559 36.3639 38.0562 36.3635 38.0568 36.3628L38.0587 36.3607C38.0593 36.3601 38.0597 36.3597 38.06 36.3594C38.0606 36.3589 38.0607 36.3588 38.0602 36.3592C38.0599 36.3595 38.0592 36.3599 38.0584 36.3604C38.0573 36.361 38.0558 36.3618 38.0541 36.3626C38.0534 36.3628 38.0527 36.3631 38.052 36.3634C38.0498 36.3643 38.0479 36.3648 38.0463 36.3652C38.0457 36.3654 38.0452 36.3655 38.045 36.3655M38.0555 36.3645C38.052 36.3649 38.0485 36.3652 38.045 36.3655L38.045 36.3655M41.251 35.274L41.2701 35.2535L40.7624 34.7795L40.7607 34.8183M41.251 35.274L41.2503 35.2747L40.7607 34.8184M41.251 35.274L40.7607 34.8183M40.7607 34.8183L40.7064 34.7678M40.7607 34.8183L40.7607 34.8184M40.7064 34.7678L40.6285 34.8804L40.6147 34.9078M40.7064 34.7678L40.7607 34.8184M40.7607 34.8184L40.7409 35.2814C40.4873 35.2706 40.2383 35.2249 40.0066 35.1634C40.3187 35.0403 40.536 34.9142 40.6575 34.8063L40.6364 34.8563L40.4103 35.1831L40.4163 35.1872L40.5274 35.0266M40.5274 35.0266L40.4184 35.1886C40.4357 35.2003 40.45 35.2082 40.4607 35.2136L40.6151 34.9069M40.5274 35.0266L40.6228 34.8887M40.5274 35.0266L40.6272 34.8783L40.6228 34.8887M40.6151 34.9069L40.6147 34.9078M40.6151 34.9069L40.6283 34.8808L40.6228 34.8887M40.6151 34.9069L40.6228 34.8887M40.6147 34.9078L40.4608 35.2136C40.4678 35.2171 40.4747 35.2203 40.4819 35.2233L40.6147 34.9078ZM38.045 36.3655L38.044 36.3552L38.045 36.3655ZM18.6647 36.3655C18.6649 36.3655 18.665 36.3656 18.6651 36.3656C18.6651 36.3656 18.665 36.3656 18.6647 36.3655L18.6647 36.3655ZM15.4396 35.2534L15.4587 35.2739L15.949 34.8182L15.9473 34.7795L15.4396 35.2534ZM16.2279 35.2233L16.0952 34.9082L16.2489 35.2136C16.2418 35.2171 16.2349 35.2203 16.2279 35.2233ZM16.2489 35.2136L16.0951 34.908L16.087 34.8888L16.1812 35.0248L16.2913 35.1886C16.274 35.2003 16.2596 35.2082 16.2489 35.2136ZM37.196 36.6544L37.2002 36.6344L37.196 36.6544Z" fill="#FFFA37" stroke="black" stroke-width="1.5"/>
<defs>
<linearGradient id="paint0_linear" x1="38.6721" y1="53.6672" x2="18.5339" y2="5.23315" gradientUnits="userSpaceOnUse">
<stop stop-color="#E6F2FB"/>
<stop offset="0.50556" stop-color="#FAFBFC"/>
<stop offset="1" stop-color="white"/>
</linearGradient>
<linearGradient id="paint1_linear" x1="22.8957" y1="2.77025" x2="32.6918" y2="51.1924" gradientUnits="userSpaceOnUse">
<stop stop-color="#EEF2F5"/>
<stop offset="0.3995" stop-color="white"/>
<stop offset="1" stop-color="white"/>
</linearGradient>
</defs>
</svg>
