<svg width="56" height="56" viewBox="0 0 56 56" fill="none" xmlns="http://www.w3.org/2000/svg">
<path d="M12.6 56C5.54531 56 0 50.4547 0 43.4V12.6C0 5.54529 5.5453 0 12.6 0H43.4C50.4547 0 56 5.54529 56 12.6V43.4C56 50.4547 50.4547 56 43.4 56H12.6Z" fill="url(#paint0_linear)"/>
<path d="M42.7001 49.7001H12.6001C8.71233 49.7001 5.6001 46.5879 5.6001 42.7001V12.6001C5.6001 8.65518 8.65512 5.6001 12.6001 5.6001H42.7001C46.5879 5.6001 49.7001 8.71233 49.7001 12.6001V42.7001C49.7001 46.5879 46.5879 49.7001 42.7001 49.7001Z" fill="url(#paint1_linear)"/>
<path d="M35 18.8999H20.3C17.1687 18.8999 14 22.0229 14 25.1999V32.1999C14 35.3769 17.1687 38.4999 20.3 38.4999H35C38.1313 38.4999 41.3 35.3769 41.3 32.1999V25.1999C41.3 22.023 38.1313 18.8999 35 18.8999ZM32.2 29.3999L23.8 32.1999C23.601 32.2962 23.8 32.4234 23.8 32.1999V25.1999C23.8 24.973 23.6007 25.0974 23.8 25.1999L32.2 27.9999C32.4221 28.114 32.4244 29.2913 32.2 29.3999Z" fill="#FF1504"/>
<defs>
<linearGradient id="paint0_linear" x1="38.6721" y1="53.6672" x2="18.5339" y2="5.23318" gradientUnits="userSpaceOnUse">
<stop stop-color="#EEF2F5"/>
<stop offset="0.50556" stop-color="#FAFBFC"/>
<stop offset="1" stop-color="white"/>
</linearGradient>
<linearGradient id="paint1_linear" x1="22.8267" y1="3.80814" x2="32.084" y2="49.5671" gradientUnits="userSpaceOnUse">
<stop stop-color="#EEF2F5"/>
<stop offset="0.3995" stop-color="#F7F9FA"/>
<stop offset="1" stop-color="white"/>
</linearGradient>
</defs>
</svg>
