<svg width="23" height="23" viewBox="0 0 23 23" fill="none" xmlns="http://www.w3.org/2000/svg">
<g clip-path="url(#clip0)">
<path d="M12.859 9.39766L5.97481 12.563L0.196777 0H8.53644L12.859 9.39766Z" fill="url(#paint0_linear)"/>
<path d="M1.64551 0L6.83273 11.2786L7.41276 10.6857L2.49866 0H1.64551Z" fill="white"/>
<path d="M6.13428 0L11.3208 11.2786L11.9015 10.6857L6.98743 0H6.13428Z" fill="white"/>
<path d="M10.1406 9.39766L17.0248 12.563L22.8028 0H14.4632L10.1406 9.39766Z" fill="url(#paint1_linear)"/>
<path d="M21.3537 0L16.1665 11.2786L15.5864 10.6857L20.5005 0H21.3537Z" fill="white"/>
<path d="M16.8649 0L11.6784 11.2786L11.0977 10.6857L16.0117 0H16.8649Z" fill="white"/>
<path d="M20.2766 14.1702C20.2766 14.9306 19.509 15.5796 19.3214 16.2804C19.1273 17.0056 19.4623 17.9508 19.0943 18.5862C18.7212 19.2302 17.7322 19.4106 17.2097 19.9338C16.6872 20.4563 16.5061 21.4453 15.8621 21.8184C15.2267 22.1857 14.2822 21.8514 13.557 22.0455C12.8555 22.2324 12.2065 23 11.4468 23C10.6863 23 10.0373 22.2324 9.33652 22.0448C8.6113 21.8507 7.66615 22.1857 7.03077 21.8177C6.38677 21.4446 6.20637 20.4556 5.68312 19.9331C5.16059 19.4106 4.17159 19.2294 3.79855 18.5854C3.43127 17.9501 3.76549 17.0056 3.57143 16.2804C3.38384 15.5796 2.61621 14.9299 2.61621 14.1702C2.61621 13.4097 3.38384 12.7607 3.57143 12.0599C3.76549 11.3347 3.43055 10.3895 3.79855 9.75416C4.17159 9.11016 5.16059 8.92975 5.68312 8.4065C6.20565 7.88397 6.38677 6.89497 7.03077 6.52194C7.66615 6.15466 8.61058 6.48888 9.3358 6.29482C10.0366 6.10722 10.6863 5.3396 11.4461 5.3396C12.2065 5.3396 12.8555 6.10722 13.5563 6.29482C14.2815 6.48888 15.2267 6.15394 15.8621 6.52194C16.5061 6.89497 16.6865 7.88397 17.2097 8.4065C17.7322 8.92904 18.7212 9.11016 19.0943 9.75416C19.4616 10.3895 19.1273 11.334 19.3214 12.0592C19.509 12.7607 20.2766 13.4097 20.2766 14.1702Z" fill="#FDBC4B"/>
<path d="M8.22847 13.1537H6.51785C6.08085 13.1537 5.72291 12.7958 5.72291 12.3588L5.72866 12.3042V12.292C5.72291 11.8312 6.09881 11.4546 6.55953 11.4546H10.4508C10.9662 11.4546 11.4212 11.0722 11.4521 10.5569C11.4765 10.0171 11.046 9.56215 10.5055 9.56215H6.38488C5.92991 9.56215 5.58994 9.17978 5.59641 8.72481C5.59641 8.71906 5.59641 8.71906 5.59641 8.71259C5.59641 8.70684 5.59641 8.70684 5.59641 8.70037C5.59497 8.60909 5.61725 8.52356 5.64241 8.44019C5.11053 8.93469 4.16322 9.12372 3.79953 9.75262C3.43225 10.388 3.76647 11.3324 3.57241 12.0584C3.38481 12.7599 2.61719 13.4089 2.61719 14.1686C2.61719 14.9291 3.38481 15.5781 3.57241 16.2789C3.76647 17.0041 3.43153 17.9493 3.79953 18.5839C4.17256 19.2279 5.16156 19.4083 5.6841 19.9316C6.20663 20.4541 6.38775 21.4438 7.03175 21.8161C7.66713 22.1834 8.61157 21.8492 9.3375 22.0433C9.56247 22.1036 9.78241 22.2251 10.0023 22.3602H11.6001C12.1097 22.3602 12.5647 21.9778 12.5949 21.4683C12.6193 20.922 12.1881 20.4735 11.6483 20.4735L7.08638 20.4721C6.54803 20.4721 6.11463 20.0214 6.14338 19.4773C6.16997 18.967 6.62853 18.5839 7.13956 18.5839H9.2225C9.73138 18.5695 10.1418 18.1527 10.1418 17.6402C10.1418 17.1184 9.717 16.6936 9.19519 16.6936H6.19872C5.76172 16.6936 5.40378 16.3357 5.41025 15.8994V15.8325C5.3391 14.827 6.52431 15.0376 8.17385 15.0376C8.68919 15.0376 9.14416 14.6552 9.17507 14.1456C9.19879 13.6022 8.76825 13.1537 8.22847 13.1537Z" fill="#F8B546"/>
<path d="M6.00049 7.98021C6.11477 7.91264 6.23983 7.86377 6.38502 7.86377H10.6982C11.2078 7.86377 11.6628 7.48139 11.693 6.9718C11.7174 6.42555 11.2869 5.97705 10.7464 5.97705H10.001C9.78111 6.11218 9.56117 6.23436 9.33621 6.29402C8.61099 6.48808 7.66583 6.15314 7.03118 6.52114C6.53596 6.80793 6.31386 7.45696 6.00049 7.98021Z" fill="#F8B546"/>
<path d="M11.4697 6.8999C7.47058 6.8999 4.2168 10.153 4.2168 14.1528C4.2168 18.1519 7.47058 21.4057 11.4697 21.4057C15.4688 21.4057 18.7226 18.1527 18.7226 14.1528C18.7219 10.153 15.4681 6.8999 11.4697 6.8999ZM11.4697 20.2679C8.09805 20.2679 5.35458 17.5252 5.35458 14.1528C5.35458 10.7804 8.09805 8.03768 11.4697 8.03768C14.8414 8.03768 17.5848 10.7804 17.5848 14.1528C17.5848 17.5252 14.8414 20.2679 11.4697 20.2679Z" fill="#FFCC5B"/>
<path d="M8.37047 17.8056C8.42509 17.3664 8.53362 17.7258 8.52572 17.0868C8.52212 16.9603 8.51422 16.8338 8.47325 16.693C8.46103 16.6887 8.44881 16.6843 8.43731 16.6793C8.33956 16.7692 8.28134 16.8748 8.23534 16.9869C8.07937 17.3945 8.21737 17.3938 8.23966 17.7675C8.24109 17.7848 8.23678 17.8013 8.2375 17.8178C7.98594 17.485 7.77031 17.1321 7.59278 16.7648C7.62297 16.2948 8.02906 16.2984 7.96941 15.5739C7.95862 15.5667 7.94784 15.5602 7.93706 15.553C7.82494 15.612 7.74803 15.6953 7.68119 15.7873C7.42962 16.1489 7.59781 16.1776 7.49862 16.56C7.33691 16.1927 7.21041 15.8132 7.12128 15.4251C7.22981 14.9795 7.64812 15.0772 7.72216 14.3743C7.71281 14.3649 7.70419 14.3563 7.69484 14.347C7.57769 14.375 7.48856 14.4339 7.40734 14.5022C7.06737 14.8027 7.26359 14.8717 7.07097 15.1893C6.99766 14.8055 6.95956 14.416 6.95741 14.025C7.14212 13.593 7.54894 13.7748 7.74012 13.1395C7.73366 13.1287 7.72647 13.1179 7.72 13.1064C7.605 13.1035 7.51084 13.138 7.42244 13.1826C7.03862 13.3903 7.23556 13.5024 6.96172 13.7626C6.97466 13.381 7.02209 13 7.10331 12.6241C7.39297 12.1835 7.72216 12.5142 8.03122 11.9176C8.02691 11.9054 8.02259 11.8932 8.019 11.8802C7.84075 11.8285 7.605 11.8917 7.48066 12.0132C7.40734 12.0872 7.35056 12.2015 7.27581 12.2683C7.24347 12.2985 7.20825 12.3194 7.17159 12.3388C7.27078 11.965 7.40447 11.5978 7.57266 11.2427C7.57625 11.247 7.57912 11.2513 7.58272 11.2556C8.02331 10.8043 7.86375 11.2758 8.37047 10.9645C8.44953 10.9135 8.52715 10.8553 8.60406 10.7575C8.60334 10.7439 8.60191 10.7309 8.60119 10.7173C8.51206 10.6627 8.42581 10.6519 8.33884 10.6512C7.91694 10.6634 8.05494 10.8998 7.72 10.9696C7.72144 10.9609 7.72144 10.9538 7.72287 10.9451C7.996 10.4384 8.34316 9.95972 8.76434 9.52344C8.36472 9.90941 8.02475 10.3349 7.74516 10.7892C7.75306 10.6655 7.76887 10.6109 7.75378 10.4607C7.72503 10.2817 7.67616 10.1078 7.54319 9.96259C7.52881 9.96763 7.51444 9.97338 7.50006 9.97841C7.27725 10.3694 7.24275 10.8086 7.52306 11.178C7.36278 11.4835 7.22766 11.7997 7.11912 12.1232C7.06666 11.8213 6.95381 11.5208 6.71303 11.3354C6.70009 11.3433 6.68787 11.3512 6.67494 11.3598C6.55706 11.8026 6.63756 12.2784 6.98328 12.5796C6.90062 12.9001 6.84241 13.2264 6.80934 13.5556C6.76478 13.4593 6.72022 13.363 6.66631 13.2768C6.54484 13.1043 6.41044 12.9433 6.21278 12.8398C6.202 12.8505 6.19194 12.8613 6.18116 12.8714C6.17397 13.3486 6.37306 13.8079 6.777 14.0508C6.76837 14.3757 6.78419 14.7013 6.82372 15.0248C6.62247 14.7682 6.37091 14.5195 6.05106 14.4167C6.04316 14.4296 6.03525 14.4418 6.02734 14.4548C6.13731 14.9363 6.43703 15.3532 6.90637 15.5329C6.97034 15.8492 7.05803 16.1618 7.16872 16.4687C6.77053 16.151 6.47297 16.0389 6.23578 16.0073C6.23075 16.0217 6.22572 16.036 6.22069 16.0504C6.3745 16.3602 6.57503 16.5665 6.78562 16.7253C6.93872 16.831 7.13853 16.9237 7.37212 16.9675C7.50725 17.2629 7.66609 17.5504 7.84722 17.8279C7.35272 17.5914 7.0185 17.5382 6.77484 17.549C6.77341 17.5641 6.77197 17.5799 6.76981 17.595C7.05659 17.9378 7.44759 18.1937 7.92484 18.2742C8.01037 18.2929 8.09447 18.29 8.17928 18.2908C8.32016 18.4704 8.47181 18.6444 8.63425 18.8126C8.71978 18.727 8.80531 18.6415 8.89156 18.5553C8.70469 18.3748 8.53147 18.1858 8.37191 17.9889C8.364 17.9271 8.36184 17.8645 8.37047 17.8056Z" fill="#EC9922"/>
<path d="M15.7241 16.4717C15.8355 16.1648 15.9225 15.8521 15.9864 15.5359C16.4565 15.3554 16.7562 14.9379 16.8655 14.4577C16.8575 14.4448 16.8496 14.4326 16.8417 14.4196C16.5212 14.5224 16.2696 14.7711 16.0691 15.0277C16.1086 14.7035 16.1244 14.3779 16.1158 14.0538C16.5197 13.8109 16.7195 13.3516 16.7116 12.8743C16.7009 12.8635 16.6908 12.8528 16.68 12.8427C16.3968 12.9908 16.2179 13.2682 16.0842 13.5586C16.0511 13.2294 15.9929 12.9031 15.9102 12.5825C16.2545 12.2885 16.3365 11.8055 16.2186 11.3628C16.2056 11.3549 16.1934 11.3463 16.1805 11.3384C15.9397 11.5238 15.8269 11.8242 15.7744 12.1261C15.6651 11.8027 15.5307 11.4864 15.3705 11.1809C15.3784 11.1709 15.3855 11.1608 15.3935 11.1508C15.4474 11.0789 15.4912 11.002 15.5149 10.9143C15.5444 10.8295 15.5667 10.7411 15.5724 10.6448C15.5717 10.4471 15.535 10.23 15.3935 9.98207C15.3791 9.97704 15.3647 9.97129 15.3503 9.96626C15.1318 10.2049 15.1297 10.4888 15.1484 10.7928C14.868 10.3393 14.5281 9.91307 14.1292 9.5271C14.5511 9.96338 14.8975 10.4428 15.1706 10.9488C15.1721 10.9567 15.1728 10.9646 15.1735 10.9732C14.9866 10.9344 14.9608 10.8252 14.8098 10.7245C14.6704 10.634 14.4418 10.6289 14.293 10.7202C14.2923 10.7339 14.2909 10.7468 14.2902 10.7605C14.393 10.892 14.6064 11.0509 14.7674 11.0645C15.0549 11.0854 15.0125 10.9524 15.3108 11.2579C15.3144 11.2535 15.3173 11.2492 15.3209 11.2449C15.489 11.6007 15.6227 11.968 15.7219 12.341C15.4057 12.1764 15.5861 11.9974 15.1635 11.8839C15.0736 11.8623 14.9802 11.8515 14.8752 11.8824C14.8709 11.8947 14.8673 11.9076 14.863 11.9198C15.208 12.5868 15.4502 12.1132 15.7909 12.6264C15.8721 13.0023 15.9196 13.3839 15.9325 13.7649C15.6644 13.5104 15.8635 13.3969 15.4718 13.1848C15.3834 13.1403 15.2892 13.1058 15.1742 13.1086C15.1678 13.1194 15.1606 13.1302 15.1541 13.1417C15.2181 13.3559 15.3906 13.5801 15.5142 13.657C15.7492 13.8008 15.8003 13.7081 15.9368 14.0272C15.9347 14.4182 15.8966 14.8078 15.8233 15.1916C15.6306 14.8739 15.8269 14.8049 15.4869 14.5044C15.4057 14.4354 15.3165 14.3772 15.1994 14.3492C15.19 14.3585 15.1814 14.3672 15.1728 14.3765C15.2475 15.083 15.6659 14.9846 15.7737 15.4273C15.6845 15.8147 15.558 16.1949 15.3963 16.5622C15.2993 16.187 15.4668 16.1525 15.2138 15.7896C15.1462 15.6976 15.0693 15.6149 14.9579 15.5553C14.9471 15.5624 14.9363 15.5689 14.9255 15.5761C14.9061 15.8119 14.9809 16.1288 15.065 16.2733C15.1987 16.4968 15.2828 16.4753 15.3015 16.7671C15.1232 17.1344 14.9083 17.4873 14.6567 17.82C14.6589 17.557 14.7106 17.5857 14.7257 17.355C14.7387 17.1322 14.6287 16.8382 14.4569 16.6815C14.4447 16.6859 14.4325 16.6902 14.421 16.6952C14.2169 17.4017 14.5741 17.5987 14.5216 17.9933C14.3613 18.1902 14.1881 18.3792 14.002 18.5596C14.0875 18.6452 14.173 18.7307 14.2593 18.8169C14.4217 18.6488 14.5734 18.4748 14.7142 18.2951C15.2892 18.2908 15.7715 18.0206 16.123 17.5994C16.1215 17.5843 16.1201 17.5685 16.118 17.5534C15.8743 17.5426 15.5401 17.5965 15.0456 17.8323C15.2274 17.5548 15.3855 17.2666 15.5207 16.9719C16.0339 16.8756 16.4392 16.5249 16.6721 16.0548C16.6671 16.0404 16.662 16.026 16.657 16.0117C16.4198 16.0419 16.1223 16.154 15.7241 16.4717Z" fill="#EC9922"/>
<path d="M12.5007 17.25H11.1088V12.8192L9.7417 13.2186V12.1644L12.373 11.2544H12.5007V17.25Z" fill="#DC880E"/>
<g style="mix-blend-mode:screen" opacity="0.35">
<path d="M20.2766 14.1702C20.2766 14.9306 19.509 15.5796 19.3214 16.2804C19.1273 17.0056 19.4623 17.9508 19.0943 18.5862C18.7212 19.2302 17.7322 19.4106 17.2097 19.9338C16.6872 20.4563 16.5061 21.4453 15.8621 21.8184C15.2267 22.1857 14.2822 21.8514 13.557 22.0455C12.8555 22.2324 12.2065 23 11.4468 23C10.6863 23 10.0373 22.2324 9.33652 22.0448C8.6113 21.8507 7.66615 22.1857 7.03077 21.8177C6.38677 21.4446 6.20637 20.4556 5.68312 19.9331C5.16059 19.4106 4.17159 19.2294 3.79855 18.5854C3.43127 17.9501 3.76549 17.0056 3.57143 16.2804C3.38384 15.5796 2.61621 14.9299 2.61621 14.1702C2.61621 13.4097 3.38384 12.7607 3.57143 12.0599C3.76549 11.3347 3.43055 10.3895 3.79855 9.75416C4.17159 9.11016 5.16059 8.92975 5.68312 8.4065C6.20565 7.88397 6.38677 6.89497 7.03077 6.52194C7.66615 6.15466 8.61058 6.48888 9.3358 6.29482C10.0366 6.10722 10.6863 5.3396 11.4461 5.3396C12.2065 5.3396 12.8555 6.10722 13.5563 6.29482C14.2815 6.48888 15.2267 6.15394 15.8621 6.52194C16.5061 6.89497 16.6865 7.88397 17.2097 8.4065C17.7322 8.92904 18.7212 9.11016 19.0943 9.75416C19.4616 10.3895 19.1273 11.334 19.3214 12.0592C19.509 12.7607 20.2766 13.4097 20.2766 14.1702Z" fill="#FDBC4B"/>
<path d="M8.22847 13.1537H6.51785C6.08085 13.1537 5.72291 12.7958 5.72291 12.3588L5.72866 12.3042V12.292C5.72291 11.8312 6.09881 11.4546 6.55953 11.4546H10.4508C10.9662 11.4546 11.4212 11.0722 11.4521 10.5569C11.4765 10.0171 11.046 9.56215 10.5055 9.56215H6.38488C5.92991 9.56215 5.58994 9.17978 5.59641 8.72481C5.59641 8.71906 5.59641 8.71906 5.59641 8.71259C5.59641 8.70684 5.59641 8.70684 5.59641 8.70037C5.59497 8.60909 5.61725 8.52356 5.64241 8.44019C5.11053 8.93469 4.16322 9.12372 3.79953 9.75262C3.43225 10.388 3.76647 11.3324 3.57241 12.0584C3.38481 12.7599 2.61719 13.4089 2.61719 14.1686C2.61719 14.9291 3.38481 15.5781 3.57241 16.2789C3.76647 17.0041 3.43153 17.9493 3.79953 18.5839C4.17256 19.2279 5.16156 19.4083 5.6841 19.9316C6.20663 20.4541 6.38775 21.4438 7.03175 21.8161C7.66713 22.1834 8.61157 21.8492 9.3375 22.0433C9.56247 22.1036 9.78241 22.2251 10.0023 22.3602H11.6001C12.1097 22.3602 12.5647 21.9778 12.5949 21.4683C12.6193 20.922 12.1881 20.4735 11.6483 20.4735L7.08638 20.4721C6.54803 20.4721 6.11463 20.0214 6.14338 19.4773C6.16997 18.967 6.62853 18.5839 7.13956 18.5839H9.2225C9.73138 18.5695 10.1418 18.1527 10.1418 17.6402C10.1418 17.1184 9.717 16.6936 9.19519 16.6936H6.19872C5.76172 16.6936 5.40378 16.3357 5.41025 15.8994V15.8325C5.3391 14.827 6.52431 15.0376 8.17385 15.0376C8.68919 15.0376 9.14416 14.6552 9.17507 14.1456C9.19879 13.6022 8.76825 13.1537 8.22847 13.1537Z" fill="#F8B546"/>
<path d="M6.00049 7.98021C6.11477 7.91264 6.23983 7.86377 6.38502 7.86377H10.6982C11.2078 7.86377 11.6628 7.48139 11.693 6.9718C11.7174 6.42555 11.2869 5.97705 10.7464 5.97705H10.001C9.78111 6.11218 9.56117 6.23436 9.33621 6.29402C8.61099 6.48808 7.66583 6.15314 7.03118 6.52114C6.53596 6.80793 6.31386 7.45696 6.00049 7.98021Z" fill="#F8B546"/>
<path d="M11.4697 6.8999C7.47058 6.8999 4.2168 10.153 4.2168 14.1528C4.2168 18.1519 7.47058 21.4057 11.4697 21.4057C15.4688 21.4057 18.7226 18.1527 18.7226 14.1528C18.7219 10.153 15.4681 6.8999 11.4697 6.8999ZM11.4697 20.2679C8.09805 20.2679 5.35458 17.5252 5.35458 14.1528C5.35458 10.7804 8.09805 8.03768 11.4697 8.03768C14.8414 8.03768 17.5848 10.7804 17.5848 14.1528C17.5848 17.5252 14.8414 20.2679 11.4697 20.2679Z" fill="#FFCC5B"/>
<path d="M8.37047 17.8056C8.42509 17.3664 8.53362 17.7258 8.52572 17.0868C8.52212 16.9603 8.51422 16.8338 8.47325 16.693C8.46103 16.6887 8.44881 16.6843 8.43731 16.6793C8.33956 16.7692 8.28134 16.8748 8.23534 16.9869C8.07937 17.3945 8.21737 17.3938 8.23966 17.7675C8.24109 17.7848 8.23678 17.8013 8.2375 17.8178C7.98594 17.485 7.77031 17.1321 7.59278 16.7648C7.62297 16.2948 8.02906 16.2984 7.96941 15.5739C7.95862 15.5667 7.94784 15.5602 7.93706 15.553C7.82494 15.612 7.74803 15.6953 7.68119 15.7873C7.42962 16.1489 7.59781 16.1776 7.49862 16.56C7.33691 16.1927 7.21041 15.8132 7.12128 15.4251C7.22981 14.9795 7.64812 15.0772 7.72216 14.3743C7.71281 14.3649 7.70419 14.3563 7.69484 14.347C7.57769 14.375 7.48856 14.4339 7.40734 14.5022C7.06737 14.8027 7.26359 14.8717 7.07097 15.1893C6.99766 14.8055 6.95956 14.416 6.95741 14.025C7.14212 13.593 7.54894 13.7748 7.74012 13.1395C7.73366 13.1287 7.72647 13.1179 7.72 13.1064C7.605 13.1035 7.51084 13.138 7.42244 13.1826C7.03862 13.3903 7.23556 13.5024 6.96172 13.7626C6.97466 13.381 7.02209 13 7.10331 12.6241C7.39297 12.1835 7.72216 12.5142 8.03122 11.9176C8.02691 11.9054 8.02259 11.8932 8.019 11.8802C7.84075 11.8285 7.605 11.8917 7.48066 12.0132C7.40734 12.0872 7.35056 12.2015 7.27581 12.2683C7.24347 12.2985 7.20825 12.3194 7.17159 12.3388C7.27078 11.965 7.40447 11.5978 7.57266 11.2427C7.57625 11.247 7.57912 11.2513 7.58272 11.2556C8.02331 10.8043 7.86375 11.2758 8.37047 10.9645C8.44953 10.9135 8.52715 10.8553 8.60406 10.7575C8.60334 10.7439 8.60191 10.7309 8.60119 10.7173C8.51206 10.6627 8.42581 10.6519 8.33884 10.6512C7.91694 10.6634 8.05494 10.8998 7.72 10.9696C7.72144 10.9609 7.72144 10.9538 7.72287 10.9451C7.996 10.4384 8.34316 9.95972 8.76434 9.52344C8.36472 9.90941 8.02475 10.3349 7.74516 10.7892C7.75306 10.6655 7.76887 10.6109 7.75378 10.4607C7.72503 10.2817 7.67616 10.1078 7.54319 9.96259C7.52881 9.96763 7.51444 9.97338 7.50006 9.97841C7.27725 10.3694 7.24275 10.8086 7.52306 11.178C7.36278 11.4835 7.22766 11.7997 7.11912 12.1232C7.06666 11.8213 6.95381 11.5208 6.71303 11.3354C6.70009 11.3433 6.68787 11.3512 6.67494 11.3598C6.55706 11.8026 6.63756 12.2784 6.98328 12.5796C6.90062 12.9001 6.84241 13.2264 6.80934 13.5556C6.76478 13.4593 6.72022 13.363 6.66631 13.2768C6.54484 13.1043 6.41044 12.9433 6.21278 12.8398C6.202 12.8505 6.19194 12.8613 6.18116 12.8714C6.17397 13.3486 6.37306 13.8079 6.777 14.0508C6.76837 14.3757 6.78419 14.7013 6.82372 15.0248C6.62247 14.7682 6.37091 14.5195 6.05106 14.4167C6.04316 14.4296 6.03525 14.4418 6.02734 14.4548C6.13731 14.9363 6.43703 15.3532 6.90637 15.5329C6.97034 15.8492 7.05803 16.1618 7.16872 16.4687C6.77053 16.151 6.47297 16.0389 6.23578 16.0073C6.23075 16.0217 6.22572 16.036 6.22069 16.0504C6.3745 16.3602 6.57503 16.5665 6.78562 16.7253C6.93872 16.831 7.13853 16.9237 7.37212 16.9675C7.50725 17.2629 7.66609 17.5504 7.84722 17.8279C7.35272 17.5914 7.0185 17.5382 6.77484 17.549C6.77341 17.5641 6.77197 17.5799 6.76981 17.595C7.05659 17.9378 7.44759 18.1937 7.92484 18.2742C8.01037 18.2929 8.09447 18.29 8.17928 18.2908C8.32016 18.4704 8.47181 18.6444 8.63425 18.8126C8.71978 18.727 8.80531 18.6415 8.89156 18.5553C8.70469 18.3748 8.53147 18.1858 8.37191 17.9889C8.364 17.9271 8.36184 17.8645 8.37047 17.8056Z" fill="#EC9922"/>
<path d="M15.7241 16.4717C15.8355 16.1648 15.9225 15.8521 15.9864 15.5359C16.4565 15.3554 16.7562 14.9379 16.8655 14.4577C16.8575 14.4448 16.8496 14.4326 16.8417 14.4196C16.5212 14.5224 16.2696 14.7711 16.0691 15.0277C16.1086 14.7035 16.1244 14.3779 16.1158 14.0538C16.5197 13.8109 16.7195 13.3516 16.7116 12.8743C16.7009 12.8635 16.6908 12.8528 16.68 12.8427C16.3968 12.9908 16.2179 13.2682 16.0842 13.5586C16.0511 13.2294 15.9929 12.9031 15.9102 12.5825C16.2545 12.2885 16.3365 11.8055 16.2186 11.3628C16.2056 11.3549 16.1934 11.3463 16.1805 11.3384C15.9397 11.5238 15.8269 11.8242 15.7744 12.1261C15.6651 11.8027 15.5307 11.4864 15.3705 11.1809C15.3784 11.1709 15.3855 11.1608 15.3935 11.1508C15.4474 11.0789 15.4912 11.002 15.5149 10.9143C15.5444 10.8295 15.5667 10.7411 15.5724 10.6448C15.5717 10.4471 15.535 10.23 15.3935 9.98207C15.3791 9.97704 15.3647 9.97129 15.3503 9.96626C15.1318 10.2049 15.1297 10.4888 15.1484 10.7928C14.868 10.3393 14.5281 9.91307 14.1292 9.5271C14.5511 9.96338 14.8975 10.4428 15.1706 10.9488C15.1721 10.9567 15.1728 10.9646 15.1735 10.9732C14.9866 10.9344 14.9608 10.8252 14.8098 10.7245C14.6704 10.634 14.4418 10.6289 14.293 10.7202C14.2923 10.7339 14.2909 10.7468 14.2902 10.7605C14.393 10.892 14.6064 11.0509 14.7674 11.0645C15.0549 11.0854 15.0125 10.9524 15.3108 11.2579C15.3144 11.2535 15.3173 11.2492 15.3209 11.2449C15.489 11.6007 15.6227 11.968 15.7219 12.341C15.4057 12.1764 15.5861 11.9974 15.1635 11.8839C15.0736 11.8623 14.9802 11.8515 14.8752 11.8824C14.8709 11.8947 14.8673 11.9076 14.863 11.9198C15.208 12.5868 15.4502 12.1132 15.7909 12.6264C15.8721 13.0023 15.9196 13.3839 15.9325 13.7649C15.6644 13.5104 15.8635 13.3969 15.4718 13.1848C15.3834 13.1403 15.2892 13.1058 15.1742 13.1086C15.1678 13.1194 15.1606 13.1302 15.1541 13.1417C15.2181 13.3559 15.3906 13.5801 15.5142 13.657C15.7492 13.8008 15.8003 13.7081 15.9368 14.0272C15.9347 14.4182 15.8966 14.8078 15.8233 15.1916C15.6306 14.8739 15.8269 14.8049 15.4869 14.5044C15.4057 14.4354 15.3165 14.3772 15.1994 14.3492C15.19 14.3585 15.1814 14.3672 15.1728 14.3765C15.2475 15.083 15.6659 14.9846 15.7737 15.4273C15.6845 15.8147 15.558 16.1949 15.3963 16.5622C15.2993 16.187 15.4668 16.1525 15.2138 15.7896C15.1462 15.6976 15.0693 15.6149 14.9579 15.5553C14.9471 15.5624 14.9363 15.5689 14.9255 15.5761C14.9061 15.8119 14.9809 16.1288 15.065 16.2733C15.1987 16.4968 15.2828 16.4753 15.3015 16.7671C15.1232 17.1344 14.9083 17.4873 14.6567 17.82C14.6589 17.557 14.7106 17.5857 14.7257 17.355C14.7387 17.1322 14.6287 16.8382 14.4569 16.6815C14.4447 16.6859 14.4325 16.6902 14.421 16.6952C14.2169 17.4017 14.5741 17.5987 14.5216 17.9933C14.3613 18.1902 14.1881 18.3792 14.002 18.5596C14.0875 18.6452 14.173 18.7307 14.2593 18.8169C14.4217 18.6488 14.5734 18.4748 14.7142 18.2951C15.2892 18.2908 15.7715 18.0206 16.123 17.5994C16.1215 17.5843 16.1201 17.5685 16.118 17.5534C15.8743 17.5426 15.5401 17.5965 15.0456 17.8323C15.2274 17.5548 15.3855 17.2666 15.5207 16.9719C16.0339 16.8756 16.4392 16.5249 16.6721 16.0548C16.6671 16.0404 16.662 16.026 16.657 16.0117C16.4198 16.0419 16.1223 16.154 15.7241 16.4717Z" fill="#EC9922"/>
<path d="M12.5007 17.25H11.1088V12.8192L9.7417 13.2186V12.1644L12.373 11.2544H12.5007V17.25Z" fill="#DD9122"/>
</g>
</g>
<defs>
<linearGradient id="paint0_linear" x1="15.0611" y1="10.558" x2="8.76812" y2="-2.19563" gradientUnits="userSpaceOnUse">
<stop stop-color="#5E52D2"/>
<stop offset="1" stop-color="#B697F9"/>
</linearGradient>
<linearGradient id="paint1_linear" x1="25.005" y1="10.558" x2="18.712" y2="-2.19563" gradientUnits="userSpaceOnUse">
<stop stop-color="#5E52D2"/>
<stop offset="1" stop-color="#B697F9"/>
</linearGradient>
<clipPath id="clip0">
<rect width="23" height="23" fill="white"/>
</clipPath>
</defs>
</svg>
