<svg width="196" height="116" viewBox="0 0 196 116" fill="none" xmlns="http://www.w3.org/2000/svg">
<g clip-path="url(#clip0)">
<path d="M-3.35774 90.9988C-3.83546 91.0145 -4.28961 90.8713 -4.60735 90.5655C-5.24269 89.9541 -5.09094 88.9239 -4.26845 88.2647L61.6144 35.4529C62.4371 34.7934 63.6186 34.7546 64.2541 35.3663L87.0884 57.3441L151.738 5.52113C152.56 4.86165 153.742 4.82289 154.377 5.43452L200.607 49.9306C201.243 50.5419 201.091 51.5721 200.268 52.2313C199.446 52.8908 198.264 52.9295 197.629 52.3179L152.549 8.92921L87.8998 60.7521C87.0771 61.4116 85.8956 61.4504 85.2602 60.8387L62.4259 38.861L-1.96773 90.4789C-2.37907 90.8086 -2.88002 90.9832 -3.35774 90.9988Z" fill="url(#paint0_linear)"/>
<path d="M153 20C158.523 20 163 15.5228 163 10C163 4.47715 158.523 0 153 0C147.477 0 143 4.47715 143 10C143 15.5228 147.477 20 153 20Z" fill="url(#paint1_linear)"/>
<path d="M152.998 19.3324C158.153 19.3324 162.332 15.1538 162.332 9.99911C162.332 4.84445 158.153 0.665771 152.998 0.665771C147.844 0.665771 143.665 4.84445 143.665 9.99911C143.665 15.1538 147.844 19.3324 152.998 19.3324Z" fill="url(#paint2_linear)"/>
<path opacity="0.75" d="M158.187 15.185C161.051 12.3212 161.051 7.67799 158.187 4.81415C155.323 1.9503 150.68 1.9503 147.816 4.81414C144.952 7.67798 144.952 12.3212 147.816 15.185C150.68 18.0489 155.323 18.0489 158.187 15.185Z" fill="white"/>
<path d="M152.227 14.8862V14.12C151.38 14.088 150.542 13.8995 149.946 13.6539C149.734 13.5662 149.625 13.3413 149.686 13.1302L149.893 12.4165C149.969 12.1547 150.271 12.0193 150.536 12.1242C151.127 12.3575 151.856 12.5422 152.642 12.5422C153.459 12.5422 154.067 12.2813 154.067 11.7467C154.067 11.2642 153.597 10.9774 152.462 10.6905C150.844 10.2733 149.682 9.60818 149.682 8.26507C149.682 7.05232 150.622 6.1265 152.255 5.87878V5.11246C152.255 4.86592 152.467 4.66602 152.729 4.66602H153.206C153.468 4.66602 153.68 4.86592 153.68 5.11246V5.80048C154.464 5.83006 155.035 5.95646 155.488 6.10649C155.72 6.18335 155.847 6.419 155.782 6.64279L155.592 7.30287C155.519 7.55742 155.231 7.69684 154.969 7.60356C154.552 7.45491 153.962 7.30011 153.196 7.30011C152.227 7.30011 151.951 7.67825 151.951 8.01729C151.951 8.43457 152.532 8.72142 153.791 9.08657C155.589 9.59514 156.336 10.2993 156.336 11.5642C156.336 12.7247 155.423 13.7679 153.652 14.0287V14.8862C153.652 15.1328 153.44 15.3327 153.179 15.3327H152.701C152.439 15.3327 152.227 15.1328 152.227 14.8862Z" fill="url(#paint3_linear)"/>
<path d="M152.227 14.8862V14.12C151.38 14.088 150.542 13.8995 149.946 13.6539C149.734 13.5662 149.625 13.3413 149.686 13.1302L149.893 12.4165C149.969 12.1547 150.271 12.0193 150.536 12.1242C151.127 12.3575 151.856 12.5422 152.642 12.5422C153.459 12.5422 154.067 12.2813 154.067 11.7467C154.067 11.2642 153.597 10.9774 152.462 10.6905C150.844 10.2733 149.682 9.60818 149.682 8.26507C149.682 7.05232 150.622 6.1265 152.255 5.87878V5.11246C152.255 4.86592 152.467 4.66602 152.729 4.66602H153.206C153.468 4.66602 153.68 4.86592 153.68 5.11246V5.80048C154.464 5.83006 155.035 5.95646 155.488 6.10649C155.72 6.18335 155.847 6.419 155.782 6.64279L155.592 7.30287C155.519 7.55742 155.231 7.69684 154.969 7.60356C154.552 7.45491 153.962 7.30011 153.196 7.30011C152.227 7.30011 151.951 7.67825 151.951 8.01729C151.951 8.43457 152.532 8.72142 153.791 9.08657C155.589 9.59514 156.336 10.2993 156.336 11.5642C156.336 12.7247 155.423 13.7679 153.652 14.0287V14.8862C153.652 15.1328 153.44 15.3327 153.179 15.3327H152.701C152.439 15.3327 152.227 15.1328 152.227 14.8862Z" fill="url(#paint4_linear)"/>
<path d="M62 48C67.5229 48 72 43.5228 72 38C72 32.4772 67.5229 28 62 28C56.4772 28 52 32.4772 52 38C52 43.5228 56.4772 48 62 48Z" fill="url(#paint5_linear)"/>
<path d="M61.9984 47.3324C67.153 47.3324 71.3317 43.1538 71.3317 37.9991C71.3317 32.8444 67.153 28.6658 61.9984 28.6658C56.8437 28.6658 52.665 32.8444 52.665 37.9991C52.665 43.1538 56.8437 47.3324 61.9984 47.3324Z" fill="url(#paint6_linear)"/>
<path opacity="0.75" d="M67.1872 43.185C70.0511 40.3212 70.0511 35.678 67.1872 32.8141C64.3234 29.9503 59.6802 29.9503 56.8163 32.8141C53.9525 35.678 53.9525 40.3212 56.8163 43.185C59.6802 46.0489 64.3234 46.0489 67.1872 43.185Z" fill="white"/>
<path d="M61.2272 42.8862V42.12C60.3798 42.088 59.5416 41.8995 58.9462 41.6539C58.7337 41.5662 58.6253 41.3413 58.6863 41.1302L58.8929 40.4165C58.9686 40.1547 59.2707 40.0193 59.5363 40.1242C60.1268 40.3575 60.856 40.5422 61.6423 40.5422C62.4585 40.5422 63.0673 40.2813 63.0673 39.7467C63.0673 39.2642 62.5969 38.9774 61.4625 38.6905C59.8438 38.2733 58.6817 37.6082 58.6817 36.2651C58.6817 35.0523 59.6225 34.1265 61.2549 33.8788V33.1125C61.2549 32.8659 61.467 32.666 61.7286 32.666H62.2062C62.4678 32.666 62.6799 32.8659 62.6799 33.1125V33.8005C63.4641 33.8301 64.0349 33.9565 64.4879 34.1065C64.72 34.1833 64.8468 34.419 64.7824 34.6428L64.5925 35.3029C64.5192 35.5574 64.2306 35.6968 63.9689 35.6036C63.5518 35.4549 62.9622 35.3001 62.1957 35.3001C61.2272 35.3001 60.9506 35.6782 60.9506 36.0173C60.9506 36.4346 61.5316 36.7214 62.7906 37.0866C64.5891 37.5951 65.3361 38.2993 65.3361 39.5642C65.3361 40.7247 64.4231 41.7679 62.6522 42.0287V42.8862C62.6522 43.1328 62.4402 43.3327 62.1786 43.3327H61.7009C61.4393 43.3327 61.2272 43.1328 61.2272 42.8862Z" fill="url(#paint7_linear)"/>
<path d="M61.2272 42.8862V42.12C60.3798 42.088 59.5416 41.8995 58.9462 41.6539C58.7337 41.5662 58.6253 41.3413 58.6863 41.1302L58.8929 40.4165C58.9686 40.1547 59.2707 40.0193 59.5363 40.1242C60.1268 40.3575 60.856 40.5422 61.6423 40.5422C62.4585 40.5422 63.0673 40.2813 63.0673 39.7467C63.0673 39.2642 62.5969 38.9774 61.4625 38.6905C59.8438 38.2733 58.6817 37.6082 58.6817 36.2651C58.6817 35.0523 59.6225 34.1265 61.2549 33.8788V33.1125C61.2549 32.8659 61.467 32.666 61.7286 32.666H62.2062C62.4678 32.666 62.6799 32.8659 62.6799 33.1125V33.8005C63.4641 33.8301 64.0349 33.9565 64.4879 34.1065C64.72 34.1833 64.8468 34.419 64.7824 34.6428L64.5925 35.3029C64.5192 35.5574 64.2306 35.6968 63.9689 35.6036C63.5518 35.4549 62.9622 35.3001 62.1957 35.3001C61.2272 35.3001 60.9506 35.6782 60.9506 36.0173C60.9506 36.4346 61.5316 36.7214 62.7906 37.0866C64.5891 37.5951 65.3361 38.2993 65.3361 39.5642C65.3361 40.7247 64.4231 41.7679 62.6522 42.0287V42.8862C62.6522 43.1328 62.4402 43.3327 62.1786 43.3327H61.7009C61.4393 43.3327 61.2272 43.1328 61.2272 42.8862Z" fill="url(#paint8_linear)"/>
</g>
<g opacity="0.5" filter="url(#filter0_f)">
<path d="M80.8223 84.7642V91.3202C80.8223 93.4387 92.0135 95.1559 105.819 95.1559C119.624 95.1559 130.815 93.4387 130.815 91.3202V84.7642H80.8223Z" fill="url(#paint9_linear)"/>
<path d="M105.826 88.598C119.631 88.598 130.822 86.8807 130.822 84.7623C130.822 82.6438 119.631 80.9265 105.826 80.9265C92.0208 80.9265 80.8296 82.6438 80.8296 84.7623C80.8296 86.8807 92.0208 88.598 105.826 88.598Z" fill="url(#paint10_linear)"/>
</g>
<path d="M89.9868 83.8755V88.7261C89.9868 90.2935 98.1504 91.5641 108.221 91.5641C118.291 91.5641 126.454 90.2935 126.454 88.7261V83.8755H89.9868Z" fill="url(#paint11_linear)"/>
<path d="M108.225 86.7125C118.295 86.7125 126.459 85.4419 126.459 83.8746C126.459 82.3072 118.295 81.0366 108.225 81.0366C98.1548 81.0366 89.9912 82.3072 89.9912 83.8746C89.9912 85.4419 98.1548 86.7125 108.225 86.7125Z" fill="url(#paint12_linear)"/>
<path d="M108.22 86.9083C99.301 86.9083 89.9751 85.8867 89.9751 83.9161C89.9751 83.8079 90.0073 83.6177 90.0975 83.6177C90.1878 83.6177 90.1489 83.7665 90.1489 83.8747C90.1489 85.1244 97.5703 86.5167 108.22 86.5167C118.869 86.5167 126.29 85.1244 126.29 83.8747C126.29 83.7665 126.305 83.6651 126.396 83.6651C126.486 83.6651 126.464 83.8095 126.464 83.9177C126.464 85.8883 117.138 86.9083 108.22 86.9083Z" fill="url(#paint13_linear)"/>
<path d="M106.495 84.0336C106.674 83.8851 106.864 83.7387 107.068 83.594C107.27 83.4496 107.533 83.319 107.851 83.2024C108.171 83.0857 108.572 82.9909 109.053 82.9173C109.534 82.8437 110.135 82.8049 110.853 82.8007C111.558 82.7966 112.219 82.8234 112.838 82.8813C113.455 82.9389 114 83.0254 114.47 83.1405C114.938 83.2554 115.321 83.3977 115.616 83.5667C115.909 83.7363 116.083 83.9302 116.139 84.1489L118.193 84.1738C118.342 84.175 118.473 84.1894 118.586 84.2175C118.701 84.2456 118.756 84.281 118.757 84.324L118.757 84.5268L116.118 84.4963C116.025 84.7446 115.789 84.9717 115.41 85.1777C115.033 85.3839 114.551 85.5623 113.963 85.7133L113.002 85.5529C112.916 85.5372 112.845 85.5171 112.789 85.4927C112.734 85.4685 112.707 85.4421 112.707 85.4134C112.707 85.3744 112.781 85.3299 112.93 85.2801C113.079 85.2299 113.246 85.168 113.433 85.0941C113.62 85.0205 113.803 84.9334 113.984 84.8329C114.163 84.7326 114.283 84.6126 114.346 84.473L108.116 84.3989C107.952 84.5433 107.767 84.6852 107.565 84.8246C107.362 84.9641 107.093 85.0897 106.757 85.2012C106.422 85.3126 106.004 85.4031 105.504 85.4727C105.002 85.5422 104.373 85.5792 103.613 85.5836C103.042 85.587 102.487 85.561 101.942 85.506C101.398 85.4507 100.914 85.368 100.492 85.258C100.069 85.1477 99.7228 85.0115 99.4509 84.8494C99.181 84.687 99.0293 84.5006 98.9979 84.2898L97.3077 84.269C97.1588 84.2679 97.0269 84.2539 96.9084 84.2268C96.7918 84.1998 96.7324 84.1638 96.7323 84.1189L96.7314 83.9161L99.0423 83.9425C99.1446 83.7289 99.3539 83.5427 99.6741 83.3843C99.9943 83.2257 100.385 83.0846 100.847 82.9611L101.621 83.0886C101.856 83.1282 101.973 83.1745 101.973 83.2277C101.973 83.2565 101.925 83.292 101.828 83.3346C101.729 83.3772 101.615 83.4281 101.481 83.4871C101.35 83.5464 101.22 83.6157 101.096 83.6954C100.971 83.7749 100.877 83.8649 100.815 83.9658L106.495 84.0336ZM100.793 84.3099C100.84 84.4429 100.943 84.5573 101.1 84.6537C101.257 84.7502 101.452 84.8293 101.687 84.8914C101.923 84.9536 102.186 84.999 102.479 85.0281C102.773 85.0571 103.08 85.0707 103.401 85.0689C103.776 85.0667 104.102 85.0472 104.381 85.0109C104.657 84.9742 104.902 84.9248 105.113 84.862C105.323 84.7993 105.508 84.7267 105.664 84.6438C105.821 84.5608 105.96 84.4711 106.085 84.3741L100.793 84.3099ZM114.356 84.1286C114.309 83.9939 114.196 83.8758 114.02 83.7744C113.844 83.6731 113.618 83.5877 113.345 83.5188C113.071 83.4497 112.752 83.3983 112.387 83.3647C112.024 83.3311 111.623 83.3155 111.184 83.318C110.794 83.3203 110.456 83.3413 110.176 83.3807C109.895 83.4204 109.651 83.4733 109.443 83.5403C109.237 83.607 109.06 83.6848 108.917 83.7736C108.772 83.8625 108.637 83.9575 108.513 84.0587L114.356 84.1286Z" fill="#FCB048"/>
<path d="M108.223 81.344C100.093 81.344 91.6275 82.202 90.2734 83.863C90.3265 83.9216 90.3757 83.9841 90.4215 84.0499C91.5628 82.8967 98.5527 81.7355 108.223 81.7355C118.141 81.7355 125.244 82.9572 126.104 84.1388C126.146 84.074 126.191 84.012 126.24 83.9536C125.122 82.2337 116.498 81.344 108.223 81.344Z" fill="url(#paint14_linear)"/>
<path d="M84.9175 78.7805V83.6311C84.9175 85.1985 93.0811 86.469 103.151 86.469C113.222 86.469 121.385 85.1985 121.385 83.6311V78.7805H84.9175Z" fill="url(#paint15_linear)"/>
<path d="M103.153 81.6176C113.223 81.6176 121.387 80.347 121.387 78.7796C121.387 77.2123 113.223 75.9417 103.153 75.9417C93.0825 75.9417 84.9189 77.2123 84.9189 78.7796C84.9189 80.347 93.0825 81.6176 103.153 81.6176Z" fill="url(#paint16_linear)"/>
<path d="M103.151 81.8141C94.2322 81.8141 84.9062 80.7924 84.9062 78.8219C84.9062 78.7136 84.9385 78.5234 85.0287 78.5234C85.1189 78.5234 85.0801 78.6722 85.0801 78.7804C85.0801 80.0301 92.5015 81.4225 103.151 81.4225C113.8 81.4225 121.221 80.0301 121.221 78.7804C121.221 78.6722 121.237 78.5708 121.327 78.5708C121.417 78.5708 121.395 78.7152 121.395 78.8234C121.395 80.7939 112.069 81.8141 103.151 81.8141Z" fill="url(#paint17_linear)"/>
<path d="M101.428 78.9379C101.607 78.7894 101.797 78.643 102.001 78.4983C102.203 78.3538 102.466 78.2233 102.784 78.1067C103.104 77.99 103.505 77.8952 103.986 77.8216C104.467 77.748 105.068 77.7092 105.787 77.705C106.491 77.7009 107.152 77.7277 107.771 77.7856C108.388 77.8432 108.933 77.9297 109.403 78.0447C109.871 78.1597 110.254 78.302 110.549 78.471C110.842 78.6405 111.016 78.8345 111.073 79.0532L113.126 79.0781C113.275 79.0792 113.406 79.0937 113.519 79.1218C113.634 79.1499 113.689 79.1853 113.69 79.2283L113.69 79.431L111.051 79.4006C110.958 79.6489 110.723 79.876 110.343 80.082C109.966 80.2882 109.484 80.4666 108.896 80.6175L107.935 80.4572C107.849 80.4414 107.778 80.4214 107.723 80.3969C107.667 80.3728 107.64 80.3464 107.64 80.3177C107.64 80.2787 107.714 80.2342 107.863 80.1843C108.012 80.1342 108.18 80.0722 108.366 79.9984C108.553 79.9248 108.736 79.8377 108.917 79.7372C109.096 79.6368 109.216 79.5169 109.279 79.3773L103.049 79.3032C102.885 79.4476 102.7 79.5895 102.499 79.7289C102.295 79.8683 102.026 79.9939 101.69 80.1054C101.355 80.2169 100.937 80.3073 100.437 80.3771C99.9348 80.4465 99.3066 80.4835 98.5465 80.4879C97.9755 80.4913 97.4197 80.4653 96.8752 80.4103C96.3307 80.3549 95.8471 80.2723 95.4247 80.1623C95.0021 80.052 94.6559 79.9158 94.3841 79.7536C94.1141 79.5912 93.9625 79.4049 93.9311 79.194L92.2408 79.1732C92.0919 79.1721 91.96 79.1581 91.8416 79.1311C91.7249 79.104 91.6655 79.0681 91.6654 79.0231L91.6646 78.8203L93.9755 78.8468C94.0777 78.6331 94.2871 78.4469 94.6072 78.2886C94.9274 78.1299 95.3183 77.9888 95.78 77.8654L96.554 77.9928C96.7891 78.0324 96.9057 78.0787 96.906 78.132C96.9061 78.1608 96.8585 78.1963 96.7612 78.2388C96.6621 78.2815 96.5477 78.3324 96.4143 78.3914C96.2828 78.4507 96.1532 78.52 96.0294 78.5997C95.9037 78.6792 95.8105 78.7692 95.7478 78.8701L101.428 78.9379ZM95.7263 79.2142C95.7727 79.3472 95.8763 79.4616 96.0333 79.5579C96.1903 79.6545 96.3854 79.7336 96.6206 79.7957C96.8557 79.8579 97.1194 79.9033 97.4118 79.9323C97.706 79.9613 98.0135 79.975 98.3344 79.9731C98.7087 79.9709 99.0352 79.9515 99.3138 79.9151C99.5906 79.8785 99.8348 79.8291 100.047 79.7663C100.256 79.7036 100.441 79.631 100.598 79.5481C100.754 79.4651 100.893 79.3754 101.019 79.2784L95.7263 79.2142ZM109.289 79.0329C109.242 78.8982 109.129 78.7801 108.953 78.6786C108.777 78.5774 108.551 78.492 108.278 78.4231C108.005 78.354 107.685 78.3026 107.32 78.269C106.957 78.2354 106.556 78.2197 106.117 78.2223C105.728 78.2246 105.39 78.2456 105.109 78.285C104.828 78.3246 104.584 78.3776 104.376 78.4445C104.17 78.5113 103.993 78.5891 103.85 78.6779C103.705 78.7668 103.57 78.8618 103.446 78.963L109.289 79.0329Z" fill="#FCB048"/>
<path d="M103.155 76.2498C95.0244 76.2498 86.5591 77.1078 85.2051 78.7688C85.2581 78.8274 85.3073 78.8899 85.3531 78.9557C86.4944 77.8024 93.4844 76.6413 103.155 76.6413C113.073 76.6413 120.175 77.863 121.035 79.0446C121.078 78.9798 121.123 78.9178 121.172 78.8593C120.053 77.1396 111.429 76.2498 103.155 76.2498Z" fill="url(#paint18_linear)"/>
<path d="M89.292 73.7002V78.5507C89.292 80.1181 97.4555 81.3887 107.526 81.3887C117.596 81.3887 125.76 80.1181 125.76 78.5507V73.7002H89.292Z" fill="url(#paint19_linear)"/>
<path d="M125.761 73.6995C125.761 75.2669 117.597 76.5375 107.527 76.5375C97.4566 76.5375 89.293 75.2669 89.293 73.6995C89.293 72.1321 97.4566 70.8616 107.527 70.8616C117.597 70.8616 125.761 72.1321 125.761 73.6995Z" fill="url(#paint20_linear)"/>
<path d="M107.526 76.7333C98.6077 76.7333 89.2817 75.7116 89.2817 73.7411C89.2817 73.6328 89.3139 73.4426 89.4042 73.4426C89.4944 73.4426 89.4556 73.5914 89.4556 73.6997C89.4556 74.9494 96.8769 76.3417 107.526 76.3417C118.175 76.3417 125.597 74.9493 125.597 73.6997C125.597 73.5914 125.612 73.49 125.702 73.49C125.793 73.49 125.771 73.6344 125.771 73.7427C125.771 75.7132 116.445 76.7333 107.526 76.7333Z" fill="url(#paint21_linear)"/>
<path d="M105.801 73.8576C105.98 73.709 106.171 73.5627 106.374 73.418C106.576 73.2735 106.839 73.143 107.158 73.0264C107.478 72.9097 107.879 72.8149 108.36 72.7413C108.841 72.6677 109.442 72.6289 110.16 72.6247C110.865 72.6205 111.526 72.6474 112.145 72.7052C112.762 72.7629 113.306 72.8494 113.777 72.9644C114.245 73.0794 114.628 73.2217 114.922 73.3907C115.215 73.5602 115.39 73.7542 115.446 73.9729L117.499 73.9978C117.648 73.9989 117.78 74.0134 117.893 74.0415C118.007 74.0696 118.063 74.105 118.063 74.148L118.064 74.3507L115.425 74.3202C115.332 74.5686 115.096 74.7957 114.717 75.0017C114.34 75.2079 113.857 75.3863 113.27 75.5372L112.308 75.3768C112.222 75.3611 112.152 75.341 112.096 75.3166C112.041 75.2924 112.014 75.2661 112.014 75.2373C112.013 75.1983 112.088 75.1539 112.237 75.104C112.385 75.0539 112.553 74.9919 112.74 74.9181C112.927 74.8444 113.11 74.7574 113.291 74.6568C113.47 74.5565 113.59 74.4365 113.652 74.2969L107.422 74.2228C107.259 74.3673 107.074 74.5091 106.872 74.6486C106.668 74.788 106.4 74.9136 106.064 75.0251C105.728 75.1366 105.31 75.227 104.81 75.2967C104.308 75.3662 103.68 75.4032 102.92 75.4076C102.349 75.4109 101.793 75.3849 101.249 75.3299C100.704 75.2746 100.221 75.192 99.7982 75.0819C99.3756 74.9717 99.0294 74.8355 98.7576 74.6733C98.4876 74.5109 98.336 74.3245 98.3046 74.1137L96.6144 74.0929C96.4654 74.0918 96.3336 74.0778 96.2151 74.0507C96.0984 74.0237 96.0391 73.9878 96.0389 73.9428L96.0381 73.74L98.349 73.7664C98.4512 73.5528 98.6606 73.3666 98.9808 73.2082C99.3009 73.0496 99.6919 72.9085 100.154 72.785L100.927 72.9125C101.163 72.9521 101.279 72.9984 101.279 73.0517C101.28 73.0804 101.232 73.116 101.135 73.1585C101.036 73.2011 100.921 73.2521 100.788 73.3111C100.656 73.3704 100.527 73.4396 100.403 73.5193C100.277 73.5988 100.184 73.6888 100.121 73.7897L105.801 73.8576ZM100.1 74.1339C100.146 74.2669 100.25 74.3813 100.407 74.4776C100.564 74.5742 100.759 74.6533 100.994 74.7154C101.229 74.7775 101.493 74.823 101.785 74.852C102.08 74.881 102.387 74.8947 102.708 74.8928C103.082 74.8906 103.409 74.8712 103.687 74.8348C103.964 74.7982 104.208 74.7487 104.42 74.686C104.63 74.6233 104.815 74.5507 104.971 74.4677C105.127 74.3849 105.266 74.295 105.392 74.198L100.1 74.1339ZM113.662 73.9526C113.616 73.8179 113.503 73.6998 113.327 73.5983C113.151 73.4971 112.925 73.4117 112.651 73.3428C112.378 73.2737 112.059 73.2223 111.694 73.1887C111.331 73.155 110.93 73.1394 110.491 73.142C110.101 73.1443 109.763 73.1653 109.483 73.2047C109.202 73.2443 108.958 73.2972 108.75 73.3643C108.544 73.431 108.367 73.5088 108.224 73.5976C108.079 73.6865 107.944 73.7815 107.82 73.8827L113.662 73.9526Z" fill="#FCB048"/>
<path d="M107.529 71.1685C99.399 71.1685 90.9337 72.0265 89.5796 73.6875C89.6326 73.7461 89.6818 73.8086 89.7276 73.8744C90.8689 72.7211 97.8589 71.5601 107.529 71.5601C117.448 71.5601 124.55 72.7816 125.41 73.9633C125.452 73.8984 125.497 73.8364 125.546 73.778C124.428 72.0582 115.804 71.1685 107.529 71.1685Z" fill="url(#paint22_linear)"/>
<path d="M91.9482 68.6052V73.4558C91.9482 75.0232 100.112 76.2937 110.182 76.2937C120.252 76.2937 128.416 75.0232 128.416 73.4558V68.6052H91.9482Z" fill="url(#paint23_linear)"/>
<path d="M128.418 68.6041C128.418 70.1714 120.254 71.4421 110.184 71.4421C100.114 71.4421 91.9502 70.1714 91.9502 68.6041C91.9502 67.0367 100.114 65.7661 110.184 65.7661C120.254 65.7661 128.418 67.0367 128.418 68.6041Z" fill="url(#paint24_linear)"/>
<path d="M110.181 71.638C101.263 71.638 91.937 70.6164 91.937 68.6458C91.937 68.5376 91.9692 68.3474 92.0594 68.3474C92.1497 68.3474 92.1109 68.4962 92.1109 68.6044C92.1109 69.8541 99.5322 71.2464 110.181 71.2464C120.831 71.2464 128.252 69.8541 128.252 68.6044C128.252 68.4962 128.267 68.3948 128.358 68.3948C128.448 68.3948 128.426 68.5392 128.426 68.6474C128.426 70.618 119.1 71.638 110.181 71.638Z" fill="url(#paint25_linear)"/>
<path d="M108.456 68.7622C108.634 68.6136 108.825 68.4672 109.029 68.3225C109.23 68.1781 109.493 68.0475 109.812 67.9309C110.132 67.8143 110.533 67.7194 111.014 67.6458C111.495 67.5723 112.096 67.5335 112.814 67.5292C113.519 67.5251 114.18 67.5519 114.799 67.6098C115.416 67.6674 115.961 67.754 116.431 67.869C116.899 67.984 117.282 68.1262 117.577 68.2953C117.87 68.4647 118.044 68.6588 118.1 68.8774L120.153 68.9023C120.302 68.9034 120.434 68.918 120.547 68.946C120.662 68.9741 120.717 69.0095 120.717 69.0525L120.718 69.2553L118.079 69.2248C117.986 69.4731 117.75 69.7002 117.371 69.9062C116.994 70.1125 116.512 70.2908 115.924 70.4418L114.963 70.2814C114.877 70.2657 114.806 70.2456 114.75 70.2212C114.695 70.197 114.668 70.1707 114.668 70.1419C114.668 70.1029 114.742 70.0585 114.891 70.0086C115.04 69.9585 115.207 69.8965 115.394 69.8226C115.581 69.749 115.764 69.6619 115.945 69.5614C116.124 69.4611 116.244 69.3411 116.307 69.2015L110.077 69.1274C109.913 69.2719 109.728 69.4137 109.526 69.5531C109.323 69.6926 109.054 69.8182 108.718 69.9296C108.383 70.0411 107.965 70.1316 107.465 70.2013C106.963 70.2708 106.334 70.3077 105.574 70.3121C105.003 70.3155 104.448 70.2896 103.903 70.2345C103.358 70.1792 102.875 70.0965 102.452 69.9865C102.03 69.8762 101.684 69.7401 101.412 69.5779C101.142 69.4155 100.99 69.2291 100.959 69.0183L99.2686 68.9975C99.1197 68.9963 98.9879 68.9824 98.8694 68.9553C98.7528 68.9282 98.6934 68.8923 98.6932 68.8473L98.6924 68.6447L101.003 68.671C101.106 68.4574 101.315 68.2712 101.635 68.1128C101.955 67.9542 102.346 67.8131 102.808 67.6896L103.582 67.8171C103.817 67.8567 103.934 67.903 103.934 67.9563C103.934 67.985 103.886 68.0206 103.789 68.0631C103.69 68.1057 103.576 68.1566 103.442 68.2157C103.311 68.2749 103.181 68.3442 103.057 68.4239C102.931 68.5034 102.838 68.5935 102.776 68.6943L108.456 68.7622ZM102.754 69.0385C102.801 69.1715 102.904 69.2858 103.061 69.3822C103.218 69.4787 103.413 69.5578 103.648 69.62C103.884 69.6821 104.147 69.7276 104.44 69.7566C104.734 69.7856 105.041 69.7993 105.362 69.7974C105.736 69.7952 106.063 69.7758 106.342 69.7394C106.618 69.7028 106.863 69.6533 107.074 69.5906C107.284 69.5278 107.469 69.4553 107.625 69.3723C107.782 69.2894 107.921 69.1996 108.046 69.1026L102.754 69.0385ZM116.317 68.8572C116.27 68.7224 116.157 68.6044 115.981 68.5029C115.805 68.4017 115.579 68.3163 115.306 68.2473C115.032 68.1782 114.713 68.1268 114.348 68.0932C113.985 68.0596 113.584 68.044 113.145 68.0465C112.755 68.0489 112.417 68.0699 112.137 68.1092C111.856 68.1489 111.612 68.2018 111.404 68.2688C111.198 68.3355 111.021 68.4133 110.878 68.5021C110.733 68.591 110.598 68.686 110.474 68.7873L116.317 68.8572Z" fill="#FCB048"/>
<path d="M110.185 66.074C102.055 66.074 93.5894 66.932 92.2354 68.593C92.2884 68.6516 92.3376 68.7141 92.3834 68.7799C93.5247 67.6267 100.515 66.4656 110.185 66.4656C120.103 66.4656 127.205 67.6872 128.066 68.8688C128.108 68.804 128.153 68.7419 128.202 68.6835C127.084 66.9637 118.459 66.074 110.185 66.074Z" fill="url(#paint26_linear)"/>
<path d="M89.9868 63.1089V67.9594C89.9868 69.5268 98.1504 70.7974 108.221 70.7974C118.291 70.7974 126.454 69.5268 126.454 67.9594V63.1089H89.9868Z" fill="url(#paint27_linear)"/>
<path d="M126.459 63.1075C126.459 64.6748 118.295 65.9455 108.225 65.9455C98.1548 65.9455 89.9912 64.6748 89.9912 63.1075C89.9912 61.5401 98.1548 60.2695 108.225 60.2695C118.295 60.2695 126.459 61.5401 126.459 63.1075Z" fill="url(#paint28_linear)"/>
<path d="M108.22 66.1409C99.301 66.1409 89.9751 65.1193 89.9751 63.1488C89.9751 63.0405 90.0073 62.8503 90.0975 62.8503C90.1878 62.8503 90.1489 62.9991 90.1489 63.1073C90.1489 64.357 97.5703 65.7494 108.22 65.7494C118.869 65.7494 126.29 64.357 126.29 63.1073C126.29 62.9991 126.305 62.8977 126.396 62.8977C126.486 62.8977 126.464 63.0421 126.464 63.1503C126.464 65.1209 117.138 66.1409 108.22 66.1409Z" fill="url(#paint29_linear)"/>
<path d="M106.495 63.2661C106.674 63.1175 106.864 62.9711 107.068 62.8264C107.27 62.682 107.533 62.5515 107.851 62.4348C108.171 62.3182 108.572 62.2233 109.053 62.1497C109.534 62.0762 110.135 62.0374 110.853 62.0331C111.558 62.029 112.219 62.0558 112.838 62.1137C113.455 62.1713 114 62.2579 114.47 62.3729C114.938 62.4879 115.321 62.6301 115.616 62.7992C115.909 62.9687 116.083 63.1627 116.139 63.3813L118.193 63.4063C118.342 63.4074 118.473 63.4219 118.586 63.4499C118.701 63.478 118.756 63.5134 118.757 63.5564L118.757 63.7592L116.118 63.7287C116.025 63.977 115.789 64.2042 115.41 64.4102C115.033 64.6164 114.551 64.7947 113.963 64.9457L113.002 64.7853C112.916 64.7696 112.845 64.7495 112.789 64.7251C112.734 64.7009 112.707 64.6746 112.707 64.6458C112.707 64.6068 112.781 64.5624 112.93 64.5125C113.079 64.4624 113.246 64.4004 113.433 64.3265C113.62 64.2529 113.803 64.1658 113.984 64.0653C114.163 63.965 114.283 63.845 114.346 63.7054L108.116 63.6313C107.952 63.7758 107.767 63.9176 107.565 64.0571C107.362 64.1965 107.093 64.3221 106.757 64.4336C106.422 64.545 106.004 64.6355 105.504 64.7052C105.002 64.7747 104.373 64.8116 103.613 64.8161C103.042 64.8194 102.487 64.7935 101.942 64.7384C101.398 64.6831 100.914 64.6004 100.492 64.4904C100.069 64.3802 99.7228 64.244 99.4509 64.0818C99.181 63.9194 99.0293 63.733 98.9979 63.5222L97.3077 63.5014C97.1588 63.5002 97.0269 63.4863 96.9084 63.4592C96.7918 63.4321 96.7324 63.3963 96.7323 63.3512L96.7314 63.1485L99.0423 63.1749C99.1446 62.9613 99.3539 62.7751 99.6741 62.6167C99.9943 62.4581 100.385 62.317 100.847 62.1935L101.621 62.321C101.856 62.3606 101.973 62.4069 101.973 62.4602C101.973 62.4889 101.925 62.5245 101.828 62.567C101.729 62.6096 101.615 62.6605 101.481 62.7196C101.35 62.7788 101.22 62.8481 101.096 62.9278C100.971 63.0073 100.877 63.0974 100.815 63.1983L106.495 63.2661ZM100.793 63.5424C100.84 63.6754 100.943 63.7897 101.1 63.8861C101.257 63.9826 101.452 64.0617 101.687 64.1239C101.923 64.186 102.186 64.2315 102.479 64.2605C102.773 64.2895 103.08 64.3032 103.401 64.3013C103.776 64.2991 104.102 64.2797 104.381 64.2433C104.657 64.2067 104.902 64.1572 105.113 64.0945C105.323 64.0318 105.508 63.9592 105.664 63.8762C105.821 63.7933 105.96 63.7035 106.085 63.6065L100.793 63.5424ZM114.356 63.3611C114.309 63.2263 114.196 63.1083 114.02 63.0068C113.844 62.9056 113.618 62.8202 113.345 62.7512C113.071 62.6821 112.752 62.6307 112.387 62.5971C112.024 62.5635 111.623 62.5479 111.184 62.5504C110.794 62.5528 110.456 62.5738 110.176 62.6131C109.895 62.6528 109.651 62.7057 109.443 62.7727C109.237 62.8394 109.06 62.9172 108.917 63.0061C108.772 63.0949 108.637 63.1899 108.513 63.2912L114.356 63.3611Z" fill="#FCB048"/>
<path d="M108.223 60.5767C100.093 60.5767 91.6275 61.4347 90.2734 63.0957C90.3265 63.1543 90.3757 63.2168 90.4215 63.2826C91.5628 62.1294 98.5527 60.9683 108.223 60.9683C118.141 60.9683 125.244 62.1899 126.104 63.3715C126.146 63.3067 126.191 63.2446 126.24 63.1862C125.122 61.4664 116.498 60.5767 108.223 60.5767Z" fill="url(#paint30_linear)"/>
<path d="M84.9175 58.0129V62.8635C84.9175 64.4309 93.0811 65.7015 103.151 65.7015C113.222 65.7015 121.385 64.4309 121.385 62.8635V58.0129H84.9175Z" fill="url(#paint31_linear)"/>
<path d="M103.153 60.8508C113.223 60.8508 121.387 59.5801 121.387 58.0128C121.387 56.4454 113.223 55.1748 103.153 55.1748C93.0825 55.1748 84.9189 56.4454 84.9189 58.0128C84.9189 59.5801 93.0825 60.8508 103.153 60.8508Z" fill="url(#paint32_linear)"/>
<path d="M103.151 61.0458C94.2322 61.0458 84.9062 60.0241 84.9062 58.0535C84.9062 57.9453 84.9385 57.7551 85.0287 57.7551C85.1189 57.7551 85.0801 57.9039 85.0801 58.0121C85.0801 59.2618 92.5015 60.6542 103.151 60.6542C113.8 60.6542 121.221 59.2619 121.221 58.0121C121.221 57.9039 121.237 57.8025 121.327 57.8025C121.417 57.8025 121.395 57.9469 121.395 58.0551C121.395 60.0257 112.069 61.0458 103.151 61.0458Z" fill="url(#paint33_linear)"/>
<path d="M101.428 58.1709C101.607 58.0223 101.797 57.8759 102.001 57.7312C102.203 57.5868 102.466 57.4562 102.784 57.3396C103.104 57.223 103.505 57.1281 103.986 57.0546C104.467 56.9809 105.068 56.9421 105.787 56.9379C106.491 56.9338 107.152 56.9607 107.771 57.0185C108.388 57.0762 108.933 57.1627 109.403 57.2777C109.871 57.3927 110.254 57.5349 110.549 57.7039C110.842 57.8735 111.016 58.0674 111.073 58.2861L113.126 58.3111C113.275 58.3122 113.406 58.3266 113.519 58.3547C113.634 58.3828 113.689 58.4182 113.69 58.4612L113.69 58.664L111.051 58.6335C110.958 58.8818 110.723 59.109 110.343 59.3149C109.966 59.5212 109.484 59.6995 108.896 59.8505L107.935 59.6901C107.849 59.6744 107.778 59.6543 107.723 59.6299C107.667 59.6057 107.64 59.5794 107.64 59.5506C107.64 59.5116 107.714 59.4672 107.863 59.4173C108.012 59.3671 108.18 59.3052 108.366 59.2313C108.553 59.1577 108.736 59.0707 108.917 58.97C109.096 58.8698 109.216 58.7498 109.279 58.6102L103.049 58.5361C102.885 58.6805 102.7 58.8224 102.499 58.9618C102.295 59.1013 102.026 59.2268 101.69 59.3384C101.355 59.4498 100.937 59.5403 100.437 59.61C99.9348 59.6795 99.3066 59.7164 98.5465 59.7208C97.9755 59.7242 97.4197 59.6983 96.8752 59.6432C96.3307 59.5879 95.8471 59.5053 95.4247 59.3952C95.0021 59.285 94.6559 59.1487 94.3841 58.9866C94.1141 58.8242 93.9625 58.6378 93.9311 58.427L92.2408 58.4062C92.0919 58.4051 91.96 58.391 91.8416 58.364C91.7249 58.337 91.6655 58.3011 91.6654 58.2561L91.6646 58.0533L93.9755 58.0797C94.0777 57.8661 94.2871 57.6799 94.6072 57.5215C94.9274 57.3628 95.3183 57.2218 95.78 57.0983L96.554 57.2258C96.7891 57.2654 96.9057 57.3117 96.906 57.365C96.9061 57.3937 96.8585 57.4293 96.7612 57.4718C96.6621 57.5144 96.5477 57.5653 96.4143 57.6243C96.2828 57.6836 96.1532 57.7529 96.0294 57.8326C95.9037 57.9121 95.8105 58.0022 95.7478 58.1031L101.428 58.1709ZM95.7263 58.4472C95.7727 58.5802 95.8763 58.6946 96.0333 58.7909C96.1903 58.8874 96.3854 58.9666 96.6206 59.0287C96.8557 59.0908 97.1194 59.1363 97.4118 59.1653C97.706 59.1943 98.0135 59.208 98.3344 59.2061C98.7087 59.2039 99.0352 59.1845 99.3138 59.1481C99.5906 59.1114 99.8348 59.062 100.047 58.9993C100.256 58.9365 100.441 58.8639 100.598 58.781C100.754 58.6981 100.893 58.6083 101.019 58.5113L95.7263 58.4472ZM109.289 58.2659C109.242 58.1311 109.129 58.0131 108.953 57.9116C108.777 57.8104 108.551 57.7249 108.278 57.6561C108.005 57.5869 107.685 57.5355 107.32 57.5019C106.957 57.4683 106.556 57.4527 106.117 57.4553C105.728 57.4575 105.39 57.4785 105.109 57.5179C104.828 57.5576 104.584 57.6105 104.376 57.6775C104.17 57.7443 103.993 57.822 103.85 57.9109C103.705 57.9997 103.57 58.0948 103.446 58.196L109.289 58.2659Z" fill="#FCB048"/>
<path d="M103.155 55.4824C95.0244 55.4824 86.5591 56.3405 85.2051 58.0015C85.2581 58.06 85.3073 58.1225 85.3531 58.1883C86.4944 57.0351 93.4844 55.874 103.155 55.874C113.073 55.874 120.175 57.0956 121.035 58.2772C121.078 58.2124 121.123 58.1504 121.172 58.092C120.053 56.3721 111.429 55.4824 103.155 55.4824Z" fill="url(#paint34_linear)"/>
<path d="M89.292 52.9331V57.7837C89.292 59.3511 97.4555 60.6217 107.526 60.6217C117.596 60.6217 125.76 59.3511 125.76 57.7837V52.9331H89.292Z" fill="url(#paint35_linear)"/>
<path d="M107.527 55.7711C117.597 55.7711 125.761 54.5005 125.761 52.9332C125.761 51.3658 117.597 50.0952 107.527 50.0952C97.4565 50.0952 89.293 51.3658 89.293 52.9332C89.293 54.5005 97.4565 55.7711 107.527 55.7711Z" fill="url(#paint36_linear)"/>
<path d="M107.526 55.9672C98.6077 55.9672 89.2817 54.9455 89.2817 52.9749C89.2817 52.8667 89.3139 52.6765 89.4042 52.6765C89.4944 52.6765 89.4556 52.8253 89.4556 52.9335C89.4556 54.1832 96.8769 55.5756 107.526 55.5756C118.175 55.5756 125.597 54.1832 125.597 52.9335C125.597 52.8253 125.612 52.7239 125.702 52.7239C125.793 52.7239 125.771 52.8683 125.771 52.9765C125.771 54.9471 116.445 55.9672 107.526 55.9672Z" fill="url(#paint37_linear)"/>
<path d="M105.801 53.0917C105.98 52.9432 106.171 52.7968 106.374 52.6521C106.576 52.5076 106.839 52.3771 107.158 52.2604C107.478 52.1438 107.879 52.049 108.36 51.9754C108.841 51.9018 109.442 51.863 110.16 51.8588C110.865 51.8547 111.526 51.8816 112.145 51.9394C112.762 51.997 113.306 52.0836 113.777 52.1985C114.245 52.3135 114.628 52.4558 114.922 52.6248C115.215 52.7943 115.39 52.9883 115.446 53.207L117.499 53.2319C117.648 53.2331 117.78 53.2475 117.893 53.2756C118.007 53.3036 118.063 53.3391 118.063 53.3821L118.064 53.5848L115.425 53.5544C115.332 53.8027 115.096 54.0298 114.717 54.2358C114.34 54.442 113.857 54.6204 113.27 54.7713L112.308 54.611C112.222 54.5952 112.152 54.5752 112.096 54.5507C112.041 54.5266 112.014 54.5002 112.014 54.4715C112.013 54.4325 112.088 54.388 112.237 54.3381C112.385 54.288 112.553 54.2261 112.74 54.1522C112.927 54.0786 113.11 53.9915 113.291 53.891C113.47 53.7906 113.59 53.6707 113.652 53.5311L107.422 53.4569C107.259 53.6014 107.074 53.7432 106.872 53.8827C106.668 54.0221 106.4 54.1478 106.064 54.2592C105.728 54.3707 105.31 54.4612 104.81 54.5308C104.308 54.6003 103.68 54.6372 102.92 54.6417C102.349 54.6451 101.793 54.6191 101.249 54.5641C100.704 54.5088 100.221 54.4261 99.7982 54.3161C99.3756 54.2058 99.0294 54.0696 98.7576 53.9074C98.4876 53.745 98.336 53.5587 98.3046 53.3479L96.6144 53.327C96.4654 53.3259 96.3336 53.312 96.2151 53.2849C96.0984 53.2578 96.0391 53.2219 96.0389 53.177L96.0381 52.9742L98.349 53.0006C98.4512 52.787 98.6606 52.6007 98.9808 52.4424C99.3009 52.2837 99.6919 52.1427 100.154 52.0192L100.927 52.1466C101.163 52.1863 101.279 52.2326 101.279 52.2858C101.28 52.3145 101.232 52.3501 101.135 52.3927C101.036 52.4352 100.921 52.4862 100.788 52.5452C100.656 52.6045 100.527 52.6737 100.403 52.7535C100.277 52.833 100.184 52.923 100.121 53.0239L105.801 53.0917ZM100.1 53.368C100.146 53.501 100.25 53.6154 100.407 53.7117C100.564 53.8083 100.759 53.8874 100.994 53.9495C101.229 54.0116 101.493 54.0571 101.785 54.0861C102.08 54.1152 102.387 54.1288 102.708 54.1269C103.082 54.1248 103.409 54.1053 103.687 54.0689C103.964 54.0323 104.208 53.9829 104.42 53.9201C104.63 53.8574 104.815 53.7848 104.971 53.7019C105.127 53.619 105.266 53.5291 105.392 53.4321L100.1 53.368ZM113.662 53.1867C113.616 53.052 113.503 52.9339 113.327 52.8325C113.151 52.7312 112.925 52.6458 112.651 52.5769C112.378 52.5077 112.059 52.4564 111.694 52.4228C111.331 52.3892 110.93 52.3735 110.491 52.3761C110.101 52.3784 109.763 52.3994 109.483 52.4388C109.202 52.4785 108.958 52.5314 108.75 52.5984C108.544 52.6651 108.367 52.7429 108.224 52.8317C108.079 52.9206 107.944 53.0157 107.82 53.1169L113.662 53.1867Z" fill="#FCB048"/>
<path d="M107.529 50.4031C99.399 50.4031 90.9337 51.2611 89.5796 52.9221C89.6326 52.9807 89.6818 53.0432 89.7276 53.109C90.8689 51.9557 97.8589 50.7946 107.529 50.7946C117.448 50.7946 124.55 52.0162 125.41 53.1979C125.452 53.1331 125.497 53.071 125.546 53.0126C124.428 51.2928 115.804 50.4031 107.529 50.4031Z" fill="url(#paint38_linear)"/>
<path d="M87.0156 47.8391V52.6897C87.0156 54.2571 95.1792 55.5276 105.249 55.5276C115.32 55.5276 123.483 54.2571 123.483 52.6897V47.8391H87.0156Z" fill="url(#paint39_linear)"/>
<path d="M123.485 47.838C123.485 49.4054 115.322 50.6759 105.251 50.6759C95.1811 50.6759 87.0176 49.4054 87.0176 47.838C87.0176 46.2706 95.1811 45 105.251 45C115.322 45 123.485 46.2706 123.485 47.838Z" fill="url(#paint40_linear)"/>
<path d="M105.25 50.8712C96.3313 50.8712 87.0054 49.8496 87.0054 47.879C87.0054 47.7708 87.0376 47.5806 87.1278 47.5806C87.218 47.5806 87.1792 47.7293 87.1792 47.8376C87.1792 49.0873 94.6006 50.4797 105.25 50.4797C115.899 50.4797 123.32 49.0873 123.32 47.8376C123.32 47.7293 123.336 47.628 123.426 47.628C123.516 47.628 123.494 47.7724 123.494 47.8806C123.494 49.8511 114.168 50.8712 105.25 50.8712Z" fill="url(#paint41_linear)"/>
<path d="M103.524 47.9955C103.703 47.847 103.893 47.7006 104.097 47.5559C104.299 47.4115 104.562 47.2809 104.88 47.1643C105.201 47.0476 105.601 46.9528 106.082 46.8792C106.563 46.8056 107.165 46.7668 107.883 46.7626C108.587 46.7585 109.248 46.7853 109.867 46.8431C110.484 46.9008 111.029 46.9873 111.499 47.1023C111.968 47.2173 112.35 47.3596 112.645 47.5286C112.938 47.6981 113.112 47.8921 113.169 48.1108L115.222 48.1357C115.371 48.1368 115.503 48.1513 115.615 48.1794C115.73 48.2075 115.786 48.2429 115.786 48.2859L115.787 48.4887L113.147 48.4582C113.055 48.7065 112.819 48.9336 112.44 49.1396C112.062 49.3458 111.58 49.5242 110.992 49.6751L110.031 49.5148C109.945 49.4991 109.874 49.479 109.819 49.4545C109.763 49.4304 109.736 49.404 109.736 49.3753C109.736 49.3363 109.81 49.2918 109.959 49.2419C110.108 49.1918 110.276 49.1298 110.463 49.056C110.65 48.9824 110.832 48.8953 111.013 48.7947C111.193 48.6944 111.312 48.5745 111.375 48.4348L105.145 48.3608C104.981 48.5052 104.797 48.6471 104.595 48.7865C104.391 48.926 104.122 49.0516 103.787 49.163C103.451 49.2745 103.033 49.3649 102.533 49.4346C102.031 49.5041 101.403 49.541 100.643 49.5455C100.072 49.5488 99.5159 49.5229 98.9714 49.4678C98.4269 49.4125 97.9433 49.3299 97.5208 49.2199C97.0983 49.1096 96.7521 48.9734 96.4803 48.8112C96.2103 48.6488 96.0587 48.4624 96.0272 48.2516L94.337 48.2308C94.1881 48.2297 94.0562 48.2158 93.9377 48.1887C93.8211 48.1616 93.7617 48.1257 93.7616 48.0807L93.7607 47.8779L96.0717 47.9043C96.1739 47.6907 96.3832 47.5045 96.7034 47.3462C97.0236 47.1875 97.4145 47.0464 97.8762 46.923L98.6502 47.0504C98.8852 47.09 99.0019 47.1364 99.0022 47.1896C99.0023 47.2184 98.9547 47.2539 98.8574 47.2965C98.7583 47.3391 98.6439 47.39 98.5105 47.449C98.3789 47.5083 98.2494 47.5775 98.1256 47.6573C97.9999 47.7368 97.9067 47.8268 97.844 47.9277L103.524 47.9955ZM97.8225 48.2718C97.8689 48.4048 97.9725 48.5192 98.1295 48.6155C98.2865 48.7121 98.4816 48.7912 98.7168 48.8533C98.9519 48.9154 99.2156 48.9609 99.508 48.9899C99.8022 49.019 100.11 49.0326 100.431 49.0308C100.805 49.0286 101.131 49.0092 101.41 48.9728C101.687 48.9361 101.931 48.8867 102.143 48.8239C102.353 48.7612 102.538 48.6886 102.694 48.6057C102.85 48.5228 102.989 48.4329 103.115 48.336L97.8225 48.2718ZM111.385 48.0905C111.339 47.9558 111.225 47.8377 111.049 47.7362C110.873 47.635 110.647 47.5496 110.374 47.4807C110.101 47.4116 109.782 47.3602 109.417 47.3266C109.054 47.293 108.653 47.2773 108.213 47.2799C107.824 47.2822 107.486 47.3032 107.205 47.3426C106.925 47.3822 106.68 47.4352 106.473 47.5021C106.267 47.5689 106.089 47.6467 105.946 47.7355C105.802 47.8244 105.666 47.9194 105.543 48.0207L111.385 48.0905Z" fill="#FCB048"/>
<path d="M105.253 45.3069C97.1231 45.3069 88.6578 46.1649 87.3037 47.8259C87.3567 47.8845 87.4059 47.947 87.4517 48.0128C88.593 46.8596 95.583 45.6985 105.253 45.6985C115.172 45.6985 122.274 46.92 123.134 48.1017C123.176 48.0369 123.221 47.9749 123.27 47.9164C122.152 46.1967 113.528 45.3069 105.253 45.3069Z" fill="url(#paint42_linear)"/>
<path d="M128.669 51.2581L125.374 54.0696C124.309 54.9781 128.177 63.693 134.014 73.5349C139.851 83.3768 145.446 90.6188 146.511 89.7103L149.807 86.8988L128.669 51.2581Z" fill="url(#paint43_linear)"/>
<path d="M149.807 86.8988C148.742 87.8073 143.147 80.5653 137.31 70.7234C131.473 60.8815 127.605 52.1666 128.669 51.2581C129.734 50.3496 135.33 57.5916 141.167 67.4335C147.004 77.2754 150.872 85.9903 149.807 86.8988Z" fill="url(#paint44_linear)"/>
<path d="M137.174 70.8365C132.005 62.1202 127.293 52.4136 128.632 51.2714C128.706 51.2087 128.854 51.1299 128.906 51.2181C128.958 51.3063 128.835 51.3546 128.761 51.4173C127.912 52.1417 131.268 60.2018 137.44 70.6095C143.613 81.0172 148.86 87.4633 149.71 86.7389C149.783 86.6762 149.861 86.6324 149.913 86.7206C149.966 86.8088 149.855 86.8712 149.781 86.9339C148.442 88.0761 142.344 79.5527 137.174 70.8365Z" fill="url(#paint45_linear)"/>
<path d="M138.132 67.4852C138.336 67.5739 138.546 67.6752 138.763 67.7904C138.978 67.904 139.219 68.0854 139.483 68.329C139.748 68.5745 140.044 68.9111 140.373 69.3385C140.702 69.7659 141.077 70.3312 141.496 71.0305C141.907 71.7168 142.272 72.3783 142.591 73.0168C142.91 73.6533 143.167 74.2358 143.361 74.762C143.555 75.2864 143.68 75.7427 143.736 76.1288C143.79 76.5133 143.76 76.7964 143.644 76.9781L144.817 78.9991C144.902 79.1454 144.969 79.2826 145.015 79.4091C145.063 79.5374 145.071 79.6122 145.042 79.6373L144.904 79.7557L143.395 77.1584C143.173 77.2119 142.882 77.1131 142.522 76.8618C142.163 76.6126 141.762 76.2445 141.319 75.7577L140.871 74.7253C140.832 74.6322 140.805 74.5514 140.789 74.483C140.773 74.4148 140.776 74.3732 140.795 74.3564C140.821 74.3337 140.895 74.3806 141.015 74.497C141.135 74.6133 141.275 74.7414 141.433 74.8812C141.591 75.0212 141.757 75.1495 141.93 75.2682C142.102 75.3851 142.253 75.4326 142.384 75.4127L138.823 69.2811C138.63 69.2049 138.427 69.1067 138.215 68.9902C138.002 68.8719 137.761 68.682 137.491 68.4185C137.22 68.1551 136.917 67.7992 136.579 67.3508C136.241 66.9005 135.852 66.3079 135.408 65.5677C135.075 65.0116 134.771 64.4533 134.492 63.8893C134.214 63.325 133.99 62.8046 133.82 62.3279C133.65 61.851 133.542 61.4337 133.495 61.0741C133.449 60.7161 133.487 60.4599 133.612 60.307L132.647 58.643C132.561 58.4967 132.494 58.3598 132.444 58.2283C132.395 58.0987 132.385 58.0198 132.415 57.9936L132.552 57.8752L133.874 60.1491C134.078 60.1252 134.326 60.2218 134.62 60.4429C134.913 60.6639 135.235 60.9642 135.587 61.3438L135.949 62.1741C136.058 62.4268 136.094 62.5677 136.058 62.5988C136.039 62.6156 135.987 62.5897 135.902 62.5193C135.815 62.4471 135.714 62.3648 135.597 62.2687C135.481 62.1744 135.358 62.088 135.232 62.0132C135.106 61.9364 134.99 61.8975 134.886 61.8948L138.132 67.4852ZM134.639 62.0732C134.576 62.1956 134.558 62.3632 134.584 62.5725C134.609 62.7819 134.668 63.0184 134.762 63.2843C134.857 63.5501 134.979 63.8342 135.128 64.1367C135.279 64.441 135.448 64.7495 135.635 65.062C135.854 65.4265 136.056 65.7344 136.242 65.9857C136.428 66.2349 136.603 66.4449 136.768 66.6155C136.932 66.7842 137.089 66.9229 137.236 67.0275C137.383 67.1322 137.524 67.216 137.663 67.2826L134.639 62.0732ZM142.624 75.223C142.688 75.0996 142.703 74.9205 142.67 74.6896C142.636 74.4588 142.564 74.1887 142.452 73.8816C142.34 73.5743 142.19 73.2327 142.002 72.8566C141.814 72.4823 141.592 72.0812 141.336 71.6535C141.109 71.274 140.898 70.9559 140.709 70.7045C140.519 70.4533 140.342 70.2453 140.176 70.0809C140.011 69.9183 139.856 69.7901 139.712 69.702C139.568 69.612 139.425 69.5349 139.285 69.4727L142.624 75.223Z" fill="#FCB048"/>
<path d="M140.957 67.6129C136.245 59.6671 130.755 51.8912 128.841 51.5305C128.832 51.6163 128.818 51.7007 128.8 51.7835C130.245 52.2305 135.086 58.389 140.691 67.8399C146.44 77.5335 149.727 85.1825 149.422 86.7082C149.491 86.7119 149.559 86.7201 149.627 86.7341C150.147 84.6442 145.753 75.6998 140.957 67.6129Z" fill="url(#paint46_linear)"/>
<defs>
<filter id="filter0_f" x="60.8223" y="60.9265" width="90" height="54.2294" filterUnits="userSpaceOnUse" color-interpolation-filters="sRGB">
<feFlood flood-opacity="0" result="BackgroundImageFix"/>
<feBlend mode="normal" in="SourceGraphic" in2="BackgroundImageFix" result="shape"/>
<feGaussianBlur stdDeviation="10" result="effect1_foregroundBlur"/>
</filter>
<linearGradient id="paint0_linear" x1="-22.6105" y1="48" x2="214.38" y2="48" gradientUnits="userSpaceOnUse">
<stop stop-color="#F57E53"/>
<stop offset="0.0045" stop-color="#F58152"/>
<stop offset="0.042" stop-color="#F99A4D"/>
<stop offset="0.084" stop-color="#FCAD49"/>
<stop offset="0.1333" stop-color="#FEBA46"/>
<stop offset="0.1962" stop-color="#FFC244"/>
<stop offset="0.3183" stop-color="#FFC444"/>
<stop offset="0.455" stop-color="#FDB946"/>
<stop offset="0.6941" stop-color="#F99C4C"/>
<stop offset="0.9964" stop-color="#F36F56"/>
</linearGradient>
<linearGradient id="paint1_linear" x1="141.29" y1="10" x2="164.299" y2="10" gradientUnits="userSpaceOnUse">
<stop stop-color="#F57E53"/>
<stop offset="0.0045" stop-color="#F58152"/>
<stop offset="0.042" stop-color="#F99A4D"/>
<stop offset="0.084" stop-color="#FCAD49"/>
<stop offset="0.1333" stop-color="#FEBA46"/>
<stop offset="0.1962" stop-color="#FFC244"/>
<stop offset="0.3183" stop-color="#FFC444"/>
<stop offset="0.455" stop-color="#FDB946"/>
<stop offset="0.6941" stop-color="#F99C4C"/>
<stop offset="0.9964" stop-color="#F36F56"/>
</linearGradient>
<linearGradient id="paint2_linear" x1="142.069" y1="9.99913" x2="163.544" y2="9.99913" gradientUnits="userSpaceOnUse">
<stop stop-color="#F57E53"/>
<stop offset="0.0045" stop-color="#F58152"/>
<stop offset="0.042" stop-color="#F99A4D"/>
<stop offset="0.084" stop-color="#FCAD49"/>
<stop offset="0.1333" stop-color="#FEBA46"/>
<stop offset="0.1962" stop-color="#FFC244"/>
<stop offset="0.3183" stop-color="#FFC444"/>
<stop offset="0.455" stop-color="#FDB946"/>
<stop offset="0.6941" stop-color="#F99C4C"/>
<stop offset="0.9964" stop-color="#F36F56"/>
</linearGradient>
<linearGradient id="paint3_linear" x1="158.362" y1="1.44366" x2="140.711" y2="32.8812" gradientUnits="userSpaceOnUse">
<stop stop-color="#FDF53F"/>
<stop offset="1" stop-color="#D93C65"/>
</linearGradient>
<linearGradient id="paint4_linear" x1="149.1" y1="9.99936" x2="156.769" y2="9.99936" gradientUnits="userSpaceOnUse">
<stop stop-color="#F57E53"/>
<stop offset="0.0045" stop-color="#F58152"/>
<stop offset="0.042" stop-color="#F99A4D"/>
<stop offset="0.084" stop-color="#FCAD49"/>
<stop offset="0.1333" stop-color="#FEBA46"/>
<stop offset="0.1962" stop-color="#FFC244"/>
<stop offset="0.3183" stop-color="#FFC444"/>
<stop offset="0.455" stop-color="#FDB946"/>
<stop offset="0.6941" stop-color="#F99C4C"/>
<stop offset="0.9964" stop-color="#F36F56"/>
</linearGradient>
<linearGradient id="paint5_linear" x1="50.2902" y1="38" x2="73.299" y2="38" gradientUnits="userSpaceOnUse">
<stop stop-color="#F57E53"/>
<stop offset="0.0045" stop-color="#F58152"/>
<stop offset="0.042" stop-color="#F99A4D"/>
<stop offset="0.084" stop-color="#FCAD49"/>
<stop offset="0.1333" stop-color="#FEBA46"/>
<stop offset="0.1962" stop-color="#FFC244"/>
<stop offset="0.3183" stop-color="#FFC444"/>
<stop offset="0.455" stop-color="#FDB946"/>
<stop offset="0.6941" stop-color="#F99C4C"/>
<stop offset="0.9964" stop-color="#F36F56"/>
</linearGradient>
<linearGradient id="paint6_linear" x1="51.0693" y1="37.9991" x2="72.5441" y2="37.9991" gradientUnits="userSpaceOnUse">
<stop stop-color="#F57E53"/>
<stop offset="0.0045" stop-color="#F58152"/>
<stop offset="0.042" stop-color="#F99A4D"/>
<stop offset="0.084" stop-color="#FCAD49"/>
<stop offset="0.1333" stop-color="#FEBA46"/>
<stop offset="0.1962" stop-color="#FFC244"/>
<stop offset="0.3183" stop-color="#FFC444"/>
<stop offset="0.455" stop-color="#FDB946"/>
<stop offset="0.6941" stop-color="#F99C4C"/>
<stop offset="0.9964" stop-color="#F36F56"/>
</linearGradient>
<linearGradient id="paint7_linear" x1="67.3616" y1="29.4437" x2="49.7114" y2="60.8812" gradientUnits="userSpaceOnUse">
<stop stop-color="#FDF53F"/>
<stop offset="1" stop-color="#D93C65"/>
</linearGradient>
<linearGradient id="paint8_linear" x1="58.0995" y1="37.9994" x2="65.7691" y2="37.9994" gradientUnits="userSpaceOnUse">
<stop stop-color="#F57E53"/>
<stop offset="0.0045" stop-color="#F58152"/>
<stop offset="0.042" stop-color="#F99A4D"/>
<stop offset="0.084" stop-color="#FCAD49"/>
<stop offset="0.1333" stop-color="#FEBA46"/>
<stop offset="0.1962" stop-color="#FFC244"/>
<stop offset="0.3183" stop-color="#FFC444"/>
<stop offset="0.455" stop-color="#FDB946"/>
<stop offset="0.6941" stop-color="#F99C4C"/>
<stop offset="0.9964" stop-color="#F36F56"/>
</linearGradient>
<linearGradient id="paint9_linear" x1="76.5485" y1="89.9601" x2="134.062" y2="89.9601" gradientUnits="userSpaceOnUse">
<stop stop-color="#F57E53"/>
<stop offset="0.0045" stop-color="#F58152"/>
<stop offset="0.042" stop-color="#F99A4D"/>
<stop offset="0.084" stop-color="#FCAD49"/>
<stop offset="0.1333" stop-color="#FEBA46"/>
<stop offset="0.1962" stop-color="#FFC244"/>
<stop offset="0.3183" stop-color="#FFC444"/>
<stop offset="0.455" stop-color="#FDB946"/>
<stop offset="0.6941" stop-color="#F99C4C"/>
<stop offset="0.9964" stop-color="#F36F56"/>
</linearGradient>
<linearGradient id="paint10_linear" x1="105.577" y1="82.2973" x2="109.793" y2="112.144" gradientUnits="userSpaceOnUse">
<stop stop-color="#FFDB44"/>
<stop offset="1" stop-color="#FEEF06"/>
</linearGradient>
<linearGradient id="paint11_linear" x1="86.8693" y1="87.7198" x2="128.823" y2="87.7198" gradientUnits="userSpaceOnUse">
<stop stop-color="#F57E53"/>
<stop offset="0.0045" stop-color="#F58152"/>
<stop offset="0.042" stop-color="#F99A4D"/>
<stop offset="0.084" stop-color="#FCAD49"/>
<stop offset="0.1333" stop-color="#FEBA46"/>
<stop offset="0.1962" stop-color="#FFC244"/>
<stop offset="0.3183" stop-color="#FFC444"/>
<stop offset="0.455" stop-color="#FDB946"/>
<stop offset="0.6941" stop-color="#F99C4C"/>
<stop offset="0.9964" stop-color="#F36F56"/>
</linearGradient>
<linearGradient id="paint12_linear" x1="108.043" y1="82.0508" x2="111.205" y2="104.121" gradientUnits="userSpaceOnUse">
<stop stop-color="#FFDB44"/>
<stop offset="1" stop-color="#FEEF06"/>
</linearGradient>
<linearGradient id="paint13_linear" x1="107.942" y1="81.0606" x2="108.913" y2="87.8388" gradientUnits="userSpaceOnUse">
<stop stop-color="#FFDB44"/>
<stop offset="1" stop-color="#FEEF06"/>
</linearGradient>
<linearGradient id="paint14_linear" x1="108.581" y1="87.1657" x2="107.614" y2="80.4115" gradientUnits="userSpaceOnUse">
<stop offset="0.0036" stop-color="#F36F56"/>
<stop offset="0.3059" stop-color="#F99C4C"/>
<stop offset="0.545" stop-color="#FDB946"/>
<stop offset="0.6817" stop-color="#FFC444"/>
<stop offset="0.8038" stop-color="#FFC244"/>
<stop offset="0.8667" stop-color="#FEBA46"/>
<stop offset="0.916" stop-color="#FCAD49"/>
<stop offset="0.958" stop-color="#F99A4D"/>
<stop offset="0.9955" stop-color="#F58152"/>
<stop offset="1" stop-color="#F57E53"/>
</linearGradient>
<linearGradient id="paint15_linear" x1="81.7999" y1="82.6248" x2="123.754" y2="82.6248" gradientUnits="userSpaceOnUse">
<stop stop-color="#F57E53"/>
<stop offset="0.0045" stop-color="#F58152"/>
<stop offset="0.042" stop-color="#F99A4D"/>
<stop offset="0.084" stop-color="#FCAD49"/>
<stop offset="0.1333" stop-color="#FEBA46"/>
<stop offset="0.1962" stop-color="#FFC244"/>
<stop offset="0.3183" stop-color="#FFC444"/>
<stop offset="0.455" stop-color="#FDB946"/>
<stop offset="0.6941" stop-color="#F99C4C"/>
<stop offset="0.9964" stop-color="#F36F56"/>
</linearGradient>
<linearGradient id="paint16_linear" x1="102.971" y1="76.9559" x2="106.133" y2="99.0265" gradientUnits="userSpaceOnUse">
<stop stop-color="#FFDB44"/>
<stop offset="1" stop-color="#FEEF06"/>
</linearGradient>
<linearGradient id="paint17_linear" x1="102.873" y1="75.9663" x2="103.844" y2="82.7445" gradientUnits="userSpaceOnUse">
<stop stop-color="#FFDB44"/>
<stop offset="1" stop-color="#FEEF06"/>
</linearGradient>
<linearGradient id="paint18_linear" x1="103.513" y1="82.0715" x2="102.545" y2="75.3173" gradientUnits="userSpaceOnUse">
<stop offset="0.0036" stop-color="#F36F56"/>
<stop offset="0.3059" stop-color="#F99C4C"/>
<stop offset="0.545" stop-color="#FDB946"/>
<stop offset="0.6817" stop-color="#FFC444"/>
<stop offset="0.8038" stop-color="#FFC244"/>
<stop offset="0.8667" stop-color="#FEBA46"/>
<stop offset="0.916" stop-color="#FCAD49"/>
<stop offset="0.958" stop-color="#F99A4D"/>
<stop offset="0.9955" stop-color="#F58152"/>
<stop offset="1" stop-color="#F57E53"/>
</linearGradient>
<linearGradient id="paint19_linear" x1="86.1744" y1="77.5444" x2="128.128" y2="77.5444" gradientUnits="userSpaceOnUse">
<stop stop-color="#F57E53"/>
<stop offset="0.0045" stop-color="#F58152"/>
<stop offset="0.042" stop-color="#F99A4D"/>
<stop offset="0.084" stop-color="#FCAD49"/>
<stop offset="0.1333" stop-color="#FEBA46"/>
<stop offset="0.1962" stop-color="#FFC244"/>
<stop offset="0.3183" stop-color="#FFC444"/>
<stop offset="0.455" stop-color="#FDB946"/>
<stop offset="0.6941" stop-color="#F99C4C"/>
<stop offset="0.9964" stop-color="#F36F56"/>
</linearGradient>
<linearGradient id="paint20_linear" x1="107.345" y1="71.8758" x2="110.507" y2="93.9464" gradientUnits="userSpaceOnUse">
<stop stop-color="#FFDB44"/>
<stop offset="1" stop-color="#FEEF06"/>
</linearGradient>
<linearGradient id="paint21_linear" x1="107.248" y1="70.8855" x2="108.219" y2="77.6637" gradientUnits="userSpaceOnUse">
<stop stop-color="#FFDB44"/>
<stop offset="1" stop-color="#FEEF06"/>
</linearGradient>
<linearGradient id="paint22_linear" x1="107.887" y1="76.9902" x2="106.92" y2="70.236" gradientUnits="userSpaceOnUse">
<stop offset="0.0036" stop-color="#F36F56"/>
<stop offset="0.3059" stop-color="#F99C4C"/>
<stop offset="0.545" stop-color="#FDB946"/>
<stop offset="0.6817" stop-color="#FFC444"/>
<stop offset="0.8038" stop-color="#FFC244"/>
<stop offset="0.8667" stop-color="#FEBA46"/>
<stop offset="0.916" stop-color="#FCAD49"/>
<stop offset="0.958" stop-color="#F99A4D"/>
<stop offset="0.9955" stop-color="#F58152"/>
<stop offset="1" stop-color="#F57E53"/>
</linearGradient>
<linearGradient id="paint23_linear" x1="88.8307" y1="72.4495" x2="130.785" y2="72.4495" gradientUnits="userSpaceOnUse">
<stop stop-color="#F57E53"/>
<stop offset="0.0045" stop-color="#F58152"/>
<stop offset="0.042" stop-color="#F99A4D"/>
<stop offset="0.084" stop-color="#FCAD49"/>
<stop offset="0.1333" stop-color="#FEBA46"/>
<stop offset="0.1962" stop-color="#FFC244"/>
<stop offset="0.3183" stop-color="#FFC444"/>
<stop offset="0.455" stop-color="#FDB946"/>
<stop offset="0.6941" stop-color="#F99C4C"/>
<stop offset="0.9964" stop-color="#F36F56"/>
</linearGradient>
<linearGradient id="paint24_linear" x1="110.002" y1="66.7803" x2="113.164" y2="88.8509" gradientUnits="userSpaceOnUse">
<stop stop-color="#FFDB44"/>
<stop offset="1" stop-color="#FEEF06"/>
</linearGradient>
<linearGradient id="paint25_linear" x1="109.904" y1="65.7903" x2="110.875" y2="72.5685" gradientUnits="userSpaceOnUse">
<stop stop-color="#FFDB44"/>
<stop offset="1" stop-color="#FEEF06"/>
</linearGradient>
<linearGradient id="paint26_linear" x1="110.543" y1="71.8957" x2="109.575" y2="65.1415" gradientUnits="userSpaceOnUse">
<stop offset="0.0036" stop-color="#F36F56"/>
<stop offset="0.3059" stop-color="#F99C4C"/>
<stop offset="0.545" stop-color="#FDB946"/>
<stop offset="0.6817" stop-color="#FFC444"/>
<stop offset="0.8038" stop-color="#FFC244"/>
<stop offset="0.8667" stop-color="#FEBA46"/>
<stop offset="0.916" stop-color="#FCAD49"/>
<stop offset="0.958" stop-color="#F99A4D"/>
<stop offset="0.9955" stop-color="#F58152"/>
<stop offset="1" stop-color="#F57E53"/>
</linearGradient>
<linearGradient id="paint27_linear" x1="86.8693" y1="66.9531" x2="128.823" y2="66.9531" gradientUnits="userSpaceOnUse">
<stop stop-color="#F57E53"/>
<stop offset="0.0045" stop-color="#F58152"/>
<stop offset="0.042" stop-color="#F99A4D"/>
<stop offset="0.084" stop-color="#FCAD49"/>
<stop offset="0.1333" stop-color="#FEBA46"/>
<stop offset="0.1962" stop-color="#FFC244"/>
<stop offset="0.3183" stop-color="#FFC444"/>
<stop offset="0.455" stop-color="#FDB946"/>
<stop offset="0.6941" stop-color="#F99C4C"/>
<stop offset="0.9964" stop-color="#F36F56"/>
</linearGradient>
<linearGradient id="paint28_linear" x1="108.043" y1="61.2837" x2="111.205" y2="83.3543" gradientUnits="userSpaceOnUse">
<stop stop-color="#FFDB44"/>
<stop offset="1" stop-color="#FEEF06"/>
</linearGradient>
<linearGradient id="paint29_linear" x1="107.942" y1="60.2932" x2="108.913" y2="67.0714" gradientUnits="userSpaceOnUse">
<stop stop-color="#FFDB44"/>
<stop offset="1" stop-color="#FEEF06"/>
</linearGradient>
<linearGradient id="paint30_linear" x1="108.581" y1="66.3984" x2="107.614" y2="59.6442" gradientUnits="userSpaceOnUse">
<stop offset="0.0036" stop-color="#F36F56"/>
<stop offset="0.3059" stop-color="#F99C4C"/>
<stop offset="0.545" stop-color="#FDB946"/>
<stop offset="0.6817" stop-color="#FFC444"/>
<stop offset="0.8038" stop-color="#FFC244"/>
<stop offset="0.8667" stop-color="#FEBA46"/>
<stop offset="0.916" stop-color="#FCAD49"/>
<stop offset="0.958" stop-color="#F99A4D"/>
<stop offset="0.9955" stop-color="#F58152"/>
<stop offset="1" stop-color="#F57E53"/>
</linearGradient>
<linearGradient id="paint31_linear" x1="81.7999" y1="61.8572" x2="123.754" y2="61.8572" gradientUnits="userSpaceOnUse">
<stop stop-color="#F57E53"/>
<stop offset="0.0045" stop-color="#F58152"/>
<stop offset="0.042" stop-color="#F99A4D"/>
<stop offset="0.084" stop-color="#FCAD49"/>
<stop offset="0.1333" stop-color="#FEBA46"/>
<stop offset="0.1962" stop-color="#FFC244"/>
<stop offset="0.3183" stop-color="#FFC444"/>
<stop offset="0.455" stop-color="#FDB946"/>
<stop offset="0.6941" stop-color="#F99C4C"/>
<stop offset="0.9964" stop-color="#F36F56"/>
</linearGradient>
<linearGradient id="paint32_linear" x1="102.971" y1="56.189" x2="106.133" y2="78.2596" gradientUnits="userSpaceOnUse">
<stop stop-color="#FFDB44"/>
<stop offset="1" stop-color="#FEEF06"/>
</linearGradient>
<linearGradient id="paint33_linear" x1="102.873" y1="55.198" x2="103.844" y2="61.9763" gradientUnits="userSpaceOnUse">
<stop stop-color="#FFDB44"/>
<stop offset="1" stop-color="#FEEF06"/>
</linearGradient>
<linearGradient id="paint34_linear" x1="103.513" y1="61.3041" x2="102.545" y2="54.5499" gradientUnits="userSpaceOnUse">
<stop offset="0.0036" stop-color="#F36F56"/>
<stop offset="0.3059" stop-color="#F99C4C"/>
<stop offset="0.545" stop-color="#FDB946"/>
<stop offset="0.6817" stop-color="#FFC444"/>
<stop offset="0.8038" stop-color="#FFC244"/>
<stop offset="0.8667" stop-color="#FEBA46"/>
<stop offset="0.916" stop-color="#FCAD49"/>
<stop offset="0.958" stop-color="#F99A4D"/>
<stop offset="0.9955" stop-color="#F58152"/>
<stop offset="1" stop-color="#F57E53"/>
</linearGradient>
<linearGradient id="paint35_linear" x1="86.1744" y1="56.7774" x2="128.128" y2="56.7774" gradientUnits="userSpaceOnUse">
<stop stop-color="#F57E53"/>
<stop offset="0.0045" stop-color="#F58152"/>
<stop offset="0.042" stop-color="#F99A4D"/>
<stop offset="0.084" stop-color="#FCAD49"/>
<stop offset="0.1333" stop-color="#FEBA46"/>
<stop offset="0.1962" stop-color="#FFC244"/>
<stop offset="0.3183" stop-color="#FFC444"/>
<stop offset="0.455" stop-color="#FDB946"/>
<stop offset="0.6941" stop-color="#F99C4C"/>
<stop offset="0.9964" stop-color="#F36F56"/>
</linearGradient>
<linearGradient id="paint36_linear" x1="107.345" y1="51.1094" x2="110.507" y2="73.1801" gradientUnits="userSpaceOnUse">
<stop stop-color="#FFDB44"/>
<stop offset="1" stop-color="#FEEF06"/>
</linearGradient>
<linearGradient id="paint37_linear" x1="107.248" y1="50.1194" x2="108.219" y2="56.8976" gradientUnits="userSpaceOnUse">
<stop stop-color="#FFDB44"/>
<stop offset="1" stop-color="#FEEF06"/>
</linearGradient>
<linearGradient id="paint38_linear" x1="107.887" y1="56.2248" x2="106.92" y2="49.4706" gradientUnits="userSpaceOnUse">
<stop offset="0.0036" stop-color="#F36F56"/>
<stop offset="0.3059" stop-color="#F99C4C"/>
<stop offset="0.545" stop-color="#FDB946"/>
<stop offset="0.6817" stop-color="#FFC444"/>
<stop offset="0.8038" stop-color="#FFC244"/>
<stop offset="0.8667" stop-color="#FEBA46"/>
<stop offset="0.916" stop-color="#FCAD49"/>
<stop offset="0.958" stop-color="#F99A4D"/>
<stop offset="0.9955" stop-color="#F58152"/>
<stop offset="1" stop-color="#F57E53"/>
</linearGradient>
<linearGradient id="paint39_linear" x1="83.8981" y1="51.6834" x2="125.852" y2="51.6834" gradientUnits="userSpaceOnUse">
<stop stop-color="#F57E53"/>
<stop offset="0.0045" stop-color="#F58152"/>
<stop offset="0.042" stop-color="#F99A4D"/>
<stop offset="0.084" stop-color="#FCAD49"/>
<stop offset="0.1333" stop-color="#FEBA46"/>
<stop offset="0.1962" stop-color="#FFC244"/>
<stop offset="0.3183" stop-color="#FFC444"/>
<stop offset="0.455" stop-color="#FDB946"/>
<stop offset="0.6941" stop-color="#F99C4C"/>
<stop offset="0.9964" stop-color="#F36F56"/>
</linearGradient>
<linearGradient id="paint40_linear" x1="105.07" y1="46.0142" x2="108.232" y2="68.0848" gradientUnits="userSpaceOnUse">
<stop stop-color="#FFDB44"/>
<stop offset="1" stop-color="#FEEF06"/>
</linearGradient>
<linearGradient id="paint41_linear" x1="104.972" y1="45.0235" x2="105.943" y2="51.8017" gradientUnits="userSpaceOnUse">
<stop stop-color="#FFDB44"/>
<stop offset="1" stop-color="#FEEF06"/>
</linearGradient>
<linearGradient id="paint42_linear" x1="105.612" y1="51.1286" x2="104.644" y2="44.3744" gradientUnits="userSpaceOnUse">
<stop offset="0.0036" stop-color="#F36F56"/>
<stop offset="0.3059" stop-color="#F99C4C"/>
<stop offset="0.545" stop-color="#FDB946"/>
<stop offset="0.6817" stop-color="#FFC444"/>
<stop offset="0.8038" stop-color="#FFC244"/>
<stop offset="0.8667" stop-color="#FEBA46"/>
<stop offset="0.916" stop-color="#FCAD49"/>
<stop offset="0.958" stop-color="#F99A4D"/>
<stop offset="0.9955" stop-color="#F58152"/>
<stop offset="1" stop-color="#F57E53"/>
</linearGradient>
<linearGradient id="paint43_linear" x1="124.251" y1="50.4386" x2="154.738" y2="86.1784" gradientUnits="userSpaceOnUse">
<stop stop-color="#F57E53"/>
<stop offset="0.0045" stop-color="#F58152"/>
<stop offset="0.042" stop-color="#F99A4D"/>
<stop offset="0.084" stop-color="#FCAD49"/>
<stop offset="0.1333" stop-color="#FEBA46"/>
<stop offset="0.1962" stop-color="#FFC244"/>
<stop offset="0.3183" stop-color="#FFC444"/>
<stop offset="0.455" stop-color="#FDB946"/>
<stop offset="0.6941" stop-color="#F99C4C"/>
<stop offset="0.9964" stop-color="#F36F56"/>
</linearGradient>
<linearGradient id="paint44_linear" x1="140.372" y1="67.844" x2="124.363" y2="79.9623" gradientUnits="userSpaceOnUse">
<stop stop-color="#FFDB44"/>
<stop offset="1" stop-color="#FEEF06"/>
</linearGradient>
<linearGradient id="paint45_linear" x1="140.986" y1="67.176" x2="136.07" y2="70.8976" gradientUnits="userSpaceOnUse">
<stop stop-color="#FFDB44"/>
<stop offset="1" stop-color="#FEEF06"/>
</linearGradient>
<linearGradient id="paint46_linear" x1="137.21" y1="71.3369" x2="142.109" y2="67.6286" gradientUnits="userSpaceOnUse">
<stop offset="0.0036" stop-color="#F36F56"/>
<stop offset="0.3059" stop-color="#F99C4C"/>
<stop offset="0.545" stop-color="#FDB946"/>
<stop offset="0.6817" stop-color="#FFC444"/>
<stop offset="0.8038" stop-color="#FFC244"/>
<stop offset="0.8667" stop-color="#FEBA46"/>
<stop offset="0.916" stop-color="#FCAD49"/>
<stop offset="0.958" stop-color="#F99A4D"/>
<stop offset="0.9955" stop-color="#F58152"/>
<stop offset="1" stop-color="#F57E53"/>
</linearGradient>
<clipPath id="clip0">
<rect width="196" height="80" fill="white"/>
</clipPath>
</defs>
</svg>
