<svg width="15" height="15" viewBox="0 0 15 15" fill="none" xmlns="http://www.w3.org/2000/svg">
<path d="M7.5 15C11.6421 15 15 11.6421 15 7.5C15 3.35786 11.6421 0 7.5 0C3.35787 0 0 3.35786 0 7.5C0 11.6421 3.35787 15 7.5 15Z" fill="url(#paint0_linear)"/>
<path d="M7.50049 14.4998C11.3665 14.4998 14.5005 11.3657 14.5005 7.49976C14.5005 3.63376 11.3665 0.499756 7.50049 0.499756C3.6345 0.499756 0.500488 3.63376 0.500488 7.49976C0.500488 11.3657 3.6345 14.4998 7.50049 14.4998Z" fill="url(#paint1_linear)"/>
<g opacity="0.75">
<path d="M11.3891 11.3893C13.537 9.24145 13.537 5.75904 11.3891 3.61116C9.2412 1.46328 5.75879 1.46327 3.61091 3.61115C1.46303 5.75903 1.46303 9.24144 3.61091 11.3893C5.7588 13.5372 9.24121 13.5372 11.3891 11.3893Z" fill="white" fill-opacity="0.9"/>
<path d="M6.91493 11.1644V10.5898C6.27934 10.5658 5.65069 10.4244 5.20419 10.2401C5.04475 10.1744 4.96346 10.0057 5.00926 9.84744L5.16415 9.31216C5.22097 9.11579 5.44756 9.01421 5.6467 9.0929C6.08964 9.26791 6.63652 9.40638 7.22623 9.40638C7.83841 9.40638 8.29494 9.21076 8.29494 8.80976C8.29494 8.44793 7.94218 8.2328 7.09135 8.01766C5.87738 7.7047 5.00576 7.20589 5.00576 6.19856C5.00576 5.28899 5.71137 4.59463 6.93572 4.40884V3.8341C6.93572 3.64919 7.09477 3.49927 7.29095 3.49927H7.64918C7.84537 3.49927 8.00442 3.64919 8.00442 3.8341V4.35011C8.59255 4.3723 9.02065 4.4671 9.3604 4.57962C9.53448 4.63727 9.62959 4.814 9.5813 4.98185L9.43885 5.47691C9.38394 5.66782 9.16747 5.77238 8.9712 5.70243C8.65838 5.59093 8.21613 5.47484 7.64127 5.47484C6.91494 5.47484 6.70747 5.75844 6.70747 6.01273C6.70747 6.32568 7.14323 6.54082 8.08742 6.81468C9.4363 7.19611 9.99658 7.7242 9.99658 8.67287C9.99658 9.54327 9.3118 10.3257 7.98368 10.5213V11.1644C7.98368 11.3494 7.82464 11.4993 7.62844 11.4993H7.27018C7.07398 11.4993 6.91493 11.3494 6.91493 11.1644Z" fill="url(#paint2_linear)"/>
</g>
<defs>
<linearGradient id="paint0_linear" x1="-2.76305" y1="19.4125" x2="7.2968" y2="7.73587" gradientUnits="userSpaceOnUse">
<stop offset="0.213542" stop-color="#D93C65"/>
<stop offset="1" stop-color="#FDF53F"/>
</linearGradient>
<linearGradient id="paint1_linear" x1="12.7923" y1="-0.494672" x2="-15.9268" y2="42.8917" gradientUnits="userSpaceOnUse">
<stop stop-color="#FDF53F"/>
<stop offset="1" stop-color="#D93C65"/>
</linearGradient>
<linearGradient id="paint2_linear" x1="11.5157" y1="1.0825" x2="-1.72191" y2="24.6606" gradientUnits="userSpaceOnUse">
<stop stop-color="#FDF53F"/>
<stop offset="1" stop-color="#D93C65"/>
</linearGradient>
</defs>
</svg>
