<svg width="67" height="61" viewBox="0 0 67 61" fill="none" xmlns="http://www.w3.org/2000/svg">
<path d="M56.7067 20.2631C62.3022 20.2631 66.8383 15.727 66.8383 10.1315C66.8383 4.53605 62.3022 0 56.7067 0C51.1112 0 46.5752 4.53605 46.5752 10.1315C46.5752 15.727 51.1112 20.2631 56.7067 20.2631Z" fill="url(#paint0_linear)"/>
<path d="M56.7071 19.588C61.9295 19.588 66.1632 15.3543 66.1632 10.1319C66.1632 4.90942 61.9295 0.675781 56.7071 0.675781C51.4846 0.675781 47.251 4.90942 47.251 10.1319C47.251 15.3543 51.4846 19.588 56.7071 19.588Z" fill="url(#paint1_linear)"/>
<g opacity="0.75">
<path d="M61.9608 15.3856C64.8623 12.4841 64.8623 7.77981 61.9608 4.87829C59.0593 1.97677 54.355 1.97677 51.4535 4.87828C48.552 7.7798 48.552 12.4841 51.4535 15.3856C54.355 18.2871 59.0593 18.2871 61.9608 15.3856Z" fill="white" fill-opacity="0.9"/>
<path d="M55.9166 15.0827V14.3064C55.058 14.274 54.2088 14.083 53.6057 13.8341C53.3903 13.7452 53.2805 13.5174 53.3423 13.3036L53.5516 12.5805C53.6283 12.3152 53.9344 12.178 54.2034 12.2843C54.8018 12.5207 55.5405 12.7078 56.3372 12.7078C57.1641 12.7078 57.7809 12.4435 57.7809 11.9018C57.7809 11.413 57.3043 11.1224 56.155 10.8318C54.515 10.409 53.3376 9.7352 53.3376 8.37442C53.3376 7.14572 54.2908 6.20772 55.9447 5.95675V5.18035C55.9447 4.93056 56.1596 4.72803 56.4246 4.72803H56.9085C57.1735 4.72803 57.3884 4.93056 57.3884 5.18035V5.87741C58.1829 5.90739 58.7612 6.03545 59.2202 6.18745C59.4553 6.26532 59.5838 6.50407 59.5186 6.73081L59.3261 7.39957C59.252 7.65747 58.9595 7.79871 58.6944 7.70422C58.2718 7.5536 57.6744 7.39677 56.8978 7.39677C55.9166 7.39677 55.6364 7.77988 55.6364 8.12339C55.6364 8.54615 56.225 8.83678 57.5005 9.20673C59.3227 9.72199 60.0796 10.4354 60.0796 11.7169C60.0796 12.8927 59.1545 13.9496 57.3604 14.2139V15.0827C57.3604 15.3325 57.1455 15.535 56.8805 15.535H56.3965C56.1315 15.535 55.9166 15.3325 55.9166 15.0827Z" fill="url(#paint2_linear)"/>
</g>
<rect width="21.1441" height="37.8832" transform="translate(45.6938 22.8721)" fill="#FDF3C2"/>
<path d="M66.6837 25.5325H45.8481C45.7629 25.5325 45.6938 25.4819 45.6938 25.4196V22.985C45.6938 22.9226 45.7629 22.8721 45.8481 22.8721H66.6837C66.7689 22.8721 66.8379 22.9226 66.8379 22.985V25.4196C66.8379 25.4819 66.7689 25.5325 66.6837 25.5325Z" fill="url(#paint3_linear)"/>
<path d="M66.6837 29.9546H45.8481C45.7629 29.9546 45.6938 29.904 45.6938 29.8417V27.4071C45.6938 27.3447 45.7629 27.2942 45.8481 27.2942H66.6837C66.7689 27.2942 66.8379 27.3447 66.8379 27.4071V29.8417C66.8379 29.9041 66.7689 29.9546 66.6837 29.9546Z" fill="url(#paint4_linear)"/>
<path d="M66.6837 34.377H45.8481C45.7629 34.377 45.6938 34.3264 45.6938 34.2641V31.8295C45.6938 31.7671 45.7629 31.7166 45.8481 31.7166H66.6837C66.7689 31.7166 66.8379 31.7671 66.8379 31.8295V34.264C66.8379 34.3264 66.7689 34.377 66.6837 34.377Z" fill="url(#paint5_linear)"/>
<path d="M66.6837 38.7991H45.8481C45.7629 38.7991 45.6938 38.7485 45.6938 38.6862V36.2516C45.6938 36.1892 45.7629 36.1387 45.8481 36.1387H66.6837C66.7689 36.1387 66.8379 36.1892 66.8379 36.2516V38.6862C66.8379 38.7485 66.7689 38.7991 66.6837 38.7991Z" fill="url(#paint6_linear)"/>
<path d="M66.6837 43.2215H45.8481C45.7629 43.2215 45.6938 43.1709 45.6938 43.1085V40.674C45.6938 40.6116 45.7629 40.561 45.8481 40.561H66.6837C66.7689 40.561 66.8379 40.6116 66.8379 40.674V43.1085C66.8379 43.1709 66.7689 43.2215 66.6837 43.2215Z" fill="url(#paint7_linear)"/>
<path d="M66.6837 47.6436H45.8481C45.7629 47.6436 45.6938 47.593 45.6938 47.5307V45.0961C45.6938 45.0337 45.7629 44.9832 45.8481 44.9832H66.6837C66.7689 44.9832 66.8379 45.0337 66.8379 45.0961V47.5306C66.8379 47.593 66.7689 47.6436 66.6837 47.6436Z" fill="url(#paint8_linear)"/>
<path d="M66.6837 52.0659H45.8481C45.7629 52.0659 45.6938 52.0154 45.6938 51.953V49.5184C45.6938 49.4561 45.7629 49.4055 45.8481 49.4055H66.6837C66.7689 49.4055 66.8379 49.4561 66.8379 49.5184V51.953C66.8379 52.0154 66.7689 52.0659 66.6837 52.0659Z" fill="url(#paint9_linear)"/>
<path d="M66.6837 56.4881H45.8481C45.7629 56.4881 45.6938 56.4375 45.6938 56.3751V53.9406C45.6938 53.8782 45.7629 53.8276 45.8481 53.8276H66.6837C66.7689 53.8276 66.8379 53.8782 66.8379 53.9406V56.3751C66.8379 56.4375 66.7689 56.4881 66.6837 56.4881Z" fill="url(#paint10_linear)"/>
<path d="M66.6837 60.9102H45.8481C45.7629 60.9102 45.6938 60.8596 45.6938 60.7973V58.3627C45.6938 58.3003 45.7629 58.2498 45.8481 58.2498H66.6837C66.7689 58.2498 66.8379 58.3003 66.8379 58.3627V60.7973C66.8379 60.8596 66.7689 60.9102 66.6837 60.9102Z" fill="url(#paint11_linear)"/>
<path d="M30.7163 33.478C35.5819 33.478 39.5263 29.5336 39.5263 24.6679C39.5263 19.8023 35.5819 15.8579 30.7163 15.8579C25.8506 15.8579 21.9062 19.8023 21.9062 24.6679C21.9062 29.5336 25.8506 33.478 30.7163 33.478Z" fill="url(#paint12_linear)"/>
<path d="M30.7149 32.8902C35.2562 32.8902 38.9376 29.2088 38.9376 24.6675C38.9376 20.1263 35.2562 16.4448 30.7149 16.4448C26.1736 16.4448 22.4922 20.1263 22.4922 24.6675C22.4922 29.2088 26.1736 32.8902 30.7149 32.8902Z" fill="url(#paint13_linear)"/>
<path opacity="0.75" d="M35.2864 29.2364C37.8095 26.7133 37.8095 22.6226 35.2864 20.0996C32.7634 17.5765 28.6727 17.5765 26.1496 20.0996C23.6266 22.6226 23.6266 26.7133 26.1496 29.2364C28.6727 31.7594 32.7634 31.7594 35.2864 29.2364Z" fill="white"/>
<path d="M30.0357 28.9733V28.2982C29.2891 28.2701 28.5506 28.104 28.0261 27.8876C27.8388 27.8103 27.7433 27.6122 27.7971 27.4263L27.9791 26.7975C28.0458 26.5668 28.312 26.4475 28.5459 26.5399C29.0662 26.7455 29.7086 26.9082 30.4013 26.9082C31.1204 26.9082 31.6567 26.6784 31.6567 26.2073C31.6567 25.7823 31.2423 25.5296 30.2429 25.2769C28.8169 24.9092 27.793 24.3233 27.793 23.14C27.793 22.0716 28.6219 21.2559 30.0601 21.0377V20.3626C30.0601 20.1454 30.2469 19.9692 30.4774 19.9692H30.8982C31.1286 19.9692 31.3154 20.1454 31.3154 20.3626V20.9687C32.0063 20.9948 32.5092 21.1061 32.9083 21.2383C33.1128 21.306 33.2245 21.5136 33.1678 21.7108L33.0004 22.2923C32.9359 22.5166 32.6816 22.6394 32.4511 22.5572C32.0836 22.4263 31.5641 22.2899 30.8889 22.2899C30.0357 22.2899 29.792 22.623 29.792 22.9217C29.792 23.2893 30.3038 23.5421 31.413 23.8638C32.9974 24.3118 33.6556 24.9322 33.6556 26.0465C33.6556 27.069 32.8512 27.988 31.2911 28.2178V28.9733C31.2911 29.1905 31.1043 29.3666 30.8738 29.3666H30.453C30.2225 29.3666 30.0357 29.1905 30.0357 28.9733Z" fill="url(#paint14_linear)"/>
<g clip-path="url(#clip0)">
<rect width="17.6201" height="24.6681" transform="translate(21.9062 35.8906)" fill="#FDF3C2"/>
<path d="M39.3978 38.5351H22.0348C21.9638 38.5351 21.9062 38.4848 21.9062 38.4228V36.0029C21.9062 35.9409 21.9638 35.8906 22.0348 35.8906H39.3978C39.4688 35.8906 39.5263 35.9409 39.5263 36.0029V38.4228C39.5263 38.4848 39.4688 38.5351 39.3978 38.5351Z" fill="url(#paint15_linear)"/>
<path d="M39.3978 42.9399H22.0348C21.9638 42.9399 21.9062 42.8896 21.9062 42.8276V40.4076C21.9062 40.3457 21.9638 40.2954 22.0348 40.2954H39.3978C39.4688 40.2954 39.5263 40.3457 39.5263 40.4076V42.8276C39.5263 42.8896 39.4688 42.9399 39.3978 42.9399Z" fill="url(#paint16_linear)"/>
<path d="M39.3978 47.3446H22.0348C21.9638 47.3446 21.9062 47.2944 21.9062 47.2324V44.8124C21.9062 44.7504 21.9638 44.7002 22.0348 44.7002H39.3978C39.4688 44.7002 39.5263 44.7505 39.5263 44.8124V47.2324C39.5263 47.2944 39.4688 47.3446 39.3978 47.3446Z" fill="url(#paint17_linear)"/>
<path d="M39.3978 51.7492H22.0348C21.9638 51.7492 21.9062 51.6989 21.9062 51.6369V49.217C21.9062 49.155 21.9638 49.1047 22.0348 49.1047H39.3978C39.4688 49.1047 39.5263 49.155 39.5263 49.217V51.6369C39.5263 51.6989 39.4688 51.7492 39.3978 51.7492Z" fill="url(#paint18_linear)"/>
<path d="M39.3978 56.154H22.0348C21.9638 56.154 21.9062 56.1037 21.9062 56.0417V53.6218C21.9062 53.5598 21.9638 53.5095 22.0348 53.5095H39.3978C39.4688 53.5095 39.5263 53.5598 39.5263 53.6218V56.0417C39.5263 56.1037 39.4688 56.154 39.3978 56.154Z" fill="url(#paint19_linear)"/>
<path d="M39.3978 60.5588H22.0348C21.9638 60.5588 21.9062 60.5085 21.9062 60.4465V58.0265C21.9062 57.9646 21.9638 57.9143 22.0348 57.9143H39.3978C39.4688 57.9143 39.5263 57.9646 39.5263 58.0265V60.4465C39.5263 60.5085 39.4688 60.5588 39.3978 60.5588Z" fill="url(#paint20_linear)"/>
</g>
<path d="M8.25074 46.6931C12.3865 46.6931 15.7393 43.3404 15.7393 39.2046C15.7393 35.0688 12.3865 31.7161 8.25074 31.7161C4.11494 31.7161 0.762207 35.0688 0.762207 39.2046C0.762207 43.3404 4.11494 46.6931 8.25074 46.6931Z" fill="url(#paint21_linear)"/>
<path d="M8.25053 46.1939C12.1106 46.1939 15.2398 43.0647 15.2398 39.2046C15.2398 35.3445 12.1106 32.2153 8.25053 32.2153C4.39045 32.2153 1.26123 35.3445 1.26123 39.2046C1.26123 43.0647 4.39045 46.1939 8.25053 46.1939Z" fill="url(#paint22_linear)"/>
<path opacity="0.75" d="M12.134 43.0884C14.2786 40.9438 14.2786 37.4667 12.134 35.3221C9.9894 33.1775 6.51232 33.1775 4.36772 35.3221C2.22313 37.4667 2.22313 40.9437 4.36773 43.0883C6.51233 45.233 9.98941 45.233 12.134 43.0884Z" fill="white"/>
<path d="M7.66981 42.8644V42.2906C7.03519 42.2666 6.4075 42.1255 5.96169 41.9415C5.80249 41.8758 5.72133 41.7074 5.76706 41.5494L5.92171 41.0149C5.97844 40.8189 6.20468 40.7175 6.40352 40.796C6.84578 40.9708 7.39183 41.109 7.98064 41.109C8.59188 41.109 9.04771 40.9137 9.04771 40.5133C9.04771 40.152 8.69549 39.9372 7.84596 39.7224C6.63384 39.4099 5.76356 38.9119 5.76356 37.9061C5.76356 36.9979 6.46809 36.3046 7.69057 36.1191V35.5453C7.69057 35.3606 7.84937 35.2109 8.04525 35.2109H8.40293C8.59883 35.2109 8.75763 35.3606 8.75763 35.5453V36.0605C9.34486 36.0826 9.77231 36.1773 10.1115 36.2896C10.2853 36.3472 10.3803 36.5237 10.3321 36.6913L10.1899 37.1856C10.135 37.3762 9.9189 37.4806 9.72293 37.4107C9.4106 37.2994 8.96902 37.1835 8.39504 37.1835C7.66982 37.1835 7.46266 37.4667 7.46266 37.7206C7.46266 38.033 7.89776 38.2478 8.84051 38.5213C10.1873 38.9021 10.7467 39.4294 10.7467 40.3766C10.7467 41.2457 10.063 42.0269 8.73693 42.2222V42.8644C8.73693 43.049 8.57812 43.1987 8.38223 43.1987H8.02452C7.82862 43.1987 7.66981 43.049 7.66981 42.8644Z" fill="url(#paint23_linear)"/>
<g clip-path="url(#clip1)">
<rect width="14.9771" height="11.453" transform="translate(0.762207 49.3362)" fill="#FDF3C2"/>
<path d="M15.6382 52.3362H-1.11376C-1.18226 52.3362 -1.23779 52.2792 -1.23779 52.2089V49.4635C-1.23779 49.3932 -1.18226 49.3362 -1.11376 49.3362H15.6382C15.7067 49.3362 15.7622 49.3932 15.7622 49.4635V52.2089C15.7622 52.2792 15.7067 52.3362 15.6382 52.3362Z" fill="url(#paint24_linear)"/>
<path d="M15.6382 57.3362H-1.11376C-1.18226 57.3362 -1.23779 57.2792 -1.23779 57.2089V54.4635C-1.23779 54.3932 -1.18226 54.3362 -1.11376 54.3362H15.6382C15.7067 54.3362 15.7622 54.3932 15.7622 54.4635V57.2089C15.7622 57.2792 15.7067 57.3362 15.6382 57.3362Z" fill="url(#paint25_linear)"/>
<path d="M15.6382 62.3362H-1.11376C-1.18226 62.3362 -1.23779 62.2792 -1.23779 62.2089V59.4635C-1.23779 59.3932 -1.18226 59.3362 -1.11376 59.3362H15.6382C15.7067 59.3362 15.7622 59.3932 15.7622 59.4635V62.2088C15.7622 62.2792 15.7067 62.3362 15.6382 62.3362Z" fill="url(#paint26_linear)"/>
</g>
<defs>
<linearGradient id="paint0_linear" x1="42.8427" y1="26.2238" x2="56.4322" y2="10.4502" gradientUnits="userSpaceOnUse">
<stop offset="0.213542" stop-color="#D93C65"/>
<stop offset="1" stop-color="#FDF53F"/>
</linearGradient>
<linearGradient id="paint1_linear" x1="63.8557" y1="-0.667564" x2="25.0598" y2="57.9419" gradientUnits="userSpaceOnUse">
<stop stop-color="#FDF53F"/>
<stop offset="1" stop-color="#D93C65"/>
</linearGradient>
<linearGradient id="paint2_linear" x1="62.1317" y1="1.46329" x2="44.2494" y2="33.3143" gradientUnits="userSpaceOnUse">
<stop stop-color="#FDF53F"/>
<stop offset="1" stop-color="#D93C65"/>
</linearGradient>
<linearGradient id="paint3_linear" x1="62.422" y1="16.9764" x2="52.9041" y2="37.8287" gradientUnits="userSpaceOnUse">
<stop stop-color="#FDF53F"/>
<stop offset="1" stop-color="#D93C65"/>
</linearGradient>
<linearGradient id="paint4_linear" x1="62.422" y1="21.3986" x2="52.9041" y2="42.2508" gradientUnits="userSpaceOnUse">
<stop stop-color="#FDF53F"/>
<stop offset="1" stop-color="#D93C65"/>
</linearGradient>
<linearGradient id="paint5_linear" x1="62.422" y1="25.8209" x2="52.904" y2="46.6732" gradientUnits="userSpaceOnUse">
<stop stop-color="#FDF53F"/>
<stop offset="1" stop-color="#D93C65"/>
</linearGradient>
<linearGradient id="paint6_linear" x1="62.422" y1="30.243" x2="52.9041" y2="51.0953" gradientUnits="userSpaceOnUse">
<stop stop-color="#FDF53F"/>
<stop offset="1" stop-color="#D93C65"/>
</linearGradient>
<linearGradient id="paint7_linear" x1="62.422" y1="34.6654" x2="52.9041" y2="55.5177" gradientUnits="userSpaceOnUse">
<stop stop-color="#FDF53F"/>
<stop offset="1" stop-color="#D93C65"/>
</linearGradient>
<linearGradient id="paint8_linear" x1="62.422" y1="39.0875" x2="52.904" y2="59.9398" gradientUnits="userSpaceOnUse">
<stop stop-color="#FDF53F"/>
<stop offset="1" stop-color="#D93C65"/>
</linearGradient>
<linearGradient id="paint9_linear" x1="62.422" y1="43.5099" x2="52.9041" y2="64.3621" gradientUnits="userSpaceOnUse">
<stop stop-color="#FDF53F"/>
<stop offset="1" stop-color="#D93C65"/>
</linearGradient>
<linearGradient id="paint10_linear" x1="62.422" y1="47.932" x2="52.904" y2="68.7843" gradientUnits="userSpaceOnUse">
<stop stop-color="#FDF53F"/>
<stop offset="1" stop-color="#D93C65"/>
</linearGradient>
<linearGradient id="paint11_linear" x1="62.422" y1="52.3541" x2="52.904" y2="73.2064" gradientUnits="userSpaceOnUse">
<stop stop-color="#FDF53F"/>
<stop offset="1" stop-color="#D93C65"/>
</linearGradient>
<linearGradient id="paint12_linear" x1="18.6606" y1="38.6612" x2="30.4776" y2="24.945" gradientUnits="userSpaceOnUse">
<stop offset="0.213542" stop-color="#D93C65"/>
<stop offset="1" stop-color="#FDF53F"/>
</linearGradient>
<linearGradient id="paint13_linear" x1="36.931" y1="15.2767" x2="3.19555" y2="66.2414" gradientUnits="userSpaceOnUse">
<stop stop-color="#FDF53F"/>
<stop offset="1" stop-color="#D93C65"/>
</linearGradient>
<linearGradient id="paint14_linear" x1="35.4401" y1="17.1303" x2="19.8902" y2="44.8269" gradientUnits="userSpaceOnUse">
<stop stop-color="#FDF53F"/>
<stop offset="1" stop-color="#D93C65"/>
</linearGradient>
<linearGradient id="paint15_linear" x1="35.8464" y1="30.0304" x2="25.3283" y2="49.3493" gradientUnits="userSpaceOnUse">
<stop stop-color="#FDF53F"/>
<stop offset="1" stop-color="#D93C65"/>
</linearGradient>
<linearGradient id="paint16_linear" x1="35.8464" y1="34.4352" x2="25.3283" y2="53.754" gradientUnits="userSpaceOnUse">
<stop stop-color="#FDF53F"/>
<stop offset="1" stop-color="#D93C65"/>
</linearGradient>
<linearGradient id="paint17_linear" x1="35.8464" y1="38.8399" x2="25.3282" y2="58.1588" gradientUnits="userSpaceOnUse">
<stop stop-color="#FDF53F"/>
<stop offset="1" stop-color="#D93C65"/>
</linearGradient>
<linearGradient id="paint18_linear" x1="35.8464" y1="43.2445" x2="25.3283" y2="62.5634" gradientUnits="userSpaceOnUse">
<stop stop-color="#FDF53F"/>
<stop offset="1" stop-color="#D93C65"/>
</linearGradient>
<linearGradient id="paint19_linear" x1="35.8464" y1="47.6493" x2="25.3283" y2="66.9682" gradientUnits="userSpaceOnUse">
<stop stop-color="#FDF53F"/>
<stop offset="1" stop-color="#D93C65"/>
</linearGradient>
<linearGradient id="paint20_linear" x1="35.8464" y1="52.0541" x2="25.3282" y2="71.3729" gradientUnits="userSpaceOnUse">
<stop stop-color="#FDF53F"/>
<stop offset="1" stop-color="#D93C65"/>
</linearGradient>
<linearGradient id="paint21_linear" x1="-1.99662" y1="51.0988" x2="8.04785" y2="39.4401" gradientUnits="userSpaceOnUse">
<stop offset="0.213542" stop-color="#D93C65"/>
<stop offset="1" stop-color="#FDF53F"/>
</linearGradient>
<linearGradient id="paint22_linear" x1="13.5343" y1="31.2224" x2="-15.1409" y2="74.5424" gradientUnits="userSpaceOnUse">
<stop stop-color="#FDF53F"/>
<stop offset="1" stop-color="#D93C65"/>
</linearGradient>
<linearGradient id="paint23_linear" x1="12.2636" y1="32.7979" x2="-0.953827" y2="56.3399" gradientUnits="userSpaceOnUse">
<stop stop-color="#FDF53F"/>
<stop offset="1" stop-color="#D93C65"/>
</linearGradient>
<linearGradient id="paint24_linear" x1="12.2118" y1="42.688" x2="-0.69001" y2="62.8414" gradientUnits="userSpaceOnUse">
<stop stop-color="#FDF53F"/>
<stop offset="1" stop-color="#D93C65"/>
</linearGradient>
<linearGradient id="paint25_linear" x1="12.2118" y1="47.688" x2="-0.690009" y2="67.8414" gradientUnits="userSpaceOnUse">
<stop stop-color="#FDF53F"/>
<stop offset="1" stop-color="#D93C65"/>
</linearGradient>
<linearGradient id="paint26_linear" x1="12.2117" y1="52.688" x2="-0.69009" y2="72.8414" gradientUnits="userSpaceOnUse">
<stop stop-color="#FDF53F"/>
<stop offset="1" stop-color="#D93C65"/>
</linearGradient>
<clipPath id="clip0">
<rect width="17.6201" height="24.6681" fill="white" transform="translate(21.9062 35.8906)"/>
</clipPath>
<clipPath id="clip1">
<rect width="14.9771" height="11.453" fill="white" transform="translate(0.762207 49.3362)"/>
</clipPath>
</defs>
</svg>
