<svg width="23" height="23" viewBox="0 0 23 23" fill="none" xmlns="http://www.w3.org/2000/svg">
<path d="M12.8829 9.39766L5.87871 12.563L0 0H8.48497L12.8829 9.39766Z" fill="#7165E3"/>
<path d="M12.8829 9.39766L5.87871 12.563L0 0H8.48497L12.8829 9.39766Z" fill="url(#paint0_linear)"/>
<path d="M12.8829 9.39766L5.87871 12.563L0 0H8.48497L12.8829 9.39766Z" fill="url(#paint1_linear)" fill-opacity="0.5"/>
<path d="M1.47412 0L6.75172 11.2786L7.34186 10.6857L2.34214 0H1.47412Z" fill="white"/>
<path d="M6.04102 0L11.3179 11.2786L11.9088 10.6857L6.90904 0H6.04102Z" fill="white"/>
<path d="M10.1172 9.39766L17.1213 12.563L23 0H14.5151L10.1172 9.39766Z" fill="#7165E3"/>
<path d="M10.1172 9.39766L17.1213 12.563L23 0H14.5151L10.1172 9.39766Z" fill="url(#paint2_linear)"/>
<path d="M10.1172 9.39766L17.1213 12.563L23 0H14.5151L10.1172 9.39766Z" fill="url(#paint3_linear)" fill-opacity="0.5"/>
<path d="M21.5255 0L16.2479 11.2786L15.6577 10.6857L20.6574 0H21.5255Z" fill="white"/>
<path d="M16.9586 0L11.6817 11.2786L11.0908 10.6857L16.0905 0H16.9586Z" fill="white"/>
<path d="M20.4296 14.1702C20.4296 14.9306 19.6486 15.5796 19.4577 16.2804C19.2602 17.0056 19.601 17.9508 19.2266 18.5862C18.8471 19.2302 17.8408 19.4106 17.3092 19.9338C16.7776 20.4563 16.5933 21.4453 15.9381 21.8184C15.2916 22.1857 14.3307 21.8514 13.5929 22.0455C12.8792 22.2324 12.2188 23 11.4459 23C10.6722 23 10.0118 22.2324 9.29884 22.0448C8.56098 21.8507 7.59936 22.1857 6.95291 21.8177C6.29769 21.4446 6.11414 20.4556 5.58177 19.9331C5.05014 19.4106 4.0439 19.2294 3.66437 18.5854C3.29069 17.9501 3.63073 17.0056 3.43329 16.2804C3.24243 15.5796 2.46143 14.9299 2.46143 14.1702C2.46143 13.4097 3.24243 12.7607 3.43329 12.0599C3.63073 11.3347 3.28996 10.3895 3.66437 9.75416C4.0439 9.11016 5.05014 8.92976 5.58177 8.40651C6.11341 7.88397 6.29769 6.89497 6.95291 6.52194C7.59936 6.15466 8.56025 6.48888 9.2981 6.29482C10.0111 6.10722 10.6722 5.3396 11.4451 5.3396C12.2188 5.3396 12.8792 6.10722 13.5921 6.29482C14.33 6.48888 15.2916 6.15394 15.9381 6.52194C16.5933 6.89497 16.7768 7.88397 17.3092 8.40651C17.8408 8.92904 18.8471 9.11016 19.2266 9.75416C19.6003 10.3895 19.2602 11.334 19.4577 12.0592C19.6486 12.7607 20.4296 13.4097 20.4296 14.1702Z" fill="#E5E5E5"/>
<path d="M8.17098 13.1542H6.43054C5.98593 13.1542 5.62175 12.7963 5.62175 12.3593L5.6276 12.3047V12.2925C5.62175 11.8317 6.00421 11.4551 6.47296 11.4551H10.4321C10.9564 11.4551 11.4193 11.0727 11.4507 10.5574C11.4756 10.0176 11.0376 9.56264 10.4877 9.56264H6.29526C5.83236 9.56264 5.48647 9.18027 5.49305 8.7253C5.49305 8.71955 5.49305 8.71955 5.49305 8.71308C5.49305 8.70733 5.49305 8.70733 5.49305 8.70086C5.49158 8.60958 5.51425 8.52405 5.53985 8.44067C4.99871 8.93517 4.03489 9.12421 3.66486 9.75311C3.29118 10.3885 3.63122 11.3329 3.43378 12.0589C3.24292 12.7604 2.46191 13.4094 2.46191 14.1691C2.46191 14.9295 3.24292 15.5786 3.43378 16.2794C3.63122 17.0046 3.29045 17.9497 3.66486 18.5844C4.04439 19.2284 5.05063 19.4088 5.58226 19.9321C6.1139 20.4546 6.29818 21.4443 6.9534 21.8166C7.59985 22.1839 8.56074 21.8497 9.29933 22.0437C9.52822 22.1041 9.75199 22.2256 9.97576 22.3607H11.6014C12.1199 22.3607 12.5828 21.9783 12.6135 21.4687C12.6383 20.9225 12.1996 20.474 11.6504 20.474L7.00898 20.4726C6.46126 20.4726 6.0203 20.0219 6.04955 19.4778C6.0766 18.9675 6.54316 18.5844 7.06309 18.5844H9.18233C9.70007 18.57 10.1176 18.1531 10.1176 17.6407C10.1176 17.1189 9.68544 16.6941 9.15454 16.6941H6.10586C5.66124 16.6941 5.29707 16.3361 5.30365 15.8999V15.833C5.23125 14.8275 6.43712 15.0381 8.1154 15.0381C8.63972 15.0381 9.10262 14.6557 9.13406 14.1461C9.1582 13.6027 8.72016 13.1542 8.17098 13.1542Z" fill="#F0EFEF"/>
<path d="M5.9043 7.98069C6.02057 7.91313 6.14781 7.86426 6.29553 7.86426H10.6839C11.2024 7.86426 11.6653 7.48188 11.696 6.97229C11.7208 6.42604 11.2828 5.97754 10.7329 5.97754H9.97457C9.7508 6.11266 9.52703 6.23485 9.29814 6.29451C8.56028 6.48857 7.59866 6.15363 6.95294 6.52163C6.4491 6.80841 6.22313 7.45744 5.9043 7.98069Z" fill="#F0EFEF"/>
<path d="M11.4691 6.90015C7.40032 6.90015 4.08984 10.1532 4.08984 14.1531C4.08984 18.1522 7.40032 21.406 11.4691 21.406C15.5379 21.406 18.8484 18.1529 18.8484 14.1531C18.8477 10.1532 15.5372 6.90015 11.4691 6.90015ZM11.4691 20.2682C8.03872 20.2682 5.24745 17.5254 5.24745 14.1531C5.24745 10.7807 8.03872 8.03793 11.4691 8.03793C14.8995 8.03793 17.6908 10.7807 17.6908 14.1531C17.6908 17.5254 14.8995 20.2682 11.4691 20.2682Z" fill="#CACACA"/>
<path d="M8.31608 17.8056C8.37166 17.3664 8.48208 17.7258 8.47404 17.0868C8.47038 16.9603 8.46234 16.8338 8.42065 16.693C8.40822 16.6887 8.39579 16.6843 8.38409 16.6793C8.28464 16.7692 8.2254 16.8748 8.1786 16.9869C8.01992 17.3945 8.16032 17.3938 8.18299 17.7675C8.18445 17.7848 8.18007 17.8013 8.1808 17.8178C7.92485 17.485 7.70547 17.1321 7.52484 16.7648C7.55556 16.2948 7.96873 16.2984 7.90803 15.5739C7.89706 15.5667 7.88609 15.5602 7.87512 15.553C7.76105 15.612 7.6828 15.6953 7.61479 15.7873C7.35884 16.1489 7.52996 16.1776 7.42905 16.56C7.26451 16.1927 7.13581 15.8132 7.04513 15.4251C7.15555 14.9795 7.58115 15.0772 7.65647 14.3743C7.64697 14.3649 7.63819 14.3563 7.62868 14.347C7.50949 14.375 7.41881 14.4339 7.33617 14.5022C6.99028 14.8027 7.18992 14.8717 6.99394 15.1893C6.91935 14.8055 6.88059 14.416 6.8784 14.025C7.06634 13.593 7.48024 13.7748 7.67475 13.1395C7.66817 13.1287 7.66086 13.1179 7.65428 13.1064C7.53728 13.1035 7.44148 13.138 7.35153 13.1826C6.96103 13.3903 7.1614 13.5024 6.88279 13.7626C6.89595 13.381 6.94421 13 7.02685 12.6241C7.32155 12.1835 7.65647 12.5142 7.97092 11.9176C7.96653 11.9054 7.96215 11.8932 7.95849 11.8802C7.77713 11.8285 7.53728 11.8917 7.41076 12.0132C7.33617 12.0872 7.2784 12.2015 7.20235 12.2683C7.16944 12.2985 7.13361 12.3194 7.09632 12.3388C7.19723 11.965 7.33325 11.5978 7.50437 11.2427C7.50802 11.247 7.51095 11.2513 7.51461 11.2556C7.96288 10.8043 7.80053 11.2758 8.31608 10.9645C8.39652 10.9135 8.4755 10.8553 8.55375 10.7575C8.55301 10.7439 8.55155 10.7309 8.55082 10.7173C8.46014 10.6627 8.37239 10.6519 8.28391 10.6512C7.85465 10.6634 7.99505 10.8998 7.65428 10.9696C7.65574 10.9609 7.65574 10.9538 7.6572 10.9451C7.93509 10.4384 8.28829 9.95972 8.71682 9.52344C8.31023 9.90941 7.96434 10.3349 7.67987 10.7892C7.68792 10.6655 7.70401 10.6109 7.68865 10.4607C7.6594 10.2817 7.60967 10.1078 7.47439 9.96259C7.45976 9.96763 7.44514 9.97338 7.43051 9.97841C7.20381 10.3694 7.16871 10.8086 7.45391 11.178C7.29084 11.4835 7.15336 11.7997 7.04293 12.1232C6.98955 11.8213 6.87474 11.5208 6.62976 11.3354C6.6166 11.3433 6.60417 11.3512 6.59101 11.3598C6.47108 11.8026 6.55298 12.2784 6.90472 12.5796C6.82063 12.9001 6.76139 13.2264 6.72776 13.5556C6.68242 13.4593 6.63708 13.363 6.58223 13.2768C6.45865 13.1043 6.3219 12.9433 6.1208 12.8398C6.10983 12.8505 6.09959 12.8613 6.08862 12.8714C6.08131 13.3486 6.28387 13.8079 6.69485 14.0508C6.68607 14.3757 6.70216 14.7013 6.74238 15.0248C6.53762 14.7682 6.28168 14.5195 5.95626 14.4167C5.94822 14.4296 5.94017 14.4418 5.93213 14.4548C6.04401 14.9363 6.34896 15.3532 6.82648 15.5329C6.89156 15.8492 6.98078 16.1618 7.09339 16.4687C6.68827 16.151 6.38552 16.0389 6.1442 16.0073C6.13908 16.0217 6.13396 16.036 6.12884 16.0504C6.28533 16.3602 6.48936 16.5665 6.70362 16.7253C6.85938 16.831 7.06268 16.9237 7.30034 16.9675C7.43782 17.2629 7.59943 17.5504 7.78371 17.8279C7.2806 17.5914 6.94056 17.5382 6.69265 17.549C6.69119 17.5641 6.68973 17.5799 6.68753 17.595C6.97931 17.9378 7.37713 18.1937 7.86269 18.2742C7.94971 18.2929 8.03527 18.29 8.12156 18.2908C8.26489 18.4704 8.41919 18.6444 8.58446 18.8126C8.67148 18.727 8.7585 18.6415 8.84626 18.5553C8.65612 18.3748 8.47989 18.1858 8.31754 17.9889C8.3095 17.9271 8.30731 17.8645 8.31608 17.8056Z" fill="#CACACA"/>
<path d="M15.798 16.4717C15.9114 16.1648 15.9999 15.8521 16.0649 15.5359C16.5432 15.3554 16.8481 14.9379 16.9593 14.4577C16.9513 14.4448 16.9432 14.4326 16.9352 14.4196C16.609 14.5224 16.3531 14.7711 16.149 15.0277C16.1893 14.7035 16.2054 14.3779 16.1966 14.0538C16.6076 13.8109 16.8108 13.3516 16.8028 12.8743C16.7918 12.8635 16.7816 12.8528 16.7706 12.8427C16.4825 12.9908 16.3004 13.2682 16.1644 13.5586C16.1308 13.2294 16.0715 12.9031 15.9874 12.5825C16.3377 12.2885 16.4211 11.8055 16.3011 11.3628C16.288 11.3549 16.2756 11.3463 16.2624 11.3384C16.0174 11.5238 15.9026 11.8242 15.8492 12.1261C15.7381 11.8027 15.6013 11.4864 15.4382 11.1809C15.4463 11.1709 15.4536 11.1608 15.4616 11.1508C15.5165 11.0789 15.5611 11.002 15.5852 10.9143C15.6152 10.8295 15.6379 10.7411 15.6437 10.6448C15.643 10.4471 15.6057 10.23 15.4616 9.98207C15.447 9.97704 15.4324 9.97129 15.4178 9.96626C15.1955 10.2049 15.1933 10.4888 15.2123 10.7928C14.9271 10.3393 14.5812 9.91307 14.1753 9.5271C14.6046 9.96338 14.9571 10.4428 15.235 10.9488C15.2364 10.9567 15.2371 10.9646 15.2379 10.9732C15.0477 10.9344 15.0214 10.8252 14.8678 10.7245C14.726 10.634 14.4934 10.6289 14.3421 10.7202C14.3413 10.7339 14.3399 10.7468 14.3391 10.7605C14.4437 10.892 14.6609 11.0509 14.8247 11.0645C15.1172 11.0854 15.0741 10.9524 15.3775 11.2579C15.3812 11.2535 15.3841 11.2492 15.3878 11.2449C15.5589 11.6007 15.6949 11.968 15.7958 12.341C15.4741 12.1764 15.6576 11.9974 15.2276 11.8839C15.1362 11.8623 15.0412 11.8515 14.9344 11.8824C14.93 11.8947 14.9264 11.9076 14.922 11.9198C15.273 12.5868 15.5194 12.1132 15.866 12.6264C15.9487 13.0023 15.9969 13.3839 16.0101 13.7649C15.7373 13.5104 15.9399 13.3969 15.5414 13.1848C15.4514 13.1403 15.3556 13.1058 15.2386 13.1086C15.232 13.1194 15.2247 13.1302 15.2181 13.1417C15.2832 13.3559 15.4587 13.5801 15.5845 13.657C15.8236 13.8008 15.8755 13.7081 16.0145 14.0272C16.0123 14.4182 15.9735 14.8078 15.8989 15.1916C15.703 14.8739 15.9026 14.8049 15.5567 14.5044C15.4741 14.4354 15.3834 14.3772 15.2642 14.3492C15.2547 14.3585 15.2459 14.3672 15.2371 14.3765C15.3132 15.083 15.7388 14.9846 15.8485 15.4273C15.7578 15.8147 15.6291 16.1949 15.4646 16.5622C15.3658 16.187 15.5362 16.1525 15.2788 15.7896C15.2101 15.6976 15.1318 15.6149 15.0185 15.5553C15.0075 15.5624 14.9966 15.5689 14.9856 15.5761C14.9658 15.8119 15.0419 16.1288 15.1275 16.2733C15.2635 16.4968 15.349 16.4753 15.368 16.7671C15.1867 17.1344 14.968 17.4873 14.7121 17.82C14.7143 17.557 14.7669 17.5857 14.7823 17.355C14.7955 17.1322 14.6836 16.8382 14.5088 16.6815C14.4964 16.6859 14.4839 16.6902 14.4722 16.6952C14.2645 17.4017 14.628 17.5987 14.5746 17.9933C14.4115 18.1902 14.2353 18.3792 14.0459 18.5596C14.1329 18.6452 14.2199 18.7307 14.3077 18.8169C14.473 18.6488 14.6273 18.4748 14.7706 18.2951C15.3556 18.2908 15.8463 18.0206 16.2039 17.5994C16.2024 17.5843 16.201 17.5685 16.1988 17.5534C15.9509 17.5426 15.6108 17.5965 15.1077 17.8323C15.2927 17.5548 15.4536 17.2666 15.5911 16.9719C16.1132 16.8756 16.5256 16.5249 16.7626 16.0548C16.7575 16.0404 16.7523 16.026 16.7472 16.0117C16.5059 16.0419 16.2032 16.154 15.798 16.4717Z" fill="#CACACA"/>
<path d="M13.645 17.2498H9.38838V16.3438L11.3491 14.3179C11.8323 13.7771 12.0739 13.3474 12.0739 13.029C12.0739 12.7709 12.0167 12.5747 11.9021 12.4401C11.7876 12.3056 11.6214 12.2384 11.4036 12.2384C11.1885 12.2384 11.0139 12.329 10.8799 12.5101C10.7458 12.6886 10.6788 12.9123 10.6788 13.1813H9.2627C9.2627 12.8135 9.35626 12.4745 9.5434 12.1642C9.73053 11.8513 9.99029 11.607 10.3227 11.4313C10.655 11.2556 11.0265 11.1677 11.4371 11.1677C12.0963 11.1677 12.6032 11.3173 12.9579 11.6166C13.3154 11.9158 13.4942 12.3454 13.4942 12.9055C13.4942 13.1415 13.4495 13.3721 13.3601 13.5972C13.2707 13.8196 13.1311 14.0543 12.9412 14.3014C12.754 14.5457 12.451 14.8738 12.032 15.2856L11.2444 16.1791H13.645V17.2498Z" fill="#9C9C9C"/>
<defs>
<linearGradient id="paint0_linear" x1="6.44143" y1="0" x2="6.44143" y2="12.563" gradientUnits="userSpaceOnUse">
<stop stop-color="#9274F4"/>
<stop offset="1" stop-color="#5E50E0"/>
</linearGradient>
<linearGradient id="paint1_linear" x1="15.1233" y1="10.558" x2="8.89671" y2="-2.28099" gradientUnits="userSpaceOnUse">
<stop stop-color="#5E52D2"/>
<stop offset="1" stop-color="#B697F9"/>
</linearGradient>
<linearGradient id="paint2_linear" x1="16.5586" y1="0" x2="16.5586" y2="12.563" gradientUnits="userSpaceOnUse">
<stop stop-color="#9274F4"/>
<stop offset="1" stop-color="#5E50E0"/>
</linearGradient>
<linearGradient id="paint3_linear" x1="25.2405" y1="10.558" x2="19.0139" y2="-2.28099" gradientUnits="userSpaceOnUse">
<stop stop-color="#5E52D2"/>
<stop offset="1" stop-color="#B697F9"/>
</linearGradient>
</defs>
</svg>
