<svg width="20" height="18" viewBox="0 0 20 18" fill="none" xmlns="http://www.w3.org/2000/svg">
<path fill-rule="evenodd" clip-rule="evenodd" d="M3.34667 4.83341C3.34667 2.50008 5.18731 0.666748 7.52995 0.666748C9.87258 0.666748 11.7132 2.50008 11.7132 4.83341C11.7132 7.16675 9.87258 9.00008 7.52995 9.00008C5.18731 9.00008 3.34667 7.16675 3.34667 4.83341ZM15.0598 14.8334V16.5001C15.0598 17.0001 14.7251 17.3334 14.2231 17.3334C13.7211 17.3334 13.3865 17.0001 13.3865 16.5001V14.8334C13.3865 13.4167 12.2988 12.3334 10.8765 12.3334H4.18328C2.76096 12.3334 1.67331 13.4167 1.67331 14.8334V16.5001C1.67331 17.0001 1.33865 17.3334 0.836655 17.3334C0.334662 17.3334 0 17.0001 0 16.5001V14.8334C0 12.5001 1.84064 10.6667 4.18328 10.6667H10.8765C13.2192 10.6667 15.0598 12.5001 15.0598 14.8334ZM7.52998 7.33341C6.10766 7.33341 5.02001 6.25008 5.02001 4.83341C5.02001 3.41675 6.10766 2.33341 7.52998 2.33341C8.95229 2.33341 10.0399 3.41675 10.0399 4.83341C10.0399 6.25008 8.95229 7.33341 7.52998 7.33341ZM16.9004 10.8334C16.4821 10.7501 15.9801 11.0001 15.8964 11.4167C15.8128 11.8334 16.0638 12.3334 16.4821 12.4167C17.5697 12.6667 18.3227 13.6667 18.3227 14.8334V16.5001C18.3227 17.0001 18.6574 17.3334 19.1594 17.3334C19.6614 17.3334 19.996 17.0001 19.996 16.5001V14.8334C20.0797 12.9167 18.8247 11.2501 16.9004 10.8334ZM12.5499 1.41677C12.7172 0.916767 13.1355 0.666767 13.5538 0.833433C15.8128 1.33343 17.1515 3.66677 16.5658 6.0001C16.2311 7.5001 15.0598 8.58343 13.5538 9.0001H13.3865C12.9682 9.0001 12.6335 8.7501 12.5499 8.33343C12.3825 7.91677 12.7172 7.41677 13.1355 7.33343C14.0558 7.08343 14.7252 6.41677 14.9762 5.5001C15.3108 4.08343 14.4742 2.7501 13.1355 2.41677C12.7172 2.33343 12.4662 1.83343 12.5499 1.41677Z" fill="#AD8AF9"/>
</svg>
