<svg width="16" height="16" viewBox="0 0 16 16" fill="none" xmlns="http://www.w3.org/2000/svg">
<path fill-rule="evenodd" clip-rule="evenodd" d="M0.5 3.41667C0.5 1.83333 1.83333 0.5 3.41667 0.5C5 0.5 6.33333 1.83333 6.33333 3.41667C6.33333 5 5 6.33333 3.41667 6.33333C1.83333 6.33333 0.5 5 0.5 3.41667ZM14.4167 2.75L2.75 14.4167C2.58333 14.5833 2.41667 14.6667 2.16667 14.6667C1.91667 14.6667 1.75 14.5833 1.58333 14.4167C1.25 14.0833 1.25 13.5833 1.58333 13.25L13.25 1.58333C13.5833 1.25 14.0833 1.25 14.4167 1.58333C14.75 1.91667 14.75 2.41667 14.4167 2.75ZM3.41667 4.66667C2.75 4.66667 2.16667 4.08333 2.16667 3.41667C2.16667 2.75 2.75 2.16667 3.41667 2.16667C4.08333 2.16667 4.66667 2.75 4.66667 3.41667C4.66667 4.08333 4.08333 4.66667 3.41667 4.66667ZM15.5 12.5833C15.5 14.1667 14.1667 15.5 12.5833 15.5C11 15.5 9.66667 14.1667 9.66667 12.5833C9.66667 11 11 9.66667 12.5833 9.66667C14.1667 9.66667 15.5 11 15.5 12.5833ZM12.5833 11.3333C13.25 11.3333 13.8333 11.9167 13.8333 12.5833C13.8333 13.25 13.25 13.8333 12.5833 13.8333C11.9167 13.8333 11.3333 13.25 11.3333 12.5833C11.3333 11.9167 11.9167 11.3333 12.5833 11.3333Z" fill="#AD8AF9"/>
</svg>
