<svg width="17" height="18" viewBox="0 0 17 18" fill="none" xmlns="http://www.w3.org/2000/svg">
<path d="M4.1142 3.05737L8.48765 3.91742L12.8848 3.05737L13.5617 7.93888L15.5913 11.859L11.4352 13.9581L8.51135 17.2969L5.49114 13.9835L1.40771 11.8843L3.29257 7.96422L4.1142 3.05737Z" fill="#FECD5E"/>
<path d="M4.11475 3.05786L8.50004 9.83956L8.48819 3.91791L4.11475 3.05786Z" fill="#FCF165"/>
<path d="M8.5 9.83956L12.8853 3.05786L13.5622 7.93937L8.5 9.83956Z" fill="#FCF165"/>
<path d="M15.5918 11.8595L11.4357 13.9587L8.5 9.8396L15.5918 11.8595Z" fill="#FCF165"/>
<path d="M8.51142 17.2975L5.49121 13.984L8.49957 9.8396L8.51142 17.2975Z" fill="#FCF165"/>
<path d="M1.4082 11.8847L3.29306 7.9646L8.49999 9.83945L1.4082 11.8847Z" fill="#FCF165"/>
<path d="M8.49996 0L10.3884 6.08395H16.4999L11.5557 9.84389L13.4442 15.9278L8.49996 12.1679L3.55575 15.9278L5.44421 9.84389L0.5 6.08395H6.61149L8.49996 0Z" fill="url(#paint0_linear)"/>
<path d="M8.5 0V8.68404L10.3885 6.08395L8.5 0Z" fill="url(#paint1_linear)"/>
<path d="M8.5 8.68407L16.5 6.08398L11.5557 9.84392L8.5 8.68407Z" fill="url(#paint2_linear)"/>
<path d="M8.5 8.68408L13.4442 15.9279L8.5 12.1679V8.68408Z" fill="url(#paint3_linear)"/>
<path d="M8.50036 8.68408L5.44462 9.84393L3.55615 15.9279L8.50036 8.68408Z" fill="url(#paint4_linear)"/>
<path d="M0.5 6.08398H6.6115L8.49996 8.68407L0.5 6.08398Z" fill="url(#paint5_linear)"/>
<defs>
<linearGradient id="paint0_linear" x1="0.5" y1="15.9278" x2="16.4999" y2="15.9278" gradientUnits="userSpaceOnUse">
<stop stop-color="#BB9BF1"/>
<stop offset="1" stop-color="#887BF2"/>
</linearGradient>
<linearGradient id="paint1_linear" x1="10.7169" y1="7.29808" x2="6.69289" y2="5.53852" gradientUnits="userSpaceOnUse">
<stop stop-color="#5E52D2"/>
<stop offset="1" stop-color="#B697F9"/>
</linearGradient>
<linearGradient id="paint2_linear" x1="17.8913" y1="9.24384" x2="16.8393" y2="4.74341" gradientUnits="userSpaceOnUse">
<stop stop-color="#5E52D2"/>
<stop offset="1" stop-color="#B697F9"/>
</linearGradient>
<linearGradient id="paint3_linear" x1="14.3041" y1="14.7718" x2="9.95194" y2="8.79879" gradientUnits="userSpaceOnUse">
<stop stop-color="#5E52D2"/>
<stop offset="1" stop-color="#B697F9"/>
</linearGradient>
<linearGradient id="paint4_linear" x1="9.36023" y1="14.7718" x2="5.00809" y2="8.79878" gradientUnits="userSpaceOnUse">
<stop stop-color="#5E52D2"/>
<stop offset="1" stop-color="#B697F9"/>
</linearGradient>
<linearGradient id="paint5_linear" x1="9.89126" y1="8.26911" x2="9.37424" y2="5.07048" gradientUnits="userSpaceOnUse">
<stop stop-color="#5E52D2"/>
<stop offset="1" stop-color="#B697F9"/>
</linearGradient>
</defs>
</svg>
