<svg width="191" height="190" viewBox="0 0 191 190" fill="none" xmlns="http://www.w3.org/2000/svg">
<g filter="url(#filter0_d)">
<circle cx="95.5" cy="85.5" r="72.5" fill="white"/>
<path fill-rule="evenodd" clip-rule="evenodd" d="M22 84.9194C22 125.744 55.0948 158.839 95.9194 158.839C136.744 158.839 169.839 125.744 169.839 84.9194C169.839 44.0948 136.744 11 95.9194 11C55.0948 11 22 44.0948 22 84.9194ZM162.019 84.9193C162.019 121.426 132.425 151.02 95.9192 151.02C59.413 151.02 29.8188 121.426 29.8188 84.9193C29.8188 48.4131 59.413 18.819 95.9192 18.819C132.425 18.819 162.019 48.4131 162.019 84.9193Z" fill="#EDEEFF"/>
<path fill-rule="evenodd" clip-rule="evenodd" d="M95.9194 159.839C54.5425 159.839 21 126.296 21 84.9194C21 43.5425 54.5425 10 95.9194 10C137.296 10 170.839 43.5425 170.839 84.9194C170.839 126.296 137.296 159.839 95.9194 159.839ZM95.9192 150.02C131.873 150.02 161.019 120.873 161.019 84.9193C161.019 48.9654 131.873 19.819 95.9192 19.819C59.9652 19.819 30.8188 48.9654 30.8188 84.9193C30.8188 120.873 59.9652 150.02 95.9192 150.02ZM95.9194 158.839C55.0948 158.839 22 125.744 22 84.9194C22 44.0948 55.0948 11 95.9194 11C136.744 11 169.839 44.0948 169.839 84.9194C169.839 125.744 136.744 158.839 95.9194 158.839ZM95.9192 151.02C132.425 151.02 162.019 121.426 162.019 84.9193C162.019 48.4131 132.425 18.819 95.9192 18.819C59.413 18.819 29.8188 48.4131 29.8188 84.9193C29.8188 121.426 59.413 151.02 95.9192 151.02Z" fill="#EDEEFF"/>
<path d="M25.9742 58.4237C26.7538 56.4051 29.0321 55.3968 31.0629 56.1717C33.0938 56.9466 34.1081 59.2112 33.3286 61.2299C20.1481 95.3605 37.2983 133.65 71.6346 146.751C105.971 159.853 144.491 142.805 157.671 108.675C170.852 74.544 153.702 36.2548 119.365 23.1533C112.749 20.6287 105.881 19.1854 98.9518 18.8266C96.7794 18.7141 95.1101 16.8724 95.2233 14.713C95.3365 12.5537 97.1893 10.8944 99.3617 11.0069C107.114 11.4084 114.797 13.0228 122.188 15.843C160.586 30.4943 179.765 73.3129 165.026 111.481C150.286 149.649 107.21 168.713 68.8116 154.062C30.4135 139.41 11.2346 96.5917 25.9742 58.4237Z" fill="url(#paint0_radial)"/>
<path fill-rule="evenodd" clip-rule="evenodd" d="M25.0337 58.0648C26.0126 55.5298 28.8737 54.2636 31.424 55.2367C33.9743 56.2098 35.2481 59.0537 34.2691 61.5888C21.288 95.2031 38.1788 132.913 71.9957 145.816C105.813 158.72 143.75 141.93 156.731 108.316C169.712 74.7015 152.821 36.9915 119.004 24.0882C112.486 21.6012 105.722 20.18 98.8994 19.8267C96.1714 19.6854 94.0751 17.3726 94.2172 14.6609C94.3593 11.9492 96.6861 9.8655 99.4141 10.0068C107.273 10.4138 115.06 12.0503 122.549 14.9081C161.467 29.7576 180.905 73.1554 165.966 111.84C151.027 150.524 107.368 169.846 68.4505 154.996C29.533 140.147 10.0947 96.7492 25.0337 58.0648ZM31.0629 56.1717C29.0321 55.3968 26.7538 56.4051 25.9742 58.4237C11.2346 96.5917 30.4135 139.41 68.8116 154.062C107.21 168.713 150.286 149.649 165.026 111.481C179.765 73.3129 160.586 30.4943 122.188 15.843C114.797 13.0228 107.114 11.4084 99.3617 11.0069C97.1893 10.8944 95.3365 12.5537 95.2233 14.713C95.1101 16.8724 96.7794 18.7141 98.9518 18.8266C105.881 19.1854 112.749 20.6287 119.365 23.1533C153.702 36.2548 170.852 74.544 157.671 108.675C144.491 142.805 105.971 159.853 71.6346 146.751C37.2983 133.65 20.1481 95.3605 33.3286 61.2299C34.1081 59.2112 33.0938 56.9466 31.0629 56.1717Z" fill="url(#paint1_radial)"/>
<path fill-rule="evenodd" clip-rule="evenodd" d="M67.4679 134.218C94.6909 149.935 129.501 140.608 145.218 113.385C160.935 86.1619 151.608 51.3521 124.385 35.6349C97.1619 19.9178 62.3521 29.245 46.6349 56.4679C30.9178 83.6909 40.245 118.501 67.4679 134.218ZM119.986 43.2543C143 56.5419 150.886 85.9709 137.598 108.986C124.311 132 94.8817 139.886 71.8669 126.598C48.8521 113.311 40.9667 83.8818 54.2543 60.867C67.5419 37.8522 96.9708 29.9667 119.986 43.2543Z" fill="#FFF6ED"/>
<path d="M147.198 59.9791C148.263 62.1627 147.356 64.7963 145.172 65.8614C142.989 66.9264 140.355 66.0196 139.29 63.8359C127.64 39.9503 98.833 30.0312 74.9473 41.681C67.2368 45.4417 60.8135 51.0713 56.1338 58.029C54.7778 60.045 52.0444 60.5801 50.0284 59.2242C48.0124 57.8682 47.4773 55.1347 48.8333 53.1188C54.3715 44.8847 61.9789 38.2172 71.0904 33.7732C99.3434 19.9933 133.418 31.7261 147.198 59.9791Z" fill="url(#paint2_radial)"/>
<path d="M80.305 73.81C79.2857 73.81 78.4937 73.5607 77.929 73.062C77.3644 72.5633 77.082 71.8337 77.082 70.873V66.132H78.677V70.796C78.677 71.3387 78.8164 71.753 79.095 72.039C79.381 72.3177 79.7844 72.457 80.305 72.457C80.8257 72.457 81.229 72.3177 81.515 72.039C81.8084 71.753 81.955 71.3387 81.955 70.796V66.132H83.55V70.873C83.55 71.8337 83.264 72.5633 82.692 73.062C82.1274 73.5607 81.3317 73.81 80.305 73.81Z" fill="#959BAD"/>
<path d="M86.0205 66.132H89.6175C90.4608 66.132 91.0952 66.3483 91.5205 66.781C91.9458 67.2063 92.1585 67.8113 92.1585 68.596C92.1585 69.3807 91.9348 69.993 91.4875 70.433C91.0475 70.8657 90.3875 71.082 89.5075 71.082H87.6155V73.678H86.0205V66.132ZM89.4745 69.729C89.8192 69.729 90.0832 69.63 90.2665 69.432C90.4498 69.234 90.5415 68.9553 90.5415 68.596C90.5415 68.244 90.4498 67.9727 90.2665 67.782C90.0832 67.584 89.8192 67.485 89.4745 67.485H87.6155V69.729H89.4745Z" fill="#959BAD"/>
<path d="M100.052 67.507H97.7196V66.132H103.979V67.507H101.647V73.678H100.052V67.507Z" fill="#959BAD"/>
<path d="M109.299 73.81C108.089 73.81 107.15 73.4873 106.483 72.842C105.816 72.1893 105.482 71.2103 105.482 69.905C105.482 68.5997 105.816 67.6243 106.483 66.979C107.15 66.3263 108.089 66 109.299 66C110.516 66 111.459 66.3263 112.126 66.979C112.793 67.6243 113.127 68.5997 113.127 69.905C113.127 71.2103 112.793 72.1893 112.126 72.842C111.459 73.4873 110.516 73.81 109.299 73.81ZM109.299 72.457C110.018 72.457 110.56 72.2517 110.927 71.841C111.301 71.423 111.488 70.8327 111.488 70.07V69.74C111.488 68.9773 111.301 68.3907 110.927 67.98C110.56 67.562 110.018 67.353 109.299 67.353C108.58 67.353 108.038 67.562 107.671 67.98C107.304 68.3907 107.121 68.9773 107.121 69.74V70.07C107.121 70.8327 107.304 71.423 107.671 71.841C108.038 72.2517 108.58 72.457 109.299 72.457Z" fill="#959BAD"/>
<path d="M57.604 96.7361V95.4271C56.4933 95.3024 55.615 94.9057 54.969 94.2371C54.323 93.5684 54 92.7184 54 91.6871H55.496C55.496 92.2877 55.6717 92.8261 56.023 93.3021C56.3857 93.7667 56.9127 94.0671 57.604 94.2031V89.5961C57.5247 89.5734 57.4397 89.5507 57.349 89.5281C57.2697 89.4941 57.1903 89.4657 57.111 89.4431C56.193 89.1257 55.513 88.7347 55.071 88.2701C54.629 87.7941 54.408 87.1764 54.408 86.4171C54.3967 85.5331 54.6743 84.7964 55.241 84.2071C55.819 83.6177 56.6067 83.2777 57.604 83.1871V81.8101H58.777V83.1871C59.729 83.3004 60.4883 83.6574 61.055 84.2581C61.6217 84.8587 61.9107 85.5897 61.922 86.4511H60.426C60.426 86.0317 60.29 85.6294 60.018 85.2441C59.746 84.8474 59.3323 84.5811 58.777 84.4451V88.5591C58.8677 88.5817 58.9583 88.6101 59.049 88.6441C59.1397 88.6781 59.236 88.7064 59.338 88.7291C59.9047 88.9331 60.4147 89.1711 60.868 89.4431C61.3213 89.7151 61.6727 90.0664 61.922 90.4971C62.1827 90.9277 62.313 91.4774 62.313 92.1461C62.313 92.6787 62.1827 93.1831 61.922 93.6591C61.6613 94.1351 61.2647 94.5374 60.732 94.8661C60.2107 95.1947 59.559 95.3874 58.777 95.4441V96.7361H57.604ZM55.887 86.2811C55.887 86.8024 56.04 87.1991 56.346 87.4711C56.652 87.7317 57.0713 87.9584 57.604 88.1511V84.4111C57.094 84.4904 56.6803 84.6944 56.363 85.0231C56.0457 85.3404 55.887 85.7597 55.887 86.2811ZM60.834 92.2311C60.834 91.5737 60.6413 91.0864 60.256 90.7691C59.8707 90.4517 59.3777 90.1911 58.777 89.9871V94.2371C59.4343 94.1577 59.9387 93.9311 60.29 93.5571C60.6527 93.1831 60.834 92.7411 60.834 92.2311Z" fill="#201D40"/>
<path d="M57.604 96.7361V95.4271C56.4933 95.3024 55.615 94.9057 54.969 94.2371C54.323 93.5684 54 92.7184 54 91.6871H55.496C55.496 92.2877 55.6717 92.8261 56.023 93.3021C56.3857 93.7667 56.9127 94.0671 57.604 94.2031V89.5961C57.5247 89.5734 57.4397 89.5507 57.349 89.5281C57.2697 89.4941 57.1903 89.4657 57.111 89.4431C56.193 89.1257 55.513 88.7347 55.071 88.2701C54.629 87.7941 54.408 87.1764 54.408 86.4171C54.3967 85.5331 54.6743 84.7964 55.241 84.2071C55.819 83.6177 56.6067 83.2777 57.604 83.1871V81.8101H58.777V83.1871C59.729 83.3004 60.4883 83.6574 61.055 84.2581C61.6217 84.8587 61.9107 85.5897 61.922 86.4511H60.426C60.426 86.0317 60.29 85.6294 60.018 85.2441C59.746 84.8474 59.3323 84.5811 58.777 84.4451V88.5591C58.8677 88.5817 58.9583 88.6101 59.049 88.6441C59.1397 88.6781 59.236 88.7064 59.338 88.7291C59.9047 88.9331 60.4147 89.1711 60.868 89.4431C61.3213 89.7151 61.6727 90.0664 61.922 90.4971C62.1827 90.9277 62.313 91.4774 62.313 92.1461C62.313 92.6787 62.1827 93.1831 61.922 93.6591C61.6613 94.1351 61.2647 94.5374 60.732 94.8661C60.2107 95.1947 59.559 95.3874 58.777 95.4441V96.7361H57.604ZM55.887 86.2811C55.887 86.8024 56.04 87.1991 56.346 87.4711C56.652 87.7317 57.0713 87.9584 57.604 88.1511V84.4111C57.094 84.4904 56.6803 84.6944 56.363 85.0231C56.0457 85.3404 55.887 85.7597 55.887 86.2811ZM60.834 92.2311C60.834 91.5737 60.6413 91.0864 60.256 90.7691C59.8707 90.4517 59.3777 90.1911 58.777 89.9871V94.2371C59.4343 94.1577 59.9387 93.9311 60.29 93.5571C60.6527 93.1831 60.834 92.7411 60.834 92.2311Z" fill="url(#paint3_linear)" fill-opacity="0.15"/>
<path d="M68.1291 95.4611C67.3471 95.4611 66.6388 95.3251 66.0041 95.0531C65.3695 94.7697 64.8595 94.3391 64.4741 93.7611C64.0888 93.1831 63.8848 92.4577 63.8621 91.5851H66.0041C66.0155 92.1631 66.2025 92.6504 66.5651 93.0471C66.9391 93.4324 67.4605 93.6251 68.1291 93.6251C68.7638 93.6251 69.2511 93.4494 69.5911 93.0981C69.9311 92.7467 70.1011 92.3047 70.1011 91.7721C70.1011 91.1487 69.8745 90.6784 69.4211 90.3611C68.9791 90.0324 68.4068 89.8681 67.7041 89.8681H66.8201V88.0831H67.7211C68.2991 88.0831 68.7808 87.9471 69.1661 87.6751C69.5515 87.4031 69.7441 87.0007 69.7441 86.4681C69.7441 86.0261 69.5968 85.6747 69.3021 85.4141C69.0188 85.1421 68.6221 85.0061 68.1121 85.0061C67.5568 85.0061 67.1205 85.1704 66.8031 85.4991C66.4971 85.8277 66.3271 86.2301 66.2931 86.7061H64.1681C64.2135 85.6067 64.5931 84.7397 65.3071 84.1051C66.0325 83.4704 66.9675 83.1531 68.1121 83.1531C68.9281 83.1531 69.6138 83.3004 70.1691 83.5951C70.7358 83.8784 71.1608 84.2581 71.4441 84.7341C71.7388 85.2101 71.8861 85.7371 71.8861 86.3151C71.8861 86.9837 71.6991 87.5504 71.3251 88.0151C70.9625 88.4684 70.5091 88.7744 69.9651 88.9331C70.6338 89.0691 71.1778 89.3977 71.5971 89.9191C72.0165 90.4291 72.2261 91.0751 72.2261 91.8571C72.2261 92.5144 72.0675 93.1151 71.7501 93.6591C71.4328 94.2031 70.9681 94.6394 70.3561 94.9681C69.7555 95.2967 69.0131 95.4611 68.1291 95.4611Z" fill="#201D40"/>
<path d="M68.1291 95.4611C67.3471 95.4611 66.6388 95.3251 66.0041 95.0531C65.3695 94.7697 64.8595 94.3391 64.4741 93.7611C64.0888 93.1831 63.8848 92.4577 63.8621 91.5851H66.0041C66.0155 92.1631 66.2025 92.6504 66.5651 93.0471C66.9391 93.4324 67.4605 93.6251 68.1291 93.6251C68.7638 93.6251 69.2511 93.4494 69.5911 93.0981C69.9311 92.7467 70.1011 92.3047 70.1011 91.7721C70.1011 91.1487 69.8745 90.6784 69.4211 90.3611C68.9791 90.0324 68.4068 89.8681 67.7041 89.8681H66.8201V88.0831H67.7211C68.2991 88.0831 68.7808 87.9471 69.1661 87.6751C69.5515 87.4031 69.7441 87.0007 69.7441 86.4681C69.7441 86.0261 69.5968 85.6747 69.3021 85.4141C69.0188 85.1421 68.6221 85.0061 68.1121 85.0061C67.5568 85.0061 67.1205 85.1704 66.8031 85.4991C66.4971 85.8277 66.3271 86.2301 66.2931 86.7061H64.1681C64.2135 85.6067 64.5931 84.7397 65.3071 84.1051C66.0325 83.4704 66.9675 83.1531 68.1121 83.1531C68.9281 83.1531 69.6138 83.3004 70.1691 83.5951C70.7358 83.8784 71.1608 84.2581 71.4441 84.7341C71.7388 85.2101 71.8861 85.7371 71.8861 86.3151C71.8861 86.9837 71.6991 87.5504 71.3251 88.0151C70.9625 88.4684 70.5091 88.7744 69.9651 88.9331C70.6338 89.0691 71.1778 89.3977 71.5971 89.9191C72.0165 90.4291 72.2261 91.0751 72.2261 91.8571C72.2261 92.5144 72.0675 93.1151 71.7501 93.6591C71.4328 94.2031 70.9681 94.6394 70.3561 94.9681C69.7555 95.2967 69.0131 95.4611 68.1291 95.4611Z" fill="url(#paint4_linear)" fill-opacity="0.15"/>
<path d="M79.2421 95.4611C78.1427 95.4611 77.2021 95.2061 76.4201 94.6961C75.6381 94.1747 75.0317 93.4551 74.6011 92.5371C74.1817 91.6077 73.9721 90.5311 73.9721 89.3071C73.9721 88.0944 74.1817 87.0234 74.6011 86.0941C75.0317 85.1647 75.6381 84.4451 76.4201 83.9351C77.2021 83.4137 78.1427 83.1531 79.2421 83.1531C80.3414 83.1531 81.2821 83.4137 82.0641 83.9351C82.8461 84.4451 83.4467 85.1647 83.8661 86.0941C84.2967 87.0234 84.5121 88.0944 84.5121 89.3071C84.5121 90.5311 84.2967 91.6077 83.8661 92.5371C83.4467 93.4551 82.8461 94.1747 82.0641 94.6961C81.2821 95.2061 80.3414 95.4611 79.2421 95.4611ZM79.2421 93.5061C80.1374 93.5061 80.8684 93.1321 81.4351 92.3841C82.0017 91.6361 82.2851 90.6104 82.2851 89.3071C82.2851 88.0037 82.0017 86.9781 81.4351 86.2301C80.8684 85.4821 80.1374 85.1081 79.2421 85.1081C78.3354 85.1081 77.5987 85.4821 77.0321 86.2301C76.4767 86.9781 76.1991 88.0037 76.1991 89.3071C76.1991 90.6104 76.4767 91.6361 77.0321 92.3841C77.5987 93.1321 78.3354 93.5061 79.2421 93.5061Z" fill="#201D40"/>
<path d="M79.2421 95.4611C78.1427 95.4611 77.2021 95.2061 76.4201 94.6961C75.6381 94.1747 75.0317 93.4551 74.6011 92.5371C74.1817 91.6077 73.9721 90.5311 73.9721 89.3071C73.9721 88.0944 74.1817 87.0234 74.6011 86.0941C75.0317 85.1647 75.6381 84.4451 76.4201 83.9351C77.2021 83.4137 78.1427 83.1531 79.2421 83.1531C80.3414 83.1531 81.2821 83.4137 82.0641 83.9351C82.8461 84.4451 83.4467 85.1647 83.8661 86.0941C84.2967 87.0234 84.5121 88.0944 84.5121 89.3071C84.5121 90.5311 84.2967 91.6077 83.8661 92.5371C83.4467 93.4551 82.8461 94.1747 82.0641 94.6961C81.2821 95.2061 80.3414 95.4611 79.2421 95.4611ZM79.2421 93.5061C80.1374 93.5061 80.8684 93.1321 81.4351 92.3841C82.0017 91.6361 82.2851 90.6104 82.2851 89.3071C82.2851 88.0037 82.0017 86.9781 81.4351 86.2301C80.8684 85.4821 80.1374 85.1081 79.2421 85.1081C78.3354 85.1081 77.5987 85.4821 77.0321 86.2301C76.4767 86.9781 76.1991 88.0037 76.1991 89.3071C76.1991 90.6104 76.4767 91.6361 77.0321 92.3841C77.5987 93.1321 78.3354 93.5061 79.2421 93.5061Z" fill="url(#paint5_linear)" fill-opacity="0.15"/>
<path d="M91.3114 95.4611C90.2121 95.4611 89.2714 95.2061 88.4894 94.6961C87.7074 94.1747 87.1011 93.4551 86.6704 92.5371C86.2511 91.6077 86.0414 90.5311 86.0414 89.3071C86.0414 88.0944 86.2511 87.0234 86.6704 86.0941C87.1011 85.1647 87.7074 84.4451 88.4894 83.9351C89.2714 83.4137 90.2121 83.1531 91.3114 83.1531C92.4107 83.1531 93.3514 83.4137 94.1334 83.9351C94.9154 84.4451 95.5161 85.1647 95.9354 86.0941C96.3661 87.0234 96.5814 88.0944 96.5814 89.3071C96.5814 90.5311 96.3661 91.6077 95.9354 92.5371C95.5161 93.4551 94.9154 94.1747 94.1334 94.6961C93.3514 95.2061 92.4107 95.4611 91.3114 95.4611ZM91.3114 93.5061C92.2067 93.5061 92.9377 93.1321 93.5044 92.3841C94.0711 91.6361 94.3544 90.6104 94.3544 89.3071C94.3544 88.0037 94.0711 86.9781 93.5044 86.2301C92.9377 85.4821 92.2067 85.1081 91.3114 85.1081C90.4047 85.1081 89.6681 85.4821 89.1014 86.2301C88.5461 86.9781 88.2684 88.0037 88.2684 89.3071C88.2684 90.6104 88.5461 91.6361 89.1014 92.3841C89.6681 93.1321 90.4047 93.5061 91.3114 93.5061Z" fill="#201D40"/>
<path d="M91.3114 95.4611C90.2121 95.4611 89.2714 95.2061 88.4894 94.6961C87.7074 94.1747 87.1011 93.4551 86.6704 92.5371C86.2511 91.6077 86.0414 90.5311 86.0414 89.3071C86.0414 88.0944 86.2511 87.0234 86.6704 86.0941C87.1011 85.1647 87.7074 84.4451 88.4894 83.9351C89.2714 83.4137 90.2121 83.1531 91.3114 83.1531C92.4107 83.1531 93.3514 83.4137 94.1334 83.9351C94.9154 84.4451 95.5161 85.1647 95.9354 86.0941C96.3661 87.0234 96.5814 88.0944 96.5814 89.3071C96.5814 90.5311 96.3661 91.6077 95.9354 92.5371C95.5161 93.4551 94.9154 94.1747 94.1334 94.6961C93.3514 95.2061 92.4107 95.4611 91.3114 95.4611ZM91.3114 93.5061C92.2067 93.5061 92.9377 93.1321 93.5044 92.3841C94.0711 91.6361 94.3544 90.6104 94.3544 89.3071C94.3544 88.0037 94.0711 86.9781 93.5044 86.2301C92.9377 85.4821 92.2067 85.1081 91.3114 85.1081C90.4047 85.1081 89.6681 85.4821 89.1014 86.2301C88.5461 86.9781 88.2684 88.0037 88.2684 89.3071C88.2684 90.6104 88.5461 91.6361 89.1014 92.3841C89.6681 93.1321 90.4047 93.5061 91.3114 93.5061Z" fill="url(#paint6_linear)" fill-opacity="0.15"/>
<path d="M97.0691 97.2291L98.0381 92.9961H100.146L98.4971 97.2291H97.0691Z" fill="#201D40"/>
<path d="M97.0691 97.2291L98.0381 92.9961H100.146L98.4971 97.2291H97.0691Z" fill="url(#paint7_linear)" fill-opacity="0.15"/>
<path d="M106.801 95.4611C105.701 95.4611 104.761 95.2061 103.979 94.6961C103.197 94.1747 102.59 93.4551 102.16 92.5371C101.74 91.6077 101.531 90.5311 101.531 89.3071C101.531 88.0944 101.74 87.0234 102.16 86.0941C102.59 85.1647 103.197 84.4451 103.979 83.9351C104.761 83.4137 105.701 83.1531 106.801 83.1531C107.9 83.1531 108.841 83.4137 109.623 83.9351C110.405 84.4451 111.005 85.1647 111.425 86.0941C111.855 87.0234 112.071 88.0944 112.071 89.3071C112.071 90.5311 111.855 91.6077 111.425 92.5371C111.005 93.4551 110.405 94.1747 109.623 94.6961C108.841 95.2061 107.9 95.4611 106.801 95.4611ZM106.801 93.5061C107.696 93.5061 108.427 93.1321 108.994 92.3841C109.56 91.6361 109.844 90.6104 109.844 89.3071C109.844 88.0037 109.56 86.9781 108.994 86.2301C108.427 85.4821 107.696 85.1081 106.801 85.1081C105.894 85.1081 105.157 85.4821 104.591 86.2301C104.035 86.9781 103.758 88.0037 103.758 89.3071C103.758 90.6104 104.035 91.6361 104.591 92.3841C105.157 93.1321 105.894 93.5061 106.801 93.5061Z" fill="#201D40"/>
<path d="M106.801 95.4611C105.701 95.4611 104.761 95.2061 103.979 94.6961C103.197 94.1747 102.59 93.4551 102.16 92.5371C101.74 91.6077 101.531 90.5311 101.531 89.3071C101.531 88.0944 101.74 87.0234 102.16 86.0941C102.59 85.1647 103.197 84.4451 103.979 83.9351C104.761 83.4137 105.701 83.1531 106.801 83.1531C107.9 83.1531 108.841 83.4137 109.623 83.9351C110.405 84.4451 111.005 85.1647 111.425 86.0941C111.855 87.0234 112.071 88.0944 112.071 89.3071C112.071 90.5311 111.855 91.6077 111.425 92.5371C111.005 93.4551 110.405 94.1747 109.623 94.6961C108.841 95.2061 107.9 95.4611 106.801 95.4611ZM106.801 93.5061C107.696 93.5061 108.427 93.1321 108.994 92.3841C109.56 91.6361 109.844 90.6104 109.844 89.3071C109.844 88.0037 109.56 86.9781 108.994 86.2301C108.427 85.4821 107.696 85.1081 106.801 85.1081C105.894 85.1081 105.157 85.4821 104.591 86.2301C104.035 86.9781 103.758 88.0037 103.758 89.3071C103.758 90.6104 104.035 91.6361 104.591 92.3841C105.157 93.1321 105.894 93.5061 106.801 93.5061Z" fill="url(#paint8_linear)" fill-opacity="0.15"/>
<path d="M118.87 95.4611C117.771 95.4611 116.83 95.2061 116.048 94.6961C115.266 94.1747 114.66 93.4551 114.229 92.5371C113.81 91.6077 113.6 90.5311 113.6 89.3071C113.6 88.0944 113.81 87.0234 114.229 86.0941C114.66 85.1647 115.266 84.4451 116.048 83.9351C116.83 83.4137 117.771 83.1531 118.87 83.1531C119.969 83.1531 120.91 83.4137 121.692 83.9351C122.474 84.4451 123.075 85.1647 123.494 86.0941C123.925 87.0234 124.14 88.0944 124.14 89.3071C124.14 90.5311 123.925 91.6077 123.494 92.5371C123.075 93.4551 122.474 94.1747 121.692 94.6961C120.91 95.2061 119.969 95.4611 118.87 95.4611ZM118.87 93.5061C119.765 93.5061 120.496 93.1321 121.063 92.3841C121.63 91.6361 121.913 90.6104 121.913 89.3071C121.913 88.0037 121.63 86.9781 121.063 86.2301C120.496 85.4821 119.765 85.1081 118.87 85.1081C117.963 85.1081 117.227 85.4821 116.66 86.2301C116.105 86.9781 115.827 88.0037 115.827 89.3071C115.827 90.6104 116.105 91.6361 116.66 92.3841C117.227 93.1321 117.963 93.5061 118.87 93.5061Z" fill="#201D40"/>
<path d="M118.87 95.4611C117.771 95.4611 116.83 95.2061 116.048 94.6961C115.266 94.1747 114.66 93.4551 114.229 92.5371C113.81 91.6077 113.6 90.5311 113.6 89.3071C113.6 88.0944 113.81 87.0234 114.229 86.0941C114.66 85.1647 115.266 84.4451 116.048 83.9351C116.83 83.4137 117.771 83.1531 118.87 83.1531C119.969 83.1531 120.91 83.4137 121.692 83.9351C122.474 84.4451 123.075 85.1647 123.494 86.0941C123.925 87.0234 124.14 88.0944 124.14 89.3071C124.14 90.5311 123.925 91.6077 123.494 92.5371C123.075 93.4551 122.474 94.1747 121.692 94.6961C120.91 95.2061 119.969 95.4611 118.87 95.4611ZM118.87 93.5061C119.765 93.5061 120.496 93.1321 121.063 92.3841C121.63 91.6361 121.913 90.6104 121.913 89.3071C121.913 88.0037 121.63 86.9781 121.063 86.2301C120.496 85.4821 119.765 85.1081 118.87 85.1081C117.963 85.1081 117.227 85.4821 116.66 86.2301C116.105 86.9781 115.827 88.0037 115.827 89.3071C115.827 90.6104 116.105 91.6361 116.66 92.3841C117.227 93.1321 117.963 93.5061 118.87 93.5061Z" fill="url(#paint9_linear)" fill-opacity="0.15"/>
<path d="M130.939 95.4611C129.84 95.4611 128.899 95.2061 128.117 94.6961C127.335 94.1747 126.729 93.4551 126.298 92.5371C125.879 91.6077 125.669 90.5311 125.669 89.3071C125.669 88.0944 125.879 87.0234 126.298 86.0941C126.729 85.1647 127.335 84.4451 128.117 83.9351C128.899 83.4137 129.84 83.1531 130.939 83.1531C132.039 83.1531 132.979 83.4137 133.761 83.9351C134.543 84.4451 135.144 85.1647 135.563 86.0941C135.994 87.0234 136.209 88.0944 136.209 89.3071C136.209 90.5311 135.994 91.6077 135.563 92.5371C135.144 93.4551 134.543 94.1747 133.761 94.6961C132.979 95.2061 132.039 95.4611 130.939 95.4611ZM130.939 93.5061C131.835 93.5061 132.566 93.1321 133.132 92.3841C133.699 91.6361 133.982 90.6104 133.982 89.3071C133.982 88.0037 133.699 86.9781 133.132 86.2301C132.566 85.4821 131.835 85.1081 130.939 85.1081C130.033 85.1081 129.296 85.4821 128.729 86.2301C128.174 86.9781 127.896 88.0037 127.896 89.3071C127.896 90.6104 128.174 91.6361 128.729 92.3841C129.296 93.1321 130.033 93.5061 130.939 93.5061Z" fill="#201D40"/>
<path d="M130.939 95.4611C129.84 95.4611 128.899 95.2061 128.117 94.6961C127.335 94.1747 126.729 93.4551 126.298 92.5371C125.879 91.6077 125.669 90.5311 125.669 89.3071C125.669 88.0944 125.879 87.0234 126.298 86.0941C126.729 85.1647 127.335 84.4451 128.117 83.9351C128.899 83.4137 129.84 83.1531 130.939 83.1531C132.039 83.1531 132.979 83.4137 133.761 83.9351C134.543 84.4451 135.144 85.1647 135.563 86.0941C135.994 87.0234 136.209 88.0944 136.209 89.3071C136.209 90.5311 135.994 91.6077 135.563 92.5371C135.144 93.4551 134.543 94.1747 133.761 94.6961C132.979 95.2061 132.039 95.4611 130.939 95.4611ZM130.939 93.5061C131.835 93.5061 132.566 93.1321 133.132 92.3841C133.699 91.6361 133.982 90.6104 133.982 89.3071C133.982 88.0037 133.699 86.9781 133.132 86.2301C132.566 85.4821 131.835 85.1081 130.939 85.1081C130.033 85.1081 129.296 85.4821 128.729 86.2301C128.174 86.9781 127.896 88.0037 127.896 89.3071C127.896 90.6104 128.174 91.6361 128.729 92.3841C129.296 93.1321 130.033 93.5061 130.939 93.5061Z" fill="url(#paint10_linear)" fill-opacity="0.15"/>
</g>
<defs>
<filter id="filter0_d" x="0" y="0" width="191" height="190" filterUnits="userSpaceOnUse" color-interpolation-filters="sRGB">
<feFlood flood-opacity="0" result="BackgroundImageFix"/>
<feColorMatrix in="SourceAlpha" type="matrix" values="0 0 0 0 0 0 0 0 0 0 0 0 0 0 0 0 0 0 127 0"/>
<feOffset dy="10"/>
<feGaussianBlur stdDeviation="10"/>
<feColorMatrix type="matrix" values="0 0 0 0 0.24037 0 0 0 0 0.206667 0 0 0 0 0.533333 0 0 0 0.1 0"/>
<feBlend mode="normal" in2="BackgroundImageFix" result="effect1_dropShadow"/>
<feBlend mode="normal" in="SourceGraphic" in2="effect1_dropShadow" result="shape"/>
</filter>
<radialGradient id="paint0_radial" cx="0" cy="0" r="1" gradientUnits="userSpaceOnUse" gradientTransform="translate(117 -17) rotate(138.918) scale(155.219 141.604)">
<stop offset="0.336197" stop-color="#7165E3" stop-opacity="0"/>
<stop offset="0.84111" stop-color="#7165E3"/>
</radialGradient>
<radialGradient id="paint1_radial" cx="0" cy="0" r="1" gradientUnits="userSpaceOnUse" gradientTransform="translate(117 -17) rotate(138.918) scale(155.219 141.604)">
<stop offset="0.336197" stop-color="#7165E3" stop-opacity="0"/>
<stop offset="0.84111" stop-color="#7165E3"/>
</radialGradient>
<radialGradient id="paint2_radial" cx="0" cy="0" r="1" gradientUnits="userSpaceOnUse" gradientTransform="translate(38 56) rotate(-18.2325) scale(89.493 89.6926)">
<stop offset="0.28125" stop-color="#FB9F4F" stop-opacity="0"/>
<stop offset="1" stop-color="#E48838"/>
</radialGradient>
<linearGradient id="paint3_linear" x1="150.507" y1="94.7682" x2="148.707" y2="75.4721" gradientUnits="userSpaceOnUse">
<stop stop-color="#5E52D2"/>
<stop offset="1" stop-color="#B697F9"/>
</linearGradient>
<linearGradient id="paint4_linear" x1="150.507" y1="94.7682" x2="148.707" y2="75.4721" gradientUnits="userSpaceOnUse">
<stop stop-color="#5E52D2"/>
<stop offset="1" stop-color="#B697F9"/>
</linearGradient>
<linearGradient id="paint5_linear" x1="150.507" y1="94.7682" x2="148.707" y2="75.4721" gradientUnits="userSpaceOnUse">
<stop stop-color="#5E52D2"/>
<stop offset="1" stop-color="#B697F9"/>
</linearGradient>
<linearGradient id="paint6_linear" x1="150.507" y1="94.7682" x2="148.707" y2="75.4721" gradientUnits="userSpaceOnUse">
<stop stop-color="#5E52D2"/>
<stop offset="1" stop-color="#B697F9"/>
</linearGradient>
<linearGradient id="paint7_linear" x1="150.507" y1="94.7682" x2="148.707" y2="75.4721" gradientUnits="userSpaceOnUse">
<stop stop-color="#5E52D2"/>
<stop offset="1" stop-color="#B697F9"/>
</linearGradient>
<linearGradient id="paint8_linear" x1="150.507" y1="94.7682" x2="148.707" y2="75.4721" gradientUnits="userSpaceOnUse">
<stop stop-color="#5E52D2"/>
<stop offset="1" stop-color="#B697F9"/>
</linearGradient>
<linearGradient id="paint9_linear" x1="150.507" y1="94.7682" x2="148.707" y2="75.4721" gradientUnits="userSpaceOnUse">
<stop stop-color="#5E52D2"/>
<stop offset="1" stop-color="#B697F9"/>
</linearGradient>
<linearGradient id="paint10_linear" x1="150.507" y1="94.7682" x2="148.707" y2="75.4721" gradientUnits="userSpaceOnUse">
<stop stop-color="#5E52D2"/>
<stop offset="1" stop-color="#B697F9"/>
</linearGradient>
</defs>
</svg>
