<svg width="135" height="36" viewBox="0 0 135 36" fill="none" xmlns="http://www.w3.org/2000/svg">
<rect x="0.5" y="0.5" width="134" height="35" rx="3.5" fill="#FAFBFC"/>
<path d="M15 18C15 11.3726 20.3726 6 27 6C33.6274 6 39 11.3726 39 18C39 24.6274 33.6274 30 27 30C20.3726 30 15 24.6274 15 18Z" fill="#3B5998"/>
<path d="M27.9897 24V17.9993H29.7648L30 15.9314H27.9897L27.9928 14.8964C27.9928 14.3571 28.0477 14.0681 28.8778 14.0681H29.9874V12H28.2122C26.0798 12 25.3292 13.0031 25.3292 14.6901V15.9317H24V17.9995H25.3292V24H27.9897Z" fill="white"/>
<path d="M55.1587 13.396H61.9627V14.558H56.4887V17.61H61.4587V18.772H56.4887V23H55.1587V13.396ZM65.2408 23.168C64.6061 23.168 64.0414 23.0187 63.5468 22.72C63.0521 22.4213 62.8048 21.88 62.8048 21.096C62.8048 20.1533 63.2248 19.5093 64.0648 19.164C64.9048 18.8093 66.1181 18.632 67.7048 18.632V17.82C67.7048 17.3907 67.5834 17.064 67.3408 16.84C67.0981 16.6067 66.6594 16.49 66.0248 16.49C65.4274 16.49 64.9981 16.602 64.7368 16.826C64.4848 17.05 64.3588 17.3253 64.3588 17.652V17.82H63.1688C63.1594 17.764 63.1548 17.6613 63.1548 17.512C63.1548 16.8587 63.4254 16.3547 63.9668 16C64.5081 15.6453 65.2314 15.468 66.1368 15.468C67.0514 15.468 67.7468 15.6593 68.2228 16.042C68.6988 16.4247 68.9368 16.966 68.9368 17.666V21.656C68.9368 21.824 68.9834 21.95 69.0768 22.034C69.1701 22.1087 69.2868 22.146 69.4268 22.146H69.9868V22.944C69.7441 23.056 69.4268 23.112 69.0348 23.112C68.7174 23.112 68.4514 23.0187 68.2368 22.832C68.0221 22.636 67.8774 22.3793 67.8028 22.062H67.7048C67.4528 22.4073 67.1074 22.678 66.6688 22.874C66.2394 23.07 65.7634 23.168 65.2408 23.168ZM65.5628 22.146C65.9268 22.146 66.2721 22.0713 66.5988 21.922C66.9254 21.7727 67.1914 21.5533 67.3968 21.264C67.6021 20.9653 67.7048 20.606 67.7048 20.186V19.654C66.5008 19.654 65.5954 19.752 64.9888 19.948C64.3914 20.1347 64.0928 20.494 64.0928 21.026C64.0928 21.4273 64.2141 21.7167 64.4568 21.894C64.7088 22.062 65.0774 22.146 65.5628 22.146ZM74.0681 23.168C72.9481 23.168 72.1267 22.86 71.6041 22.244C71.0814 21.6187 70.8201 20.6433 70.8201 19.318C70.8201 18.002 71.0814 17.0313 71.6041 16.406C72.1361 15.7807 72.9574 15.468 74.0681 15.468C75.0761 15.468 75.8134 15.7107 76.2801 16.196C76.7467 16.6813 76.9801 17.4047 76.9801 18.366H75.7201C75.7201 17.7033 75.5987 17.2273 75.3561 16.938C75.1227 16.6393 74.6934 16.49 74.0681 16.49C73.3867 16.49 72.8874 16.714 72.5701 17.162C72.2527 17.6007 72.0941 18.3193 72.0941 19.318V19.374C72.0941 20.3633 72.2481 21.0727 72.5561 21.502C72.8641 21.9313 73.3681 22.146 74.0681 22.146C74.6841 22.146 75.1227 21.992 75.3841 21.684C75.6547 21.3667 75.7901 20.8953 75.7901 20.27H76.9801C76.9801 21.11 76.7421 21.8053 76.2661 22.356C75.7901 22.8973 75.0574 23.168 74.0681 23.168ZM81.6401 23.168C80.4547 23.168 79.5727 22.8553 78.9941 22.23C78.4154 21.6047 78.1261 20.634 78.1261 19.318C78.1261 18.002 78.4154 17.0313 78.9941 16.406C79.5727 15.7807 80.4547 15.468 81.6401 15.468C82.7041 15.468 83.4974 15.7527 84.0201 16.322C84.5521 16.882 84.8181 17.7873 84.8181 19.038V19.654H79.4001C79.4467 20.5033 79.6474 21.1333 80.0021 21.544C80.3661 21.9453 80.9121 22.146 81.6401 22.146C82.2281 22.146 82.7041 22.0107 83.0681 21.74C83.4321 21.4693 83.6141 21.054 83.6141 20.494H84.8181C84.8181 21.3527 84.5194 22.0153 83.9221 22.482C83.3341 22.9393 82.5734 23.168 81.6401 23.168ZM83.5301 18.632C83.5301 17.204 82.9001 16.49 81.6401 16.49C80.9401 16.49 80.4127 16.658 80.0581 16.994C79.7127 17.33 79.5027 17.876 79.4281 18.632H83.5301ZM89.9914 23.168C89.506 23.168 89.0627 23.07 88.6614 22.874C88.2694 22.678 87.952 22.3887 87.7094 22.006H87.6254L87.4714 23H86.5474V12.878H87.7794V16.476H87.8634C88.106 16.1213 88.4094 15.8647 88.7734 15.706C89.1374 15.5473 89.5807 15.468 90.1034 15.468C90.9714 15.468 91.6527 15.79 92.1474 16.434C92.6514 17.0687 92.9034 18.03 92.9034 19.318C92.9034 20.634 92.6514 21.6047 92.1474 22.23C91.6434 22.8553 90.9247 23.168 89.9914 23.168ZM89.6834 22.146C90.1594 22.146 90.5374 22.0573 90.8174 21.88C91.0974 21.7027 91.3027 21.4133 91.4334 21.012C91.564 20.6107 91.6294 20.0647 91.6294 19.374V19.318C91.6294 18.618 91.564 18.0627 91.4334 17.652C91.3027 17.2413 91.0927 16.9473 90.8034 16.77C90.5234 16.5833 90.15 16.49 89.6834 16.49C89.03 16.49 88.5494 16.728 88.2414 17.204C87.9334 17.68 87.7794 18.3847 87.7794 19.318V19.374C87.7794 20.2887 87.9287 20.9793 88.2274 21.446C88.5354 21.9127 89.0207 22.146 89.6834 22.146ZM97.5307 23.168C96.4013 23.168 95.552 22.8553 94.9827 22.23C94.4133 21.5953 94.1287 20.6247 94.1287 19.318C94.1287 18.0113 94.4133 17.0453 94.9827 16.42C95.552 15.7853 96.4013 15.468 97.5307 15.468C98.66 15.468 99.5093 15.7853 100.079 16.42C100.648 17.0453 100.933 18.0113 100.933 19.318C100.933 20.6247 100.648 21.5953 100.079 22.23C99.5093 22.8553 98.66 23.168 97.5307 23.168ZM97.5307 22.146C98.2773 22.146 98.8187 21.9313 99.1547 21.502C99.4907 21.0633 99.6587 20.354 99.6587 19.374V19.262C99.6587 18.282 99.4907 17.5773 99.1547 17.148C98.8187 16.7093 98.2773 16.49 97.5307 16.49C96.784 16.49 96.2427 16.7093 95.9067 17.148C95.5707 17.5773 95.4027 18.282 95.4027 19.262V19.374C95.4027 20.354 95.5707 21.0633 95.9067 21.502C96.2427 21.9313 96.784 22.146 97.5307 22.146ZM105.56 23.168C104.431 23.168 103.581 22.8553 103.012 22.23C102.443 21.5953 102.158 20.6247 102.158 19.318C102.158 18.0113 102.443 17.0453 103.012 16.42C103.581 15.7853 104.431 15.468 105.56 15.468C106.689 15.468 107.539 15.7853 108.108 16.42C108.677 17.0453 108.962 18.0113 108.962 19.318C108.962 20.6247 108.677 21.5953 108.108 22.23C107.539 22.8553 106.689 23.168 105.56 23.168ZM105.56 22.146C106.307 22.146 106.848 21.9313 107.184 21.502C107.52 21.0633 107.688 20.354 107.688 19.374V19.262C107.688 18.282 107.52 17.5773 107.184 17.148C106.848 16.7093 106.307 16.49 105.56 16.49C104.813 16.49 104.272 16.7093 103.936 17.148C103.6 17.5773 103.432 18.282 103.432 19.262V19.374C103.432 20.354 103.6 21.0633 103.936 21.502C104.272 21.9313 104.813 22.146 105.56 22.146ZM110.635 12.878H111.867V19.248L114.989 15.636H116.515L113.981 18.534L116.655 23H115.227L113.211 19.416L111.867 20.69V23H110.635V12.878Z" fill="#5E6C84"/>
<rect x="0.5" y="0.5" width="134" height="35" rx="3.5" stroke="#EEEFF2"/>
</svg>
