<svg width="106" height="36" viewBox="0 0 106 36" fill="none" xmlns="http://www.w3.org/2000/svg">
<rect x="0.5" y="0.5" width="105" height="35" rx="3.5" fill="#FAFBFC"/>
<path d="M15.4766 11.7308C15.4766 10.7749 16.1872 10 17.0639 10H32.9369C33.8135 10 34.5242 10.7749 34.5242 11.7308V23.2691C34.5242 24.225 33.8135 24.9999 32.9369 24.9999H17.0639C16.1872 24.9999 15.4766 24.225 15.4766 23.2691V11.7308Z" fill="#FAFBFC"/>
<mask id="mask0" mask-type="alpha" maskUnits="userSpaceOnUse" x="15" y="10" width="20" height="15">
<path d="M15.4766 11.7308C15.4766 10.7749 16.1872 10 17.0639 10H32.9369C33.8135 10 34.5242 10.7749 34.5242 11.7308V23.2691C34.5242 24.225 33.8135 24.9999 32.9369 24.9999H17.0639C16.1872 24.9999 15.4766 24.225 15.4766 23.2691V11.7308Z" fill="white"/>
</mask>
<g mask="url(#mask0)">
<path d="M32.4082 13.907L34.5246 12.386L34.5246 24.9997H32.4082V13.907Z" fill="#D24C42"/>
<path d="M15.4766 12.1447V24.9999H17.593V13.7193L15.4766 12.1447Z" fill="#D24B42"/>
<path d="M34.5242 12.3868L25.0004 19.2311L15.4766 12.1452V11.7312C15.4766 10.7992 16.1522 10.0392 16.9986 10.0019L25.0004 16.0581L33.2427 10.0325C33.973 10.1879 34.5242 10.8894 34.5242 11.7312V12.3868Z" fill="#D24B42"/>
</g>
<path d="M25.0002 19.2307L17.5928 24.9999V13.75L25.0002 19.2307Z" fill="url(#paint0_linear)" style="mix-blend-mode:multiply"/>
<path d="M27.2491 25.0001L15.4766 12.1636L25.0004 19.2309L34.5242 12.4521V25.0001H27.2491Z" fill="url(#paint1_linear)" style="mix-blend-mode:multiply"/>
<path d="M55.5205 23.168C53.9525 23.168 52.7672 22.7573 51.9645 21.936C51.1619 21.1053 50.7605 19.8593 50.7605 18.198C50.7605 14.8847 52.3752 13.228 55.6045 13.228C56.9299 13.228 57.9939 13.522 58.7965 14.11C59.5992 14.698 60.0005 15.552 60.0005 16.672H58.6425C58.6425 15.8973 58.3719 15.3187 57.8305 14.936C57.2892 14.5533 56.5472 14.362 55.6045 14.362C54.4379 14.362 53.5699 14.6607 53.0005 15.258C52.4312 15.8553 52.1465 16.8353 52.1465 18.198V18.226C52.1559 19.5793 52.4359 20.5547 52.9865 21.152C53.5465 21.74 54.3912 22.034 55.5205 22.034C56.6032 22.034 57.3965 21.81 57.9005 21.362C58.4139 20.914 58.6705 20.228 58.6705 19.304V19.164H55.2825V18.002H60.0005V23H58.9645L58.8665 21.936C58.1385 22.7573 57.0232 23.168 55.5205 23.168ZM62.187 15.636H63.125L63.265 16.63H63.363C63.867 15.8553 64.6044 15.468 65.575 15.468C66.527 15.468 67.1617 15.8553 67.479 16.63H67.563C67.815 16.2567 68.1417 15.972 68.543 15.776C68.9537 15.5707 69.3877 15.468 69.845 15.468C71.2917 15.468 72.015 16.21 72.015 17.694V23H70.783V17.918C70.783 17.386 70.6664 17.0173 70.433 16.812C70.1997 16.5973 69.8777 16.49 69.467 16.49C68.9724 16.49 68.557 16.686 68.221 17.078C67.885 17.47 67.717 17.9927 67.717 18.646V23H66.485V17.918C66.485 17.386 66.373 17.0173 66.149 16.812C65.925 16.5973 65.6077 16.49 65.197 16.49C64.8797 16.49 64.5857 16.5787 64.315 16.756C64.0444 16.924 63.825 17.1713 63.657 17.498C63.4984 17.8247 63.419 18.2073 63.419 18.646V23H62.187V15.636ZM76.1011 23.168C75.4665 23.168 74.9018 23.0187 74.4071 22.72C73.9125 22.4213 73.6651 21.88 73.6651 21.096C73.6651 20.1533 74.0851 19.5093 74.9251 19.164C75.7651 18.8093 76.9785 18.632 78.5651 18.632V17.82C78.5651 17.3907 78.4438 17.064 78.2011 16.84C77.9585 16.6067 77.5198 16.49 76.8851 16.49C76.2878 16.49 75.8585 16.602 75.5971 16.826C75.3451 17.05 75.2191 17.3253 75.2191 17.652V17.82H74.0291C74.0198 17.764 74.0151 17.6613 74.0151 17.512C74.0151 16.8587 74.2858 16.3547 74.8271 16C75.3685 15.6453 76.0918 15.468 76.9971 15.468C77.9118 15.468 78.6071 15.6593 79.0831 16.042C79.5591 16.4247 79.7971 16.966 79.7971 17.666V21.656C79.7971 21.824 79.8438 21.95 79.9371 22.034C80.0305 22.1087 80.1471 22.146 80.2871 22.146H80.8471V22.944C80.6045 23.056 80.2871 23.112 79.8951 23.112C79.5778 23.112 79.3118 23.0187 79.0971 22.832C78.8825 22.636 78.7378 22.3793 78.6631 22.062H78.5651C78.3131 22.4073 77.9678 22.678 77.5291 22.874C77.0998 23.07 76.6238 23.168 76.1011 23.168ZM76.4231 22.146C76.7871 22.146 77.1325 22.0713 77.4591 21.922C77.7858 21.7727 78.0518 21.5533 78.2571 21.264C78.4625 20.9653 78.5651 20.606 78.5651 20.186V19.654C77.3611 19.654 76.4558 19.752 75.8491 19.948C75.2518 20.1347 74.9531 20.494 74.9531 21.026C74.9531 21.4273 75.0745 21.7167 75.3171 21.894C75.5691 22.062 75.9378 22.146 76.4231 22.146ZM82.1284 12.878H83.3464V14.208H82.1284V12.878ZM82.1284 15.636H83.3604V23H82.1284V15.636ZM85.4819 12.878H86.7139V23H85.4819V12.878Z" fill="#5E6C84"/>
<rect x="0.5" y="0.5" width="105" height="35" rx="3.5" stroke="#EEEFF2"/>
<defs>
<linearGradient id="paint0_linear" x1="21.2965" y1="13.75" x2="21.2965" y2="24.9999" gradientUnits="userSpaceOnUse">
<stop stop-color="#C5C5C5"/>
<stop offset="1" stop-color="#E2E2E2" stop-opacity="0"/>
</linearGradient>
<linearGradient id="paint1_linear" x1="25.0004" y1="10.1444" x2="25.0004" y2="25.0001" gradientUnits="userSpaceOnUse">
<stop stop-color="#BEBEBE"/>
<stop offset="1" stop-color="#BEBEBE" stop-opacity="0"/>
</linearGradient>
</defs>
</svg>
