<svg width="127" height="36" viewBox="0 0 127 36" fill="none" xmlns="http://www.w3.org/2000/svg">
<rect x="0.5" y="0.5" width="126" height="35" rx="3.5" fill="#FAFBFC"/>
<path d="M15 18C15 11.3726 20.3726 6 27 6C33.6274 6 39 11.3726 39 18C39 24.6274 33.6274 30 27 30C20.3726 30 15 24.6274 15 18Z" fill="#0077B5"/>
<path fill-rule="evenodd" clip-rule="evenodd" d="M24.6436 12.6485C24.6436 13.426 24.085 14.048 23.1882 14.048H23.1717C22.3082 14.048 21.75 13.426 21.75 12.6485C21.75 11.8547 22.3252 11.25 23.2051 11.25C24.085 11.25 24.6269 11.8547 24.6436 12.6485ZM24.4744 15.1532V23.2498H21.9023V15.1532H24.4744ZM33.7494 23.2499L33.7495 18.6076C33.7495 16.1206 32.4806 14.9632 30.7881 14.9632C29.4225 14.9632 28.8111 15.749 28.4697 16.3003V15.1535H25.8974C25.9313 15.9133 25.8974 23.2502 25.8974 23.2502H28.4697V18.7283C28.4697 18.4863 28.4864 18.245 28.5544 18.0717C28.7403 17.5883 29.1636 17.0878 29.8742 17.0878C30.8053 17.0878 31.1775 17.8302 31.1775 18.9182V23.2499H33.7494Z" fill="white"/>
<path d="M55.1578 13.396H56.4878V21.838H61.4158V23H55.1578V13.396ZM63.0191 12.878H64.2371V14.208H63.0191V12.878ZM63.0191 15.636H64.2511V23H63.0191V15.636ZM66.3726 15.636H67.3106L67.4506 16.63H67.5486C68.0899 15.8553 68.9159 15.468 70.0266 15.468C70.7639 15.468 71.3286 15.6687 71.7206 16.07C72.1219 16.462 72.3226 17.0967 72.3226 17.974V23H71.0906V18.058C71.0906 17.47 70.9599 17.064 70.6986 16.84C70.4372 16.6067 70.0592 16.49 69.5646 16.49C69.2099 16.49 68.8832 16.5787 68.5846 16.756C68.2859 16.924 68.0479 17.1713 67.8706 17.498C67.6932 17.8247 67.6046 18.2073 67.6046 18.646V23H66.3726V15.636ZM74.4019 12.878H75.6339V19.248L78.7559 15.636H80.2819L77.7479 18.534L80.4219 23H78.9939L76.9779 19.416L75.6339 20.69V23H74.4019V12.878ZM84.7739 23.168C83.5885 23.168 82.7065 22.8553 82.1279 22.23C81.5492 21.6047 81.2599 20.634 81.2599 19.318C81.2599 18.002 81.5492 17.0313 82.1279 16.406C82.7065 15.7807 83.5885 15.468 84.7739 15.468C85.8379 15.468 86.6312 15.7527 87.1539 16.322C87.6859 16.882 87.9519 17.7873 87.9519 19.038V19.654H82.5339C82.5805 20.5033 82.7812 21.1333 83.1359 21.544C83.4999 21.9453 84.0459 22.146 84.7739 22.146C85.3619 22.146 85.8379 22.0107 86.2019 21.74C86.5659 21.4693 86.7479 21.054 86.7479 20.494H87.9519C87.9519 21.3527 87.6532 22.0153 87.0559 22.482C86.4679 22.9393 85.7072 23.168 84.7739 23.168ZM86.6639 18.632C86.6639 17.204 86.0339 16.49 84.7739 16.49C84.0739 16.49 83.5465 16.658 83.1919 16.994C82.8465 17.33 82.6365 17.876 82.5619 18.632H86.6639ZM92.1452 23.168C91.2118 23.168 90.4932 22.8553 89.9892 22.23C89.4852 21.6047 89.2332 20.634 89.2332 19.318C89.2332 18.03 89.4805 17.0687 89.9752 16.434C90.4792 15.79 91.1652 15.468 92.0332 15.468C92.5558 15.468 92.9992 15.5473 93.3632 15.706C93.7272 15.8647 94.0305 16.1213 94.2732 16.476H94.3572V12.878H95.5892V23H94.6652L94.5112 22.006H94.4272C94.1845 22.3887 93.8625 22.678 93.4612 22.874C93.0692 23.07 92.6305 23.168 92.1452 23.168ZM92.4532 22.146C93.1158 22.146 93.5965 21.9127 93.8952 21.446C94.2032 20.9793 94.3572 20.2887 94.3572 19.374V19.318C94.3572 18.3847 94.2032 17.68 93.8952 17.204C93.5872 16.728 93.1065 16.49 92.4532 16.49C91.9865 16.49 91.6085 16.5833 91.3192 16.77C91.0392 16.9473 90.8338 17.2413 90.7032 17.652C90.5725 18.0627 90.5072 18.618 90.5072 19.318V19.374C90.5072 20.0647 90.5725 20.6107 90.7032 21.012C90.8338 21.4133 91.0392 21.7027 91.3192 21.88C91.5992 22.0573 91.9772 22.146 92.4532 22.146ZM98.0605 13.396H99.3905V23H98.0605V13.396ZM101.857 15.636H102.795L102.935 16.63H103.033C103.574 15.8553 104.4 15.468 105.511 15.468C106.248 15.468 106.813 15.6687 107.205 16.07C107.606 16.462 107.807 17.0967 107.807 17.974V23H106.575V18.058C106.575 17.47 106.444 17.064 106.183 16.84C105.922 16.6067 105.544 16.49 105.049 16.49C104.694 16.49 104.368 16.5787 104.069 16.756C103.77 16.924 103.532 17.1713 103.355 17.498C103.178 17.8247 103.089 18.2073 103.089 18.646V23H101.857V15.636Z" fill="#5E6C84"/>
<rect x="0.5" y="0.5" width="126" height="35" rx="3.5" stroke="#EEEFF2"/>
</svg>
