<svg width="16" height="18" viewBox="0 0 16 18" fill="none" xmlns="http://www.w3.org/2000/svg">
<path fill-rule="evenodd" clip-rule="evenodd" d="M6.22222 1.8C5.98647 1.8 5.76038 1.89482 5.59368 2.0636C5.42698 2.23239 5.33333 2.46131 5.33333 2.7C5.33333 2.93869 5.42698 3.16761 5.59368 3.3364C5.76038 3.50518 5.98647 3.6 6.22222 3.6H8C8.23575 3.6 8.46184 3.50518 8.62854 3.3364C8.79524 3.16761 8.88889 2.93869 8.88889 2.7C8.88889 2.46131 8.79524 2.23239 8.62854 2.0636C8.46184 1.89482 8.23575 1.8 8 1.8H6.22222ZM4.3366 0.790812C4.8367 0.284463 5.51498 0 6.22222 0H8C8.70724 0 9.38552 0.284463 9.88562 0.790812C10.1695 1.07828 10.3828 1.42389 10.5142 1.8H11.5556C12.2628 1.8 12.9411 2.08446 13.4412 2.59081C13.9413 3.09716 14.2222 3.78391 14.2222 4.5V7.2C14.2222 7.69706 13.8243 8.1 13.3333 8.1C12.8424 8.1 12.4444 7.69706 12.4444 7.2V4.5C12.4444 4.26131 12.3508 4.03239 12.1841 3.8636C12.0174 3.69482 11.7913 3.6 11.5556 3.6H10.5142C10.3828 3.97611 10.1695 4.32172 9.88562 4.60919C9.38552 5.11554 8.70724 5.4 8 5.4H6.22222C5.51498 5.4 4.8367 5.11554 4.3366 4.60919C4.05269 4.32172 3.83941 3.97611 3.70806 3.6H2.66667C2.43092 3.6 2.20483 3.69482 2.03813 3.8636C1.87143 4.03239 1.77778 4.2613 1.77778 4.5V15.3C1.77778 15.5387 1.87143 15.7676 2.03813 15.9364C2.20483 16.1052 2.43092 16.2 2.66667 16.2H11.5556C11.7913 16.2 12.0174 16.1052 12.1841 15.9364C12.3508 15.7676 12.4444 15.5387 12.4444 15.3V14.4C12.4444 13.9029 12.8424 13.5 13.3333 13.5C13.8243 13.5 14.2222 13.9029 14.2222 14.4V15.3C14.2222 16.0161 13.9413 16.7028 13.4412 17.2092C12.9411 17.7155 12.2628 18 11.5556 18H2.66667C1.95942 18 1.28115 17.7155 0.781049 17.2092C0.280952 16.7028 0 16.0161 0 15.3V4.5C0 3.78392 0.280951 3.09716 0.781049 2.59081C1.28115 2.08446 1.95942 1.8 2.66667 1.8H3.70806C3.83941 1.42389 4.05269 1.07828 4.3366 0.790812ZM9.51743 7.4636C9.86456 7.81508 9.86456 8.38492 9.51743 8.7364L8.36819 9.9H15.1111C15.602 9.9 16 10.3029 16 10.8C16 11.2971 15.602 11.7 15.1111 11.7H8.36819L9.51743 12.8636C9.86456 13.2151 9.86456 13.7849 9.51743 14.1364C9.1703 14.4879 8.60748 14.4879 8.26035 14.1364L5.59368 11.4364C5.24655 11.0849 5.24655 10.5151 5.59368 10.1636L8.26035 7.4636C8.60748 7.11213 9.1703 7.11213 9.51743 7.4636Z" fill="white"/>
</svg>
