<svg width="12" height="13" viewBox="0 0 12 13" fill="none" xmlns="http://www.w3.org/2000/svg">
<path fill-rule="evenodd" clip-rule="evenodd" d="M4.66667 1.3C4.48986 1.3 4.32029 1.36848 4.19526 1.49038C4.07024 1.61228 4 1.77761 4 1.95C4 2.12239 4.07024 2.28772 4.19526 2.40962C4.32029 2.53152 4.48986 2.6 4.66667 2.6H6C6.17681 2.6 6.34638 2.53152 6.4714 2.40962C6.59643 2.28772 6.66667 2.12239 6.66667 1.95C6.66667 1.77761 6.59643 1.61228 6.4714 1.49038C6.34638 1.36848 6.17681 1.3 6 1.3H4.66667ZM3.25245 0.571142C3.62753 0.205446 4.13623 0 4.66667 0H6C6.53043 0 7.03914 0.205446 7.41421 0.571142C7.62715 0.778755 7.78711 1.02836 7.88562 1.3H8.66667C9.1971 1.3 9.70581 1.50545 10.0809 1.87114C10.456 2.23684 10.6667 2.73283 10.6667 3.25V5.2C10.6667 5.55898 10.3682 5.85 10 5.85C9.63181 5.85 9.33333 5.55898 9.33333 5.2V3.25C9.33333 3.07761 9.2631 2.91228 9.13807 2.79038C9.01305 2.66848 8.84348 2.6 8.66667 2.6H7.88562C7.78711 2.87164 7.62715 3.12125 7.41421 3.32886C7.03914 3.69455 6.53043 3.9 6 3.9H4.66667C4.13623 3.9 3.62753 3.69455 3.25245 3.32886C3.03952 3.12125 2.87955 2.87164 2.78105 2.6H2C1.82319 2.6 1.65362 2.66848 1.5286 2.79038C1.40357 2.91228 1.33333 3.07761 1.33333 3.25V11.05C1.33333 11.2224 1.40357 11.3877 1.5286 11.5096C1.65362 11.6315 1.82319 11.7 2 11.7H8.66667C8.84348 11.7 9.01305 11.6315 9.13807 11.5096C9.2631 11.3877 9.33333 11.2224 9.33333 11.05V10.4C9.33333 10.041 9.63181 9.75 10 9.75C10.3682 9.75 10.6667 10.041 10.6667 10.4V11.05C10.6667 11.5672 10.456 12.0632 10.0809 12.4289C9.70581 12.7946 9.1971 13 8.66667 13H2C1.46957 13 0.960859 12.7946 0.585786 12.4289C0.210714 12.0632 0 11.5672 0 11.05V3.25C0 2.73283 0.210714 2.23684 0.585786 1.87114C0.960859 1.50545 1.46957 1.3 2 1.3H2.78105C2.87955 1.02836 3.03952 0.778755 3.25245 0.571142ZM7.13807 5.39038C7.39842 5.64422 7.39842 6.05578 7.13807 6.30962L6.27614 7.15H11.3333C11.7015 7.15 12 7.44101 12 7.8C12 8.15899 11.7015 8.45 11.3333 8.45H6.27614L7.13807 9.29038C7.39842 9.54422 7.39842 9.95578 7.13807 10.2096C6.87772 10.4635 6.45561 10.4635 6.19526 10.2096L4.19526 8.25962C3.93491 8.00578 3.93491 7.59422 4.19526 7.34038L6.19526 5.39038C6.45561 5.13654 6.87772 5.13654 7.13807 5.39038Z" fill="#7165E3"/>
</svg>
