<svg width="14" height="14" viewBox="0 0 14 14" fill="none" xmlns="http://www.w3.org/2000/svg">
<g opacity="0.75">
<path fill-rule="evenodd" clip-rule="evenodd" d="M9.7415 1.34175L12.6582 4.25841C12.8915 4.49175 12.8915 4.84175 12.6582 5.07508L5.07484 12.6584C4.95817 12.7751 4.8415 12.8334 4.6665 12.8334H1.74984C1.39984 12.8334 1.1665 12.6001 1.1665 12.2501V9.33342C1.1665 9.15842 1.22484 9.04175 1.3415 8.92508L8.92484 1.34175C9.15817 1.10841 9.50817 1.10841 9.7415 1.34175ZM2.33317 11.6668H4.43317L11.4332 4.66679L9.33317 2.56679L2.33317 9.56679V11.6668Z" fill="#7165E3"/>
<mask id="mask0" mask-type="alpha" maskUnits="userSpaceOnUse" x="1" y="1" width="12" height="12">
<path fill-rule="evenodd" clip-rule="evenodd" d="M9.7415 1.34175L12.6582 4.25841C12.8915 4.49175 12.8915 4.84175 12.6582 5.07508L5.07484 12.6584C4.95817 12.7751 4.8415 12.8334 4.6665 12.8334H1.74984C1.39984 12.8334 1.1665 12.6001 1.1665 12.2501V9.33342C1.1665 9.15842 1.22484 9.04175 1.3415 8.92508L8.92484 1.34175C9.15817 1.10841 9.50817 1.10841 9.7415 1.34175ZM2.33317 11.6668H4.43317L11.4332 4.66679L9.33317 2.56679L2.33317 9.56679V11.6668Z" fill="white"/>
</mask>
<g mask="url(#mask0)">
<g filter="url(#filter0_d)">
<rect width="14" height="14" fill="#7165E3"/>
</g>
</g>
</g>
<defs>
<filter id="filter0_d" x="-25" y="-18" width="64" height="64" filterUnits="userSpaceOnUse" color-interpolation-filters="sRGB">
<feFlood flood-opacity="0" result="BackgroundImageFix"/>
<feColorMatrix in="SourceAlpha" type="matrix" values="0 0 0 0 0 0 0 0 0 0 0 0 0 0 0 0 0 0 127 0"/>
<feOffset dy="7"/>
<feGaussianBlur stdDeviation="12.5"/>
<feColorMatrix type="matrix" values="0 0 0 0 0 0 0 0 0 0 0 0 0 0 0 0 0 0 0.1 0"/>
<feBlend mode="normal" in2="BackgroundImageFix" result="effect1_dropShadow"/>
<feBlend mode="normal" in="SourceGraphic" in2="effect1_dropShadow" result="shape"/>
</filter>
</defs>
</svg>
