<svg width="17" height="16" viewBox="0 0 17 16" fill="none" xmlns="http://www.w3.org/2000/svg">
<path fill-rule="evenodd" clip-rule="evenodd" d="M3.83301 1.33325C4.2012 1.33325 4.49967 1.63173 4.49967 1.99992V2.66659H5.16634C5.53453 2.66659 5.83301 2.96506 5.83301 3.33325C5.83301 3.70144 5.53453 3.99992 5.16634 3.99992H4.49967V4.66659C4.49967 5.03478 4.2012 5.33325 3.83301 5.33325C3.46482 5.33325 3.16634 5.03478 3.16634 4.66659V3.99992H2.49967C2.13148 3.99992 1.83301 3.70144 1.83301 3.33325C1.83301 2.96506 2.13148 2.66659 2.49967 2.66659H3.16634V1.99992C3.16634 1.63173 3.46482 1.33325 3.83301 1.33325ZM9.16634 1.33325C9.45328 1.33325 9.70804 1.51686 9.79879 1.78907L11.2222 6.05872L14.7338 7.37571C14.994 7.47329 15.1663 7.72203 15.1663 7.99992C15.1663 8.27781 14.994 8.52655 14.7338 8.62413L11.2222 9.94112L9.79879 14.2108C9.70804 14.483 9.45328 14.6666 9.16634 14.6666C8.8794 14.6666 8.62465 14.483 8.5339 14.2108L7.11047 9.94112L3.5989 8.62413C3.33871 8.52655 3.16634 8.27781 3.16634 7.99992C3.16634 7.72203 3.33871 7.47329 3.5989 7.37571L7.11047 6.05872L8.5339 1.78907C8.62465 1.51686 8.8794 1.33325 9.16634 1.33325ZM9.16634 4.10783L8.27479 6.7821C8.21117 6.97293 8.06479 7.12483 7.87645 7.19546L5.73148 7.99992L7.87645 8.80437C8.06479 8.87501 8.21117 9.02691 8.27479 9.21774L9.16634 11.892L10.0579 9.21774C10.1215 9.02691 10.2679 8.87501 10.4562 8.80437L12.6012 7.99992L10.4562 7.19546C10.2679 7.12483 10.1215 6.97293 10.0579 6.7821L9.16634 4.10783ZM4.49967 10.6666C4.86786 10.6666 5.16634 10.9651 5.16634 11.3333V11.9999H5.83301C6.2012 11.9999 6.49967 12.2984 6.49967 12.6666C6.49967 13.0348 6.2012 13.3333 5.83301 13.3333H5.16634V13.9999C5.16634 14.3681 4.86786 14.6666 4.49967 14.6666C4.13148 14.6666 3.83301 14.3681 3.83301 13.9999V13.3333H3.16634C2.79815 13.3333 2.49967 13.0348 2.49967 12.6666C2.49967 12.2984 2.79815 11.9999 3.16634 11.9999H3.83301V11.3333C3.83301 10.9651 4.13148 10.6666 4.49967 10.6666Z" fill="white"/>
</svg>
