<svg width="20" height="10" viewBox="0 0 20 10" fill="none" xmlns="http://www.w3.org/2000/svg">
<path fill-rule="evenodd" clip-rule="evenodd" d="M8.33333 9.16667C8.33333 9.66667 8 10 7.5 10H5C2.25 10 0 7.75 0 5C0 2.25 2.25 0 5 0H7.5C8 0 8.33333 0.333333 8.33333 0.833333C8.33333 1.33333 8 1.66667 7.5 1.66667H5C3.16667 1.66667 1.66667 3.16667 1.66667 5C1.66667 6.83333 3.16667 8.33333 5 8.33333H7.5C8 8.33333 8.33333 8.66667 8.33333 9.16667ZM15 0H12.5C12 0 11.6667 0.333333 11.6667 0.833333C11.6667 1.33333 12 1.66667 12.5 1.66667H15C16.8333 1.66667 18.3333 3.16667 18.3333 5C18.3333 6.83333 16.8333 8.33333 15 8.33333H12.5C12 8.33333 11.6667 8.66667 11.6667 9.16667C11.6667 9.66667 12 10 12.5 10H15C17.75 10 20 7.75 20 5C20 2.25 17.75 0 15 0ZM6.66667 5.83333C6.16667 5.83333 5.83333 5.5 5.83333 5C5.83333 4.5 6.16667 4.16667 6.66667 4.16667H13.3333C13.8333 4.16667 14.1667 4.5 14.1667 5C14.1667 5.5 13.8333 5.83333 13.3333 5.83333H6.66667Z" fill="#7165E3"/>
</svg>
