<svg width="30" height="30" viewBox="0 0 30 30" fill="none" xmlns="http://www.w3.org/2000/svg">
<path d="M1 15C1 7.26801 7.26801 1 15 1C22.732 1 29 7.26801 29 15C29 22.732 22.732 29 15 29C7.26801 29 1 22.732 1 15Z" fill="white" stroke="#0077B5"/>
<path fill-rule="evenodd" clip-rule="evenodd" d="M12.5 8.7494C12.5 9.72186 11.8244 10.5 10.7396 10.5H10.7197C9.67523 10.5 9 9.72186 9 8.7494C9 7.75636 9.6958 7 10.7601 7C11.8244 7 12.4798 7.75636 12.5 8.7494ZM11.625 11.375V21H9V11.375H11.625ZM22.9999 20.9998L23 15.6078C23 12.7193 21.586 11.375 19.7 11.375C18.1782 11.375 17.4969 12.2877 17.1165 12.9281V11.5961H14.25C14.2878 12.4785 14.25 21 14.25 21H17.1165V15.7481C17.1165 15.467 17.1351 15.1867 17.2109 14.9854C17.418 14.4239 17.8897 13.8426 18.6815 13.8426C19.7191 13.8426 20.1338 14.7049 20.1338 15.9686V20.9998H22.9999Z" fill="#0077B5"/>
</svg>
