<svg width="125" height="123" viewBox="0 0 125 123" fill="none" xmlns="http://www.w3.org/2000/svg">
<path d="M64.0793 111.721C58.6485 110.731 57.3044 99.0684 57.1339 97.4097C56.7071 93.2579 56.1781 88.1117 59.1809 83.7577C63.5211 77.4643 70.9109 79.1036 72.6742 73.8779C73.7579 70.6664 71.0909 69.6799 70.9651 63.5395C70.929 61.7772 70.7986 55.4153 75.2475 50.2726C78.4198 46.6055 82.4522 45.2557 84.5849 44.7329C85.28 42.9757 86.0883 40.3116 86.0695 37.0617C86.0394 31.8478 83.9077 29.8355 85.0138 27.0708C86.2813 23.9024 90.8 22.2479 94.2387 22.28C103.398 22.3653 108.417 34.4498 108.761 35.3093C109.649 37.5306 112.464 44.5683 109.243 49.6899C106.698 53.7361 102.375 53.425 101.716 56.7514C101.058 60.0705 105.167 61.3629 106.139 66.429C106.969 70.7548 105.143 75.9134 101.912 78.818C96.5148 83.6699 89.9085 79.7952 87.0188 83.8152C83.6546 88.4954 90.442 96.762 87.4401 99.5512C84.5907 102.199 77.1404 95.9913 73.5106 99.0832C70.8867 101.318 73.3202 105.805 69.7814 109.397C69.5694 109.612 66.9137 112.238 64.0793 111.721Z" fill="#D8DEE8"/>
<path opacity="0.5" d="M92.6058 25.0305C96.0857 25.833 97.6963 36.3147 95.8575 45.2889C94.5913 51.4683 92.7859 51.5836 88.1484 62.0442C81.8635 76.221 84.1987 78.2217 79.6289 83.1754C73.3578 89.9731 66.9262 88.4108 63.4751 94.9496C61.1393 99.3753 61.815 104.393 62.829 108.081C61.5336 106.093 59.5205 102.414 58.9592 97.4326C58.5936 94.188 57.9323 88.3198 61.3081 84.7483C65.359 80.4626 71.3258 83.6071 74.106 79.6226C75.6821 77.3637 74.2657 75.6346 73.9011 67.9202C73.5333 60.1384 73.3494 56.2476 75.4558 52.9273C79.2132 47.0045 85.9695 49.4193 88.2816 44.2808C90.6786 38.9536 84.5917 33.7483 87.7582 28.3505C88.7793 26.61 90.8886 24.6345 92.6058 25.0305Z" fill="#F4F7FA"/>
<path d="M85.4169 110.314C91.3662 109.23 92.8385 96.4539 93.0253 94.6369C93.4928 90.0887 94.0723 84.4514 90.783 79.6818C86.0284 72.7876 77.9333 74.5834 76.0016 68.859C74.8145 65.3409 77.7361 64.2602 77.874 57.5337C77.9135 55.6032 78.0563 48.6341 73.1828 43.0005C69.7076 38.9834 65.2903 37.5047 62.9541 36.932C62.1926 35.0071 61.3072 32.0887 61.3277 28.5286C61.3607 22.817 63.6959 20.6126 62.4843 17.584C61.0957 14.1132 56.1458 12.3008 52.3789 12.3359C42.345 12.4294 36.847 25.6674 36.4705 26.6089C35.4973 29.0423 32.4143 36.7517 35.9428 42.3622C38.7303 46.7946 43.4661 46.4537 44.1883 50.0977C44.9088 53.7336 40.4072 55.1493 39.3426 60.699C38.4336 65.4377 40.4336 71.0887 43.9731 74.2706C49.8855 79.5856 57.1224 75.341 60.2879 79.7448C63.9732 84.8717 56.538 93.9273 59.8264 96.9828C62.9477 99.8831 71.1092 93.0831 75.0854 96.4701C77.9597 98.9184 75.294 103.834 79.1706 107.768C79.4029 108.004 82.312 110.88 85.4169 110.314Z" fill="url(#paint0_linear)"/>
<path opacity="0.5" d="M54.1678 15.3498C50.3557 16.2289 48.5914 27.7111 50.6057 37.542C51.9927 44.3112 53.9705 44.4374 59.0506 55.8966C65.9355 71.4266 63.3773 73.6182 68.3834 79.0447C75.253 86.4913 82.2986 84.7798 86.0791 91.9427C88.6378 96.7909 87.8976 102.288 86.7868 106.327C88.2059 104.15 90.4111 100.119 91.026 94.6628C91.4265 91.1084 92.1509 84.6802 88.4529 80.7678C84.0153 76.073 77.479 79.5176 74.4334 75.1528C72.7068 72.6783 74.2585 70.7842 74.6579 62.3334C75.0608 53.8089 75.2622 49.5466 72.9548 45.9095C68.8387 39.4213 61.4375 42.0666 58.9047 36.4376C56.2789 30.6019 62.9469 24.8998 59.478 18.9867C58.3595 17.0801 56.0489 14.916 54.1678 15.3498Z" fill="#F4F7FA"/>
<path d="M61.5348 112.399C58.2855 111.841 56.4899 103.835 57.1859 97.6241C57.4551 95.2216 57.7229 92.8317 59.4711 90.6544C62.4215 86.9798 65.8315 88.5902 68.4266 85.6265C72.2586 81.25 67.4904 74.6921 71.1788 71.1341C73.8918 68.5168 77.3312 71.2362 80.5689 68.4C84.3248 65.1099 82.0369 59.4002 85.2685 57.9473C87.1457 57.1033 88.4119 58.8077 93.4949 58.4491C95.4834 58.3088 96.4777 58.2387 97.3872 57.6904C100.576 55.7681 99.0349 51.4192 101.586 48.7543C104.395 45.8208 110.478 46.6876 114.096 48.308C120.579 51.2113 123.497 58.4808 123.596 64.2628C123.617 65.5014 123.627 73.5682 117.844 77.8398C113.639 80.9459 107.985 80.8526 107.068 80.8375C103.495 80.7786 102.779 79.7415 101.511 80.4916C97.8452 82.6596 102.96 91.8354 98.2752 97.6885C96.3626 100.078 93.1041 101.555 90.214 101.687C85.5413 101.901 83.529 98.5245 81.0461 99.6833C77.8339 101.183 79.777 107.499 76.2553 109.361C73.7636 110.678 71.8493 108.013 67.6483 109.124C63.9188 110.11 63.4589 112.73 61.5348 112.399Z" fill="url(#paint1_linear)"/>
<path opacity="0.5" d="M61.7165 106.541C63.1988 106.908 63.9881 102.882 69.0474 97.5961C74.5723 91.8239 77.5424 92.5385 82.6854 87.3455C88.5567 81.4172 85.8474 79.313 90.7672 74.7226C97.4352 68.5011 103.103 71.7217 111.122 64.4377C113.527 62.2527 116.729 59.2596 116.208 55.5871C115.756 52.4028 112.564 49.1249 108.945 49.1182C108.794 49.1179 105.75 49.16 103.807 51.4995C101.424 54.3694 103.474 57.354 101.264 59.5306C100.107 60.6707 98.3021 60.8028 94.6927 61.0671C89.5014 61.4472 88.6365 60.3493 87.2164 61.2978C84.0073 63.441 87.2156 69.8532 83.9565 72.5124C81.1585 74.7953 77.1307 71.4258 74.6794 73.6136C71.721 76.2541 76.3289 82.2857 73.2802 86.6972C70.6553 90.4955 65.7476 88.1828 62.211 92.1512C58.0348 96.8374 59.5775 106.011 61.7165 106.541Z" fill="#F4F7FA"/>
<path d="M80.516 109.066C82.9839 109.238 83.3187 104.704 87.628 103.346C92.3948 101.844 95.4205 106.31 98.7413 104.603C102.473 102.686 100.371 96.1646 104.562 93.7168C107.425 92.0444 109.418 94.4966 113.019 92.9621C116.771 91.3626 120.435 86.2137 118.994 81.1642C117.792 76.9516 113.457 74.2809 109.969 74.2555C107.115 74.2347 106.304 75.9949 103.808 75.4762C100.699 74.83 100.772 71.8516 97.514 70.5104C94.2721 69.176 89.84 70.3303 87.4009 72.9782C85.3727 75.18 85.1657 77.9333 84.9852 80.3349C84.5005 86.782 87.4431 89.2656 85.8715 91.743C83.9106 94.8341 78.5385 92.214 76.0901 95.2788C73.026 99.1145 76.9664 108.818 80.516 109.066Z" fill="url(#paint2_linear)"/>
<path opacity="0.5" d="M79.3178 104.323C80.2208 104.503 80.487 101.565 83.3254 99.1121C86.5796 96.2996 89.029 97.7418 92.6699 95.5209C97.1815 92.769 95.467 89.3064 99.4835 86.5144C105.114 82.6006 112.109 86.8844 113.999 83.6892C115.103 81.8224 113.863 78.4196 111.871 77.3093C109.745 76.1243 108.239 78.3727 104.589 77.8403C101.171 77.3416 100.979 75.1484 96.7615 74.0467C94.7051 73.5097 92.004 72.8042 90.2783 74.127C86.897 76.7188 88.7324 85.9695 89.2927 88.7933C89.8081 91.3911 90.2861 92.4 89.6098 93.4579C87.8385 96.2288 81.9633 93.3691 79.2452 96.3615C76.9719 98.8642 78.1513 104.091 79.3178 104.323Z" fill="#F4F7FA"/>
<path d="M124.473 109.601L3.59375 108.571V111.619C3.59375 112.447 4.12098 113.151 4.83502 113.276L39.0161 119.279C39.4217 119.351 39.8331 119.369 40.2424 119.336L123.159 112.491C123.9 112.43 124.473 111.724 124.473 110.874V109.601Z" fill="#26264F"/>
<path d="M80.6068 104.716L4.84425 110.293C3.48854 110.393 2.38623 109.333 2.38623 107.924V51.5061C2.38623 50.0979 3.48854 48.9563 4.84425 48.9563H80.6068C81.7238 48.9563 82.6268 49.9883 82.6268 51.2613V102.262C82.6268 103.535 81.7238 104.634 80.6068 104.716Z" fill="#26264F"/>
<path d="M81.8144 104.716L6.05178 110.293C4.69603 110.393 3.59375 109.332 3.59375 107.924V51.5059C3.59375 50.0977 4.69603 48.9561 6.05178 48.9561H81.8144C82.9313 48.9561 83.8344 49.988 83.8344 51.261V102.262C83.8344 103.535 82.9313 104.634 81.8144 104.716Z" fill="url(#paint3_linear)"/>
<path d="M79.4544 101.12L8.88946 105.964C7.78621 106.04 6.88965 105.17 6.88965 104.02V54.6256C6.88965 53.476 7.78621 52.5402 8.88946 52.5354L79.4544 52.2312C80.3758 52.2272 81.1211 53.0729 81.1211 54.12V99.1093C81.1211 100.156 80.3758 101.056 79.4544 101.12Z" fill="url(#paint4_linear)"/>
<path d="M46.6096 50.4986C46.6096 51.0229 46.2197 51.4491 45.7381 51.4506C45.256 51.4521 44.8647 51.0274 44.8647 50.502C44.8647 49.9766 45.256 49.5504 45.7381 49.55C46.2197 49.5497 46.6096 49.9744 46.6096 50.4986Z" fill="white"/>
<path opacity="0.48" d="M6.05151 110.293L81.4308 104.744L81.8144 104.716C82.3269 104.678 82.7929 104.425 83.1488 104.04C77.7244 103.744 74.3552 101.819 72.1818 99.8296C67.8173 95.8352 68.5743 91.8961 63.8676 89.2698C57.9971 85.9941 53.3811 90.1448 48.9264 86.0495C46.2257 83.5666 47.5516 81.7151 44.2284 78.0048C40.5477 73.8952 38.1513 75.2766 34.4522 71.578C29.7751 66.9014 32.1143 63.2629 28.0855 59.9052C23.1979 55.8318 17.9269 59.602 13.2744 55.6955C11.2677 54.0107 10.1666 51.5611 9.59163 48.9561H6.05181C4.69607 48.9561 3.59375 50.0977 3.59375 51.5059V107.924C3.59375 109.332 4.69585 110.393 6.05151 110.293Z" fill="white"/>
<path d="M84.8341 104.406L3.59375 110.277L39.016 116.498C39.4217 116.569 39.8331 116.588 40.2424 116.554L124.473 109.601L86.1264 104.446C85.6976 104.388 85.265 104.375 84.8341 104.406Z" fill="url(#paint5_linear)"/>
<path d="M15.4492 110.327L83.0842 105.366L104.017 108.158L36.9643 113.46L15.4492 110.327Z" fill="#26264F"/>
<path d="M115.938 10.8893V47.7826C115.938 49.484 114.781 50.892 113.325 50.9268L101.198 51.2232L63.7931 52.138C62.272 52.1749 60.8557 50.9374 60.6862 49.3066C60.6727 49.1823 60.5054 49.0577 60.5054 48.9294V9.62246C60.5054 8.95894 60.8476 8.34793 61.1547 7.83912C61.1634 7.82463 61.2526 7.8127 61.2612 7.79921C61.796 6.94305 62.7375 6.39657 63.7575 6.42409L69.4316 6.57454L113.315 7.73858C114.771 7.77734 115.938 9.18698 115.938 10.8893Z" fill="white"/>
<path d="M63.7971 51.0926C62.6859 51.1185 61.7798 50.1385 61.7798 48.908V9.64926C61.7798 8.41877 62.6859 7.44067 63.7971 7.46886L113.342 8.7255C114.332 8.7506 115.135 9.71263 115.135 10.8701V47.7988C115.135 48.9563 114.332 49.9166 113.342 49.9397L63.7971 51.0926Z" fill="url(#paint6_linear)"/>
<path d="M113.344 7.73863L63.7988 6.4243C62.1628 6.3809 60.832 7.81492 60.832 9.62743V11.9816L115.975 13.0991V10.8892C115.975 9.18772 114.799 7.77723 113.344 7.73863Z" fill="#D8DEE8"/>
<path d="M66.1104 9.34238C66.1104 9.88224 65.6792 10.3103 65.1466 10.2985C64.6134 10.2866 64.1807 9.83841 64.1807 9.29738C64.1807 8.75636 64.6134 8.32834 65.1466 8.34135C65.6792 8.35435 66.1104 8.80252 66.1104 9.34238Z" fill="white"/>
<path d="M69.4787 9.42031C69.4787 9.95813 69.0507 10.3846 68.5221 10.3729C67.9929 10.3611 67.5635 9.91463 67.5635 9.37565C67.5635 8.83667 67.9929 8.41022 68.5221 8.42314C69.0507 8.43603 69.4787 8.88248 69.4787 9.42031Z" fill="white"/>
<path d="M72.8223 9.49875C72.8223 10.0346 72.3974 10.4595 71.8728 10.4478C71.3476 10.4361 70.9214 9.99138 70.9214 9.45443C70.9214 8.91748 71.3476 8.49259 71.8728 8.50541C72.3974 8.51821 72.8223 8.96294 72.8223 9.49875Z" fill="white"/>
<path d="M112.904 47.86L64.29 48.8715V17.9521L112.904 18.6174V47.86Z" fill="#D8DEE8"/>
<g opacity="0.5">
<path opacity="0.5" d="M90.2836 15.199L64.29 14.7505V16.4207L90.2836 16.8208V15.199Z" fill="white"/>
<path opacity="0.5" d="M110.096 15.5413V17.1261L112.903 17.1693V15.5897L110.096 15.5413Z" fill="white"/>
</g>
<g opacity="0.5">
<path opacity="0.5" d="M101.514 51.2227L64.1052 52.1375C62.5842 52.1744 61.1562 50.9371 60.9867 49.3063C60.9857 49.27 60.8125 49.2357 60.8125 49.1995V9.60442C60.8125 8.94873 61.1562 8.34463 61.4527 7.83849C61.4614 7.82401 61.5551 7.81219 61.5638 7.79869C62.0956 6.91896 63.049 6.35521 64.0805 6.38307L69.7243 6.53294C69.7281 6.54664 69.7435 6.5606 69.7482 6.57432C69.8534 6.91813 69.9742 7.26711 70.1011 7.62104C70.6007 9.02406 71.2706 10.4955 72.1671 11.9446C72.2218 12.034 72.2787 12.1214 72.3353 12.2089C72.9956 13.2436 73.6971 14.1374 74.4298 14.9203C75.0153 15.5468 75.621 16.1014 76.2416 16.5996C76.9688 17.1848 77.7176 17.6905 78.4801 18.1426C83.9728 21.4013 90.1414 21.8271 94.2334 28.3607C97.7404 33.9604 95.2285 36.8991 98.6203 45.4662C98.989 46.3978 99.3852 47.2877 99.8051 48.1388C100.162 48.8656 100.536 49.5643 100.925 50.2358C101.117 50.5719 101.315 50.9011 101.514 51.2227Z" fill="white"/>
</g>
<path d="M81.7195 47.5621C73.2793 46.2622 71.3999 45.3027 70.5282 43.5117C69.26 40.9059 70.1825 36.6648 72.3484 34.0552C74.2414 31.7744 76.5953 31.3307 76.5267 29.753C76.4702 28.455 74.8576 28.2809 73.6707 25.8294C73.324 25.1133 72.6504 23.722 72.9437 22.0555C73.3729 19.6173 75.5579 18.3654 75.7348 18.2676C78.0113 17.0101 79.3059 18.5131 81.0122 17.3835C83.1412 15.9741 82.1769 12.9262 84.1691 12.0878C85.6151 11.4793 87.4588 12.5275 87.939 12.8004C89.538 13.7095 89.3702 14.5962 90.7178 15.1645C92.2954 15.8299 93.0473 14.8317 94.8734 15.2678C96.3777 15.6271 97.4646 16.7372 98.3501 17.8492C100.336 20.3431 99.3494 21.7965 100.814 24.8528C102.87 29.1427 105.963 28.666 106.509 32.0855C106.795 33.8724 106.061 34.6832 106.625 37.4199C107.005 39.2667 107.484 39.5952 107.569 40.6815C107.813 43.8042 104.284 46.5839 103.624 47.0746C99.404 50.2083 93.5191 49.3795 81.7195 47.5621Z" fill="url(#paint7_linear)"/>
<path opacity="0.7" d="M95.1409 39.109C89.6168 38.7224 85.8545 43.9954 84.3571 42.7023C82.9346 41.4741 86.9439 37.2705 85.577 32.3886C84.2326 27.5868 78.9327 26.5532 79.353 23.8396C79.8282 20.7711 86.9131 20.0649 86.7474 17.8111C86.6496 16.4811 84.1523 16.1589 83.6519 14.0359C83.516 13.4593 83.5613 12.8912 83.7032 12.3618C82.3248 13.4573 82.9516 16.0992 81.0122 17.3831C79.3059 18.5127 78.0113 17.0097 75.7348 18.2672C75.5579 18.365 73.3729 19.6169 72.9437 22.0551C72.6504 23.7217 73.324 25.113 73.6707 25.8291C74.8576 28.2805 76.4702 28.4546 76.5266 29.7526C76.5953 31.3304 74.2414 31.774 72.3484 34.0548C70.1825 36.6644 69.26 40.9055 70.5282 43.5113C71.3999 45.3024 73.2793 46.2618 81.7195 47.5617C93.5191 49.3791 99.404 50.208 103.624 47.0742C105.252 45.8648 107.167 43.8145 107.577 42.0032C106.758 42.7811 105.954 43.1628 105.204 43.3105C101.697 44 100.071 39.454 95.1409 39.109Z" fill="url(#paint8_linear)"/>
<path d="M72.3058 58.9489C71.0262 55.7408 71.8065 50.6742 71.9708 49.6069C72.6118 45.4451 74.1206 42.863 74.6697 41.9462C78.4247 35.677 84.1048 35.7233 88.3657 35.758C90.4657 35.7751 92.6365 35.7279 95.2835 36.7059C95.2835 36.7059 97.3726 37.4778 99.1358 38.7645C104.386 42.5963 108.517 55.1426 104.297 59.9581C101.599 63.0363 98.8263 59.2067 86.7124 61.2584C81.8109 62.0886 76.624 63.4447 73.5321 60.7665C73.0199 60.3228 72.6171 59.7295 72.3058 58.9489Z" fill="url(#paint9_linear)"/>
<path d="M86.1334 28.2424C86.1334 28.2424 87.0315 34.9617 82.4676 36.3046C81.939 36.4601 81.7768 37.1574 82.177 37.5465L87.8016 43.0156C88.1405 43.3451 88.6743 43.3174 88.9858 42.9546L94.0256 37.0857C94.3544 36.7027 94.2105 36.0944 93.7504 35.9175C92.1373 35.2974 89.2376 33.4848 89.8471 28.5846L86.1334 28.2424Z" fill="url(#paint10_linear)"/>
<path d="M83.3355 24.4879C83.337 24.5617 84.5681 31.1394 87.717 31.1468C90.682 31.1537 91.8042 26.3546 92.1689 24.1157C92.2076 23.7348 92.2463 23.354 92.2851 22.9732C92.0844 23.0401 91.5862 23.1747 90.99 22.9991C90.8547 22.9592 89.9961 22.7063 89.677 21.9613C89.3212 21.1308 89.9751 20.4816 89.6026 19.7545C89.3865 19.3327 88.9511 19.1304 88.6184 19.0254C88.84 19.3679 89.2696 20.1314 89.0267 20.8166C88.8635 21.277 88.4065 21.715 87.3854 21.9735C84.4545 22.7154 83.3066 22.9982 83.3355 24.4879Z" fill="url(#paint11_linear)"/>
<path d="M84.109 25.2806C84.109 25.2806 82.4773 23.8314 82.3348 24.7091C82.0375 26.5397 83.4348 27.5598 84.1914 27.0173C84.947 26.4756 84.109 25.2806 84.109 25.2806Z" fill="url(#paint12_linear)"/>
<path d="M91.2413 25.3378C91.2413 25.3378 92.8452 23.9293 92.9848 24.8005C93.2757 26.6161 91.9053 27.6089 91.16 27.0614C90.4137 26.513 91.2413 25.3378 91.2413 25.3378Z" fill="url(#paint13_linear)"/>
<path d="M82.9835 45.1137C82.9835 46.0738 82.2341 46.862 81.3082 46.874C80.3806 46.8861 79.6274 46.115 79.6274 45.1516C79.6274 44.1883 80.3806 43.4001 81.3082 43.3912C82.2341 43.3823 82.9835 44.1535 82.9835 45.1137Z" fill="white"/>
<path d="M90.7665 45.0257C90.7665 45.9786 90.0285 46.7607 89.1166 46.7726C88.2032 46.7845 87.4614 46.0191 87.4614 45.0631C87.4614 44.1071 88.2032 43.325 89.1166 43.3162C90.0285 43.3075 90.7665 44.0728 90.7665 45.0257Z" fill="white"/>
<path d="M98.432 44.9387C98.432 45.8844 97.7051 46.6605 96.807 46.6722C95.9073 46.6839 95.1768 45.9243 95.1768 44.9756C95.1768 44.0268 95.9073 43.2507 96.807 43.242C97.7051 43.2334 98.432 43.993 98.432 44.9387Z" fill="white"/>
<path d="M108.26 65.0039V95.3491C108.26 96.7495 107.309 97.9565 106.104 98.0425L96.0967 98.758L96.0859 98.7596L65.4552 100.949C65.254 100.963 65.0574 100.951 64.8686 100.912C64.8332 100.906 64.7994 100.897 64.7642 100.889C64.6966 100.871 64.629 100.851 64.563 100.828C64.497 100.803 64.4325 100.777 64.368 100.747C64.2728 100.7 64.1806 100.65 64.0931 100.591C64.0348 100.553 63.978 100.512 63.9242 100.469C63.869 100.424 63.8152 100.378 63.7645 100.329C63.3576 99.9358 63.0812 99.3845 63.0152 98.7519C63.0045 98.6521 62.9614 98.5477 62.9614 98.4432V66.4181C62.9614 66.389 62.9614 66.3613 62.9629 66.3321C62.9645 66.2984 62.9676 66.2661 62.9691 66.2323C63.009 65.7671 63.178 65.3325 63.3975 64.9578C63.4037 64.9456 63.4297 64.9348 63.4375 64.9241C63.7892 64.3401 64.3431 63.9121 64.9804 63.7587C65.0551 63.74 65.131 63.725 65.2079 63.7141C65.2862 63.7018 65.3645 63.7041 65.4444 63.701L70.0541 63.5789H70.0571L80.0059 63.2864L106.101 62.5375C106.128 62.5375 106.154 62.5338 106.182 62.5369C106.214 62.5369 106.247 62.5358 106.279 62.5389C106.31 62.5404 106.342 62.543 106.373 62.546C107.446 62.6719 108.26 63.711 108.26 65.0039Z" fill="white"/>
<path d="M65.4535 100.098C64.5494 100.161 63.8125 99.3977 63.8125 98.3952V66.4104C63.8125 65.4079 64.5494 64.5706 65.4535 64.5439L106.127 63.3455C106.947 63.3214 107.612 64.0763 107.612 65.0283V95.4025C107.612 96.3545 106.947 97.1759 106.127 97.2336L65.4535 100.098Z" fill="url(#paint14_linear)"/>
<path d="M106.127 62.534L65.4534 63.6925C64.1225 63.7304 63.0405 64.9581 63.0405 66.4346V68.3523L108.307 66.8242V65.0062C108.307 63.6065 107.332 62.4996 106.127 62.534Z" fill="#D8DEE8"/>
<path d="M67.3357 65.9679C67.3357 66.4081 66.9845 66.7762 66.5509 66.7901C66.1168 66.8041 65.7646 66.4579 65.7646 66.0169C65.7646 65.576 66.1168 65.2078 66.5509 65.1947C66.9845 65.1816 67.3357 65.5278 67.3357 65.9679Z" fill="white"/>
<path d="M70.0811 65.8823C70.0811 66.3211 69.7321 66.688 69.3013 66.7018C68.87 66.7157 68.52 66.3706 68.52 65.931C68.52 65.4914 68.87 65.1245 69.3013 65.1114C69.7321 65.0984 70.0811 65.4435 70.0811 65.8823Z" fill="white"/>
<path d="M72.809 65.7974C72.809 66.2348 72.4623 66.6005 72.0341 66.6143C71.6055 66.628 71.2578 66.284 71.2578 65.8458C71.2578 65.4076 71.6055 65.0419 72.0341 65.0289C72.4623 65.016 72.809 65.36 72.809 65.7974Z" fill="white"/>
<path d="M105.764 95.541L65.855 98.2685V73.0667L105.764 71.4983V95.541Z" fill="#D8DEE8"/>
<g opacity="0.5">
<path opacity="0.5" d="M87.1076 69.6858L65.8545 70.4571V71.8185L87.1076 71.0138V69.6858Z" fill="white"/>
<path opacity="0.5" d="M103.44 69.0929V70.3952L105.763 70.3073V69.0085L103.44 69.0929Z" fill="white"/>
</g>
<g opacity="0.5">
<path opacity="0.5" d="M96.0978 98.7604L65.4547 100.948C65.2535 100.962 65.0569 100.95 64.8681 100.912C64.8327 100.905 64.7989 100.896 64.7637 100.889C64.6961 100.87 64.6285 100.85 64.5625 100.827C64.4965 100.803 64.432 100.777 64.3675 100.746C64.2723 100.7 64.1801 100.649 64.0926 100.591C64.0343 100.552 63.9775 100.511 63.9237 100.468C63.8685 100.423 63.8147 100.377 63.764 100.328C63.3555 99.9366 63.0761 99.3853 63.0101 98.7527C63.0101 98.7235 62.9609 98.6928 62.9609 98.6636V66.4174C62.9609 66.3882 62.9609 66.3606 62.9624 66.3314C62.964 66.2976 62.9671 66.2654 62.9686 66.2316C63.0055 65.7663 63.1759 65.3333 63.3894 64.9571C63.3955 64.9448 63.4263 64.9341 63.4323 64.9233C63.8654 64.1832 64.6178 63.6826 65.4562 63.658L70.0267 63.5291C70.0298 63.5398 70.0244 63.5506 70.0244 63.5613V63.5628C70.178 63.8392 70.2217 64.1172 70.3246 64.3997C70.7315 65.5222 71.2847 66.6938 72.0172 67.8362C72.0617 67.9069 72.1118 67.976 72.1578 68.0451C72.6968 68.8604 73.27 69.5591 73.8689 70.1656C74.3465 70.6524 74.8435 71.0793 75.3502 71.4586C75.9444 71.9054 76.5561 72.2862 77.1795 72.621C77.1795 72.6225 77.1813 72.6225 77.1813 72.6225C78.1057 73.1215 79.0532 73.5208 80.0053 73.8862C83.6859 75.2989 87.4296 76.1972 90.1015 80.3094C92.652 84.2342 91.3346 86.6527 92.9192 91.9103C93.0851 92.4601 93.2816 93.042 93.5196 93.6593C93.581 93.8206 93.6455 93.9848 93.7131 94.1522C94.0156 94.9016 94.3427 95.6156 94.6882 96.2974C94.983 96.8793 95.2916 97.4383 95.611 97.9742C95.7707 98.2414 95.9319 98.5024 96.0963 98.7573C96.0963 98.7588 96.0978 98.7588 96.0978 98.7604Z" fill="white"/>
</g>
<path d="M70.9578 105.388C69.7266 102.179 71.4635 96.6744 72.5547 94.1675C75.7219 86.8911 81.4909 86.3539 86.1726 85.9179C90.73 85.4935 95.0909 85.0874 98.2588 90.2455C100.318 93.5977 102.203 99.8356 100.946 103.305C99.6212 106.964 95.923 104.46 87.0176 105.036C77.0394 105.681 72.4911 109.384 70.9578 105.388Z" fill="url(#paint15_linear)"/>
<path d="M90.4759 86.4324C90.4759 87.3124 88.42 88.4795 85.8724 88.6171C83.3121 88.7553 81.2271 87.8023 81.2271 86.9143C81.2271 86.0262 83.3121 86.3156 85.8724 86.1834C88.42 86.0519 90.4759 85.5523 90.4759 86.4324Z" fill="url(#paint16_linear)"/>
<path d="M84.1694 80.5848C83.4635 80.6174 85.0916 85.6966 82.5251 86.5372C82.2761 86.6187 82.2353 86.9684 82.4617 87.0841C83.152 87.4366 84.4425 87.8603 86.552 87.748C87.9177 87.6754 88.9143 87.085 89.4312 86.6951C89.6078 86.5619 89.5902 86.2865 89.4011 86.1944C88.6179 85.8128 87.5287 84.5244 87.8539 80.5466L84.1694 80.5848Z" fill="url(#paint17_linear)"/>
<path d="M82.0215 74.4859C82.0321 74.5503 82.2463 79.2594 83.2833 81.5668C83.5805 82.2282 85.0525 82.0772 86.0029 81.9509C86.8269 81.8414 88.116 82.0935 88.4785 81.484C89.9331 79.038 89.6868 73.1592 89.6868 73.1592C89.6868 73.1592 88.9417 71.2272 85.8748 71.3948C82.7894 71.5634 82.0215 74.4859 82.0215 74.4859Z" fill="url(#paint18_linear)"/>
<path d="M82.746 76.9891C82.746 76.9891 82.0982 76.2342 81.487 76.1553C80.875 76.0763 80.476 77.7387 81.3113 78.7729C82.1452 79.8054 83.1074 78.8759 83.1074 78.8759L82.746 76.9891Z" fill="url(#paint19_linear)"/>
<path d="M89.0164 76.7226C89.0164 76.7226 89.6555 75.9188 90.257 75.7902C90.8578 75.6618 91.2488 77.274 90.4297 78.37C89.6092 79.4678 88.6592 78.6296 88.6592 78.6296L89.0164 76.7226Z" fill="url(#paint20_linear)"/>
<path d="M82.2387 76.9517C82.3203 77.1037 82.4137 77.2445 82.4769 77.2247C82.7386 77.1427 81.7284 74.5331 82.659 73.568C83.1394 73.0697 83.68 73.4855 85.6414 73.3165C87.609 73.1469 88.1112 72.637 88.7038 72.9897C89.2432 73.3106 89.7254 74.2673 89.3259 77.1739C89.4372 77.1423 89.5484 77.1107 89.6596 77.0791C89.5098 76.1389 89.6733 75.5348 89.8601 75.1508C89.9964 74.8707 90.2429 74.5068 90.2237 73.9963C90.2118 73.68 90.1115 73.6697 90.095 73.4109C90.0466 72.652 90.8752 72.4155 90.9152 71.663C90.9459 71.0838 90.4697 70.97 90.5567 70.3623C90.6308 69.8456 91.0026 69.7363 90.9438 69.3671C90.8803 68.9686 90.3821 68.6878 90.0321 68.5958C89.6748 68.502 89.5456 68.6243 89.336 68.4803C88.9972 68.2474 89.16 67.8077 88.915 67.6549C88.4784 67.3825 87.6094 68.559 87.0469 68.2924C86.706 68.1308 86.8373 67.6098 86.5355 67.4946C85.9517 67.2717 84.9186 69.0135 84.5024 68.8012C84.303 68.6995 84.4953 68.2768 84.2157 67.9798C83.8871 67.6309 83.0974 67.6579 82.737 68.0514C82.4008 68.4184 82.6863 68.8333 82.3304 69.2963C82.0105 69.7123 81.6409 69.5587 81.2794 69.896C80.6648 70.4696 80.8788 71.7104 80.9552 72.153C81.218 73.6763 82.0354 73.9542 81.852 75.0062C81.8051 75.2754 81.6959 75.5771 81.7739 76.0103C81.8503 76.4352 82.0642 76.749 82.2387 76.9517Z" fill="url(#paint21_linear)"/>
<g opacity="0.3">
<path opacity="0.3" d="M89.7258 73.35C89.6544 72.6053 90.2076 72.2363 90.1148 71.7067C90.0402 71.2813 89.5771 70.9133 89.1418 70.847C88.2119 70.7054 87.609 72.1602 86.6816 72.04C85.9633 71.9468 86.043 71.0387 85.2311 70.7043C83.9418 70.1731 82.5868 71.9865 81.7253 71.5296C81.4661 71.3921 81.2039 71.0238 81.1852 69.9988C80.69 70.6066 80.8844 71.7351 80.9564 72.1528C81.2192 73.6762 82.0367 73.954 81.8533 75.006C81.8064 75.2752 81.6972 75.5769 81.7751 76.0101C81.8516 76.4351 82.0655 76.7488 82.24 76.9515C82.3216 77.1036 82.415 77.2443 82.4782 77.2245C82.7399 77.1425 81.7297 74.533 82.6603 73.5678C83.1407 73.0695 83.6813 73.4854 85.6427 73.3163C87.6103 73.1468 88.1124 72.6369 88.7051 72.9895C89.2445 73.3104 89.7267 74.2671 89.3272 77.1737C89.4385 77.1421 89.5497 77.1105 89.6608 77.0789C89.5111 76.1387 89.6746 75.5346 89.8614 75.1506C89.9176 75.0352 89.9923 74.9052 90.0596 74.757C90.0454 74.5086 90.005 74.2369 89.9203 73.953C89.821 73.6201 89.7488 73.5896 89.7258 73.35Z" fill="url(#paint22_linear)"/>
</g>
<path d="M80.9291 93.8544C80.9291 94.6398 80.315 95.3135 79.5565 95.3592C78.7968 95.405 78.1802 94.8037 78.1802 94.0162C78.1802 93.2287 78.7968 92.5549 79.5565 92.5113C80.315 92.4677 80.9291 93.0691 80.9291 93.8544Z" fill="white"/>
<path d="M87.3172 93.4783C87.3172 94.2588 86.7108 94.9281 85.9617 94.9732C85.2115 95.0184 84.6025 94.4207 84.6025 93.6381C84.6025 92.8556 85.2115 92.1862 85.9617 92.1431C86.7108 92.1 87.3172 92.6979 87.3172 93.4783Z" fill="white"/>
<path d="M93.6255 93.107C93.6255 93.8826 93.0265 94.5475 92.2867 94.5921C91.5458 94.6367 90.9443 94.0425 90.9443 93.2648C90.9443 92.4871 91.5458 91.8221 92.2867 91.7795C93.0265 91.737 93.6255 92.3313 93.6255 93.107Z" fill="white"/>
<path d="M80.0059 63.2766V77.6907C80.0059 79.7375 78.5348 81.4712 76.7152 81.5648L65.8544 82.1268L63.8136 82.2313L62.9614 82.2758V66.4168C62.9614 66.3876 62.9614 66.36 62.9629 66.3308C62.9645 66.297 62.9676 66.2648 62.9691 66.231C63.006 65.7657 63.1764 65.3327 63.3898 64.9565C63.396 64.9442 63.4267 64.9335 63.4328 64.9227C63.8659 64.1826 64.6183 63.682 65.4567 63.6574L70.0433 63.5284C70.0464 63.5392 70.0526 63.5499 70.0571 63.5607L80.0059 63.2766Z" fill="#D8DEE8"/>
<path d="M78.3403 31.7919C78.3403 30.0027 77.2071 28.5034 75.7107 28.1495C75.6573 28.1368 75.5979 28.1258 75.5436 28.1161C75.3806 28.0871 75.2108 28.0716 75.0408 28.0706L43.6119 27.8868L12.6006 27.7054C12.5355 27.705 12.4704 27.7064 12.406 27.7094C11.5789 27.7489 10.8212 28.0708 10.2175 28.5858C10.2065 28.5952 10.1953 28.6046 10.1844 28.6141C10.0977 28.6898 10.0142 28.7693 9.9343 28.8527C9.93242 28.8547 9.9304 28.8565 9.92858 28.8585C9.88137 28.908 9.83561 28.9591 9.7909 29.0112C9.18813 29.7143 8.82031 30.6469 8.82031 31.6725V34.5341V79.4436C8.82031 79.7878 8.86184 80.1197 8.93964 80.4343C8.98627 80.6231 9.04613 80.8056 9.1179 80.9808C9.59553 82.1465 10.6056 82.9892 11.8308 83.1938C12.0792 83.2353 12.3364 83.2507 12.5999 83.2371L60.0574 80.7795L60.0574 80.7795L75.0489 80.0036C76.8636 79.9096 78.3403 78.1759 78.3403 76.1309V34.448V31.7919H78.3403Z" fill="#D8DEE8"/>
<path d="M78.4713 31.7686V76.1542C78.4713 78.2012 76.9996 79.9356 75.1806 80.0288L59.9707 80.8155L12.6084 83.2679C10.6671 83.3682 8.95521 81.9114 8.73866 79.9331C8.72142 79.7824 8.60449 31.6473 8.60449 31.6473C8.60449 30.8398 8.94153 30.0883 9.33376 29.4615C9.34486 29.4436 9.40874 29.4272 9.41979 29.4105C10.1027 28.3555 11.2797 27.6674 12.5813 27.6756L19.7997 27.7178L75.1746 28.0418C76.9937 28.0527 78.4713 29.7205 78.4713 31.7686Z" fill="white"/>
<path d="M12.6072 81.9974C11.1891 82.069 10.0322 80.9094 10.0322 79.4124V31.6496C10.0322 30.1526 11.1891 28.9399 12.6072 28.9463L75.1769 29.2296C76.4135 29.2352 77.4171 30.3728 77.4171 31.7656V76.2016C77.4171 77.5944 76.4135 78.7781 75.1769 78.8405L12.6072 81.9974Z" fill="url(#paint23_linear)"/>
<path d="M75.1771 28.0417L12.6074 27.6761C10.5193 27.6639 8.81982 29.4419 8.81982 31.6475V34.5122L78.4643 34.4261V31.7673C78.4643 29.7203 76.9955 28.0523 75.1771 28.0417Z" fill="#D8DEE8"/>
<path d="M15.5559 31.1653C15.5559 31.8215 15.0062 32.353 14.3271 32.3523C13.6472 32.3516 13.0952 31.8178 13.0952 31.1599C13.0952 30.502 13.6472 29.9706 14.3271 29.9729C15.0062 29.9752 15.5559 30.5091 15.5559 31.1653Z" fill="white"/>
<path d="M19.8465 31.1749C19.8465 31.8282 19.3016 32.3572 18.6287 32.3566C17.9547 32.3559 17.4077 31.8244 17.4077 31.1695C17.4077 30.5145 17.9547 29.9855 18.6287 29.9878C19.3016 29.9901 19.8465 30.5216 19.8465 31.1749Z" fill="white"/>
<path d="M24.1002 31.1842C24.1002 31.8346 23.5602 32.3613 22.8932 32.3607C22.2253 32.36 21.6831 31.8309 21.6831 31.1789C21.6831 30.5268 22.2253 30.0001 22.8932 30.0024C23.5602 30.0048 24.1002 30.5339 24.1002 31.1842Z" fill="white"/>
<path d="M74.6281 76.3522L13.2354 79.2787V41.6814L74.6281 41.1487V76.3522Z" fill="#D8DEE8"/>
<g opacity="0.5">
<path opacity="0.5" d="M46.2144 37.634L13.2349 37.787V39.818L46.2144 39.5955V37.634Z" fill="white"/>
<path opacity="0.5" d="M71.1147 37.5197V39.4287L74.6263 39.405V37.5034L71.1147 37.5197Z" fill="white"/>
</g>
<g opacity="0.5">
<path opacity="0.5" d="M59.9689 80.8155L12.6077 83.2683C10.6664 83.3685 8.94293 81.9125 8.72638 79.9341C8.72511 79.8901 8.604 31.6265 8.604 31.6265C8.604 30.8286 8.94294 30.0855 9.3216 29.4622C9.3327 29.4443 9.40242 29.4279 9.41346 29.4112C10.0926 28.3276 11.2848 27.6182 12.6011 27.6265L19.7809 27.6689C19.7857 27.6854 19.7991 27.702 19.8051 27.7186C19.939 28.1336 20.0897 28.5545 20.2511 28.9812C20.8869 30.6726 21.7377 32.4424 22.8779 34.1786C22.9474 34.2857 23.019 34.3904 23.0909 34.4951C23.9304 35.7338 24.8216 36.8001 25.7527 37.7306C26.4963 38.4751 27.2653 39.1316 28.0533 39.7191C28.9763 40.4091 29.9264 41.0018 30.8935 41.529C37.8519 45.3243 45.6478 45.6646 50.8083 53.4448C55.2241 60.1025 52.0619 63.732 56.331 73.9678C56.7947 75.0799 57.2929 76.1406 57.8209 77.1535C58.2698 78.0184 58.7397 78.8486 59.2281 79.6454C59.47 80.0442 59.7184 80.4346 59.9689 80.8155Z" fill="white"/>
</g>
<path d="M37.3095 72.567C37.3095 73.9659 36.216 75.1473 34.8634 75.2058C33.5067 75.2645 32.4038 74.1719 32.4038 72.7653C32.4038 71.3587 33.5067 70.177 34.8634 70.126C36.216 70.0751 37.3095 71.1681 37.3095 72.567Z" fill="white"/>
<path d="M47.1371 72.1698C47.1371 73.5533 46.0675 74.7212 44.7445 74.7784C43.4175 74.8358 42.3389 73.7548 42.3389 72.3637C42.3389 70.9727 43.4175 69.8045 44.7445 69.7546C46.0675 69.7048 47.1371 70.7862 47.1371 72.1698Z" fill="white"/>
<path d="M56.7518 71.7812C56.7518 73.1497 55.7054 74.3043 54.411 74.3603C53.1128 74.4165 52.0576 73.3468 52.0576 71.9709C52.0576 70.5951 53.1128 69.44 54.411 69.3912C55.7054 69.3426 56.7518 70.4126 56.7518 71.7812Z" fill="white"/>
<path d="M45.4245 80.8722C28.8059 81.7426 22.8565 84.2164 20.1392 80.7026C17.6264 77.4534 19.709 65.3357 22.6947 61.8787C27.3812 56.4525 34.8204 56.0357 44.8332 55.5483C54.0796 55.0982 59.6978 54.8248 64.0918 58.6908C68.1663 62.2757 70.7518 74.8815 68.2308 78.5207C65.8803 81.9138 60.8195 80.0659 45.4245 80.8722Z" fill="url(#paint24_linear)"/>
<path d="M39.3317 55.6459L37.3907 56.1817C36.9139 56.3133 36.6961 56.868 36.962 57.2745C38.2856 59.2976 41.7752 64.3509 43.9489 64.891C46.1867 65.4471 50.3422 58.8646 51.7176 56.562C51.9549 56.1648 51.7649 55.6565 51.3307 55.5262L49.9394 55.1086C48.7984 54.7662 47.5949 54.6522 46.3961 54.7737L41.1425 55.3063C40.5321 55.3682 39.9263 55.4818 39.3317 55.6459Z" fill="url(#paint25_linear)"/>
<path d="M40.768 48.1252C40.768 48.1252 41.829 55.7306 40.3613 56.4901L44.5288 60.9319L48.7173 55.4768C48.7173 55.4768 47.1379 54.3132 47.5543 48.0322L40.768 48.1252Z" fill="url(#paint26_linear)"/>
<path d="M38.2961 37.2157C38.1444 37.4207 36.1691 47.0806 42.9744 47.9979C49.6938 48.9037 49.988 41.8573 49.9031 38.87C49.8181 35.8823 46.7555 34.801 44.9951 34.5935C43.2288 34.3853 38.8342 36.4885 38.2961 37.2157Z" fill="url(#paint27_linear)"/>
<path d="M37.9008 42.8443C37.9008 42.8443 37.5589 41.2715 36.3875 42.2636C35.2134 43.2579 37.0793 45.8497 38.6135 45.7244L37.9008 42.8443Z" fill="url(#paint28_linear)"/>
<path d="M49.697 41.6556C49.505 41.7878 48.9536 45.4514 48.9536 45.4514C48.9536 45.4514 49.9179 45.5546 50.6149 44.235C51.3111 42.9172 51.6454 40.314 49.697 41.6556Z" fill="url(#paint29_linear)"/>
<path d="M52.3143 34.6667C51.6139 33.4948 49.8407 34.0511 49.322 32.9181C48.8858 31.9653 49.9105 31.0717 49.361 30.2477C48.9009 29.5577 47.7747 29.5707 47.5743 29.573C46.048 29.5906 45.698 30.8038 44.6064 30.7734C43.2703 30.7363 43.2182 28.9062 41.4462 28.1267C39.721 27.3678 37.1896 27.9656 36.1631 29.3715C35.3637 30.4663 36.0438 31.2746 34.9952 32.6832C34.2727 33.6538 33.6333 33.6967 33.2737 34.6478C32.9358 35.5417 33.1645 36.3922 33.3433 37.0238C33.7715 38.5367 34.5691 39.2008 35.7718 40.8029C36.3097 41.5194 37.0463 42.5802 37.8057 43.9774C38.1234 44.819 38.5779 46.1209 38.9982 47.7667C39.3802 49.2626 39.357 49.5669 39.7137 50.0475C40.9415 51.702 43.7333 51.4929 44.9037 51.4052C46.2425 51.3049 47.9044 51.1805 48.7384 50.0039C49.1887 49.3687 49.1321 48.8017 49.2365 47.2822C49.3111 46.1979 49.4648 44.676 49.8142 42.8294C49.8209 42.8295 49.9696 41.9831 50.3567 40.9401C50.8399 39.6384 51.3412 39.4286 51.8853 38.0853C52.3213 37.0089 52.8839 35.6198 52.3143 34.6667ZM46.7828 44.8451C45.9568 45.0777 45.3988 44.8826 44.2759 44.8299C42.0228 44.7241 41.3084 45.7889 40.2399 45.336C39.7938 45.1469 38.7608 44.6145 38.5418 43.5747C38.4152 42.8997 38.3261 41.9768 38.4716 40.9068C38.6493 39.5998 38.8544 38.0924 39.9029 37.4225C41.4208 36.4528 43.3531 38.1038 44.7364 37.026C45.2643 36.6147 45.4764 35.9899 45.5726 35.5149C45.8789 35.6201 48.308 36.5013 49.1994 39.0982C49.7481 40.6969 49.4337 42.1277 49.1665 42.9067C48.6647 43.6729 47.8979 44.531 46.7828 44.8451Z" fill="#26264F"/>
<path d="M42.1202 46.481C42.9905 46.7401 44.2974 46.9064 45.7574 46.3339C45.9088 46.2745 46.038 46.4388 45.9117 46.5305C45.3904 46.9089 44.6281 47.3138 43.7977 47.2628C43.1105 47.2207 42.4785 46.9633 41.9911 46.6929C41.8514 46.6153 41.9619 46.4339 42.1202 46.481Z" fill="url(#paint30_linear)"/>
<path d="M36.964 72.5567C36.964 73.7198 36.0153 74.6992 34.8426 74.7443C33.6675 74.7895 32.7129 73.8796 32.7129 72.7119C32.7129 71.5442 33.6675 70.5646 34.8426 70.524C36.0153 70.4835 36.964 71.3936 36.964 72.5567Z" fill="white"/>
<path d="M46.8005 72.1976C46.8005 73.35 45.8691 74.32 44.7181 74.3643C43.5645 74.4087 42.6274 73.5069 42.6274 72.3499C42.6274 71.193 43.5645 70.2227 44.7181 70.1829C45.8691 70.1432 46.8005 71.0452 46.8005 72.1976Z" fill="white"/>
<path d="M56.4574 71.8448C56.4574 72.9867 55.5431 73.9476 54.4129 73.9911C53.2803 74.0347 52.3604 73.1408 52.3604 71.9944C52.3604 70.8481 53.2803 69.887 54.4129 69.8479C55.5431 69.8089 56.4574 70.703 56.4574 71.8448Z" fill="white"/>
<path d="M29.2093 33.0969C30.5332 31.4389 31.2956 29.4923 31.2956 27.4102C31.2956 21.3555 24.8489 16.4473 16.8966 16.4473C8.94425 16.4473 2.49756 21.3555 2.49756 27.4102C2.49756 33.4648 8.94425 38.3731 16.8966 38.3731C19.8771 38.3731 22.646 37.6836 24.9433 36.5027C26.4618 36.7618 28.8189 37.1971 30.0627 37.4286C30.429 37.4967 30.7291 37.1386 30.5979 36.7899L29.2093 33.0969Z" fill="url(#paint31_linear)"/>
<g opacity="0.3">
<path opacity="0.3" d="M24.7761 29.7303C21.5474 28.3733 17.9969 31.2378 15.7772 29.2395C13.5396 27.225 15.9568 23.2423 13.8138 20.4041C12.7919 19.0508 11.0752 18.4106 9.11129 18.1868C5.13261 20.1375 2.49756 23.5395 2.49756 27.4103C2.49756 33.465 8.94425 38.3732 16.8966 38.3732C19.8771 38.3732 22.646 37.6838 24.9433 36.5029C26.1414 36.7073 27.8612 37.0213 29.1447 37.2585C28.1979 32.3497 26.4564 30.4365 24.7761 29.7303Z" fill="url(#paint32_linear)"/>
</g>
<path d="M26.4453 23.4036C26.4453 23.7089 26.1978 23.9564 25.8925 23.9564H8.38774C8.08245 23.9564 7.83496 23.7089 7.83496 23.4036C7.83496 23.0983 8.08245 22.8508 8.38774 22.8508H25.8925C26.1978 22.8508 26.4453 23.0983 26.4453 23.4036Z" fill="white"/>
<path d="M26.4458 26.7203C26.4458 27.0256 26.1983 27.273 25.893 27.273H8.38823C8.08294 27.273 7.83545 27.0256 7.83545 26.7203C7.83545 26.415 8.08294 26.1675 8.38823 26.1675H25.893C26.1983 26.1675 26.4458 26.415 26.4458 26.7203Z" fill="white"/>
<path d="M18.1535 30.0374C18.1535 30.3427 17.9061 30.5902 17.6008 30.5902H8.38774C8.08245 30.5902 7.83496 30.3427 7.83496 30.0374C7.83496 29.7321 8.08245 29.4846 8.38774 29.4846H17.6008C17.9061 29.4846 18.1535 29.7321 18.1535 30.0374Z" fill="white"/>
<defs>
<linearGradient id="paint0_linear" x1="34.2935" y1="61.3616" x2="93.3886" y2="61.3616" gradientUnits="userSpaceOnUse">
<stop stop-color="#FFC444"/>
<stop offset="0.9964" stop-color="#F36F56"/>
</linearGradient>
<linearGradient id="paint1_linear" x1="58.5312" y1="77.8153" x2="122.425" y2="82.2218" gradientUnits="userSpaceOnUse">
<stop stop-color="#FF9085"/>
<stop offset="1" stop-color="#FB6FBB"/>
</linearGradient>
<linearGradient id="paint2_linear" x1="111.43" y1="65.976" x2="82.6332" y2="113.821" gradientUnits="userSpaceOnUse">
<stop stop-color="#FFC444"/>
<stop offset="0.9964" stop-color="#F36F56"/>
</linearGradient>
<linearGradient id="paint3_linear" x1="3.59375" y1="79.6278" x2="83.8344" y2="79.6278" gradientUnits="userSpaceOnUse">
<stop stop-color="#444B8C"/>
<stop offset="0.9964" stop-color="#26264F"/>
</linearGradient>
<linearGradient id="paint4_linear" x1="6.88965" y1="79.1" x2="81.1211" y2="79.1" gradientUnits="userSpaceOnUse">
<stop stop-color="#AA80F9"/>
<stop offset="0.9964" stop-color="#6165D7"/>
</linearGradient>
<linearGradient id="paint5_linear" x1="3.59375" y1="110.48" x2="124.473" y2="110.48" gradientUnits="userSpaceOnUse">
<stop stop-color="#444B8C"/>
<stop offset="0.9964" stop-color="#26264F"/>
</linearGradient>
<linearGradient id="paint6_linear" x1="61.7798" y1="29.2807" x2="115.135" y2="29.2807" gradientUnits="userSpaceOnUse">
<stop stop-color="white"/>
<stop offset="0.9964" stop-color="#EBEFF2"/>
</linearGradient>
<linearGradient id="paint7_linear" x1="101.59" y1="9.66786" x2="91.3433" y2="29.7341" gradientUnits="userSpaceOnUse">
<stop stop-color="#AB316D"/>
<stop offset="1" stop-color="#792D3D"/>
</linearGradient>
<linearGradient id="paint8_linear" x1="101.834" y1="9.28157" x2="91.4844" y2="29.5504" gradientUnits="userSpaceOnUse">
<stop stop-color="#AB316D"/>
<stop offset="1" stop-color="#792D3D"/>
</linearGradient>
<linearGradient id="paint9_linear" x1="91.5386" y1="74.1076" x2="86.6264" y2="38.4938" gradientUnits="userSpaceOnUse">
<stop offset="0.0036" stop-color="#E38DDD"/>
<stop offset="1" stop-color="#9571F6"/>
</linearGradient>
<linearGradient id="paint10_linear" x1="88.4077" y1="43.9403" x2="87.6887" y2="28.3379" gradientUnits="userSpaceOnUse">
<stop stop-color="#FFC444"/>
<stop offset="0.9964" stop-color="#F36F56"/>
</linearGradient>
<linearGradient id="paint11_linear" x1="87.6393" y1="30.2217" x2="87.9147" y2="19.6764" gradientUnits="userSpaceOnUse">
<stop stop-color="#FFC444"/>
<stop offset="0.9964" stop-color="#F36F56"/>
</linearGradient>
<linearGradient id="paint12_linear" x1="83.3134" y1="29.1141" x2="83.5671" y2="19.4016" gradientUnits="userSpaceOnUse">
<stop stop-color="#FFC444"/>
<stop offset="0.9964" stop-color="#F36F56"/>
</linearGradient>
<linearGradient id="paint13_linear" x1="91.8451" y1="29.3624" x2="92.0948" y2="19.8024" gradientUnits="userSpaceOnUse">
<stop stop-color="#FFC444"/>
<stop offset="0.9964" stop-color="#F36F56"/>
</linearGradient>
<linearGradient id="paint14_linear" x1="63.8125" y1="81.7232" x2="107.612" y2="81.7232" gradientUnits="userSpaceOnUse">
<stop stop-color="white"/>
<stop offset="0.9964" stop-color="#EBEFF2"/>
</linearGradient>
<linearGradient id="paint15_linear" x1="83.3814" y1="60.8102" x2="87.2635" y2="122.696" gradientUnits="userSpaceOnUse">
<stop offset="0.0036" stop-color="#F36F56"/>
<stop offset="1" stop-color="#FFC444"/>
</linearGradient>
<linearGradient id="paint16_linear" x1="85.8898" y1="89.013" x2="85.7641" y2="81.3435" gradientUnits="userSpaceOnUse">
<stop stop-color="#311944"/>
<stop offset="1" stop-color="#893976"/>
</linearGradient>
<linearGradient id="paint17_linear" x1="85.9527" y1="89.7271" x2="85.9123" y2="83.2616" gradientUnits="userSpaceOnUse">
<stop stop-color="#AB316D"/>
<stop offset="1" stop-color="#792D3D"/>
</linearGradient>
<linearGradient id="paint18_linear" x1="85.4098" y1="80.4611" x2="86.4815" y2="67.5591" gradientUnits="userSpaceOnUse">
<stop stop-color="#AB316D"/>
<stop offset="1" stop-color="#792D3D"/>
</linearGradient>
<linearGradient id="paint19_linear" x1="81.7897" y1="80.258" x2="82.8472" y2="67.5272" gradientUnits="userSpaceOnUse">
<stop stop-color="#AB316D"/>
<stop offset="1" stop-color="#792D3D"/>
</linearGradient>
<linearGradient id="paint20_linear" x1="89.5457" y1="80.6213" x2="90.6165" y2="67.7302" gradientUnits="userSpaceOnUse">
<stop stop-color="#AB316D"/>
<stop offset="1" stop-color="#792D3D"/>
</linearGradient>
<linearGradient id="paint21_linear" x1="85.136" y1="74.2906" x2="87.9953" y2="65.4229" gradientUnits="userSpaceOnUse">
<stop stop-color="#311944"/>
<stop offset="1" stop-color="#6B3976"/>
</linearGradient>
<linearGradient id="paint22_linear" x1="85.1457" y1="74.2652" x2="88.0259" y2="65.3324" gradientUnits="userSpaceOnUse">
<stop stop-color="#311944"/>
<stop offset="1" stop-color="#6B3976"/>
</linearGradient>
<linearGradient id="paint23_linear" x1="10.0322" y1="55.4734" x2="77.4171" y2="55.4734" gradientUnits="userSpaceOnUse">
<stop stop-color="white"/>
<stop offset="0.9964" stop-color="#EBEFF2"/>
</linearGradient>
<linearGradient id="paint24_linear" x1="64.2022" y1="33.1285" x2="35.5733" y2="89.4822" gradientUnits="userSpaceOnUse">
<stop stop-color="#FF9085"/>
<stop offset="1" stop-color="#FB6FBB"/>
</linearGradient>
<linearGradient id="paint25_linear" x1="43.9998" y1="74.7865" x2="44.4747" y2="48.8593" gradientUnits="userSpaceOnUse">
<stop stop-color="#311944"/>
<stop offset="0.5554" stop-color="#6F2B60"/>
<stop offset="1" stop-color="#A03976"/>
</linearGradient>
<linearGradient id="paint26_linear" x1="44.7724" y1="57.4984" x2="46.568" y2="69.1699" gradientUnits="userSpaceOnUse">
<stop stop-color="#FFC444"/>
<stop offset="0.9964" stop-color="#F36F56"/>
</linearGradient>
<linearGradient id="paint27_linear" x1="43.9219" y1="39.5782" x2="43.4711" y2="69.332" gradientUnits="userSpaceOnUse">
<stop stop-color="#FFC444"/>
<stop offset="0.9964" stop-color="#F36F56"/>
</linearGradient>
<linearGradient id="paint28_linear" x1="36.6766" y1="37.9764" x2="39.6058" y2="67.6526" gradientUnits="userSpaceOnUse">
<stop stop-color="#FFC444"/>
<stop offset="0.9964" stop-color="#F36F56"/>
</linearGradient>
<linearGradient id="paint29_linear" x1="50.1205" y1="39.6289" x2="49.6705" y2="69.3224" gradientUnits="userSpaceOnUse">
<stop stop-color="#FFC444"/>
<stop offset="0.9964" stop-color="#F36F56"/>
</linearGradient>
<linearGradient id="paint30_linear" x1="45.4114" y1="33.8593" x2="44.1242" y2="44.9727" gradientUnits="userSpaceOnUse">
<stop stop-color="#FFC444"/>
<stop offset="0.9964" stop-color="#F36F56"/>
</linearGradient>
<linearGradient id="paint31_linear" x1="2.49757" y1="27.4102" x2="31.2956" y2="27.4102" gradientUnits="userSpaceOnUse">
<stop stop-color="#AA80F9"/>
<stop offset="0.9964" stop-color="#6165D7"/>
</linearGradient>
<linearGradient id="paint32_linear" x1="6.29869" y1="19.8348" x2="31.2892" y2="52.7469" gradientUnits="userSpaceOnUse">
<stop stop-color="#AA80F9"/>
<stop offset="0.9964" stop-color="#6165D7"/>
</linearGradient>
</defs>
</svg>
