<svg width="16" height="20" viewBox="0 0 16 20" fill="none" xmlns="http://www.w3.org/2000/svg">
<path fill-rule="evenodd" clip-rule="evenodd" d="M1.47245 1.63871C1.98817 1.12298 2.68765 0.833252 3.41699 0.833252H12.5837C13.313 0.833252 14.0125 1.12298 14.5282 1.63871C15.0439 2.15443 15.3337 2.85391 15.3337 3.58325V18.2499C15.3337 18.5767 15.1597 18.8787 14.8771 19.0428C14.5945 19.2068 14.2459 19.2079 13.9622 19.0458L11.2087 17.4724L8.45512 19.0458C8.17331 19.2068 7.82734 19.2068 7.54553 19.0458L4.79199 17.4724L2.03845 19.0458C1.75474 19.2079 1.40618 19.2068 1.12356 19.0428C0.840937 18.8787 0.666992 18.5767 0.666992 18.2499V3.58325C0.666992 2.85391 0.956723 2.15443 1.47245 1.63871ZM3.41699 2.66659C3.17388 2.66659 2.94072 2.76316 2.76881 2.93507C2.5969 3.10698 2.50033 3.34014 2.50033 3.58325V16.6703L4.3372 15.6207C4.61901 15.4597 4.96497 15.4597 5.24679 15.6207L8.00032 17.1941L10.7539 15.6207C11.0357 15.4597 11.3816 15.4597 11.6635 15.6207L13.5003 16.6703V3.58325C13.5003 3.34014 13.4037 3.10698 13.2318 2.93507C13.0599 2.76316 12.8268 2.66659 12.5837 2.66659H3.41699ZM4.73639 5.81931C4.99425 5.56145 5.34399 5.41659 5.70866 5.41659C6.07333 5.41659 6.42307 5.56145 6.68093 5.81931C6.93879 6.07718 7.08366 6.42692 7.08366 6.79159C7.08366 7.15626 6.93879 7.50599 6.68093 7.76386C6.42307 8.02172 6.07333 8.16659 5.70866 8.16659C5.34399 8.16659 4.99425 8.02172 4.73639 7.76386C4.47852 7.50599 4.33366 7.15626 4.33366 6.79159C4.33366 6.42692 4.47852 6.07718 4.73639 5.81931ZM10.1021 5.68507C10.4601 5.32709 11.0405 5.32709 11.3985 5.68507C11.7565 6.04305 11.7565 6.62345 11.3985 6.98143L5.89851 12.4814C5.54053 12.8394 4.96012 12.8394 4.60214 12.4814C4.24416 12.1235 4.24416 11.5431 4.60214 11.1851L10.1021 5.68507ZM9.31972 10.4026C9.57758 10.1448 9.92732 9.99992 10.292 9.99992C10.6567 9.99992 11.0064 10.1448 11.2643 10.4026C11.5221 10.6605 11.667 11.0102 11.667 11.3749C11.667 11.7396 11.5221 12.0893 11.2643 12.3472C11.0064 12.6051 10.6567 12.7499 10.292 12.7499C9.92732 12.7499 9.57758 12.6051 9.31972 12.3472C9.06186 12.0893 8.91699 11.7396 8.91699 11.3749C8.91699 11.0102 9.06186 10.6605 9.31972 10.4026Z" fill="#7165E3"/>
</svg>
