<svg width="18" height="18" viewBox="0 0 18 18" fill="none" xmlns="http://www.w3.org/2000/svg">
<path d="M14.4038 12.7213C14.2724 12.5881 14.2544 12.3582 14.3552 12.1995C15.1472 10.9642 15.6116 9.49356 15.6116 7.91343C15.6116 3.54891 12.1088 0 7.8067 0C3.50104 0 0 3.54891 0 7.91343C0 12.2761 3.50104 15.825 7.8067 15.825C9.48252 15.825 11.0341 15.2795 12.3086 14.3635C12.458 14.254 12.683 14.2686 12.8144 14.4L15.6044 17.2282C15.6224 17.2464 15.6422 17.2647 15.662 17.2793C15.6944 17.3066 15.8294 17.4344 15.959 17.5676L16.2902 17.9015C16.4216 18.0328 16.634 18.0328 16.7636 17.9015L17.9012 16.7483C18.0326 16.6151 18.0326 16.3998 17.903 16.2666L14.4038 12.7213ZM12.5282 11.5992C12.2708 11.9386 11.9809 12.2488 11.6605 12.5243C10.6201 13.4202 9.27552 13.9639 7.8067 13.9639C4.51446 13.9639 1.83602 11.2489 1.83602 7.91343C1.83602 4.578 4.51446 1.86113 7.8067 1.86113C11.0971 1.86113 13.7756 4.57618 13.7756 7.91343C13.7756 9.30015 13.3058 10.5774 12.5282 11.5992Z" fill="#5E6C84"/>
</svg>
