<svg width="17" height="18" viewBox="0 0 17 18" fill="none" xmlns="http://www.w3.org/2000/svg">
<path d="M9.8599 6.50953L5.70623 2.28422C5.32392 1.89476 4.70399 1.89476 4.32167 2.28422L2.24484 4.39688C1.86252 4.78534 1.86243 5.41685 2.24484 5.80531L3.6294 7.21375C4.01171 7.60321 4.01171 8.23372 3.6294 8.62218C3.24708 9.01164 2.62715 9.01164 2.24484 8.62218L0.860282 7.21375C-0.286761 6.04735 -0.286761 4.15483 0.860282 2.98844L2.93712 0.874793C4.08406 -0.291598 5.94375 -0.291598 7.09079 0.874793L11.2446 5.10109C12.3916 6.26848 12.3915 8.16001 11.2446 9.32739L9.8599 10.7358C9.47759 11.1243 8.85776 11.1243 8.47535 10.7358C8.09303 10.3464 8.09303 9.71586 8.47535 9.32739L9.8599 7.91796C10.2423 7.5295 10.2423 6.89899 9.8599 6.50953Z" fill="#B3BAC5"/>
<path d="M7.14004 7.2638C7.52235 6.87533 8.14228 6.87533 8.52459 7.2638C8.90691 7.65326 8.90691 8.28377 8.52459 8.67323L7.14004 10.0817C6.75772 10.4701 6.75762 11.1016 7.14004 11.4901L11.2937 15.7164C11.676 16.1049 12.2959 16.1049 12.6783 15.7164L14.7551 13.6028C15.1375 13.2143 15.1375 12.5838 14.7551 12.1943L13.3705 10.7859C12.9882 10.3964 12.9882 9.76591 13.3705 9.37745C13.753 8.98799 14.3728 8.98799 14.7551 9.37745L16.1398 10.7859C17.2868 11.9533 17.2867 13.8448 16.1398 15.0122L14.0628 17.1248C12.9159 18.2912 11.0562 18.2922 9.90915 17.1248L5.75548 12.8985C4.60844 11.7321 4.60844 9.83962 5.75548 8.67323L7.14004 7.2638Z" fill="#B3BAC5"/>
</svg>
