<svg width="30" height="30" viewBox="0 0 30 30" fill="none" xmlns="http://www.w3.org/2000/svg">
<path d="M15 29C22.732 29 29 22.732 29 15C29 7.26801 22.732 1 15 1C7.26801 1 1 7.26801 1 15C1 22.732 7.26801 29 15 29Z" fill="white" stroke="#611EFF"/>
<path d="M8.4668 10.7397V19.8287H11.7328V21.5333H13.516L15.2964 19.8281H17.9693L21.5335 16.421V8.46667H9.357L8.4668 10.7397ZM10.5449 9.60184H20.3456V15.8515L18.2664 17.8398H14.9993L13.2189 19.5423V17.8398H10.5449V9.60184Z" fill="#611EFF"/>
<path d="M13.8125 11.876H14.9998V15.2842H13.8125V11.876Z" fill="#611EFF"/>
<path d="M17.0781 11.876H18.266V15.2842H17.0781V11.876Z" fill="#611EFF"/>
</svg>
