<svg width="30" height="30" viewBox="0 0 30 30" fill="none" xmlns="http://www.w3.org/2000/svg">
<path d="M15 29C22.732 29 29 22.732 29 15C29 7.26801 22.732 1 15 1C7.26801 1 1 7.26801 1 15C1 22.732 7.26801 29 15 29Z" fill="white" stroke="#EF4747"/>
<g clip-path="url(#clip0)">
<path d="M21.3281 13.8175C20.8544 13.8175 20.4375 14.0169 20.1306 14.3275C19.0025 13.535 17.4812 13.025 15.7956 12.9706L16.6712 8.96688L19.4594 9.60188C19.4594 10.2944 20.0156 10.86 20.6981 10.86C21.3937 10.86 21.9531 10.2794 21.9531 9.58625C21.9531 8.89313 21.3975 8.3125 20.6987 8.3125C20.2119 8.3125 19.7919 8.61062 19.5825 9.01813L16.5031 8.32563C16.3481 8.28375 16.1962 8.39625 16.155 8.55375L15.1937 12.9675C13.5212 13.0381 12.0162 13.5475 10.8844 14.3406C10.5775 14.0169 10.1444 13.8175 9.6706 13.8175C7.9131 13.8175 7.33748 16.2106 8.94685 17.0288C8.88998 17.2819 8.86435 17.5519 8.86435 17.8213C8.86435 20.5094 11.8487 22.6875 15.5131 22.6875C19.1931 22.6875 22.1775 20.5094 22.1775 17.8213C22.1775 17.5519 22.1494 17.2694 22.08 17.0156C23.6569 16.1944 23.0762 13.8188 21.3281 13.8175ZM11.5006 17.1988C11.5006 16.4931 12.0569 15.925 12.7556 15.925C13.4381 15.925 13.995 16.4894 13.995 17.1988C13.995 17.8919 13.4387 18.4569 12.7556 18.4569C12.06 18.46 11.5006 17.8919 11.5006 17.1988ZM18.275 20.1975C17.1244 21.365 13.8775 21.365 12.7262 20.1975C12.5994 20.085 12.5994 19.8863 12.7262 19.7581C12.8369 19.6456 13.0331 19.6456 13.1437 19.7581C14.0225 20.6725 16.9375 20.6881 17.8544 19.7581C17.965 19.6456 18.1612 19.6456 18.2719 19.7581C18.4012 19.8869 18.4012 20.0856 18.275 20.1975ZM18.2494 18.4594C17.5669 18.4594 17.0106 17.895 17.0106 17.2025C17.0106 16.4969 17.5669 15.9288 18.2494 15.9288C18.945 15.9288 19.5044 16.4931 19.5044 17.2025C19.5012 17.8919 18.945 18.4594 18.2494 18.4594Z" fill="#EF4747"/>
</g>
<defs>
<clipPath id="clip0">
<rect width="15" height="15" fill="white" transform="translate(8 8)"/>
</clipPath>
</defs>
</svg>
