<svg width="30" height="30" viewBox="0 0 30 30" fill="none" xmlns="http://www.w3.org/2000/svg">
<path d="M15 29C22.732 29 29 22.732 29 15C29 7.26801 22.732 1 15 1C7.26801 1 1 7.26801 1 15C1 22.732 7.26801 29 15 29Z" fill="white" stroke="#35ACE0"/>
<path d="M11.625 20.1875C11.1694 20.1875 11.2468 20.0137 11.0897 19.5753L9.75 15.1198L20.0625 8.9375" fill="#F1F1F1"/>
<path d="M11.625 20.1875C12.0085 20.1875 12.178 20.0193 12.392 19.8198L14.4375 17.9127L11.8861 16.4375" fill="#1F97C9"/>
<path d="M11.8763 16.6617L17.4353 20.9462C18.0696 21.3114 18.5274 21.1223 18.6854 20.3318L20.9482 9.20785C21.1799 8.23888 20.5942 7.79941 19.9873 8.08683L6.70036 13.4317C5.79341 13.8112 5.79869 14.3391 6.53505 14.5743L9.94478 15.6845L17.8387 10.4891C18.2113 10.2533 18.5533 10.3801 18.2726 10.64" fill="#4CABD4"/>
</svg>
