<svg width="21" height="14" viewBox="0 0 21 14" fill="none" xmlns="http://www.w3.org/2000/svg">
<path fill-rule="evenodd" clip-rule="evenodd" d="M2.6774 3.66658C2.6774 1.79992 4.14992 0.333252 6.02402 0.333252C7.89813 0.333252 9.37064 1.79992 9.37064 3.66658C9.37064 5.53325 7.89813 6.99992 6.02402 6.99992C4.14992 6.99992 2.6774 5.53325 2.6774 3.66658ZM12.0478 11.6666V12.9999C12.0478 13.3999 11.7801 13.6666 11.3785 13.6666C10.9769 13.6666 10.7092 13.3999 10.7092 12.9999V11.6666C10.7092 10.5333 9.83906 9.66658 8.70121 9.66658H3.34662C2.20877 9.66658 1.33865 10.5333 1.33865 11.6666V12.9999C1.33865 13.3999 1.07092 13.6666 0.669324 13.6666C0.26773 13.6666 0 13.3999 0 12.9999V11.6666C0 9.79992 1.47251 8.33325 3.34662 8.33325H8.70121C10.5753 8.33325 12.0478 9.79992 12.0478 11.6666ZM6.02408 5.66658C4.88623 5.66658 4.0161 4.79992 4.0161 3.66659C4.0161 2.53325 4.88623 1.66659 6.02408 1.66659C7.16193 1.66659 8.03205 2.53325 8.03205 3.66659C8.03205 4.79992 7.16193 5.66658 6.02408 5.66658ZM13.5203 8.46656C13.1856 8.3999 12.784 8.5999 12.7171 8.93323C12.6502 9.26656 12.851 9.66656 13.1856 9.73323C14.0558 9.93323 14.6581 10.7332 14.6581 11.6666V12.9999C14.6581 13.3999 14.9259 13.6666 15.3275 13.6666C15.7291 13.6666 15.9968 13.3999 15.9968 12.9999V11.6666C16.0637 10.1332 15.0597 8.7999 13.5203 8.46656ZM10.0399 0.933289C10.1738 0.533289 10.5084 0.333289 10.8431 0.466623C12.6503 0.866623 13.7212 2.73329 13.2527 4.59996C12.9849 5.79996 12.0479 6.66662 10.8431 6.99996H10.7092C10.3746 6.99996 10.1068 6.79996 10.0399 6.46662C9.90605 6.13329 10.1738 5.73329 10.5084 5.66662C11.2447 5.46662 11.7802 4.93329 11.981 4.19996C12.2487 3.06662 11.5794 1.99996 10.5084 1.73329C10.1738 1.66662 9.97298 1.26662 10.0399 0.933289Z" fill="#AD8AF9"/>
<path d="M20.25 5.5H18.75V4C18.75 3.55 18.45 3.25 18 3.25C17.55 3.25 17.25 3.55 17.25 4V5.5H15.75C15.3 5.5 15 5.8 15 6.25C15 6.7 15.3 7 15.75 7H17.25V8.5C17.25 8.95 17.55 9.25 18 9.25C18.45 9.25 18.75 8.95 18.75 8.5V7H20.25C20.7 7 21 6.7 21 6.25C21 5.8 20.7 5.5 20.25 5.5Z" fill="white"/>
<mask id="mask0" mask-type="alpha" maskUnits="userSpaceOnUse" x="0" y="0" width="16" height="14">
<path fill-rule="evenodd" clip-rule="evenodd" d="M2.6774 3.66658C2.6774 1.79992 4.14992 0.333252 6.02402 0.333252C7.89813 0.333252 9.37064 1.79992 9.37064 3.66658C9.37064 5.53325 7.89813 6.99992 6.02402 6.99992C4.14992 6.99992 2.6774 5.53325 2.6774 3.66658ZM12.0478 11.6666V12.9999C12.0478 13.3999 11.7801 13.6666 11.3785 13.6666C10.9769 13.6666 10.7092 13.3999 10.7092 12.9999V11.6666C10.7092 10.5333 9.83906 9.66658 8.70121 9.66658H3.34662C2.20877 9.66658 1.33865 10.5333 1.33865 11.6666V12.9999C1.33865 13.3999 1.07092 13.6666 0.669324 13.6666C0.26773 13.6666 0 13.3999 0 12.9999V11.6666C0 9.79992 1.47251 8.33325 3.34662 8.33325H8.70121C10.5753 8.33325 12.0478 9.79992 12.0478 11.6666ZM6.02408 5.66658C4.88623 5.66658 4.0161 4.79992 4.0161 3.66659C4.0161 2.53325 4.88623 1.66659 6.02408 1.66659C7.16193 1.66659 8.03205 2.53325 8.03205 3.66659C8.03205 4.79992 7.16193 5.66658 6.02408 5.66658ZM13.5203 8.46656C13.1856 8.3999 12.784 8.5999 12.7171 8.93323C12.6502 9.26656 12.851 9.66656 13.1856 9.73323C14.0558 9.93323 14.6581 10.7332 14.6581 11.6666V12.9999C14.6581 13.3999 14.9259 13.6666 15.3275 13.6666C15.7291 13.6666 15.9968 13.3999 15.9968 12.9999V11.6666C16.0637 10.1332 15.0597 8.7999 13.5203 8.46656ZM10.0399 0.933289C10.1738 0.533289 10.5084 0.333289 10.8431 0.466623C12.6503 0.866623 13.7212 2.73329 13.2527 4.59996C12.9849 5.79996 12.0479 6.66662 10.8431 6.99996H10.7092C10.3746 6.99996 10.1068 6.79996 10.0399 6.46662C9.90605 6.13329 10.1738 5.73329 10.5084 5.66662C11.2447 5.46662 11.7802 4.93329 11.981 4.19996C12.2487 3.06662 11.5794 1.99996 10.5084 1.73329C10.1738 1.66662 9.97298 1.26662 10.0399 0.933289Z" fill="white"/>
</mask>
<g mask="url(#mask0)">
<rect y="-1" width="16" height="16" fill="white"/>
</g>
</svg>
