<svg width="14" height="14" viewBox="0 0 14 14" fill="none" xmlns="http://www.w3.org/2000/svg">
<g opacity="0.75">
<path fill-rule="evenodd" clip-rule="evenodd" d="M4.95833 1.16675C3.325 1.16675 2.04167 2.45008 2.04167 4.08341C2.04167 5.71675 3.325 7.00008 4.95833 7.00008C6.59167 7.00008 7.875 5.71675 7.875 4.08341C7.875 2.45008 6.59167 1.16675 4.95833 1.16675ZM9.91667 12.2501V11.0834C9.91667 9.45008 8.63333 8.16675 7 8.16675H2.91667C1.28333 8.16675 0 9.45008 0 11.0834V12.2501C0 12.6001 0.233333 12.8334 0.583333 12.8334C0.933333 12.8334 1.16667 12.6001 1.16667 12.2501V11.0834C1.16667 10.0917 1.925 9.33341 2.91667 9.33341H7C7.99167 9.33341 8.75 10.0917 8.75 11.0834V12.2501C8.75 12.6001 8.98333 12.8334 9.33333 12.8334C9.68333 12.8334 9.91667 12.6001 9.91667 12.2501ZM3.20833 4.08341C3.20833 5.07508 3.96667 5.83341 4.95833 5.83341C5.95 5.83341 6.70833 5.07508 6.70833 4.08341C6.70833 3.09175 5.95 2.33341 4.95833 2.33341C3.96667 2.33341 3.20833 3.09175 3.20833 4.08341ZM12.25 5.83341H13.4167C13.7667 5.83341 14 6.06675 14 6.41675C14 6.76675 13.7667 7.00008 13.4167 7.00008H12.25V8.16675C12.25 8.51675 12.0167 8.75008 11.6667 8.75008C11.3167 8.75008 11.0833 8.51675 11.0833 8.16675V7.00008H9.91667C9.56667 7.00008 9.33333 6.76675 9.33333 6.41675C9.33333 6.06675 9.56667 5.83341 9.91667 5.83341H11.0833V4.66675C11.0833 4.31675 11.3167 4.08341 11.6667 4.08341C12.0167 4.08341 12.25 4.31675 12.25 4.66675V5.83341Z" fill="#7165E3"/>
<mask id="mask0" mask-type="alpha" maskUnits="userSpaceOnUse" x="0" y="1" width="14" height="12">
<path fill-rule="evenodd" clip-rule="evenodd" d="M4.95833 1.16675C3.325 1.16675 2.04167 2.45008 2.04167 4.08341C2.04167 5.71675 3.325 7.00008 4.95833 7.00008C6.59167 7.00008 7.875 5.71675 7.875 4.08341C7.875 2.45008 6.59167 1.16675 4.95833 1.16675ZM9.91667 12.2501V11.0834C9.91667 9.45008 8.63333 8.16675 7 8.16675H2.91667C1.28333 8.16675 0 9.45008 0 11.0834V12.2501C0 12.6001 0.233333 12.8334 0.583333 12.8334C0.933333 12.8334 1.16667 12.6001 1.16667 12.2501V11.0834C1.16667 10.0917 1.925 9.33341 2.91667 9.33341H7C7.99167 9.33341 8.75 10.0917 8.75 11.0834V12.2501C8.75 12.6001 8.98333 12.8334 9.33333 12.8334C9.68333 12.8334 9.91667 12.6001 9.91667 12.2501ZM3.20833 4.08341C3.20833 5.07508 3.96667 5.83341 4.95833 5.83341C5.95 5.83341 6.70833 5.07508 6.70833 4.08341C6.70833 3.09175 5.95 2.33341 4.95833 2.33341C3.96667 2.33341 3.20833 3.09175 3.20833 4.08341ZM12.25 5.83341H13.4167C13.7667 5.83341 14 6.06675 14 6.41675C14 6.76675 13.7667 7.00008 13.4167 7.00008H12.25V8.16675C12.25 8.51675 12.0167 8.75008 11.6667 8.75008C11.3167 8.75008 11.0833 8.51675 11.0833 8.16675V7.00008H9.91667C9.56667 7.00008 9.33333 6.76675 9.33333 6.41675C9.33333 6.06675 9.56667 5.83341 9.91667 5.83341H11.0833V4.66675C11.0833 4.31675 11.3167 4.08341 11.6667 4.08341C12.0167 4.08341 12.25 4.31675 12.25 4.66675V5.83341Z" fill="white"/>
</mask>
<g mask="url(#mask0)">
<g filter="url(#filter0_d)">
<rect width="14" height="14" fill="#7165E3"/>
</g>
</g>
</g>
<defs>
<filter id="filter0_d" x="-25" y="-18" width="64" height="64" filterUnits="userSpaceOnUse" color-interpolation-filters="sRGB">
<feFlood flood-opacity="0" result="BackgroundImageFix"/>
<feColorMatrix in="SourceAlpha" type="matrix" values="0 0 0 0 0 0 0 0 0 0 0 0 0 0 0 0 0 0 127 0"/>
<feOffset dy="7"/>
<feGaussianBlur stdDeviation="12.5"/>
<feColorMatrix type="matrix" values="0 0 0 0 0 0 0 0 0 0 0 0 0 0 0 0 0 0 0.1 0"/>
<feBlend mode="normal" in2="BackgroundImageFix" result="effect1_dropShadow"/>
<feBlend mode="normal" in="SourceGraphic" in2="effect1_dropShadow" result="shape"/>
</filter>
</defs>
</svg>
