<svg width="14" height="14" viewBox="0 0 14 14" fill="none" xmlns="http://www.w3.org/2000/svg">
<path fill-rule="evenodd" clip-rule="evenodd" d="M2.34277 4.08341C2.34277 2.45008 3.63122 1.16675 5.27106 1.16675C6.9109 1.16675 8.19935 2.45008 8.19935 4.08341C8.19935 5.71675 6.9109 7.00008 5.27106 7.00008C3.63122 7.00008 2.34277 5.71675 2.34277 4.08341ZM10.5419 11.0834V12.2501C10.5419 12.6001 10.3076 12.8334 9.9562 12.8334C9.6048 12.8334 9.37054 12.6001 9.37054 12.2501V11.0834C9.37054 10.0917 8.60918 9.33341 7.61356 9.33341H2.92829C1.93267 9.33341 1.17132 10.0917 1.17132 11.0834V12.2501C1.17132 12.6001 0.937054 12.8334 0.585659 12.8334C0.234263 12.8334 0 12.6001 0 12.2501V11.0834C0 9.45008 1.28845 8.16675 2.92829 8.16675H7.61356C9.25341 8.16675 10.5419 9.45008 10.5419 11.0834ZM5.27113 5.83341C4.27551 5.83341 3.51415 5.07508 3.51415 4.08341C3.51415 3.09175 4.27551 2.33341 5.27113 2.33341C6.26675 2.33341 7.0281 3.09175 7.0281 4.08341C7.0281 5.07508 6.26675 5.83341 5.27113 5.83341ZM11.8302 8.28338C11.5374 8.22505 11.186 8.40005 11.1275 8.69172C11.0689 8.98339 11.2446 9.33338 11.5374 9.39172C12.2988 9.56672 12.8259 10.2667 12.8259 11.0834V12.2501C12.8259 12.6001 13.0601 12.8334 13.4115 12.8334C13.7629 12.8334 13.9972 12.6001 13.9972 12.2501V11.0834C14.0557 9.74172 13.1773 8.57505 11.8302 8.28338ZM8.78494 1.69179C8.90207 1.34179 9.1949 1.16679 9.48773 1.28346C11.069 1.63346 12.0061 3.26679 11.5961 4.90013C11.3618 5.95013 10.5419 6.70846 9.48773 7.00013H9.3706C9.07777 7.00013 8.84351 6.82513 8.78494 6.53346C8.66781 6.2418 8.90207 5.89179 9.1949 5.83346C9.83913 5.65846 10.3077 5.19179 10.4834 4.55013C10.7176 3.55846 10.132 2.62513 9.1949 2.39179C8.90207 2.33346 8.72638 1.98346 8.78494 1.69179Z" fill="#AD8AF9"/>
<mask id="mask0" mask-type="alpha" maskUnits="userSpaceOnUse" x="0" y="1" width="14" height="12">
<path fill-rule="evenodd" clip-rule="evenodd" d="M2.34277 4.08341C2.34277 2.45008 3.63122 1.16675 5.27106 1.16675C6.9109 1.16675 8.19935 2.45008 8.19935 4.08341C8.19935 5.71675 6.9109 7.00008 5.27106 7.00008C3.63122 7.00008 2.34277 5.71675 2.34277 4.08341ZM10.5419 11.0834V12.2501C10.5419 12.6001 10.3076 12.8334 9.9562 12.8334C9.6048 12.8334 9.37054 12.6001 9.37054 12.2501V11.0834C9.37054 10.0917 8.60918 9.33341 7.61356 9.33341H2.92829C1.93267 9.33341 1.17132 10.0917 1.17132 11.0834V12.2501C1.17132 12.6001 0.937054 12.8334 0.585659 12.8334C0.234263 12.8334 0 12.6001 0 12.2501V11.0834C0 9.45008 1.28845 8.16675 2.92829 8.16675H7.61356C9.25341 8.16675 10.5419 9.45008 10.5419 11.0834ZM5.27113 5.83341C4.27551 5.83341 3.51415 5.07508 3.51415 4.08341C3.51415 3.09175 4.27551 2.33341 5.27113 2.33341C6.26675 2.33341 7.0281 3.09175 7.0281 4.08341C7.0281 5.07508 6.26675 5.83341 5.27113 5.83341ZM11.8302 8.28338C11.5374 8.22505 11.186 8.40005 11.1275 8.69172C11.0689 8.98339 11.2446 9.33338 11.5374 9.39172C12.2988 9.56672 12.8259 10.2667 12.8259 11.0834V12.2501C12.8259 12.6001 13.0601 12.8334 13.4115 12.8334C13.7629 12.8334 13.9972 12.6001 13.9972 12.2501V11.0834C14.0557 9.74172 13.1773 8.57505 11.8302 8.28338ZM8.78494 1.69179C8.90207 1.34179 9.1949 1.16679 9.48773 1.28346C11.069 1.63346 12.0061 3.26679 11.5961 4.90013C11.3618 5.95013 10.5419 6.70846 9.48773 7.00013H9.3706C9.07777 7.00013 8.84351 6.82513 8.78494 6.53346C8.66781 6.2418 8.90207 5.89179 9.1949 5.83346C9.83913 5.65846 10.3077 5.19179 10.4834 4.55013C10.7176 3.55846 10.132 2.62513 9.1949 2.39179C8.90207 2.33346 8.72638 1.98346 8.78494 1.69179Z" fill="white"/>
</mask>
<g mask="url(#mask0)">
<rect width="14" height="14" fill="#959BAD"/>
</g>
</svg>
