<svg width="15" height="13" viewBox="0 0 15 13" fill="none" xmlns="http://www.w3.org/2000/svg">
<path fill-rule="evenodd" clip-rule="evenodd" d="M0.392277 3.0489C0.392414 1.41298 1.73466 0.0869751 3.39053 0.0869751H11.3057C12.9618 0.0869751 14.303 1.41311 14.3033 3.04863M14.3033 3.04863L14.3046 4.85338C14.3048 5.03825 14.2305 5.2156 14.0983 5.34637C13.966 5.47714 13.7866 5.55061 13.5994 5.55061C13.1505 5.55061 12.7908 5.90611 12.7908 6.34885C12.7908 6.79112 13.1507 7.14708 13.5994 7.14708C13.9889 7.14708 14.3046 7.45901 14.3046 7.84379V9.64654C14.3046 11.2824 12.9632 12.6087 11.3064 12.6087H3.38918C1.73295 12.6087 0.391602 11.2823 0.391602 9.64654V7.84379C0.391602 7.45901 0.707331 7.14708 1.0968 7.14708C1.54467 7.14708 1.90476 6.79132 1.90476 6.34885C1.90476 5.94166 1.58209 5.6087 1.0968 5.6087C0.909728 5.6087 0.730319 5.53526 0.598061 5.40455C0.465803 5.27384 0.391535 5.09656 0.391602 4.91174L0.392277 3.0489M3.39053 1.48041C2.51352 1.48041 1.80268 2.18269 1.80268 3.04915L1.80222 4.32286C2.66566 4.59434 3.31516 5.35678 3.31516 6.34885C3.31516 7.31724 2.6822 8.13726 1.80201 8.42781V9.64654C1.80201 10.5133 2.51244 11.2153 3.38918 11.2153H11.3064C12.1839 11.2153 12.8942 10.5131 12.8942 9.64654V8.42792C12.0136 8.13748 11.3804 7.31749 11.3804 6.34885C11.3804 5.37969 12.0135 4.56026 12.8938 4.26986L12.8929 3.04966C12.8929 2.18294 12.1825 1.48041 11.3057 1.48041H3.39053Z" fill="#7A869A"/>
<path fill-rule="evenodd" clip-rule="evenodd" d="M7.95679 3.92425L7.95714 3.92495L8.42217 4.85544L9.46375 5.00509C10.0171 5.08619 10.2425 5.75904 9.83893 6.14874L9.83811 6.14953L9.08543 6.87309L9.26335 7.89662C9.35907 8.44874 8.77254 8.85877 8.27924 8.60462L8.27762 8.60379L7.34787 8.12075L6.4165 8.60463C5.9232 8.85877 5.33663 8.44897 5.43235 7.89685L5.61033 6.87297L4.85749 6.14874C4.45387 5.75904 4.67934 5.08619 5.23266 5.00509L5.23412 5.00488L6.27355 4.85546L6.73914 3.92387L6.73975 3.92267C6.98834 3.42847 7.70691 3.42272 7.95679 3.92425ZM7.34787 5.06637L7.09899 5.56436C7.02195 5.71851 6.87309 5.82536 6.7009 5.85011L6.14622 5.92984L6.54768 6.31605C6.6725 6.43612 6.72946 6.60923 6.69997 6.77887L6.60487 7.326L7.1017 7.06788C7.25581 6.98782 7.43993 6.98782 7.59404 7.06788L8.09087 7.326L7.99577 6.77887C7.96627 6.60916 8.02328 6.436 8.14819 6.31592L8.5498 5.92984L7.99488 5.85011C7.82267 5.82537 7.6738 5.71852 7.59676 5.56436L7.34787 5.06637Z" fill="#7A869A"/>
</svg>
