<svg width="30" height="30" viewBox="0 0 30 30" fill="none" xmlns="http://www.w3.org/2000/svg">
<path d="M15 1C22.732 1 29 7.26801 29 15C29 22.732 22.732 29 15 29C7.26801 29 1 22.732 1 15C1 7.26801 7.26801 1 15 1Z" fill="white" stroke="#7F4DA0"/>
<path d="M18.5178 13.4621C18.4661 13.0224 18.3355 12.6773 18.1028 12.3719C17.8006 11.9787 17.4138 11.7437 16.8407 11.6051C16.4672 11.5127 16.3162 11.5238 16.1808 11.6511C16.0546 11.7704 16.0295 12.0089 16.1253 12.1632C16.1927 12.2751 16.2707 12.3151 16.4877 12.3584C16.7767 12.4125 16.9763 12.483 17.1578 12.5895C17.543 12.8177 17.7218 13.1758 17.7398 13.7561C17.7481 14.0286 17.7708 14.1123 17.8631 14.2088C18.0343 14.3851 18.3396 14.35 18.4695 14.1383C18.5172 14.0585 18.5245 14.0238 18.5299 13.8387C18.5335 13.7241 18.5291 13.5536 18.5178 13.4621Z" fill="#7F4DA0"/>
<path d="M20.2577 13.7491C20.157 12.4804 19.5767 11.4539 18.5524 10.7248C17.9754 10.3151 17.2805 10.03 16.5211 9.88659C16.2429 9.83522 15.7313 9.79036 15.644 9.81173C15.5615 9.8315 15.4455 9.9085 15.3942 9.97874C15.3401 10.0549 15.3299 10.2263 15.3782 10.326C15.4563 10.4927 15.5983 10.5529 15.9943 10.5876C16.6048 10.6412 17.2363 10.8356 17.7152 11.1184C18.262 11.4403 18.6989 11.8772 18.9845 12.3879C19.2313 12.8267 19.3877 13.4569 19.3908 14.0197C19.3921 14.2232 19.4295 14.3386 19.5242 14.4237C19.6672 14.5545 19.8735 14.5851 20.0542 14.5013C20.2545 14.411 20.2996 14.2489 20.2577 13.7491Z" fill="#7F4DA0"/>
<path d="M21.9331 19.1756C21.9056 19.0946 21.8412 18.9697 21.7953 18.8979C21.5059 18.4584 19.9508 17.2346 19.1744 16.8344C18.7311 16.6054 18.4026 16.5291 18.1591 16.6008C17.8973 16.6748 17.7594 16.7974 17.3207 17.3457C17.1438 17.5655 16.9624 17.7714 16.9141 17.8037C16.7947 17.887 16.5604 17.9541 16.395 17.9541C16.0114 17.9518 15.3154 17.7019 14.7802 17.3734C14.3644 17.119 13.8315 16.6633 13.4226 16.2122C12.9402 15.6824 12.6118 15.2151 12.3522 14.6877C12.0169 14.0098 11.9319 13.5957 12.072 13.2927C12.1064 13.2163 12.1524 13.1354 12.173 13.1099C12.1937 13.0868 12.4097 12.9087 12.6485 12.7143C13.1171 12.3396 13.1929 12.254 13.2802 11.9972C13.3905 11.671 13.3606 11.3379 13.1906 11.0025C13.0597 10.748 12.7175 10.1928 12.4694 9.83424C12.1409 9.36233 11.3232 8.35371 11.16 8.21718C10.866 7.97662 10.4894 7.93495 10.0736 8.09692C9.63486 8.26811 8.8125 8.93435 8.46105 9.39934C8.14406 9.82036 8.02236 10.1188 8.00396 10.512C7.98789 10.8359 8.01545 10.9701 8.18543 11.3842C9.51541 14.6321 11.5 17.2254 14.2266 19.2843C15.6508 20.36 17.1277 21.1789 18.6599 21.7388C19.5534 22.0649 19.9416 22.0811 20.3987 21.8128C20.5916 21.6971 21.0694 21.2044 21.3359 20.8458C21.7769 20.2489 21.94 19.9737 21.9859 19.7539C22.0181 19.6035 21.9928 19.3421 21.9331 19.1756Z" fill="#7F4DA0"/>
<path d="M21.1634 14.3052C21.1386 13.52 21.0146 12.8764 20.7537 12.1592C20.4961 11.4538 20.2345 10.9938 19.7395 10.3722C19.2715 9.78944 18.9075 9.45705 18.3297 9.08772C17.5236 8.57314 16.5415 8.23434 15.44 8.09451C15.0644 8.0456 14.9793 8.04952 14.8637 8.13046C14.6397 8.28379 14.6413 8.66408 14.8649 8.8134C14.9389 8.86089 15.0047 8.87804 15.3052 8.91805C15.7664 8.98127 16.0629 9.04139 16.4147 9.14054C17.794 9.5301 18.8528 10.3332 19.5583 11.5286C20.1486 12.525 20.3916 13.5228 20.3519 14.7985C20.3381 15.2298 20.3467 15.3057 20.4093 15.409C20.5293 15.6017 20.8473 15.6386 21.0112 15.4778C21.1131 15.3797 21.1325 15.3063 21.1539 14.9372C21.1642 14.7446 21.1673 14.4603 21.1634 14.3052Z" fill="#7F4DA0"/>
</svg>
