<svg width="30" height="30" viewBox="0 0 30 30" fill="none" xmlns="http://www.w3.org/2000/svg">
<path d="M1 15C1 7.26801 7.26801 1 15 1C22.732 1 29 7.26801 29 15C29 22.732 22.732 29 15 29C7.26801 29 1 22.732 1 15Z" fill="white" stroke="#627E9E"/>
<path d="M15.7847 19.8517C15.7847 19.8517 16.0734 19.8205 16.2213 19.6658C16.3567 19.524 16.352 19.2566 16.352 19.2566C16.352 19.2566 16.334 18.0075 16.9296 17.8231C17.5165 17.6418 18.2701 19.031 19.0699 19.5652C19.674 19.9691 20.1326 19.8807 20.1326 19.8807L22.2697 19.8517C22.2697 19.8517 23.3872 19.7847 22.8574 18.9289C22.8136 18.8588 22.5483 18.2956 21.2688 17.1388C19.9283 15.9279 20.1083 16.1237 21.722 14.0288C22.7048 12.7531 23.0977 11.9743 22.9748 11.6413C22.8582 11.3227 22.1351 11.4073 22.1351 11.4073L19.7296 11.4218C19.7296 11.4218 19.5511 11.3982 19.4189 11.4751C19.2898 11.5506 19.206 11.7266 19.206 11.7266C19.206 11.7266 18.8257 12.7135 18.3178 13.5533C17.2465 15.3243 16.8184 15.4181 16.6431 15.3083C16.2354 15.0515 16.3372 14.278 16.3372 13.7286C16.3372 12.0116 16.6048 11.2961 15.8167 11.1109C15.5554 11.0492 15.3629 11.0088 14.6938 11.0019C13.8353 10.9935 13.1091 11.005 12.6975 11.2008C12.4236 11.3311 12.2123 11.6222 12.3414 11.639C12.5003 11.6596 12.8602 11.7335 13.0512 11.9865C13.2977 12.3134 13.2891 13.0465 13.2891 13.0465C13.2891 13.0465 13.4307 15.0675 12.9581 15.3182C12.6341 15.4905 12.1896 15.1391 11.2341 13.532C10.745 12.7089 10.3756 11.799 10.3756 11.799C10.3756 11.799 10.3044 11.6291 10.1768 11.5376C10.0227 11.4271 9.80747 11.3928 9.80747 11.3928L7.52161 11.4073C7.52161 11.4073 7.17806 11.4165 7.05207 11.562C6.94016 11.6908 7.04346 11.9583 7.04346 11.9583C7.04346 11.9583 8.83318 16.0361 10.86 18.0914C12.7186 19.9752 14.8284 19.8517 14.8284 19.8517H15.7847Z" fill="#4C6C91"/>
</svg>
